<svg version="1.1" id="Layer_1" xmlns="http://www.w3.org/2000/svg" xmlns:xlink="http://www.w3.org/1999/xlink" x="0px" y="0px"
	 viewBox="0 0 576 378" enable-background="new 0 0 576 378" xml:space="preserve">
<g>
	<g>
		<g>
			<path d="M147.9,315.7c-0.5,0-0.7-0.6-0.3-0.9c5.8-3.7,7-7.3,7-22.4v-80c0-14.9-1.2-17.7-6.8-21.3c-0.5-0.3-0.3-1.1,0.3-1.1
				l27.6,0c0.5,0,0.7,0.7,0.3,0.9c-5.8,3.7-6.7,6.3-6.7,21.5l-0.1,90.2c0,0.3,0.2,0.5,0.4,0.5c8.4,1.2,10.5,1.4,18.6,1.4
				c13.3,0,21.7-2.7,33.4-10.7c0.5-0.3,1.1,0.2,0.9,0.7l-9.3,20.7c-0.1,0.3-0.4,0.5-0.7,0.5L147.9,315.7z"/>
			<path d="M118.3,189.9l-25.2,0c-0.5,0-0.8,0.7-0.4,1c1.5,1.2,3.6,3.4,2,5.8c-1.6,2.4-3.6,5.4-6.2,9c-0.3,0.4-0.6,0.8-0.8,1.2
				c-4.3,6-10.2,13.6-13.8,17.4c-3.8,4-8.5,9.3-12.4,13c-3.4,3.2-6.1,5-8.5,6.8c-1.3,1-2.7,1.5-3.3,2.2c-0.1,0.1-0.1,0.3-0.1,0.5
				c0.1,0.5,0.8,0.6,2.3,1.1c1.3,0.5,2.9,1,3,1c1.1,0.4,1.6,0.3,2.8-0.2c3-1.3,5.7-2.8,13.3-8.3c7.3-5.2,21.4-18.6,30.7-31
				c0.1-0.2,0.2-0.3,0.3-0.4c1.8-2.4,3.2-4.1,4.2-5.5c0.7-0.9,1.3-1.7,2-2.5c1-1.3,1.6-2,2.5-3.1c0,0,0,0,0,0
				c2.3-2.9,4.4-5.2,8.1-6.9C119.2,190.8,118.9,189.9,118.3,189.9z"/>
			<g>
				<path d="M36.6,244.4L36.6,244.4C36.6,244.5,36.6,244.4,36.6,244.4L36.6,244.4z"/>
				<g>
					<path d="M126.9,314.7c-0.7,0-2.2-1.1-6.5-4.3c-6.9-5.2-18-20.1-31.9-34.7c-6.6-7-13.2-13.4-21.6-18.8
						c-10.4-6.6-20-10-30.2-11.2v-31.8c0-14.4,1.2-19.3,6.5-22.9c0.5-0.3,0.3-1.1-0.3-1.1h-27c-0.6,0-0.8,0.8-0.3,1.1
						c5.4,3.6,6.5,8.4,6.5,22.9v77.9c0,14.5-1.2,19.4-6.6,22.9c-0.5,0.3-0.3,1.1,0.3,1.1H43c0.6,0,0.8-0.8,0.3-1.1
						c-5.4-3.6-6.5-8.4-6.5-22.9v-31.4v-7.1c0,0,1.9,0.5,2.8,0.8c7.3,2.5,13.5,6.4,17.7,10.2c6.3,5.8,11.4,9.6,22.6,22.9
						c11.2,13.3,18.9,24.3,22.3,26.4c4,2.5,6.4,2.2,19.7,2c3.6-0.1,5.2,0.1,5.2,0.1C127.7,315.7,127.6,314.7,126.9,314.7z"/>
				</g>
			</g>
			<g>
				<path d="M522.6,244.4L522.6,244.4C522.6,244.5,522.6,244.4,522.6,244.4L522.6,244.4z"/>
			</g>
			<g>
				<path d="M298.9,244.4L298.9,244.4C298.9,244.5,298.9,244.4,298.9,244.4L298.9,244.4z"/>
			</g>
			<path d="M500.4,315.6c-0.5,0-0.7-0.7-0.3-1c5.6-3.5,6.9-11.3,6.9-26.2l0-86.8c0-0.4-0.3-0.7-0.7-0.8c-4-0.3-15.7-0.1-20-0.1
				c-5.1,0-10.6,1-16.8,7.9c-0.4,0.4-1.1,0.1-1.1-0.4l0.3-17.6c0-0.3,0.3-0.6,0.6-0.6c1.7,0,6.6,0,9.2,0h69.7l7.6-0.1l3.2,0.1
				c0.3,0,0.6,0.3,0.6,0.6l0.8,17c0,0.5-0.7,0.7-1,0.2c-3.9-5.8-9.3-6.8-16.6-6.9c-4.2-0.1-20.6-0.3-20.6-0.3
				c-0.4,0-0.7,0.3-0.7,0.7l0,88.9c0,12,1.5,19.4,8.6,24.5c0.4,0.3,0.2,0.9-0.3,0.9H500.4z"/>
			<path d="M391.3,237.3l21.6,0.4c7.4,0,11.3-1,14.1-4c0.3-0.4,0.9-0.1,0.9,0.4l-7.3,16.6c0,0-0.3,0.6-0.6,0.6h-28
				c-0.4,0-0.7-0.4-0.6-0.7L391.3,237.3z"/>
			<path d="M436.8,190h-65.1c-0.5,0-0.7,0.6-0.3,0.9c5.8,3.7,7,6.3,7,21.5v76.2c0,15-1.2,22.5-6.9,26.1c-0.5,0.3-0.3,1,0.3,1h27.3
				c0.6,0,0.8-0.8,0.3-1.1c-5.5-3.7-6.6-11.2-6.6-26V253v-1.8v-13.9v-2.1v-32.6c0-0.3,0.2-0.5,0.5-0.5l27.4-0.6
				c11.6,0,16.6,1.5,22.4,6.6c0.4,0.3,0.9,0.1,0.9-0.4l-0.4-17.1c0-0.4-0.3-0.6-0.7-0.6C441.9,189.9,439.1,190,436.8,190"/>
			<g>
				<path d="M340.2,189.8h-27.9c-0.5,0-0.7,0.7-0.3,0.9c5.7,3.7,7,6.3,7,21.4v8.5c0,0,0,45,0,49.7c0,6.1-0.2,17.3-3.9,24.1
					c-4.8,8.8-15,13-25.8,12.6c-19-0.7-23.7-13.8-24.9-27.2c-1.1-11.7-0.9-22.7-0.6-56.8c0-0.7,0.1-10.7,0.1-10.7
					c0-15,1.2-17.7,6.9-21.4c0.5-0.3,0.3-1-0.3-1h-28.4c-0.6,0-0.8,0.7-0.3,1c5.5,3.7,6.9,6.4,6.9,21.4c0,0,0,9.6,0,11
					c-0.1,6.8-0.1,31.2-0.4,48c-0.6,44.3,28.1,44.7,46.3,44.7c26.3,0,38.4-12.8,38.6-47.1c0-8.1,0.3-25.6,0.5-42.2
					c0-2.6,0.1-14.6,0.1-14.6c0-14.8,1.3-17.6,6.7-21.3C341,190.6,340.8,189.8,340.2,189.8"/>
			</g>
		</g>
		<g>
			<path d="M34.8,351.6c-0.8,3.8-4,7.7-9.8,7.7c-6.6,0-9.7-4.9-9.7-10.5c0-5.6,3.2-10.5,10.1-10.5c6.9,0,8.6,4.8,9.1,6.1l-2.7,0.6
				c-0.3-0.7-0.5-1.4-1.2-2.2c-1-1.2-2.7-2.3-5.2-2.3c-2.1,0-4.2,0.8-5.5,2.5c-1.3,1.6-1.7,3.7-1.7,5.7c0,4.9,2.5,8.4,7.1,8.4
				c3,0,6-1.7,6.6-5.9L34.8,351.6z"/>
			<path d="M53.1,348.1h5.3c0.8,0,1.6,0,2.4-0.2c1.8-0.4,2.5-1.8,2.5-3.2c0-0.5-0.1-1.9-1.2-2.8c-1-0.9-2.3-0.8-3.9-0.8h-5.1V348.1z
				 M53.1,350.3v8.5h-2.6v-19.9h7.4c2.8,0,4.4,0,6,1.2c1.5,1.1,2.1,2.8,2.1,4.6c0,4.7-3.8,5.3-4.7,5.5l5.6,8.6h-3.2l-5.4-8.5H53.1z"
				/>
			<path d="M89.8,342.2l2.9,8.3h-6L89.8,342.2z M88.4,338.9l-7.6,19.9h2.8l2.2-6.1h7.6l2.2,6.1h2.8l-7.3-19.9H88.4z"/>
			<polygon points="115.9,338.9 115.9,358.8 118.6,358.8 118.6,349.4 128,349.4 128,347.1 118.6,347.1 118.6,341.2 128.7,341.2
				128.7,338.9 			"/>
			<polygon points="143.3,338.9 143.3,341.2 149.3,341.2 149.3,358.8 152,358.8 152,341.2 158,341.2 158,338.9 			"/>
			<polygon points="174.6,338.9 174.6,358.8 188.7,358.8 188.7,356.5 177.2,356.5 177.2,349.7 186.9,349.7 186.9,347.4 177.2,347.4
				177.2,341.2 188.3,341.2 188.3,338.9 			"/>
			<path d="M209.1,341.2v15.3h3.5c1.7,0,3.1-0.1,4.4-0.8c1.3-0.7,3-2.5,3-6.8c0-3.3-1-6.3-4.1-7.3c-1.1-0.3-2.3-0.3-3.7-0.3H209.1z
				 M206.3,338.9h6.2c2.8,0,5.3,0,7.6,2.5c2.4,2.6,2.5,6.1,2.5,7.5c0,1.4-0.1,5.3-2.8,7.8c-2.3,2.1-5,2.1-6.7,2.1h-6.9V338.9z"/>
			<path d="M267.1,349.5v6.9h5.9c1.4,0,1.9,0,2.5-0.2c1.7-0.4,2.3-1.6,2.3-3.2c0-2.3-1.7-3.1-1.9-3.2c-0.8-0.3-1.4-0.4-3.9-0.4
				H267.1z M267.1,341.2v6h4.1c3,0,4.4,0,5.3-1.4c0.4-0.5,0.5-1.2,0.5-1.8c0-2.9-2.7-2.9-3.8-2.9H267.1z M264.6,338.9h8.2
				c1.2,0,1.9,0,2.7,0.1c2,0.4,4.4,1.9,4.4,5c0,2.4-1.6,3.9-3.1,4.3c0.8,0.2,3.7,1.1,3.7,5c0,1-0.1,3.1-2.3,4.5c-1.6,1-2.9,1-5.9,1
				h-7.8V338.9z"/>
			<polygon points="308.1,338.9 302.7,347.3 297.5,338.9 294.3,338.9 301.4,349.7 301.4,358.8 304,358.8 304,349.7 311.2,338.9
				"/>
			<polygon points="369.4,338.9 363.3,355.2 357.1,338.9 353.7,338.9 353.7,358.8 356.3,358.8 356,342.4 362.2,358.8 364.3,358.8
				370.6,342.1 370.2,358.8 372.8,358.8 372.8,338.9 			"/>
			<path d="M396.9,342.2l2.9,8.3h-6L396.9,342.2z M395.5,338.9l-7.6,19.9h2.8l2.2-6.1h7.6l2.2,6.1h2.8l-7.3-19.9H395.5z"/>
			<g>
				<path d="M428,349.6c-2.9-0.6-7.1-1.6-7.1-5.7c0-2,1.1-3.2,1.8-3.9c1.8-1.5,4-1.7,5.3-1.7c1.4,0,3.6,0.1,5.4,1.5
					c2,1.4,2.4,3.5,2.6,4.7l-2.7,0.2c0-0.6-0.1-2.2-1.6-3.3c-1-0.7-2.3-1-3.6-1c-2.4,0-4.5,1-4.5,3.1c0,2.2,2.2,2.7,3.9,3.1l2.2,0.6
					c1.5,0.4,2.3,0.5,3.1,0.9c3,1.2,3.4,3.6,3.4,5c0,1.9-0.8,3.6-2.5,4.8c-1.9,1.3-4.2,1.4-5.4,1.4c-1.8,0-8-0.3-8.4-6.9l2.9-0.4
					c0,0.8,0.1,2.5,1.6,3.8c1.1,1,2.6,1.3,4.1,1.3c2.8,0,5-1.4,5-4c0-2.3-1.8-2.9-3.8-3.3L428,349.6z"/>
			</g>
			<polygon points="451.7,338.9 451.7,341.2 457.7,341.2 457.7,358.8 460.3,358.8 460.3,341.2 466.3,341.2 466.3,338.9 			"/>
			<polygon points="481.9,338.9 481.9,358.8 496,358.8 496,356.5 484.5,356.5 484.5,349.7 494.2,349.7 494.2,347.4 484.5,347.4
				484.5,341.2 495.7,341.2 495.7,338.9 			"/>
			<path d="M514.6,348.1h5.3c0.8,0,1.6,0,2.4-0.2c1.8-0.4,2.5-1.8,2.5-3.2c0-0.5-0.1-1.9-1.2-2.8c-1-0.9-2.3-0.8-3.9-0.8h-5.1V348.1
				z M514.6,350.3v8.5H512v-19.9h7.4c2.8,0,4.4,0,6,1.2c1.5,1.1,2.1,2.8,2.1,4.6c0,4.7-3.8,5.3-4.7,5.5l5.6,8.6h-3.2l-5.4-8.5H514.6
				z"/>
			<path d="M550.4,349.6c-2.9-0.6-7.1-1.6-7.1-5.7c0-2,1.1-3.2,1.8-3.9c1.8-1.5,4-1.7,5.3-1.7c1.4,0,3.6,0.1,5.4,1.5
				c2,1.4,2.4,3.5,2.6,4.7l-2.7,0.2c0-0.6-0.1-2.2-1.6-3.3c-1-0.7-2.3-1-3.6-1c-2.4,0-4.5,1-4.5,3.1c0,2.2,2.2,2.7,3.9,3.1l2.2,0.6
				c1.5,0.4,2.3,0.5,3.1,0.9c3,1.2,3.4,3.6,3.4,5c0,1.9-0.8,3.6-2.5,4.8c-1.9,1.3-4.2,1.4-5.4,1.4c-1.8,0-8-0.3-8.4-6.9l2.9-0.4
				c0,0.8,0.1,2.5,1.6,3.8c1.1,1,2.6,1.3,4.1,1.3c2.8,0,5-1.4,5-4c0-2.3-1.8-2.9-3.8-3.3L550.4,349.6z"/>
		</g>
	</g>
	<g>
		<path d="M302.5,129.5c0,0,2,7,8.6,6.6C311.1,136.1,310.7,128.2,302.5,129.5z"/>
		<path d="M303.8,123.6c0.2,0.4,0.4,0.9,0.7,1.3c0,0,5.1-2.1,3.4-8.2c-0.3-1-0.7-2.1-1.4-3.3C306.5,113.4,301.9,119.1,303.8,123.6z"
			/>
		<path d="M311.1,123.1c2-0.8,14.3-6.6,8.9-24.3c0,0-3,3.7-4.4,5.4c-1.8,2.1-6.1,7.1-5.1,16.9c-3.3,3.2-8,5.8-14.8,6.1
			c0,0,0.2,1.6-0.4,2.3C295.4,129.5,304.3,131.1,311.1,123.1z"/>
		<path d="M308.9,128.6c6,5.1,12.3,2,12.3,2C315.1,124.8,308.9,128.6,308.9,128.6z"/>
		<path d="M309.6,125.6c-0.6,0.5-2,1.7-2,1.7c0.3,0.2,0.6,0.3,0.9,0.4c0.1,0,7.5-3.6,12.9,2.2c3.5-0.4,5.5-1.6,5.5-1.6
			C317.2,119.9,309.6,125.6,309.6,125.6z"/>
		<path d="M331.8,109.6c-5.3,3.4-9.6,8.6-12.8,8.8c0,0-0.3,0.4-0.8,0.9c2.2-0.2,8.8-1.3,13.9-6c0,0-4.1,7.3-15.5,7.5
			c-0.5,0.4-1.1,0.8-1.6,1c0,0,6.9,3.3,15.2-0.8c8.3-4.1,7.1-8.6,13.9-10.3C344.2,110.8,337.1,106.2,331.8,109.6z"/>
		<path d="M335,87.6C335,87.6,334.9,87.7,335,87.6c-0.5,0.5-3.4,3.7-5.1,5.2c-2,1.8-6.3,6-6.2,12.8c0,0.5,0,0.9,0,1.4
			c-0.2,1.2-0.2,2-0.2,2.2c0,0,0,0,0,0c-0.8,4.5-2.9,6.8-2.9,6.8S343.5,105.9,335,87.6z"/>
		<path d="M344.6,87.3c-7.4,3.7-5,9.4-8.3,16.7c2.3-2.1,8.2-7.8,10.4-12.2c0.5-1.2,0.7-2,0.7-2c-0.1,0.6-0.4,1.3-0.7,2
			c-1.4,3.5-4.7,10.7-9.7,14.4l0,0c0,0,5.7-1.3,9.3-5.1c3.6-3.8,4.4-6.7,5.7-19.3C352.1,81.7,350.3,84.3,344.6,87.3z"/>
		<path d="M343.4,66.7c-5.4,6.2-3.1,14.2-5.1,18.8c6.3-7.6,7.3-12.4,7.4-13.3c-1.2,9.6-4.7,14.2-6.8,16.3c0,0,8-2.5,10.8-10.6
			c1.1-3.1,1.3-7.2-0.2-10.8c-1.6-4-0.4-7.3-0.4-9.5C349.1,57.6,346.1,63.7,343.4,66.7z"/>
		<path d="M323.1,78.1c0,0,1.6,4.4,0.9,8.3c-0.6,3.3-6,10.7-0.9,16c0,0,0.1-2.7,3-6.5c-0.8-2.7-0.1-6-0.1-6c-0.2,1.1,1,3,1.7,4
			c0.5-0.6,1.1-1.1,1.7-1.7c0,0-0.1-2.2,0.7-4.1C330.2,88.1,326.4,80.2,323.1,78.1z"/>
		<path d="M339,59.7c-2.7-7.5-7.7-6.1-10.8-12.8c0,0-1.2,9.9,0.7,17c1.9,7.2,8.6,10.9,5.7,21.7l1,1.4c0,0,2.5-2.4,2.6-10.3
			C338.3,71,342,68,339,59.7z"/>
		<path d="M333,86.4c1-4.2,2.1-11.9-2.5-16.3c-3.4-3.3-7.9-5.7-9.9-10.6c0,0-1.6,7.9,1.4,12.5c2.3,3.7,7.1,7.9,8.7,13.1l0,0
			c0.8-4.1-0.1-7.9-2.5-10.4c-2.4-2.5-2.9-4.1-2.9-4.1c0.6,1.2,1.3,1.1,4.8,4.6c2.7,2.6,2.9,7.6,2.9,10C333,86,333,86.4,333,86.4z"
			/>
		<path d="M304,26.9c1.8,2.9,4.1,10.4,13,11.7c0,0,0.2,0,0.5,0.1l0,0c3.8,0.2,9.7,10,9.7,9.7c0-0.3,1-0.9-0.3-2.8
			c-1.2-1.8-6.7-10.5-6.7-10.5v0c-0.5-3.4-2.8-9.9-11.7-12.5c-11.2-3.3-11.7-2.2-11.7-2.2S302.2,24,304,26.9z M314.9,36.5
			c0.7,0.3,1.4,0.5,2,0.7C316.3,37,315.6,36.8,314.9,36.5z M318.3,37.6c-0.2,0-0.4-0.1-0.6-0.1C317.9,37.5,318.1,37.5,318.3,37.6
			L318.3,37.6z M318.7,37c-3-5.1-9.6-10.4-10.9-11.4C309.1,26.6,315.8,31.9,318.7,37L318.7,37z"/>
		<path d="M334.2,46c0,0-0.4,1.2,0.8,2.7c1.2,1.6,5.4,8.2,5.1,11.9c3.3-10-1.7-17.3-1.7-17.3c8.7,7.6,2.7,19.8,2.7,19.8
			s7.1-8.6,4.5-17c-1.8-5.7-8.6-7.8-11.5-14.2C334.1,31.8,335,42.3,334.2,46z"/>
		<path d="M330.4,47.4L330.4,47.4c-1.3-11.2-5.9-15.8-5.9-15.8c6,3.3,8,15.9,8,15.9c0.6-4.2,1.2-12.1-1.8-16.3
			c-3.7-5.2-7.7-4.3-11-9.6c0,0-0.8,9.4,2.3,14.3C324.2,39.4,328.2,44.2,330.4,47.4z"/>
		<path d="M308.7,36.9c0,0,3.6,12.6,9.3,16.3c4.2,2.7,9.5,9.9,9.8,10.8l-0.2-1.5c-0.1-0.7-0.3-1.4-0.5-2.1c-2.2-7.7-10-14.6-10-14.6
			c5.8,1.8,9.6,11.1,9.6,11.1c-0.1-1.5,0-3.2,0.4-4.8C327.1,52.1,326.8,44,308.7,36.9z"/>
		<path d="M279.1,129.5c-8.1-1.4-8.6,6.6-8.6,6.6C277.1,136.5,279.1,129.5,279.1,129.5z"/>
		<path d="M273.7,116.6c-1.7,6.1,3.4,8.2,3.4,8.2c0.3-0.4,0.6-0.8,0.7-1.3c1.9-4.5-2.7-10.2-2.7-10.2
			C274.4,114.6,274,115.7,273.7,116.6z"/>
		<path d="M260.5,130.5c0,0,6.3,3.1,12.3-2C272.8,128.6,266.5,124.8,260.5,130.5z"/>
		<path d="M273,127.7c0.3-0.1,0.6-0.3,0.9-0.4c0,0-1.4-1.2-2-1.7c0,0-7.5-5.7-17.3,2.8c0,0,2,1.2,5.5,1.6
			C265.5,124.2,273,127.7,273,127.7z"/>
		<path d="M266.5,121.9c-0.5-0.2-1-0.6-1.6-1c-11.4-0.2-15.5-7.5-15.5-7.5c5.1,4.7,11.7,5.8,13.9,6c-0.5-0.5-0.8-0.9-0.8-0.9
			c-3.2-0.2-7.5-5.4-12.8-8.8c-5.3-3.4-12.4,1.2-12.4,1.2c6.8,1.6,5.6,6.2,13.9,10.3C259.6,125.1,266.5,121.9,266.5,121.9z"/>
		<path d="M261.1,116.1c0,0-2.1-2.4-2.9-6.8c0,0,0,0,0,0c0-0.2,0-1-0.2-2.2c0-0.4,0-0.9,0-1.4c0.1-6.8-4.2-11-6.2-12.8
			c-1.6-1.5-4.6-4.6-5-5.1c0,0-0.1-0.1-0.1-0.1C238.1,105.9,261.1,116.1,261.1,116.1z"/>
		<path d="M244.6,106.1c-5-3.7-8.3-10.9-9.7-14.4c-0.3-0.7-0.6-1.4-0.7-2c0,0,0.3,0.8,0.7,2c2.2,4.5,8.1,10.1,10.4,12.2
			c-3.3-7.3-1-13-8.3-16.7c-5.8-2.9-7.5-5.6-7.5-5.6c1.3,12.6,2.1,15.5,5.7,19.3C238.9,104.8,244.6,106.1,244.6,106.1L244.6,106.1z"
			/>
		<path d="M242.7,88.5c-2.1-2-5.6-6.7-6.8-16.3c0.1,0.9,1.1,5.7,7.4,13.3c-2-4.6,0.3-12.6-5.1-18.8c-2.6-3-5.7-9.1-5.7-9.1
			c0,2.2,1.1,5.5-0.4,9.5c-1.4,3.6-1.2,7.7-0.1,10.8C234.7,86,242.7,88.5,242.7,88.5z"/>
		<path d="M255.5,95.9c2.9,3.9,3,6.5,3,6.5c5.2-5.3-0.3-12.7-0.9-16c-0.7-3.9,0.9-8.3,0.9-8.3c-3.3,2.1-7.1,9.9-7.1,9.9
			c0.8,1.8,0.7,4.1,0.7,4.1c0.6,0.6,1.2,1.2,1.7,1.7c0.7-1,1.9-2.9,1.7-4C255.6,89.9,256.3,93.2,255.5,95.9z"/>
		<path d="M242.6,59.7c-2.2,6.1-0.8,9.3,0.1,12.9l0.6,2.9c0,0,0,0,0,0.1l0.1,1.2c0,1,0.1,1.9,0.2,2.8l0,0l0,0
			c0.6,5.7,2.5,7.5,2.5,7.5l1-1.4c-2.9-10.8,3.8-14.5,5.7-21.7c1.9-7.2,0.7-17,0.7-17C250.3,53.6,245.3,52.2,242.6,59.7z"/>
		<path d="M248.6,86.4c0,0,0-0.5,0-1.3c0-2.4,0.3-7.4,2.9-10c3.5-3.5,4.2-3.4,4.8-4.6c0,0-0.4,1.6-2.9,4.1
			c-2.4,2.5-3.3,6.3-2.5,10.4l0,0c1.6-5.2,6.4-9.4,8.7-13.1c2.9-4.7,1.4-12.5,1.4-12.5c-2.1,4.9-6.5,7.3-9.9,10.6
			C246.6,74.5,247.6,82.2,248.6,86.4z"/>
		<path d="M261.3,35c0,0-5.4,8.7-6.7,10.5c-1.2,1.8-0.3,2.4-0.3,2.8c0,0.3,5.8-9.5,9.7-9.7l0,0c0.3,0,0.5-0.1,0.5-0.1
			c8.8-1.3,11.1-8.8,13-11.7c1.8-2.9,7.1-6.6,7.1-6.6s-0.4-1.1-11.7,2.2C264.1,25.1,261.9,31.6,261.3,35L261.3,35z M263.3,37.6
			L263.3,37.6c1-0.2,2.2-0.5,3.5-1.1C265.5,37,264.3,37.4,263.3,37.6z M273.8,25.6c-1.3,1-7.9,6.3-10.9,11.4l0,0
			C265.9,31.9,272.5,26.6,273.8,25.6z M262.6,34.7c-0.3,0.4-0.6,0.7-0.8,1l0,0C262.1,35.4,262.3,35.1,262.6,34.7z"/>
		<path d="M243.3,43.2c0,0-5,7.3-1.7,17.3c-0.3-3.7,3.9-10.3,5.1-11.9c1.2-1.6,0.8-2.7,0.8-2.7c-0.8-3.7,0.1-14.1,0.1-14.1
			c-2.9,6.4-9.7,8.5-11.5,14.2c-2.6,8.3,4.5,17,4.5,17S234.6,50.9,243.3,43.2z"/>
		<path d="M257.1,31.6c0,0-4.7,4.6-5.9,15.8v0c2.2-3.3,6.2-8,8.4-11.5c3-4.9,2.3-14.3,2.3-14.3c-3.2,5.2-7.3,4.3-11,9.6
			c-2.9,4.2-2.4,12-1.8,16.3C249.1,47.5,251.1,34.9,257.1,31.6z"/>
		<path d="M254.5,60.4c-0.2,0.7-0.4,1.4-0.5,2.1l-0.2,1.5c0.3-0.9,5.6-8.1,9.8-10.8c5.7-3.7,9.3-16.3,9.3-16.3
			c-18.1,7.1-18.4,15.2-18.4,15.2c0.4,1.6,0.5,3.3,0.4,4.8c0,0,3.8-9.3,9.6-11.1C264.5,45.8,256.7,52.7,254.5,60.4z"/>
		<circle cx="290.9" cy="115.2" r="4.4"/>
		<circle cx="290.9" cy="127.2" r="4.4"/>
		<circle cx="283.6" cy="121.2" r="4.4"/>
		<circle cx="298.2" cy="121.2" r="4.4"/>
		<path d="M270.5,123.1c6.8,8,15.8,6.4,15.8,6.4c-0.6-0.8-0.4-2.3-0.4-2.3c-6.8-0.3-11.5-2.9-14.8-6.1c1-9.9-3.3-14.8-5.1-16.9
			c-1.4-1.6-4.4-5.4-4.4-5.4C256.2,116.6,268.5,122.3,270.5,123.1z"/>
		<path d="M286.4,130.3c0,0-8.9,1.5-13.1,8.4l2.1,5l1.6,3.7c0,0,1.7-13.7,11.9-15.5c0,0-0.8-0.1-1.7-0.8
			C286.9,130.9,286.7,130.7,286.4,130.3z"/>
		<path d="M295.2,130.3c-0.3,0.3-0.5,0.6-0.8,0.8c-0.9,0.7-1.7,0.8-1.7,0.8c10.2,1.7,11.9,15.5,11.9,15.5l1.6-3.7l2.1-5
			C304.1,131.8,295.2,130.3,295.2,130.3z"/>
	</g>
</g>
</svg>
