<?xml version="1.0" standalone="no"?>
<!DOCTYPE svg PUBLIC "-//W3C//DTD SVG 1.1//EN" "http://www.w3.org/Graphics/SVG/1.1/DTD/svg11.dtd" >
<svg xmlns="http://www.w3.org/2000/svg">
<metadata>
Created by FontPrep 20130207 at Fri Jan 16 02:11:11 2015
 By caleb
Copyright (c) Emigre Graphics, 1996. All rights reserved.
</metadata>
<defs>
<font id="7075c86f191f504553411c5f65847e4a" horiz-adv-x='1024' >
  <font-face 
    font-family="MrsEavesOT-Bold"
    font-weight="700"
    font-stretch="normal"
    units-per-em="2048"
    panose-1="2 0 8 3 8 0 0 2 0 3"
    ascent="1638"
    descent="-410"
    x-height="682"
    cap-height="1229"
    bbox="-248.2 -616 2873 1788"
    underline-thickness="51"
    underline-position="-127"
    unicode-range="U+0020-FB04"
  />
<missing-glyph horiz-adv-x="1024" 
 />
    <glyph glyph-name="f_f_b" unicode="ffb" horiz-adv-x="2433" 
d="M2087 342q0 125 -39 202t-115 77q-53 1 -94 -51t-41 -130v-198q0 -76 41 -128t105 -52t104 77q39 78 39 203zM457 592v-293q-1 -154 29 -197t132 -43v-59h-555v59q102 0 133 43q30 43 29 197v293h-168v90h168v98q0 397 334 398q102 0 168 -52t66 -108q1 -34 -19 -56
t-55 -22t-57 26t-28 56t-26 54q-20 26 -53 26q-57 0 -77 -48t-21 -171v-201h458v166q0 416 363 416h520v-607q70 59 168 60q170 0 271 -108q101 -107 101 -267t-102 -268t-260 -109q-158 0 -241 133l-109 -114h-59v905q0 163 -32 227t-130 64h-131q-76 0 -103 -56t-26 -188
v-254h207v-90h-207v-293q0 -154 30 -197t132 -43v-59h-553v59q102 0 132 43t29 197v293h-458z" />
    <glyph glyph-name="f_f_h" unicode="ffh" horiz-adv-x="2496" 
d="M915 682v166q0 416 363 416h520v-658q90 111 234 111t223 -86q80 -86 80 -219v-113q-1 -154 29 -197t133 -43v-59h-474v59q43 1 63 49t19 191v86q0 109 -27 163q-28 54 -99 54t-126 -53t-55 -150v-100q0 -150 28 -195t113 -45v-59h-534v59q102 0 132 43t30 197v590
q0 163 -32 227t-130 64h-131q-76 0 -103 -56t-26 -188v-254h207v-90h-207v-293q0 -154 30 -197t132 -43v-59h-553v59q102 0 132 43t29 197v293h-458v-293q-1 -154 29 -197t132 -43v-59h-555v59q102 0 133 43q30 43 29 197v293h-168v90h168v98q0 397 334 398q102 0 168 -52
t66 -108q1 -34 -19 -56t-55 -22t-57 26t-28 56t-26 54q-20 26 -53 26q-57 0 -77 -48t-21 -171v-201h458z" />
    <glyph glyph-name="f_f_j" unicode="ffj" horiz-adv-x="2007" 
d="M915 682v143q0 217 117 328t284 111t264 -66t97 -176q-1 -37 -27 -65q-26 -27 -69 -27t-67 39t-27 86q-4 47 -40 86t-115 39t-133 -64t-54 -190v-244h706v-842q0 -201 -83 -294t-233 -93q-150 -1 -231 63t-83 130q-2 31 16 51t53 20q64 0 83 -90q7 -33 35 -61t86 -29
q128 0 128 320v497q0 152 -30 195t-132 43h-315v-293q0 -154 30 -197t132 -43v-59h-553v59q102 0 132 43t29 197v293h-458v-293q-1 -154 29 -197t132 -43v-59h-555v59q102 0 133 43q30 43 29 197v293h-168v90h168v98q0 397 334 398q102 0 168 -52t66 -108q1 -34 -19 -56
t-55 -22t-57 26t-28 56t-26 54q-20 26 -53 26q-57 0 -77 -48t-21 -171v-201h458z" />
    <glyph glyph-name="f_f_r" unicode="ffr" horiz-adv-x="2252" 
d="M457 592v-293q-1 -154 29 -197t132 -43v-59h-555v59q102 0 133 43q30 43 29 197v293h-168v90h168v98q0 397 334 398q102 0 168 -52t66 -108q1 -34 -19 -56t-55 -22t-57 26t-28 56t-26 54q-20 26 -53 26q-57 0 -77 -48t-21 -171v-201h458v166q0 211 83 313t264 103
q114 0 186 -58t72 -123q0 -35 -22 -59t-60 -25q-38 0 -63 29q-24 29 -32 62q-7 34 -29 62t-59 28q-61 0 -86 -54t-24 -190v-254h672q25 -57 28 -113q33 61 98 105t142 43q77 0 121 -51q44 -50 45 -106q0 -56 -29 -95t-72 -39q-69 0 -88 68q-16 68 -90 68q-44 0 -86 -54
q-41 -53 -41 -166v-43q0 -154 30 -197t132 -43v-59h-547v59q102 0 132 43t30 197v55q0 152 -30 195t-132 43h-315v-293q0 -154 30 -197t132 -43v-59h-553v59q102 0 132 43t29 197v293h-458z" />
    <glyph glyph-name="f_f_t" unicode="fft" horiz-adv-x="2066" 
d="M457 592v-293q-1 -154 29 -197t132 -43v-59h-555v59q102 0 133 43q30 43 29 197v293h-168v90h168v98q0 397 334 398q102 0 168 -52t66 -108q1 -34 -19 -56t-55 -22t-57 26t-28 56t-26 54q-20 26 -53 26q-57 0 -77 -48t-21 -171v-201h458v166q0 211 83 313t264 103
q114 0 186 -58t72 -123q0 -35 -22 -59t-60 -25q-38 0 -63 29q-24 29 -32 62q-7 34 -29 62t-59 28q-61 0 -86 -54t-24 -190v-254h260q127 0 204 85t87 196h71v-281h177v-90h-177v-356q0 -147 93 -148q57 0 137 59l28 -59q-49 -47 -123 -82t-126 -35q-113 0 -177 66
q-63 66 -63 184v371h-391v-293q0 -154 30 -197t132 -43v-59h-553v59q102 0 132 43t29 197v293h-458z" />
    <glyph glyph-name="f_b" unicode="fb" horiz-adv-x="1742" 
d="M1399 342q0 125 -37 202q-38 77 -102 77q-64 1 -108 -51t-44 -130v-198q0 -76 44 -128t108 -52t102 77q37 78 37 203zM1649 341q1 -161 -99 -269t-261 -107q-161 0 -245 133l-106 -114h-61v905q0 163 -32 227t-130 64h-131q-76 0 -102 -56t-25 -188v-254h205v-90h-205
v-293q-1 -154 29 -197t132 -43v-59h-555v59q102 0 133 43q30 43 29 197v293h-168v90h168v166q0 416 365 416h518v-607q74 59 174 60q168 1 268 -107t99 -269z" />
    <glyph glyph-name="f_h" unicode="fh" horiz-adv-x="1808" 
d="M1344 717q142 0 221 -86q80 -86 80 -219v-113q-1 -154 29 -197t134 -43v-59h-473v59q43 1 61 49t19 191v86q0 109 -27 163q-28 54 -99 54t-126 -53t-55 -150v-100q0 -152 28 -196t113 -44v-59h-534v59q102 0 132 43t30 197v590q0 163 -32 227t-130 64h-131
q-76 0 -102 -56t-25 -188v-254h205v-90h-205v-293q-1 -154 29 -197t132 -43v-59h-555v59q102 0 133 43q30 43 29 197v293h-168v90h168v166q0 416 365 416h518v-658q94 111 236 111z" />
    <glyph glyph-name="f_j" unicode="fj" horiz-adv-x="1265" 
d="M1112 -160q0 -201 -84 -294t-234 -93q-150 -1 -232 63q-81 64 -83 130q-1 31 17 51t54 20q62 0 84 -90q7 -33 34 -61t85 -29q58 0 93 69t35 251v497q0 154 -30 196t-132 42h-262v-293q-1 -154 29 -197t132 -43v-59h-555v59q102 0 133 43q30 43 29 197v293h-168v90h168
v143q0 217 117 328t284 111t265 -66t98 -176q1 -37 -27 -65q-28 -27 -67 -27t-61 26t-28 62q-8 37 -18 74q-10 36 -44 62t-106 26t-127 -64q-54 -64 -54 -190v-244h655v-842z" />
    <glyph glyph-name="f_r" unicode="fr" horiz-adv-x="1564" 
d="M1396 717q78 0 122 -51q44 -50 45 -106q0 -56 -30 -95t-73 -39q-71 0 -87 68q-5 24 -27 46t-65 22q-44 0 -84 -54q-40 -53 -40 -166v-43q0 -154 30 -197t132 -43v-59h-549v59q102 0 132 43t30 197v55q0 154 -30 196t-132 42h-313v-293q-1 -154 29 -197t132 -43v-59h-555
v59q102 0 133 43q30 43 29 197v293h-168v90h168v166q0 211 83 313t263 103q115 0 187 -58t71 -123q0 -35 -20 -59t-59 -25q-39 0 -63 29t-32 62q-7 34 -29 62t-59 28q-63 0 -87 -54t-23 -190v-254h669q23 -51 31 -113q31 61 95 105q66 43 144 43z" />
    <glyph glyph-name="f_t" unicode="ft" horiz-adv-x="1378" 
d="M715 682q127 0 204 84t89 197h69v-281h178v-90h-178v-356q0 -147 92 -148q57 0 138 59l30 -59q-51 -47 -126 -82t-126 -35q-111 0 -175 67t-64 183v371h-389v-293q-1 -154 29 -197t132 -43v-59h-555v59q102 0 133 43q30 43 29 197v293h-168v90h168v166q0 211 83 313
t263 103q115 0 187 -58t71 -123q0 -35 -20 -59t-59 -25q-39 0 -63 29t-32 62q-7 34 -29 62t-59 28q-63 0 -87 -54t-23 -190v-254h258z" />
    <glyph glyph-name="ff" unicode="ff" horiz-adv-x="1370" 
d="M1479 1083q0 -35 -22 -59q-23 -24 -61 -25q-38 0 -62 29t-31 62q-8 34 -30 62t-59 28q-61 0 -86 -54t-24 -190v-254h207v-90h-207v-293q0 -154 30 -197t132 -43v-59h-553v59q102 0 132 43t29 197v293h-417v-293q-1 -154 29 -197t132 -43v-59h-555v59q102 0 133 43
q30 43 29 197v293h-168v90h168v98q0 397 334 398q101 0 157 -50t56 -110q0 -34 -19 -56t-55 -22t-53 26q-18 26 -21 56q-4 30 -20 54q-16 26 -49 26q-57 0 -77 -48t-21 -171v-201h417v166q0 211 83 313t264 103q115 0 187 -58t71 -123z" />
    <glyph glyph-name="fi" unicode="fi" horiz-adv-x="1286" 
d="M457 682h624v-383q0 -154 30 -197t132 -43v-59h-545v59q94 0 123 44t29 196v55q0 154 -30 196t-132 42h-231v-293q1 -152 29 -196t122 -44v-59h-545v59q102 0 133 43q30 43 29 197v293h-168v90h168v143q0 217 117 328t284 111t265 -66t98 -176q1 -37 -27 -65
q-28 -27 -67 -27t-61 26t-28 62q-8 37 -18 74q-10 36 -44 62t-106 26t-127 -64q-54 -64 -54 -190v-244z" />
    <glyph glyph-name="fl" unicode="fl" horiz-adv-x="1296" 
d="M584 1149q-76 0 -102 -56t-25 -188v-223h205v-90h-205v-293q-1 -154 29 -197t132 -43v-59h-555v59q102 0 133 43q30 43 29 197v293h-168v90h168v141q0 416 365 416h518v-940q0 -154 30 -197t132 -43v-59h-555v59q102 0 132 43t30 197v559q0 162 -32 226t-130 65h-131z
" />
    <glyph glyph-name="ffi" unicode="ffi" horiz-adv-x="1935" 
d="M874 682v143q0 217 118 328t285 111t264 -66t97 -176q0 -37 -26 -65q-26 -27 -70 -27q-42 0 -66 39t-28 86t-40 86t-115 39t-133 -64t-54 -190v-244h625v-383q-1 -154 29 -197t132 -43v-59h-544v59q94 0 122 44t29 196v55q0 152 -30 195t-132 43h-231v-293
q0 -152 29 -196t122 -44v-59h-544v59q102 0 132 43t29 197v293h-417v-293q-1 -154 29 -197t132 -43v-59h-555v59q102 0 133 43q30 43 29 197v293h-168v90h168v98q0 397 334 398q101 0 157 -50t56 -110q0 -34 -19 -56t-55 -22t-53 26q-18 26 -21 56q-4 30 -20 54
q-16 26 -49 26q-57 0 -77 -48t-21 -171v-201h417z" />
    <glyph glyph-name="ffl" unicode="ffl" horiz-adv-x="1943" 
d="M874 682v141q0 416 363 416h520v-940q0 -154 30 -197t132 -43v-59h-555v59q102 0 132 43t30 197v565q0 162 -32 227t-130 64h-131q-76 0 -103 -56t-26 -188v-229h207v-90h-207v-293q0 -154 30 -197t132 -43v-59h-553v59q102 0 132 43t29 197v293h-417v-293
q-1 -154 29 -197t132 -43v-59h-555v59q102 0 133 43q30 43 29 197v293h-168v90h168v98q0 397 334 398q101 0 157 -50t56 -110q0 -34 -19 -56t-55 -22t-53 26q-18 26 -21 56q-4 30 -20 54q-16 26 -49 26q-57 0 -77 -48t-21 -171v-201h417z" />
    <glyph glyph-name=".notdef" horiz-adv-x="1024" 
 />
    <glyph glyph-name=".null" horiz-adv-x="0" 
 />
    <glyph glyph-name="nonmarkingreturn" horiz-adv-x="681" 
 />
    <glyph glyph-name="space" unicode=" " horiz-adv-x="477" 
 />
    <glyph glyph-name="exclam" unicode="!" horiz-adv-x="681" 
d="M457 101q0 -48 -35 -83q-35 -34 -84 -34t-82 34t-33 82q0 49 33 84t82 35t84 -35t35 -83zM184 1100q0 70 45 116q45 48 109 48t112 -47t48 -111q0 -104 -57 -255q-57 -152 -68 -493h-70q-9 318 -93 591q-26 81 -26 151z" />
    <glyph glyph-name="quotedbl" unicode="&#x22;" horiz-adv-x="845" 
d="M485 1139q0 51 35 88t85 37t87 -37t37 -88q0 -15 -45 -153t-57 -300h-43q-12 162 -56 300t-43 153zM117 1139q0 51 35 88t85 37t87 -37t36 -88q0 -15 -45 -153t-57 -300h-43q-12 162 -55 300t-43 153z" />
    <glyph glyph-name="numbersign" unicode="#" horiz-adv-x="890" 
d="M338 662h182l33 192h-182zM637 662h143l-26 -144h-144l-37 -233h-116l41 233h-185l-39 -233h-114l39 233h-144l25 144h141l33 192h-141l26 141h142l38 234h117l-41 -234h185l38 234h115l-39 -234h144l-25 -141h-143z" />
    <glyph glyph-name="dollar" unicode="$" horiz-adv-x="1019" 
d="M301 975q0 -106 125 -180v327q-53 -12 -89 -52t-36 -95zM692 272q0 129 -160 222v-394q72 10 116 56t44 116zM887 367q1 -152 -101 -246t-254 -105v-186h-106v190q-190 25 -295 148q-72 84 -39 135q8 13 36 25t58 -12t50 -66t69 -85q49 -44 121 -59v443l-98 51
q-96 49 -159 131t-63 195q0 112 90 194t230 90v189h106v-193q174 -23 250 -131q55 -78 13 -125q-14 -16 -42 -24t-54 12t-41 54t-49 72t-77 52v-379l144 -73q102 -54 156 -134t55 -163z" />
    <glyph glyph-name="percent" unicode="%" horiz-adv-x="1562" 
d="M1001 261q0 -83 36 -149q35 -66 99 -65q64 -1 100 65t36 149t-36 150t-99 67t-100 -67q-36 -67 -36 -150zM1473 262q1 -121 -99 -208t-237 -87t-237 87q-99 87 -99 208t99 207q98 86 236 86t238 -86t99 -207zM1202 1225l-756 -1262l-81 43l757 1264zM559 969
q0 83 -35 149t-98 66t-99 -66t-36 -148t36 -150q36 -66 99 -66t98 66t35 149zM762 969q0 -121 -99 -207t-237 -86t-239 86q-99 86 -99 207t99 208t237 87t238 -87t100 -208z" />
    <glyph glyph-name="ampersand" unicode="&#x26;" horiz-adv-x="1345" 
d="M523 -35q-185 0 -307 94t-122 265q0 106 62 180t178 147q-119 177 -119 313t109 218t257 82t242 -62t95 -174q0 -62 -37 -118t-75 -84t-124 -80t-119 -74q61 -90 318 -371q20 39 43 113q24 74 -12 108q-36 35 -162 35v59h479v-59q-109 0 -151 -39t-72 -130t-62 -157
q106 -113 199 -112q61 0 133 71l41 -38q-127 -186 -258 -187q-99 0 -230 113q-121 -113 -306 -113zM344 320q0 -117 70 -188t168 -71t184 76q-256 270 -350 398q-72 -98 -72 -215zM719 1018q0 76 -36 112t-95 37q-60 0 -100 -51t-39 -115q0 -132 61 -247q100 64 154 126
t55 138z" />
    <glyph glyph-name="quotesingle" unicode="'" horiz-adv-x="477" 
d="M117 1139q0 51 35 88t85 37t87 -37t36 -88q0 -15 -45 -153t-57 -300h-43q-12 162 -55 300t-43 153z" />
    <glyph glyph-name="parenleft" unicode="(" horiz-adv-x="733" 
d="M137 603q0 427 492 833l55 -52q-319 -360 -319 -780t319 -780l-53 -51q-494 403 -494 830z" />
    <glyph glyph-name="parenright" unicode=")" horiz-adv-x="733" 
d="M598 603q0 -427 -494 -830l-55 51q322 362 322 780t-322 780l57 52q492 -406 492 -833z" />
    <glyph glyph-name="asterisk" unicode="*" horiz-adv-x="870" 
d="M436 1264q45 0 78 -34t33 -71t-35 -103t-45 -120q43 37 85 98t72 79q30 17 77 7q46 -10 68 -49q21 -39 9 -85t-43 -63t-105 -21t-132 -23q55 -17 128 -23q74 -6 106 -24t44 -63q12 -44 -10 -82t-67 -50q-46 -12 -76 6q-29 19 -71 81t-85 99q10 -55 43 -122t33 -103
t-32 -69t-76 -33t-78 34q-33 34 -33 69t34 101t48 123q-46 -37 -88 -98t-72 -79t-77 -8q-46 10 -68 49q-22 38 -9 85q12 48 43 64t105 20t131 23q-55 20 -129 24t-97 19q-39 22 -51 66t8 83q23 39 69 51t77 -6q32 -18 72 -82t86 -102q-10 57 -45 124q-33 68 -33 104t31 70
q32 34 77 34z" />
    <glyph glyph-name="plus" unicode="+" 
d="M541 524h295v-141h-295v-297h-144v297h-295v141h295v295h144v-295z" />
    <glyph glyph-name="comma" unicode="," horiz-adv-x="612" 
d="M295 -16q-53 0 -90 39t-37 92t37 92t93 39t101 -43t45 -128t-60 -187t-171 -173l-41 41q119 123 133 228h-10z" />
    <glyph glyph-name="hyphen" unicode="-" horiz-adv-x="790" 
d="M655 350h-520v139h520v-139z" />
    <glyph glyph-name="period" unicode="." horiz-adv-x="612" 
d="M305 246q55 0 93 -38t38 -93t-38 -93t-93 -38t-92 38t-37 93t37 93t92 38z" />
    <glyph glyph-name="slash" unicode="/" horiz-adv-x="712" 
d="M684 1231l-555 -1268l-100 35l555 1272z" />
    <glyph glyph-name="zero" unicode="0" horiz-adv-x="1212" 
d="M606 750q-121 0 -208 -90t-87 -217q0 -126 87 -215t208 -89t208 89t87 215q0 127 -87 217t-208 90zM606 922q197 0 337 -140t140 -339q0 -198 -140 -338t-337 -140t-337 140t-140 338q0 199 140 339t337 140z" />
    <glyph glyph-name="one" unicode="1" horiz-adv-x="827" 
d="M725 0h-623v59q127 0 162 43t35 197v291q0 154 -35 196t-162 41v60h623v-60q-127 0 -162 -42t-35 -195v-291q0 -154 35 -197t162 -43v-59z" />
    <glyph glyph-name="two" unicode="2" horiz-adv-x="1132" 
d="M864 -162q0 102 -43 132t-196 30h-473v49l385 316q139 117 139 256q0 86 -49 141t-150 55t-147 -80t18 -209l-96 -63q-119 71 -124 181t101 193t293 83q186 0 306 -79t120 -189t-66 -183q-66 -74 -169 -137l-240 -146h485l-51 -350h-43z" />
    <glyph glyph-name="three" unicode="3" horiz-adv-x="1075" 
d="M645 612q0 94 -45 150t-134 55q-89 0 -134 -83t16 -206l-96 -63q-119 71 -128 181t93 193t278 83q177 0 299 -74t121 -201q0 -172 -217 -301l-100 -57q152 -19 252 -115t100 -215q0 -156 -129 -249t-323 -93t-312 121q-74 78 -51 137q10 31 44 37q59 10 104 -62
q20 -30 44 -62q58 -76 155 -77q96 0 141 70t45 178q-1 197 -140 277q-12 -10 -50 -52t-55 -42t-36 12q-29 25 -11 51q17 26 50 59l113 119q51 51 78 116q28 65 28 113z" />
    <glyph glyph-name="four" unicode="4" horiz-adv-x="1157" 
d="M504 178v416l-293 -416h293zM733 1008v-830h6q131 0 172 32t66 124l10 41h60l-17 -289h-297v-135q0 -154 35 -197t162 -43v-59h-623v59q127 0 162 43t35 197v135h-430v55l606 867h53z" />
    <glyph glyph-name="five" unicode="5" horiz-adv-x="1026" 
d="M485 471q176 0 294 -124t118 -303t-122 -303t-308 -124q-145 0 -240 80q-94 80 -94 156q1 25 17 42t48 17t54 -32q23 -32 34 -68t52 -69q41 -32 118 -32t131 94q54 95 54 239t-54 234t-131 91q-77 0 -121 -37t-81 -148h-92l63 703h355q131 0 172 32t63 123h57l-49 -385
h-520l-33 -292q29 51 89 79t126 27z" />
    <glyph glyph-name="six" unicode="6" horiz-adv-x="1091" 
d="M543 733q172 -1 301 -113t129 -270t-122 -272t-276 -113q-154 0 -287 110q-71 58 -115 180t-44 296t54 336q54 163 169 273q116 110 268 110t250 -88q74 -66 37 -113q-6 -10 -16 -16q-25 -20 -55 -4t-48 43q-18 26 -64 52t-106 25q-235 0 -251 -489q63 53 176 53z
M719 350q0 284 -176 285q-133 0 -176 -66q0 -504 192 -503q160 0 160 284z" />
    <glyph glyph-name="seven" unicode="7" horiz-adv-x="980" 
d="M891 887v-58l-457 -1132q-35 -82 -90 -82t-78 45t8 115l441 882h-299q-164 0 -195 -62q-12 -26 -28 -93l-11 -41h-57l86 588h55q0 -103 37 -133t189 -29h399z" />
    <glyph glyph-name="eight" unicode="8" horiz-adv-x="1116" 
d="M989 324q0 -152 -129 -255t-302 -103t-301 100q-128 102 -128 240t93 220q50 43 86 66t110 63q-113 90 -170 161t-58 153q0 125 108 210t250 85t252 -79t110 -179t-60 -164q-58 -64 -162 -127q59 -47 115 -90t83 -78t65 -87q38 -51 38 -136zM344 299q0 -94 57 -166
t151 -72q94 -1 148 59t54 143t-70 162t-195 175q-145 -121 -145 -301zM560 1167q-60 0 -98 -40t-38 -91q0 -108 188 -262q98 98 99 242q0 70 -45 110q-46 40 -106 41z" />
    <glyph glyph-name="nine" unicode="9" horiz-adv-x="1091" 
d="M532 823q-158 1 -158 -285t175 -286q131 -1 176 67q0 504 -193 504zM965 338q-1 -174 -55 -337t-169 -273t-269 -111q-154 0 -251 90q-97 89 -10 131q21 10 36 5q31 -10 80 -67t148 -59q233 0 250 492q-66 -55 -176 -55q-172 0 -301 114t-129 271q0 159 122 271t277 112
t288 -110q71 -58 115 -179t44 -295z" />
    <glyph glyph-name="colon" unicode=":" horiz-adv-x="583" 
d="M408 564q0 -48 -35 -83t-83 -35t-81 34t-33 83t33 84t81 35t83 -35t35 -83zM408 101q0 -48 -35 -83q-35 -34 -83 -34t-81 34t-33 82q0 49 33 84t81 35t83 -35t35 -83z" />
    <glyph glyph-name="semicolon" unicode=";" horiz-adv-x="583" 
d="M410 564q0 -48 -35 -83t-84 -35t-82 34t-33 83t33 84t82 35t84 -35t35 -83zM289 -20q-47 0 -81 36t-34 82q0 47 34 83t84 36t91 -39q41 -40 41 -116t-54 -168t-155 -156l-35 37q104 111 119 205h-10z" />
    <glyph glyph-name="less" unicode="&#x3c;" horiz-adv-x="968" 
d="M137 457l670 446l47 -74l-408 -372l408 -369l-47 -76z" />
    <glyph glyph-name="equal" unicode="=" 
d="M768 229h-598v142h598v-142zM768 537h-598v141h598v-141z" />
    <glyph glyph-name="greater" unicode="&#x3e;" horiz-adv-x="968" 
d="M834 457l-672 -445l-45 76l405 369l-405 372l45 74z" />
    <glyph glyph-name="question" unicode="?" horiz-adv-x="1050" 
d="M453 219q49 0 83 -35t33 -83q1 -48 -33 -83q-34 -34 -83 -34t-82 34t-33 82q0 49 33 84t82 35zM803 958q0 88 -87 156t-218 68q-84 0 -136 -31t-51 -61q0 -47 70 -48q37 0 63 -26t27 -68q0 -42 -44 -70q-45 -28 -99 -28t-109 43t-55 141t106 164t228 66q206 0 332 -115
t126 -250q0 -184 -128 -295t-330 -135v-111h-92v357q174 0 286 65t111 178z" />
    <glyph glyph-name="at" unicode="@" horiz-adv-x="1449" 
d="M692 78q49 0 93 47t59 117l65 381q-39 35 -94 34q-76 0 -132 -90t-79 -213q-45 -276 88 -276zM1380 489q0 -207 -127 -361t-266 -153q-94 0 -141 82q-39 -39 -92 -63t-95 -25q-133 0 -197 114t-35 277q31 164 145 276t247 112q70 0 133 -33h138l-99 -547q-18 -90 39 -90
q82 0 164 116t82 302t-132 304t-313 118q-239 0 -405 -180t-166 -416q0 -238 140 -389t354 -151t436 140l39 -57q-237 -178 -501 -178t-458 180q-194 181 -192 463q0 282 213 494t512 212q250 0 414 -151q163 -152 163 -396z" />
    <glyph glyph-name="A" unicode="A" horiz-adv-x="1280" 
d="M719 502l-164 385l-166 -385h330zM418 59v-59h-496v59q106 0 156 36q49 36 96 145l444 1024h44l446 -1024q47 -109 91 -145t159 -36v-59h-668v59q131 0 163 37t-9 119l-86 195h-410l-84 -195q-39 -84 -5 -120t159 -36z" />
    <glyph glyph-name="B" unicode="B" horiz-adv-x="1345" 
d="M528 1137v-441h115q111 0 168 62t57 156t-57 158t-168 65h-115zM971 348q0 112 -67 184t-193 72h-183v-285q0 -143 33 -184t155 -42t188 71t67 184zM831 0h-753v59q127 0 161 43t33 197v631q0 154 -34 196t-160 43v60h696q166 0 267 -88t102 -219q0 -166 -152 -254
q119 -37 187 -124t67 -200q0 -147 -113 -246q-114 -98 -301 -98z" />
    <glyph glyph-name="C" unicode="C" horiz-adv-x="1417" 
d="M1266 23h-58q-25 96 -53 116q-168 -174 -381 -174q-260 1 -444 191t-185 458q1 268 185 458t444 192q217 0 381 -174q31 25 53 116h58v-450h-60q-41 197 -154 303q-114 106 -270 106q-273 0 -343 -356q-17 -93 -17 -195q0 -216 74 -369q38 -83 112 -132t174 -50
q154 0 269 108t155 302h60v-450z" />
    <glyph glyph-name="D" unicode="D" horiz-adv-x="1581" 
d="M528 1137v-813q0 -150 35 -191t162 -41h35q96 0 169 33q230 104 230 489t-230 490q-73 33 -169 33h-232zM78 0v59q127 0 161 43t33 197v631q0 154 -34 196t-160 43v60h676q340 0 511 -172q171 -173 171 -443t-171 -442t-511 -172h-676z" />
    <glyph glyph-name="E" unicode="E" horiz-adv-x="1312" 
d="M78 0v59q127 0 161 43t33 197v631q0 154 -34 196t-160 43v60h1055l16 -289h-59l-11 41q-25 92 -65 124q-41 32 -172 32h-314v-441h113q154 0 196 35t42 162h59v-485h-59q0 128 -42 162t-196 34h-113v-272q0 -154 35 -197t162 -43h184q167 0 206 66q17 29 32 90l10 41h60
l-17 -289h-1122z" />
    <glyph glyph-name="F" unicode="F" horiz-adv-x="1216" 
d="M528 1137v-441h113q154 0 196 35t42 162h59v-485h-59q0 128 -42 162t-196 34h-113v-305q0 -154 35 -197t162 -43v-59h-647v59q127 0 161 43t33 197v631q0 154 -34 196t-160 43v60h1087l19 -289h-62l-10 41q-23 90 -63 123q-41 33 -172 33h-349z" />
    <glyph glyph-name="G" unicode="G" horiz-adv-x="1505" 
d="M1090 317q0 68 -44 100t-149 32v59h604v-59q-127 0 -161 -42t-33 -196v-139q-125 0 -280 -54t-253 -53q-260 1 -444 191t-185 458q1 268 185 458t444 192q217 0 381 -174q31 25 53 116h58v-450h-60q-41 197 -154 303q-114 106 -270 106q-273 0 -343 -356
q-17 -93 -17 -195q0 -216 74 -369q84 -181 302 -181q116 0 204 60q88 62 88 193z" />
    <glyph glyph-name="H" unicode="H" horiz-adv-x="1685" 
d="M528 606v-307q0 -154 35 -197t162 -43v-59h-647v59q127 0 161 43t33 197v631q0 154 -34 196t-160 43v60h647v-60q-127 0 -162 -43t-35 -196v-232h629v232q0 156 -34 198t-162 41v60h649v-60q-127 0 -162 -43t-35 -196v-631q0 -154 35 -197t162 -43v-59h-649v59
q129 0 163 42t33 198v307h-629z" />
    <glyph glyph-name="I" unicode="I" horiz-adv-x="802" 
d="M725 0h-647v59q127 0 161 43t33 197v631q0 154 -34 196t-160 43v60h647v-60q-127 0 -162 -43t-35 -196v-631q0 -154 35 -197t162 -43v-59z" />
    <glyph glyph-name="J" unicode="J" horiz-adv-x="784" 
d="M104 -365q168 0 168 256v1039q0 154 -34 196t-160 43v60h647v-60q-127 0 -162 -43t-35 -196v-938q0 -219 -116 -334t-301 -115q-135 0 -234 72q-98 72 -98 180q0 37 23 62q24 25 61 25t61 -26q24 -24 23 -73t39 -99t118 -49z" />
    <glyph glyph-name="K" unicode="K" horiz-adv-x="1613" 
d="M1624 59v-59h-680v59q84 0 108 29t-32 92l-404 438l-88 -71v-248q0 -154 35 -197t162 -43v-59h-647v59q127 0 161 43t33 197v631q0 154 -34 196t-160 43v60h647v-60q-127 0 -162 -43t-35 -196v-275l430 346q55 44 80 87q47 81 -71 81v60h493v-60q-82 1 -150 -23t-104 -50
q-37 -26 -123 -95l-290 -233l567 -588q49 -49 133 -85t131 -36z" />
    <glyph glyph-name="L" unicode="L" horiz-adv-x="1296" 
d="M272 930q0 154 -34 196t-160 43v60h647v-60q-127 0 -162 -43t-35 -196v-598q0 -154 35 -197t162 -43h236q166 0 205 66q17 29 32 90l10 41h60l-17 -289h-1173v59q127 0 161 43t33 197v631z" />
    <glyph glyph-name="M" unicode="M" horiz-adv-x="1740" 
d="M365 299q1 -154 35 -197t161 -43v-59h-483v59q127 0 161 43t33 197v631q0 154 -34 196t-160 43v60h428l373 -889l372 889h414v-60q-129 0 -163 -42t-34 -197v-631q0 -156 34 -198t163 -42v-59h-635v59q127 0 162 43t35 197v643l-408 -977h-45l-409 977v-643z" />
    <glyph glyph-name="N" unicode="N" horiz-adv-x="1533" 
d="M1171 930q-1 154 -35 196t-161 43v60h485v-60q-129 0 -163 -42t-33 -197v-965h-52l-847 1012v-678q1 -154 35 -197t161 -43v-59h-483v59q127 0 161 43t33 197v631q0 154 -34 196t-160 43v60h409l684 -815v516z" />
    <glyph glyph-name="O" unicode="O" horiz-adv-x="1603" 
d="M1210 614q0 133 -40 254t-136 209t-232 88t-232 -88q-174 -159 -175 -463q0 -304 174 -462q97 -88 233 -88t232 88t136 208t40 254zM1485 614q0 -268 -201 -458q-200 -190 -482 -190t-483 190t-200 458q0 268 200 459q201 191 483 191t482 -191t201 -459z" />
    <glyph glyph-name="P" unicode="P" horiz-adv-x="1224" 
d="M641 631q127 1 195 71t67 181q1 111 -67 183t-195 71h-113v-506h113zM764 1229q186 1 300 -99t114 -247t-114 -245t-300 -99h-236v-240q0 -154 35 -197t162 -43v-59h-647v59q127 0 161 43t33 197v631q0 154 -34 196t-160 43v60h686z" />
    <glyph glyph-name="Q" unicode="Q" horiz-adv-x="1603" 
d="M804 1165q-136 0 -232 -88q-176 -161 -177 -463q0 -302 176 -462q97 -88 233 -88t232 88t135 208t39 254q0 133 -39 254t-135 209t-232 88zM371 -260q0 42 94 118t225 115q-250 43 -410 223t-161 434q0 252 200 443q201 191 483 191t482 -190t201 -452q0 -262 -178 -443
t-437 -210q-61 -6 -143 -40t-135 -79q121 25 206 17q149 -14 313 -106q164 -93 282 -93q231 0 338 174l49 -20q-127 -389 -426 -385q-94 0 -179 38t-147 91t-116 107q-135 132 -226 130q-68 0 -112 -20t-59 -45q-39 -66 -72 -71q-32 -5 -52 13t-20 60z" />
    <glyph glyph-name="R" unicode="R" horiz-adv-x="1388" 
d="M641 631q127 1 195 71t67 181q1 111 -67 183t-195 71h-113v-506h113zM1397 0h-445l-364 539h-60v-240q0 -154 35 -197t162 -43v-59h-647v59q127 0 161 43t33 197v631q0 154 -34 196t-160 43v60h686q186 1 300 -99t114 -241t-100 -239t-263 -111l199 -217
q133 -146 210 -198t173 -65v-59z" />
    <glyph glyph-name="S" unicode="S" horiz-adv-x="1062" 
d="M121 -35v451h61q30 -160 138 -259t239 -100q93 1 149 53t56 150q0 58 -41 114t-111 93l-194 102q-141 72 -210 158t-69 221q1 136 105 226t246 90t255 -84q47 39 60 94h57v-451h-59q-12 147 -81 249t-214 102q-66 0 -116 -46t-50 -106q0 -62 44 -122t120 -99l196 -101
q119 -61 192 -154t73 -208q0 -162 -122 -267t-286 -106q-114 0 -248 67q-51 25 -71 29q-47 -39 -60 -96h-59z" />
    <glyph glyph-name="T" unicode="T" horiz-adv-x="1314" 
d="M784 1137v-838q0 -154 35 -197t162 -43v-59h-647v59q127 0 161 43t33 197v838h-204q-131 0 -172 -33t-64 -123l-10 -41h-62l19 289h1245l16 -289h-59l-10 41q-13 61 -31 90q-39 64 -207 66h-205z" />
    <glyph glyph-name="U" unicode="U" horiz-adv-x="1501" 
d="M1135 930q0 156 -34 198t-163 41v60h502v-60q-127 0 -161 -43t-34 -196v-473q0 -231 -140 -361t-353 -131q-213 0 -353 129q-139 129 -139 363v473q0 154 -35 196t-162 43v60h650v-60q-129 0 -163 -42t-34 -197v-451q0 -191 89 -289t227 -98t221 98q82 98 82 289v451z
" />
    <glyph glyph-name="V" unicode="V" horiz-adv-x="1280" 
d="M1358 1169q-106 0 -156 -35q-49 -36 -96 -145l-444 -1024h-44l-446 1024q-47 109 -91 145t-159 35v60h672v-60q-131 -1 -163 -37t9 -118l287 -666l289 666q39 84 5 120t-159 35v60h496v-60z" />
    <glyph glyph-name="W" unicode="W" horiz-adv-x="1593" 
d="M1679 1169q-123 -1 -166 -35t-77 -145l-332 -1024h-43l-258 793l-254 -793h-43l-332 1024q-35 111 -78 146t-166 34v60h648v-60q-127 -1 -159 -33t-3 -122l186 -576l252 791h45l258 -793l189 578q26 84 -6 120t-138 35v60h477v-60z" />
    <glyph glyph-name="X" unicode="X" horiz-adv-x="1277" 
d="M1321 59v-59h-686v59q117 0 141 34t-31 122l-170 281l-227 -281q-127 -156 111 -156v-59h-504v59q91 0 153 42t142 139l274 338l-250 411q-61 100 -123 140t-163 40v60h684v-60q-110 1 -136 -35t25 -120l144 -236l188 236q63 76 39 116t-150 39v60h504v-60
q-100 1 -154 -37t-141 -143l-237 -293l278 -456q62 -100 124 -140t165 -41z" />
    <glyph glyph-name="Y" unicode="Y" horiz-adv-x="1296" 
d="M1362 1169q-121 1 -173 -35t-122 -145l-293 -442v-248q0 -154 34 -197t161 -43v-59h-639v59q127 0 162 43t34 197v242l-297 448q-72 109 -130 145t-167 35v60h695v-60q-215 0 -109 -155l230 -346l229 346q57 84 33 120q-25 36 -144 35v60h496v-60z" />
    <glyph glyph-name="Z" unicode="Z" horiz-adv-x="1187" 
d="M418 1137q-164 0 -206 -65q-17 -28 -32 -89l-10 -41h-59l18 287h907v-45l-633 -1092h371q131 0 172 32t66 124l10 41h59l-18 -289h-975v49l627 1088h-297z" />
    <glyph glyph-name="bracketleft" unicode="[" horiz-adv-x="768" 
d="M688 -180h-448v1569h448v-82h-213v-1405h213v-82z" />
    <glyph glyph-name="backslash" unicode="\" horiz-adv-x="712" 
d="M29 1231l100 39l555 -1272l-100 -35z" />
    <glyph glyph-name="bracketright" unicode="]" horiz-adv-x="768" 
d="M528 -180h-448v82h213v1405h-213v82h448v-1569z" />
    <glyph glyph-name="asciicircum" unicode="^" horiz-adv-x="993" 
d="M942 606l-47 -33l-397 324l-400 -324l-47 33l447 658z" />
    <glyph glyph-name="underscore" unicode="_" horiz-adv-x="733" 
d="M735 -90h-737v90h737v-90z" />
    <glyph glyph-name="grave" unicode="`" horiz-adv-x="827" 
d="M111 1221q0 29 20 53t63 22q43 0 109 -61l250 -231l-14 -19l-367 156q-61 33 -61 80z" />
    <glyph glyph-name="a" unicode="a" horiz-adv-x="923" 
d="M295 170q0 -82 80 -82q68 0 172 92v174q-131 -35 -192 -73q-60 -39 -60 -111zM547 438q0 195 -120 195q-54 0 -89 -22q-35 -23 -35 -61q1 -38 -23 -62t-59 -24t-59 24t-23 65q0 74 90 119q91 45 235 45q298 0 298 -279v-276q0 -78 43 -78q23 0 61 25l29 -56
q-100 -76 -193 -76q-135 0 -155 119q-93 -72 -143 -98t-122 -25q-72 0 -130 47q-59 47 -60 125q0 123 118 191t337 100v2z" />
    <glyph glyph-name="b" unicode="b" horiz-adv-x="1028" 
d="M162 -16v929q0 154 -30 197t-132 43v59l393 52v-607q74 59 174 60q167 0 267 -108q100 -109 100 -269t-99 -268t-261 -107q-162 0 -244 133l-109 -114h-59zM684 342q0 125 -37 202t-102 77q-65 1 -109 -51t-43 -130v-198q0 -76 43 -128t109 -52q67 0 103 77q36 78 36 203
z" />
    <glyph glyph-name="c" unicode="c" horiz-adv-x="829" 
d="M489 635q-145 0 -145 -311q0 -123 55 -191q55 -67 153 -67t208 94l35 -60q-125 -135 -305 -135q-180 -1 -288 101t-108 268t111 274t268 109q119 0 190 -51t70 -115q1 -31 -21 -59t-62 -27t-64 25t-23 57q0 88 -74 88z" />
    <glyph glyph-name="d" unicode="d" horiz-adv-x="1044" 
d="M635 242v198q0 78 -44 129q-45 51 -109 51t-101 -76q-37 -77 -37 -202t37 -203t101 -78q64 1 109 53q44 52 44 128zM635 913q0 154 -30 197t-132 43v59l393 52v-959q0 -153 25 -195t117 -42v-52l-334 -47q-12 20 -23 70q-78 -74 -190 -74q-168 0 -267 108
q-100 109 -100 269t100 268t267 107q100 -1 174 -60v256z" />
    <glyph glyph-name="e" unicode="e" horiz-adv-x="886" 
d="M508 -35q-194 0 -304 108q-110 109 -110 269t116 268t278 107q162 0 247 -112q86 -112 49 -226h-444q-12 -147 45 -222t156 -81q137 -8 243 84l35 -60q-55 -59 -141 -97t-170 -38zM354 469h273q4 66 -29 108t-98 41q-115 1 -146 -149z" />
    <glyph glyph-name="f" unicode="f" horiz-adv-x="671" 
d="M821 1083q0 -35 -20 -59q-19 -24 -59 -25q-40 0 -64 29t-31 62q-8 34 -30 62t-58 28q-63 0 -88 -54t-25 -190v-254h207v-90h-207v-293q0 -154 30 -197t134 -43v-59h-557v59q102 0 132 43t30 197v293h-166v90h166v166q0 211 84 313t264 103q115 0 187 -58t71 -123z" />
    <glyph glyph-name="g" unicode="g" horiz-adv-x="870" 
d="M797 -254q0 -131 -113 -212t-278 -81q-233 0 -332 109q-80 88 -13 182q37 47 107 82l39 -23q-61 -67 -65 -119t38 -82q80 -59 197 -60t185 37q68 37 67 97q1 60 -61 92t-244 52q-256 27 -256 205q0 55 49 104t129 74q-68 31 -111 94t-43 141q0 115 90 197t214 82t214 -78
q25 33 71 55t81 23q113 0 141 -86q23 -66 -18 -105q-25 -26 -58 -18q-54 14 -62 62q-8 49 -48 51q-31 0 -64 -33q49 -60 49 -158t-80 -179t-210 -92q-131 -11 -156 -27t-25 -40q0 -25 37 -34t135 -19l46 -4q178 -21 263 -105t85 -184zM512 439q0 87 -29 141t-85 53
q-56 0 -86 -54q-30 -55 -30 -141t30 -140t86 -54t85 54t29 141z" />
    <glyph glyph-name="h" unicode="h" horiz-adv-x="1110" 
d="M180 913q0 154 -29 197q-30 43 -135 43v59l396 52v-658q94 111 234 111t221 -86t81 -219v-113q0 -154 30 -197t132 -43v-59h-473v59q43 1 61 49t19 191v86q0 109 -28 163q-29 54 -99 54t-124 -53t-54 -150v-100q0 -152 26 -196t113 -44v-59h-535v59q104 0 135 43
q30 43 29 197v614z" />
    <glyph glyph-name="i" unicode="i" horiz-adv-x="661" 
d="M479 1061q0 -53 -39 -93t-92 -40t-90 39t-37 93t37 93t90 39t92 -39t39 -92zM627 0h-555v59q102 0 132 43t29 197v68q1 155 -29 197t-132 42v60l393 51v-418q0 -154 30 -197t132 -43v-59z" />
    <glyph glyph-name="j" unicode="j" horiz-adv-x="575" 
d="M436 1061q0 -53 -39 -93t-92 -40t-90 39t-37 93t37 93t90 39t92 -39t39 -92zM422 -160q0 -201 -83 -294t-233 -93q-150 -1 -233 63q-82 64 -84 130q0 72 70 71q63 0 85 -90q6 -33 34 -61t86 -29q128 0 126 320v510q0 155 -30 197t-131 42v60l393 51v-877z" />
    <glyph glyph-name="k" unicode="k" horiz-adv-x="972" 
d="M412 283q0 -135 25 -180q26 -44 104 -44v-59h-525v59q104 0 135 43q30 43 29 197v614q0 154 -29 197q-30 43 -135 43v59l396 52v-875l176 127q53 37 33 72t-97 35v59h428v-59q-104 0 -196 -74l-156 -119l240 -289q70 -82 155 -82v-59h-290l-293 360v-77z" />
    <glyph glyph-name="l" unicode="l" horiz-adv-x="622" 
d="M590 0h-557v59q102 0 132 43t30 197v614q0 154 -30 197t-132 43v59l393 52v-965q0 -154 30 -197t134 -43v-59z" />
    <glyph glyph-name="m" unicode="m" horiz-adv-x="1695" 
d="M999 399v-100q0 -147 29 -193t109 -47v-59h-449v59q44 1 62 49t18 191v86q0 109 -25 163t-93 54t-126 -54q-59 -54 -59 -149v-100q0 -150 27 -195t110 -45v-59h-530v59q102 0 132 43t29 197v68q1 155 -29 197t-132 42v60l358 51q23 -43 29 -117q96 117 266 117t242 -152
q111 152 282 152q135 0 210 -85t75 -220v-113q0 -154 30 -197t132 -43v-59h-473v59q43 1 61 49t19 191v86q0 109 -25 163q-24 54 -92 54t-128 -54t-59 -149z" />
    <glyph glyph-name="n" unicode="n" horiz-adv-x="1193" 
d="M704 717q148 0 238 -87t90 -218v-113q0 -154 30 -197t132 -43v-59h-473v59q43 1 61 49t19 191v86q0 105 -33 161t-109 56t-135 -54t-59 -149v-100q0 -154 29 -197t131 -43v-59h-553v59q102 0 132 43t29 197v68q1 155 -29 197t-132 42v60l358 51q23 -43 29 -117
q97 117 245 117z" />
    <glyph glyph-name="o" unicode="o" horiz-adv-x="1013" 
d="M670 342q0 123 -41 201t-121 78t-122 -78t-42 -201t42 -202t122 -79t121 79t41 202zM920 342q0 -156 -121 -266t-291 -111q-170 0 -292 111q-122 110 -122 266t122 266t292 109q170 1 291 -109t121 -266z" />
    <glyph glyph-name="p" unicode="p" horiz-adv-x="1028" 
d="M393 -213q0 -154 30 -197t132 -43v-59h-555v59q102 0 132 43t30 197v580q0 155 -30 197t-132 42v60l358 51q6 -8 19 -74q78 74 190 74q167 0 267 -108q100 -109 100 -269t-99 -268t-268 -107q-102 0 -174 62v-240zM684 342q0 125 -37 202t-102 77q-65 1 -109 -51
t-43 -130v-198q0 -76 43 -128t109 -52q67 0 103 77q36 78 36 203z" />
    <glyph glyph-name="q" unicode="q" horiz-adv-x="1028" 
d="M866 -213q0 -154 30 -197t132 -43v-59h-555v59q102 0 132 43t30 197v240q-72 -61 -174 -62q-168 0 -267 108q-100 109 -100 269t100 268t259 107q160 0 245 -131l107 114h61v-913zM635 242v198q0 78 -44 129q-45 51 -109 51t-101 -76q-37 -77 -37 -202t37 -203t101 -78
q64 1 109 53q44 52 44 128z" />
    <glyph glyph-name="r" unicode="r" horiz-adv-x="866" 
d="M864 560q0 -56 -30 -95t-72 -39q-73 0 -87 68q-5 24 -27 46t-66 22t-83 -54q-40 -53 -40 -166v-43q-1 -154 29 -197t133 -43v-59h-549v59q102 0 132 43t29 197v68q1 155 -29 197t-132 42v60l352 51q18 -39 35 -148q33 61 97 105q64 43 142 43t122 -51q44 -50 44 -106z
" />
    <glyph glyph-name="s" unicode="s" horiz-adv-x="784" 
d="M698 197q0 -115 -83 -173t-172 -58t-165 31q-76 32 -79 32q-31 0 -31 -64h-59v299h59q0 -74 76 -144t172 -69q49 0 79 23q29 24 29 58t-30 60t-101 60l-114 51q-154 72 -154 209q0 104 74 154q73 50 151 51q78 -1 140 -19t80 -18t18 37h59v-238h-59q0 61 -60 109t-116 47
q-56 1 -84 -19t-29 -52q0 -32 29 -54t112 -57l99 -47q75 -36 117 -92t42 -117z" />
    <glyph glyph-name="t" unicode="t" horiz-adv-x="696" 
d="M164 592h-107v67q97 21 179 103t90 178h69v-258h178v-90h-178v-356q0 -147 92 -148q55 0 140 59l28 -59q-49 -47 -125 -82t-127 -35q-113 0 -176 66t-63 184v371z" />
    <glyph glyph-name="u" unicode="u" horiz-adv-x="1122" 
d="M492 -35q-150 0 -240 88t-90 219v113q0 154 -30 196t-132 42v59h393v-383q0 -107 33 -163t109 -56t135 54t59 149v102q0 152 -30 195t-132 43v59h394v-377q1 -153 25 -195t116 -42v-52l-334 -47q-23 47 -33 115q-93 -119 -243 -119z" />
    <glyph glyph-name="v" unicode="v" horiz-adv-x="802" 
d="M539 682h307v-59q-53 0 -85 -23t-61 -80l-274 -557h-57l-275 557q-27 57 -57 80q-31 23 -80 23v59h449v-59q-62 0 -78 -25t10 -78l127 -270l133 270q52 103 -59 103v59z" />
    <glyph glyph-name="w" unicode="w" horiz-adv-x="1128" 
d="M-33 682h441v-59q-66 0 -79 -23t13 -80l94 -221l166 383h49l174 -403l105 241q26 57 14 80t-70 23v59h304v-59q-58 0 -92 -22t-56 -81l-242 -557h-45l-174 406l-176 -406h-45l-242 557q-25 61 -54 82q-30 20 -85 21v59z" />
    <glyph glyph-name="x" unicode="x" horiz-adv-x="901" 
d="M342 59v-59h-326v59q78 0 181 103l147 147l-145 211q-41 62 -82 82t-99 21v59h482v-59q-62 0 -72 -22t29 -81l45 -69l65 69q51 57 43 80t-69 23v59h333v-59q-96 0 -196 -103l-131 -133l155 -225q43 -62 85 -82t112 -21v-59h-506v59q72 0 81 26t-30 77l-57 84l-80 -84
q-51 -55 -42 -79t77 -24z" />
    <glyph glyph-name="y" unicode="y" horiz-adv-x="796" 
d="M207 -553q-29 0 -55 17q-26 16 -27 54t23 60t65 66q41 43 68 110l88 217l-246 549q-45 102 -137 103v59h450v-59q-66 0 -80 -23t11 -80l120 -266l111 266q22 55 10 79t-69 24v59h303v-59q-102 0 -146 -103l-413 -997q-31 -76 -76 -76z" />
    <glyph glyph-name="z" unicode="z" horiz-adv-x="768" 
d="M668 682v-33l-306 -567h39q131 0 176 27q44 27 60 94l10 41h43l-16 -244h-594v35l305 565h-10q-131 0 -175 -27t-61 -94l-10 -41h-43l14 244h568z" />
    <glyph glyph-name="braceleft" unicode="{" horiz-adv-x="768" 
d="M552 1226q-36 -72 -36 -238q0 -167 -40 -245q-40 -79 -129 -112q-32 -12 -83 -25q162 -38 207 -128t45 -256t36 -236q36 -72 157 -154l-47 -59q-20 12 -76 42t-115 65q-60 35 -88 73q-28 39 -64 96t-36 163q-1 108 -11 168t-22 93t-44 59t-52 33q-20 8 -68 25v33
q48 16 68 24t52 34q74 61 76 247q1 141 34 229q40 108 210 208q23 13 69 38t67 37l47 -62q-121 -80 -157 -152z" />
    <glyph glyph-name="bar" unicode="|" horiz-adv-x="561" 
d="M227 1405h107v-1602h-107v1602z" />
    <glyph glyph-name="braceright" unicode="}" horiz-adv-x="768" 
d="M216 -14q36 72 36 239t40 246q40 78 129 111q32 12 83 24q-161 38 -206 128q-46 90 -46 256t-36 237q-36 72 -157 151l47 62q18 -10 74 -41t81 -46q24 -15 69 -46t65 -60t46 -69q46 -70 46 -187q-1 -118 11 -184q12 -65 44 -101t58 -50t82 -33v-33q-57 -20 -83 -34
q-25 -14 -57 -49t-43 -101t-11 -149t-11 -133q-10 -50 -36 -91t-46 -69t-65 -58l-69 -46q-24 -15 -79 -45t-76 -42l-47 59q121 82 157 154z" />
    <glyph glyph-name="asciitilde" unicode="~" horiz-adv-x="866" 
d="M610 455q90 0 119 110h43q0 -153 -49 -233t-139 -80q-51 0 -174 66t-161 67q-38 0 -71 -31t-45 -80h-43q0 142 48 226t128 84q55 0 176 -64t168 -65z" />
    <glyph glyph-name="nbspace" unicode="&#xa0;" horiz-adv-x="477" 
 />
    <glyph glyph-name="exclamdown" unicode="&#xa1;" horiz-adv-x="673" 
d="M457 781q0 -48 -35 -83q-35 -34 -84 -34t-82 34t-33 84q0 49 33 83t82 34t84 -35t35 -83zM498 -223q0 -63 -48 -111t-112 -47q-64 0 -109 47t-45 116q0 70 26 142q84 234 93 563h70q6 -172 26 -297t42 -177q21 -53 39 -113t18 -123z" />
    <glyph glyph-name="cent" unicode="&#xa2;" horiz-adv-x="948" 
d="M481 821q-111 -66 -110 -293q0 -152 110 -221v514zM612 270q98 0 207 95l37 -60q-115 -117 -281 -133v-342h-94v344q-156 16 -259 114t-103 252q0 152 107 260q108 108 255 120v344h94v-346q99 -12 159 -60t60 -91q0 -42 -22 -70q-23 -27 -63 -27q-39 0 -63 24t-23 58
q0 63 -48 84v-564q12 -2 37 -2z" />
    <glyph glyph-name="sterling" unicode="&#xa3;" horiz-adv-x="1085" 
d="M225 592h-168v90h168v111q0 241 94 357t299 116q127 0 209 -65t82 -134q1 -37 -21 -63t-65 -25q-43 0 -71 33q-28 34 -38 72q-9 38 -34 71t-68 33q-84 0 -120 -67t-35 -228v-211h291v-90h-291v-109q0 -279 -125 -360h379q131 0 173 33t64 123l10 40h60l-19 -319h-936v59
q102 0 133 43q30 43 29 197v293z" />
    <glyph glyph-name="currency" unicode="&#xa4;" horiz-adv-x="1314" 
d="M864 535v-89h-401q45 -383 287 -383q145 1 229 103t127 307h59v-450h-57q-25 102 -47 116q-121 -174 -319 -174t-344 136t-193 345h-137v89h122q-4 53 -4 79t4 76h-122v88h137q45 209 191 347q146 139 350 139t315 -174q23 18 47 116h57v-450h-59q-43 207 -127 308
t-229 101q-246 0 -287 -387h401v-88h-407q-2 -26 -2 -78t2 -77h407z" />
    <glyph glyph-name="yen" unicode="&#xa5;" horiz-adv-x="1296" 
d="M774 307v-8q0 -154 34 -197t161 -43v-59h-639v59q127 0 162 43t34 197v8h-274v88h274v142h-274v90h237l-239 362q-72 109 -130 145t-167 35v60h694v-60q-109 1 -135 -35t27 -120l209 -316l208 316q57 84 33 120q-25 36 -143 35v60h495v-60q-121 1 -173 -35t-121 -145
l-242 -362h244v-90h-275v-142h275v-88h-275z" />
    <glyph glyph-name="brokenbar" unicode="&#xa6;" horiz-adv-x="561" 
d="M227 494h107v-691h-107v691zM227 1405h107v-690h-107v690z" />
    <glyph glyph-name="section" unicode="&#xa7;" horiz-adv-x="1019" 
d="M289 526q0 -51 36 -103t99 -85l192 -98l52 -29q61 51 61 143q0 52 -36 104t-99 85l-193 98l-51 29q-61 -47 -61 -144zM547 -383q-139 0 -254 84q-47 -39 -60 -94h-57v450h60q12 -147 80 -248t214 -102q66 0 110 42q44 43 44 99t-39 110t-106 89l-179 92q-104 53 -171 137
t-66 189q0 166 139 264q-113 94 -112 244q0 119 91 205t231 86t220 -84q45 41 58 94h57v-400h-59q-29 299 -261 300q-65 0 -109 -42t-44 -98t39 -111q39 -54 106 -89l178 -91q104 -55 171 -139t67 -188q0 -164 -141 -264q113 -94 112 -244q0 -119 -90 -205t-229 -86z" />
    <glyph glyph-name="dieresis" unicode="&#xa8;" horiz-adv-x="757" 
d="M145 1403q43 0 74 -30t31 -74q0 -45 -31 -75t-74 -30t-73 31t-31 75q1 44 31 73q30 30 73 30zM553 1403q43 0 74 -30t31 -74q0 -45 -32 -75q-30 -30 -73 -30t-74 31t-31 75t31 73q31 30 74 30z" />
    <glyph glyph-name="copyright" unicode="&#xa9;" horiz-adv-x="1398" 
d="M1018 254h-47q-8 57 -29 82q-40 -45 -108 -77t-127 -32q-154 0 -264 114q-109 115 -109 273t109 273q110 115 264 114q59 1 128 -31t107 -77q20 25 29 82h47v-289h-49q-47 238 -215 238q-100 0 -152 -87t-53 -223q0 -136 51 -223q51 -86 154 -86q168 0 215 240h49v-291z
M700 1169q-229 -1 -392 -163t-163 -392t163 -392q163 -163 392 -163t393 163q163 163 162 392q0 229 -162 393q-164 162 -393 162zM700 1264q268 0 458 -190t190 -460q0 -268 -190 -458t-458 -190t-458 190t-191 458q1 268 191 459t458 191z" />
    <glyph glyph-name="ordfeminine" unicode="&#xaa;" horiz-adv-x="919" 
d="M293 743q0 -76 78 -75q67 0 161 86v166q-127 -35 -183 -72t-56 -105zM532 999q0 185 -112 185q-51 0 -85 -20t-34 -57q-1 -35 -23 -59t-55 -24t-55 24t-21 60q0 70 85 113q84 43 222 43t210 -62t71 -203v-264q0 -74 43 -73q29 0 58 24l28 -53q-98 -72 -182 -72
q-129 0 -150 111q-88 -66 -135 -90t-117 -23q-70 0 -124 44q-55 44 -56 118q0 117 112 180t320 96v2z" />
    <glyph glyph-name="guillemotleft" unicode="&#xab;" horiz-adv-x="1091" 
d="M1010 139l-31 -45l-451 322l451 319l31 -43l-228 -276zM680 57l-33 -43l-553 402l553 399l33 -41l-295 -358z" />
    <glyph glyph-name="logicalnot" unicode="&#xac;" horiz-adv-x="1148" 
d="M922 586v-350h-140v210h-612v140h752z" />
    <glyph glyph-name="registered" unicode="&#xae;" horiz-adv-x="1048" 
d="M524 1202q-170 0 -291 -121t-121 -291t122 -290q120 -121 302 -121t306 149h-166l-162 230h-25v-49q1 -90 19 -116t80 -26v-39h-328v39q61 0 79 25q17 25 17 117v174q0 89 -17 115t-79 26v37h309q84 0 134 -43q51 -42 51 -102t-33 -98t-86 -52l86 -84q88 -93 151 -111
q63 106 64 220q0 171 -121 291t-291 120zM612 909q0 41 -24 68q-25 27 -58 27h-41v-189h41q34 1 58 27t24 67zM524 1264q197 0 336 -138t139 -336q0 -196 -139 -334t-336 -138t-335 138t-138 335t138 335t335 138z" />
    <glyph glyph-name="macron" unicode="&#xaf;" horiz-adv-x="634" 
d="M530 1235h-430v72h430v-72z" />
    <glyph glyph-name="degree" unicode="&#xb0;" horiz-adv-x="819" 
d="M409 1104q-73 0 -125 -54t-52 -126t52 -126t125 -54t123 52q50 54 52 128q0 74 -51 127t-124 53zM409 1231q126 0 216 -90t90 -217t-90 -217q-90 -91 -217 -91q-128 0 -218 90t-90 217q0 126 91 217q92 91 218 91z" />
    <glyph glyph-name="plusminus" unicode="&#xb1;" 
d="M541 125h295v-125h-734v125h295v258h-295v141h295v295h144v-295h295v-141h-295v-258z" />
    <glyph glyph-name="twosuperior" unicode="&#xb2;" horiz-adv-x="688" 
d="M84 588v47l250 237q94 90 94 183q0 41 -30 78t-98 37t-100 -53q-34 -52 11 -144l-55 -51q-80 55 -84 137t65 143q69 62 181 62t194 -56t82 -147q0 -127 -123 -211l-182 -129h325l-18 -133h-512z" />
    <glyph glyph-name="threesuperior" unicode="&#xb3;" horiz-adv-x="688" 
d="M627 763q0 -81 -80 -146t-216 -65t-206 85q-47 57 -12 84q12 10 39 10t58 -53q29 -53 130 -53q55 0 86 43t31 100t-33 92t-84 47q-16 -20 -33 -47q-29 -47 -63 -32t-19 51l15 20l157 162h-114q-111 0 -129 -76l-11 -37h-45l37 281h475v-47l-184 -178q78 -20 140 -90
t61 -151z" />
    <glyph glyph-name="acute" unicode="&#xb4;" horiz-adv-x="464" 
d="M401 1368q0 -49 -61 -82l-367 -153l-12 18l248 231q68 62 110 62t62 -24t20 -52z" />
    <glyph glyph-name="mu" unicode="&#xb5;" horiz-adv-x="1140" 
d="M170 385q0 154 -30 196t-132 42v59h393v-383q0 -219 148 -219q70 0 130 54t60 149v102q0 152 -29 195q-30 43 -132 43v59h391v-367q-1 -153 29 -195t135 -42v-62l-359 -51q-20 39 -31 119q-94 -119 -256 -119q-41 0 -86 10v-24q0 -154 30 -197t132 -43v-59h-555v59
q102 0 132 43t30 197v434z" />
    <glyph glyph-name="paragraph" unicode="&#xb6;" horiz-adv-x="1153" 
d="M1032 1229v-60q-127 0 -162 -43t-34 -196v-979q0 -154 34 -197t162 -43v-59h-321v1470h-172v-1470h-322v59q127 0 162 43t35 197v586q-131 14 -221 112q-91 99 -91 237t102 240t247 103h581z" />
    <glyph glyph-name="periodcentered" unicode="&#xb7;" horiz-adv-x="579" 
d="M291 553q55 0 92 -38t37 -93t-37 -93t-92 -38t-93 38t-38 93t38 93t93 38z" />
    <glyph glyph-name="cedilla" unicode="&#xb8;" horiz-adv-x="446" 
d="M465 -264q0 -151 -166 -220q-124 -52 -223 -67v74q227 72 227 198q0 66 -86 93t-184 -4v36l289 287h118l-198 -203q84 -4 154 -58t69 -136z" />
    <glyph glyph-name="onesuperior" unicode="&#xb9;" horiz-adv-x="688" 
d="M557 596h-420v55q70 0 90 31t21 133v191q0 98 -29 128t-108 25v55l333 48v-447q0 -102 20 -133t93 -31v-55z" />
    <glyph glyph-name="ordmasculine" unicode="&#xba;" horiz-adv-x="1030" 
d="M516 641q76 1 115 75t39 190t-40 192t-115 76t-114 -76t-39 -192t39 -190t115 -75zM516 549q-162 0 -278 105q-116 106 -115 252q0 146 116 252q115 106 277 106t276 -106t115 -252q0 -146 -114 -252q-115 -105 -277 -105z" />
    <glyph glyph-name="guillemotright" unicode="&#xbb;" horiz-adv-x="1091" 
d="M84 139l227 277l-227 276l29 43l450 -319l-450 -322zM414 57l293 359l-293 358l32 41l553 -399l-553 -402z" />
    <glyph glyph-name="onequarter" unicode="&#xbc;" horiz-adv-x="1546" 
d="M557 596h-420v55q70 0 90 31t21 133v191q0 98 -29 128t-108 25v55l333 48v-447q0 -102 20 -133t93 -31v-55zM1174 1225l-758 -1262l-80 43l756 1264zM1100 274v177l-156 -177h156zM1288 190q0 -80 22 -104t95 -25v-61h-424v61q75 0 97 25t22 104h-283v52l400 452h71v-420
q45 2 69 24t40 83l8 35h59l-12 -226h-164z" />
    <glyph glyph-name="onehalf" unicode="&#xbd;" horiz-adv-x="1546" 
d="M920 0v47l249 238q94 90 95 182q0 41 -30 78t-98 37t-101 -52q-34 -52 12 -145l-56 -51q-80 55 -84 137t66 143q69 62 181 62t194 -55t82 -148q0 -127 -123 -211l-183 -129h326l-18 -133h-512zM557 596h-420v55q70 0 90 31t21 133v191q0 98 -29 128t-108 25v55l333 48
v-447q0 -102 20 -133t93 -31v-55zM1174 1225l-758 -1262l-80 43l756 1264z" />
    <glyph glyph-name="threequarters" unicode="&#xbe;" horiz-adv-x="1546" 
d="M1198 1225l-756 -1262l-80 43l756 1264zM1100 274v177l-156 -177h156zM1288 190q0 -80 22 -104t95 -25v-61h-424v61q75 0 97 25t22 104h-283v52l400 452h71v-420q45 2 69 24t40 83l8 35h59l-12 -226h-164zM627 763q0 -81 -80 -146t-216 -65t-206 85q-47 57 -12 84
q12 10 39 10t58 -53q29 -53 130 -53q55 0 86 43t31 100t-33 92t-84 47q-16 -20 -33 -47q-29 -47 -63 -32t-19 51l15 20l157 162h-114q-111 0 -129 -76l-11 -37h-45l37 281h475v-47l-184 -178q78 -20 140 -90t61 -151z" />
    <glyph glyph-name="questiondown" unicode="&#xbf;" horiz-adv-x="1050" 
d="M776 781q0 -48 -35 -83q-35 -34 -83 -34t-80 34t-33 84q0 49 33 83q32 34 80 34t83 -35t35 -83zM948 -153q0 -98 -106 -164t-228 -66q-206 0 -332 115t-126 250q0 184 127 294t331 136v110h91v-356q-174 0 -285 -66t-111 -178q0 -88 86 -156t217 -67q84 0 137 31
q52 31 52 61q0 47 -70 47q-37 0 -63 26t-27 68q0 42 44 71q45 28 99 28t109 -43t55 -141z" />
    <glyph glyph-name="Agrave" unicode="&#xc0;" horiz-adv-x="1280" 
d="M719 502l-164 385l-166 -385h330zM418 59v-59h-496v59q106 0 156 36q49 36 96 145l444 1024h44l446 -1024q47 -109 91 -145t159 -36v-59h-668v59q131 0 163 37t-9 119l-86 195h-410l-84 -195q-39 -84 -5 -120t159 -36zM338 1614q0 28 20 52t62 24t110 -62l250 -231
l-14 -19l-367 154q-61 33 -61 82z" />
    <glyph glyph-name="Aacute" unicode="&#xc1;" horiz-adv-x="1280" 
d="M719 502l-164 385l-166 -385h330zM418 59v-59h-496v59q106 0 156 36q49 36 96 145l444 1024h44l446 -1024q47 -109 91 -145t159 -36v-59h-668v59q131 0 163 37t-9 119l-86 195h-410l-84 -195q-39 -84 -5 -120t159 -36zM915 1614q0 -49 -61 -82l-367 -154l-12 19l248 231
q68 62 110 62t62 -24t20 -52z" />
    <glyph glyph-name="Acircumflex" unicode="&#xc2;" horiz-adv-x="1280" 
d="M719 502l-164 385l-166 -385h330zM418 59v-59h-496v59q106 0 156 36q49 36 96 145l444 1024h44l446 -1024q47 -109 91 -145t159 -36v-59h-668v59q131 0 163 37t-9 119l-86 195h-410l-84 -195q-39 -84 -5 -120t159 -36zM930 1411l-31 -29l-262 170l-262 -170l-31 29
l293 318z" />
    <glyph glyph-name="Atilde" unicode="&#xc3;" horiz-adv-x="1280" 
d="M719 502l-164 385l-166 -385h330zM418 59v-59h-496v59q106 0 156 36q49 36 96 145l444 1024h44l446 -1024q47 -109 91 -145t159 -36v-59h-668v59q131 0 163 37t-9 119l-86 195h-410l-84 -195q-39 -84 -5 -120t159 -36zM797 1497q80 0 106 117h39q0 -114 -45 -180
t-123 -66q-45 0 -158 68q-114 68 -146 68t-60 -34q-28 -33 -43 -79h-37q0 104 46 173q46 68 104 68t166 -68t151 -67z" />
    <glyph glyph-name="Adieresis" unicode="&#xc4;" horiz-adv-x="1280" 
d="M719 502l-164 385l-166 -385h330zM418 59v-59h-496v59q106 0 156 36q49 36 96 145l444 1024h44l446 -1024q47 -109 91 -145t159 -36v-59h-668v59q131 0 163 37t-9 119l-86 195h-410l-84 -195q-39 -84 -5 -120t159 -36zM431 1589q42 -1 73 -31t31 -73t-31 -74t-73 -31
t-74 31t-31 74q0 43 31 74q32 30 74 30zM733 1485q0 43 31 73t75 31q43 -1 73 -31t30 -73t-30 -74t-74 -31t-74 31q-31 31 -31 74z" />
    <glyph glyph-name="Aring" unicode="&#xc5;" horiz-adv-x="1280" 
d="M719 502l-164 385l-166 -385h330zM418 59v-59h-496v59q106 0 156 36q49 36 96 145l444 1024h44l446 -1024q47 -109 91 -145t159 -36v-59h-668v59q131 0 163 37t-9 119l-86 195h-410l-84 -195q-39 -84 -5 -120t159 -36zM631 1679q-39 1 -66 -27t-27 -67t28 -67
q26 -28 65 -27q39 0 67 28q28 29 27 67q1 38 -27 66t-67 27zM631 1788q84 0 144 -59q61 -59 61 -143t-60 -144t-145 -60q-83 0 -143 60t-60 143q0 84 59 144q60 59 144 59z" />
    <glyph glyph-name="AE" unicode="&#xc6;" horiz-adv-x="1732" 
d="M1262 1137h-273v-445h10q166 0 233 37t66 160h60v-481h-60q0 120 -66 158t-233 38h-10v-272q0 -154 35 -197t162 -43h143q165 0 206 66q17 29 32 90l10 41h59l-16 -289h-1081v59q127 0 161 43t33 197v195h-323l-152 -295q-43 -84 -16 -112t143 -28v-59h-496v59
q117 0 172 31t107 131l520 1008h864l17 -289h-60l-10 41q-25 92 -65 124q-41 32 -172 32zM733 586v534l-276 -534h276z" />
    <glyph glyph-name="Ccedilla" unicode="&#xc7;" horiz-adv-x="1417" 
d="M729 -301q0 53 -58 73t-139 -3v28l175 172q-238 27 -400 211t-162 443q1 259 185 449t444 192q217 0 381 -174q31 25 53 116h58v-450h-60q-41 197 -154 303q-114 106 -270 106q-273 0 -343 -356q-17 -93 -17 -195q0 -216 74 -369q38 -83 112 -132t174 -50q154 0 269 108
t155 302h60v-450h-58q-25 96 -53 116q-155 -162 -354 -174l-101 -100q66 -2 122 -45q56 -42 56 -108q1 -123 -132 -178q-99 -41 -179 -54v59q162 49 162 160z" />
    <glyph glyph-name="Egrave" unicode="&#xc8;" horiz-adv-x="1312" 
d="M483 1690q41 0 113 -62l250 -231l-15 -19l-366 154q-61 33 -62 82q-1 28 19 52t61 24zM78 0v59q127 0 161 43t33 197v631q0 154 -34 196t-160 43v60h1055l16 -289h-59l-11 41q-25 92 -65 124q-41 32 -172 32h-314v-441h113q154 0 196 35t42 162h59v-485h-59
q0 128 -42 162t-196 34h-113v-272q0 -154 35 -197t162 -43h184q167 0 206 66q17 29 32 90l10 41h60l-17 -289h-1122z" />
    <glyph glyph-name="Eacute" unicode="&#xc9;" horiz-adv-x="1312" 
d="M1020 1607q0 -36 -62 -73l-368 -156l-10 21l245 231q121 102 175 38q20 -24 20 -61zM78 0v59q127 0 161 43t33 197v631q0 154 -34 196t-160 43v60h1055l16 -289h-59l-11 41q-25 92 -65 124q-41 32 -172 32h-314v-441h113q154 0 196 35t42 162h59v-485h-59q0 128 -42 162
t-196 34h-113v-272q0 -154 35 -197t162 -43h184q167 0 206 66q17 29 32 90l10 41h60l-17 -289h-1122z" />
    <glyph glyph-name="Ecircumflex" unicode="&#xca;" horiz-adv-x="1312" 
d="M971 1411l-31 -29l-262 170l-262 -170l-31 29l293 318zM78 0v59q127 0 161 43t33 197v631q0 154 -34 196t-160 43v60h1055l16 -289h-59l-11 41q-25 92 -65 124q-41 32 -172 32h-314v-441h113q154 0 196 35t42 162h59v-485h-59q0 128 -42 162t-196 34h-113v-272
q0 -154 35 -197t162 -43h184q167 0 206 66q17 29 32 90l10 41h60l-17 -289h-1122z" />
    <glyph glyph-name="Edieresis" unicode="&#xcb;" horiz-adv-x="1312" 
d="M498 1589q42 -1 72 -31t30 -73t-30 -74t-72 -31t-74 31q-31 31 -31 74t31 73t74 31zM904 1589q44 -1 75 -31t31 -73t-31 -74t-75 -31t-74 31t-29 74q0 43 29 74q30 30 74 30zM78 0v59q127 0 161 43t33 197v631q0 154 -34 196t-160 43v60h1055l16 -289h-59l-11 41
q-25 92 -65 124q-41 32 -172 32h-314v-441h113q154 0 196 35t42 162h59v-485h-59q0 128 -42 162t-196 34h-113v-272q0 -154 35 -197t162 -43h184q167 0 206 66q17 29 32 90l10 41h60l-17 -289h-1122z" />
    <glyph glyph-name="Igrave" unicode="&#xcc;" horiz-adv-x="802" 
d="M78 1614q0 28 19 52t61 24t112 -62l248 -231l-12 -19l-367 154q-61 33 -61 82zM725 0h-647v59q127 0 161 43t33 197v631q0 154 -34 196t-160 43v60h647v-60q-127 0 -162 -43t-35 -196v-631q0 -154 35 -197t162 -43v-59z" />
    <glyph glyph-name="Iacute" unicode="&#xcd;" horiz-adv-x="802" 
d="M717 1614q0 -49 -62 -82l-366 -154l-13 19l248 231q120 102 172 37q21 -24 21 -51zM725 0h-647v59q127 0 161 43t33 197v631q0 154 -34 196t-160 43v60h647v-60q-127 0 -162 -43t-35 -196v-631q0 -154 35 -197t162 -43v-59z" />
    <glyph glyph-name="Icircumflex" unicode="&#xce;" horiz-adv-x="802" 
d="M702 1411l-30 -29l-264 170l-263 -170l-30 29l293 318zM725 0h-647v59q127 0 161 43t33 197v631q0 154 -34 196t-160 43v60h647v-60q-127 0 -162 -43t-35 -196v-631q0 -154 35 -197t162 -43v-59z" />
    <glyph glyph-name="Idieresis" unicode="&#xcf;" horiz-adv-x="802" 
d="M98 1485q0 43 31 73t74 31q43 -1 73 -31t29 -73q0 -43 -30 -74q-31 -31 -73 -31t-73 31t-31 74zM506 1485q0 43 30 73t73 31q44 -1 74 -31t30 -73t-30 -74t-74 -31q-43 0 -73 31t-30 74zM725 0h-647v59q127 0 161 43t33 197v631q0 154 -34 196t-160 43v60h647v-60
q-127 0 -162 -43t-35 -196v-631q0 -154 35 -197t162 -43v-59z" />
    <glyph glyph-name="Eth" unicode="&#xd0;" horiz-adv-x="1581" 
d="M528 659h189v-92h-189v-243q0 -150 35 -191t162 -41h20q96 0 169 33q231 104 231 489q0 270 -115 406q-43 51 -116 84t-169 33h-217v-478zM272 567h-186v92h186v271q0 154 -34 196t-160 43v60h676q340 0 511 -172q171 -173 171 -443t-171 -442t-511 -172h-676v59
q127 0 161 43t33 197v268z" />
    <glyph glyph-name="Ntilde" unicode="&#xd1;" horiz-adv-x="1533" 
d="M938 1487q80 0 106 117h39q0 -115 -45 -181t-123 -65q-45 0 -157 68t-144 67q-32 0 -62 -33t-44 -80h-37q0 104 46 173q47 69 105 69t166 -68t150 -67zM1171 930q-1 154 -35 196t-161 43v60h485v-60q-129 0 -163 -42t-33 -197v-965h-52l-847 1012v-678q1 -154 35 -197
t161 -43v-59h-483v59q127 0 161 43t33 197v631q0 154 -34 196t-160 43v60h409l684 -815v516z" />
    <glyph glyph-name="Ograve" unicode="&#xd2;" horiz-adv-x="1603" 
d="M508 1614q0 28 19 52t63 24t110 -62l248 -231l-12 -19l-367 154q-23 10 -42 32t-19 50zM1210 614q0 133 -40 254t-136 209t-232 88t-232 -88q-174 -159 -175 -463q0 -304 174 -462q97 -88 233 -88t232 88t136 208t40 254zM1485 614q0 -268 -201 -458q-200 -190 -482 -190
t-483 190t-200 458q0 268 200 459q201 191 483 191t482 -191t201 -459z" />
    <glyph glyph-name="Oacute" unicode="&#xd3;" horiz-adv-x="1603" 
d="M1083 1613q0 -27 -19 -49t-42 -32l-367 -154l-12 19l248 231q68 62 111 62t62 -24t19 -53zM1210 614q0 133 -40 254t-136 209t-232 88t-232 -88q-174 -159 -175 -463q0 -304 174 -462q97 -88 233 -88t232 88t136 208t40 254zM1485 614q0 -268 -201 -458
q-200 -190 -482 -190t-483 190t-200 458q0 268 200 459q201 191 483 191t482 -191t201 -459z" />
    <glyph glyph-name="Ocircumflex" unicode="&#xd4;" horiz-adv-x="1603" 
d="M1098 1407l-31 -29l-262 170l-264 -170l-31 29l295 317zM1210 614q0 133 -40 254t-136 209t-232 88t-232 -88q-174 -159 -175 -463q0 -304 174 -462q97 -88 233 -88t232 88t136 208t40 254zM1485 614q0 -268 -201 -458q-200 -190 -482 -190t-483 190t-200 458
q0 268 200 459q201 191 483 191t482 -191t201 -459z" />
    <glyph glyph-name="Otilde" unicode="&#xd5;" horiz-adv-x="1603" 
d="M967 1497q78 0 104 117h41q0 -114 -46 -180t-124 -66q-45 0 -156 68q-110 68 -144 68t-64 -34q-30 -33 -41 -79h-39q0 104 46 173q46 68 104 68t166 -68t153 -67zM1210 614q0 133 -40 254t-136 209t-232 88t-232 -88q-174 -159 -175 -463q0 -304 174 -462q97 -88 233 -88
t232 88t136 208t40 254zM1485 614q0 -268 -201 -458q-200 -190 -482 -190t-483 190t-200 458q0 268 200 459q201 191 483 191t482 -191t201 -459z" />
    <glyph glyph-name="Odieresis" unicode="&#xd6;" horiz-adv-x="1603" 
d="M604 1589q43 -1 73 -31t30 -73t-30 -74t-73 -31t-75 31t-31 74q0 43 31 74q32 30 75 30zM907 1485q0 43 30 73t74 31q43 -1 73 -31t30 -73t-30 -74t-74 -31t-73 31q-30 31 -30 74zM1210 614q0 133 -40 254t-136 209t-232 88t-232 -88q-174 -159 -175 -463
q0 -304 174 -462q97 -88 233 -88t232 88t136 208t40 254zM1485 614q0 -268 -201 -458q-200 -190 -482 -190t-483 190t-200 458q0 268 200 459q201 191 483 191t482 -191t201 -459z" />
    <glyph glyph-name="multiply" unicode="&#xd7;" 
d="M569 453l230 -230l-99 -100l-229 229l-231 -229l-101 100l230 232l-230 229l101 98l229 -229l229 229l101 -100z" />
    <glyph glyph-name="Oslash" unicode="&#xd8;" horiz-adv-x="1603" 
d="M119 614q0 268 200 459q201 190 484 191q156 0 293 -64l75 127l80 -41l-75 -129q141 -88 225 -232t84 -311q0 -268 -201 -458t-481 -191q-156 0 -293 64l-76 -127l-80 43l74 127q-141 88 -225 232t-84 310zM799 1165q-133 0 -229 -88q-174 -159 -175 -463
q0 -243 117 -401l516 872q-96 80 -229 80zM804 63q134 1 230 89q176 162 176 462q1 242 -118 402q-514 -872 -517 -873q95 -80 229 -80z" />
    <glyph glyph-name="Ugrave" unicode="&#xd9;" horiz-adv-x="1501" 
d="M518 1690q41 0 113 -62l248 -231l-13 -19l-368 154q-62 37 -62 73q0 37 20 61t62 24zM1135 930q0 156 -34 198t-163 41v60h502v-60q-127 0 -161 -43t-34 -196v-473q0 -231 -140 -361t-353 -131q-213 0 -353 129q-139 129 -139 363v473q0 154 -35 196t-162 43v60h650v-60
q-129 0 -163 -42t-34 -197v-451q0 -191 89 -289t227 -98t221 98q82 98 82 289v451z" />
    <glyph glyph-name="Uacute" unicode="&#xda;" horiz-adv-x="1501" 
d="M1137 1614q0 -49 -62 -82l-366 -154l-13 19l248 231q120 102 172 37q21 -24 21 -51zM1135 930q0 156 -34 198t-163 41v60h502v-60q-127 0 -161 -43t-34 -196v-473q0 -231 -140 -361t-353 -131q-213 0 -353 129q-139 129 -139 363v473q0 154 -35 196t-162 43v60h650v-60
q-129 0 -163 -42t-34 -197v-451q0 -191 89 -289t227 -98t221 98q82 98 82 289v451z" />
    <glyph glyph-name="Ucircumflex" unicode="&#xdb;" horiz-adv-x="1501" 
d="M1094 1411l-31 -29l-262 170l-262 -170l-31 29l293 318zM1135 930q0 156 -34 198t-163 41v60h502v-60q-127 0 -161 -43t-34 -196v-473q0 -231 -140 -361t-353 -131q-213 0 -353 129q-139 129 -139 363v473q0 154 -35 196t-162 43v60h650v-60q-129 0 -163 -42t-34 -197
v-451q0 -191 89 -289t227 -98t221 98q82 98 82 289v451z" />
    <glyph glyph-name="Udieresis" unicode="&#xdc;" horiz-adv-x="1501" 
d="M489 1487q0 43 32 73t74 31q42 -1 73 -31q30 -30 30 -73t-30 -74t-73 -31q-42 0 -74 31t-32 74zM897 1487q1 43 31 73t74 31q44 -1 74 -31t30 -73t-30 -74t-74 -31t-74 31t-31 74zM1135 930q0 156 -34 198t-163 41v60h502v-60q-127 0 -161 -43t-34 -196v-473
q0 -231 -140 -361t-353 -131q-213 0 -353 129q-139 129 -139 363v473q0 154 -35 196t-162 43v60h650v-60q-129 0 -163 -42t-34 -197v-451q0 -191 89 -289t227 -98t221 98q82 98 82 289v451z" />
    <glyph glyph-name="Yacute" unicode="&#xdd;" horiz-adv-x="1296" 
d="M1022 1614q0 -47 -61 -80l-367 -156l-12 21l247 231q72 62 113 62q40 0 60 -24t20 -54zM1362 1169q-121 1 -173 -35t-122 -145l-293 -442v-248q0 -154 34 -197t161 -43v-59h-639v59q127 0 162 43t34 197v242l-297 448q-72 109 -130 145t-167 35v60h695v-60
q-215 0 -109 -155l230 -346l229 346q57 84 33 120q-25 36 -144 35v60h496v-60z" />
    <glyph glyph-name="Thorn" unicode="&#xde;" horiz-adv-x="1224" 
d="M641 377q129 1 196 71t67 182t-68 184t-195 71h-113v-508h113zM764 977q186 0 300 -99q114 -98 114 -246t-114 -248t-300 -99h-236q2 -143 37 -185t160 -41v-59h-647v59q127 0 161 43t33 197v631q0 154 -34 196t-160 43v60h647v-60q-119 1 -156 -35t-41 -157h236z" />
    <glyph glyph-name="germandbls" unicode="&#xdf;" horiz-adv-x="1214" 
d="M225 848q0 211 94 313t291 103q144 0 228 -62t84 -172q0 -74 -77 -186t-77 -189q0 -41 22 -73t46 -48q24 -15 73 -45l101 -53q158 -88 157 -231q0 -115 -84 -177q-85 -62 -179 -62t-178 41q-67 34 -78 16q-11 -17 -11 -58h-59v299h59q0 -74 77 -144t173 -69q47 0 77 26
t29 62q0 72 -131 144l-114 61q-154 80 -154 246q0 82 74 227t73 213q0 150 -139 150q-145 0 -145 -244v-936h-394v59q102 0 133 43q30 43 29 197v324h-162v59q98 0 131 38q31 38 31 128z" />
    <glyph glyph-name="agrave" unicode="&#xe0;" horiz-adv-x="923" 
d="M260 1145q41 0 113 -62l248 -231l-13 -18l-366 155q-61 29 -62 80q0 29 20 53t60 23zM295 170q0 -82 80 -82q68 0 172 92v174q-131 -35 -192 -73q-60 -39 -60 -111zM547 438q0 195 -120 195q-54 0 -89 -22q-35 -23 -35 -61q1 -38 -23 -62t-59 -24t-59 24t-23 65
q0 74 90 119q91 45 235 45q298 0 298 -279v-276q0 -78 43 -78q23 0 61 25l29 -56q-100 -76 -193 -76q-135 0 -155 119q-93 -72 -143 -98t-122 -25q-72 0 -130 47q-59 47 -60 125q0 123 118 191t337 100v2z" />
    <glyph glyph-name="aacute" unicode="&#xe1;" horiz-adv-x="923" 
d="M756 1069q0 -51 -62 -80l-366 -155l-13 18l248 231q72 61 113 61q40 0 60 -22q20 -24 20 -53zM295 170q0 -82 80 -82q68 0 172 92v174q-131 -35 -192 -73q-60 -39 -60 -111zM547 438q0 195 -120 195q-54 0 -89 -22q-35 -23 -35 -61q1 -38 -23 -62t-59 -24t-59 24t-23 65
q0 74 90 119q91 45 235 45q298 0 298 -279v-276q0 -78 43 -78q23 0 61 25l29 -56q-100 -76 -193 -76q-135 0 -155 119q-93 -72 -143 -98t-122 -25q-72 0 -130 47q-59 47 -60 125q0 123 118 191t337 100v2z" />
    <glyph glyph-name="acircumflex" unicode="&#xe2;" horiz-adv-x="923" 
d="M768 866l-31 -30l-262 172l-264 -172l-31 30l295 318zM295 170q0 -82 80 -82q68 0 172 92v174q-131 -35 -192 -73q-60 -39 -60 -111zM547 438q0 195 -120 195q-54 0 -89 -22q-35 -23 -35 -61q1 -38 -23 -62t-59 -24t-59 24t-23 65q0 74 90 119q91 45 235 45
q298 0 298 -279v-276q0 -78 43 -78q23 0 61 25l29 -56q-100 -76 -193 -76q-135 0 -155 119q-93 -72 -143 -98t-122 -25q-72 0 -130 47q-59 47 -60 125q0 123 118 191t337 100v2z" />
    <glyph glyph-name="atilde" unicode="&#xe3;" horiz-adv-x="923" 
d="M635 942q78 0 106 117h39q0 -115 -46 -179t-124 -65q-46 0 -156 67q-110 66 -144 66t-64 -33t-41 -79h-37q0 106 46 174t104 68t166 -68t151 -68zM295 170q0 -82 80 -82q68 0 172 92v174q-131 -35 -192 -73q-60 -39 -60 -111zM547 438q0 195 -120 195q-54 0 -89 -22
q-35 -23 -35 -61q1 -38 -23 -62t-59 -24t-59 24t-23 65q0 74 90 119q91 45 235 45q298 0 298 -279v-276q0 -78 43 -78q23 0 61 25l29 -56q-100 -76 -193 -76q-135 0 -155 119q-93 -72 -143 -98t-122 -25q-72 0 -130 47q-59 47 -60 125q0 123 118 191t337 100v2z" />
    <glyph glyph-name="adieresis" unicode="&#xe4;" horiz-adv-x="923" 
d="M268 1044q43 0 74 -30t31 -73q0 -44 -31 -75q-31 -30 -74 -30q-44 0 -74 30t-30 75q0 43 30 73t74 30zM676 1044q43 0 74 -30q30 -30 30 -73q0 -44 -30 -75q-30 -30 -74 -30q-43 0 -74 30t-31 75q0 43 31 73t74 30zM295 170q0 -82 80 -82q68 0 172 92v174
q-131 -35 -192 -73q-60 -39 -60 -111zM547 438q0 195 -120 195q-54 0 -89 -22q-35 -23 -35 -61q1 -38 -23 -62t-59 -24t-59 24t-23 65q0 74 90 119q91 45 235 45q298 0 298 -279v-276q0 -78 43 -78q23 0 61 25l29 -56q-100 -76 -193 -76q-135 0 -155 119q-93 -72 -143 -98
t-122 -25q-72 0 -130 47q-59 47 -60 125q0 123 118 191t337 100v2z" />
    <glyph glyph-name="aring" unicode="&#xe5;" horiz-adv-x="923" 
d="M475 1133q-39 0 -67 -28t-27 -67q0 -38 28 -66q29 -28 67 -28t66 28t28 66t-28 67q-28 28 -67 28zM475 1241q84 0 143 -59q60 -60 60 -144t-60 -143t-143 -59q-84 0 -143 59t-60 143q0 84 60 144t143 59zM295 170q0 -82 80 -82q68 0 172 92v174q-131 -35 -192 -73
q-60 -39 -60 -111zM547 438q0 195 -120 195q-54 0 -89 -22q-35 -23 -35 -61q1 -38 -23 -62t-59 -24t-59 24t-23 65q0 74 90 119q91 45 235 45q298 0 298 -279v-276q0 -78 43 -78q23 0 61 25l29 -56q-100 -76 -193 -76q-135 0 -155 119q-93 -72 -143 -98t-122 -25
q-72 0 -130 47q-59 47 -60 125q0 123 118 191t337 100v2z" />
    <glyph glyph-name="ae" unicode="&#xe6;" horiz-adv-x="1310" 
d="M547 438q0 195 -120 195q-54 0 -89 -22q-35 -23 -35 -61q1 -38 -23 -62t-59 -24t-57 24t-23 65q0 74 89 119q88 45 234 45t220 -66q104 66 229 66q160 0 246 -112t49 -226h-444q-12 -147 49 -226t152 -79q145 0 241 86l37 -60q-55 -59 -141 -97t-172 -38q-229 0 -346 164
q-170 -156 -295 -156q-78 0 -137 47t-60 125q0 123 118 191t337 100v2zM295 170q0 -82 82 -82q66 0 170 92v174q-131 -35 -192 -73q-60 -39 -60 -111zM776 469h275q4 66 -30 108t-97 41q-113 1 -148 -149z" />
    <glyph glyph-name="ccedilla" unicode="&#xe7;" horiz-adv-x="829" 
d="M608 -266q0 -124 -132 -177q-94 -39 -179 -55v60q162 49 162 159q-1 53 -59 73t-138 -3v29l152 149q-144 19 -232 117t-88 256t111 266t268 109q119 0 190 -51t70 -115q1 -31 -21 -59t-62 -27t-64 25t-23 57q0 88 -74 88q-145 0 -145 -311q0 -123 55 -191q55 -67 153 -67
t208 94l35 -60q-115 -123 -287 -133l-78 -80q66 -2 122 -45q56 -42 56 -108z" />
    <glyph glyph-name="egrave" unicode="&#xe8;" horiz-adv-x="886" 
d="M508 -35q-194 0 -304 108q-110 109 -110 269t116 268t278 107q162 0 247 -112q86 -112 49 -226h-444q-12 -147 45 -222t156 -81q137 -8 243 84l35 -60q-55 -59 -141 -97t-170 -38zM354 469h273q4 66 -29 108t-98 41q-115 1 -146 -149zM272 1145q41 0 113 -62l248 -231
l-12 -18l-369 155q-61 31 -62 80q0 29 20 53t62 23z" />
    <glyph glyph-name="eacute" unicode="&#xe9;" horiz-adv-x="886" 
d="M508 -35q-194 0 -304 108q-110 109 -110 269t116 268t278 107q162 0 247 -112q86 -112 49 -226h-444q-12 -147 45 -222t156 -81q137 -8 243 84l35 -60q-55 -59 -141 -97t-170 -38zM354 469h273q4 66 -29 108t-98 41q-115 1 -146 -149zM770 1069q0 -51 -61 -80l-367 -155
l-12 18l248 231q68 61 110 61t62 -22q20 -24 20 -53z" />
    <glyph glyph-name="ecircumflex" unicode="&#xea;" horiz-adv-x="886" 
d="M508 -35q-194 0 -304 108q-110 109 -110 269t116 268t278 107q162 0 247 -112q86 -112 49 -226h-444q-12 -147 45 -222t156 -81q137 -8 243 84l35 -60q-55 -59 -141 -97t-170 -38zM354 469h273q4 66 -29 108t-98 41q-115 1 -146 -149zM782 866l-30 -30l-265 172
l-262 -172l-30 30l292 318z" />
    <glyph glyph-name="edieresis" unicode="&#xeb;" horiz-adv-x="886" 
d="M508 -35q-194 0 -304 108q-110 109 -110 269t116 268t278 107q162 0 247 -112q86 -112 49 -226h-444q-12 -147 45 -222t156 -81q137 -8 243 84l35 -60q-55 -59 -141 -97t-170 -38zM354 469h273q4 66 -29 108t-98 41q-115 1 -146 -149zM283 1044q43 0 73 -30t29 -73
q0 -44 -30 -75q-31 -30 -73 -30t-73 30t-31 75q0 43 31 73t74 30zM689 1044q44 0 75 -30t31 -73q0 -44 -31 -75q-31 -30 -75 -30t-74 30q-29 30 -29 75q0 44 29 74q30 29 74 29z" />
    <glyph glyph-name="igrave" unicode="&#xec;" horiz-adv-x="661" 
d="M45 1069q-1 29 19 53t61 23q41 0 113 -62l249 -231l-14 -18l-367 155q-61 29 -61 80zM627 0h-555v59q102 0 132 43t29 197v68q1 155 -29 197t-132 42v60l393 51v-418q0 -154 30 -197t132 -43v-59z" />
    <glyph glyph-name="iacute" unicode="&#xed;" horiz-adv-x="661" 
d="M621 1069q0 -51 -62 -80l-366 -155l-13 18l248 231q72 61 113 61t61 -22q20 -24 19 -53zM627 0h-555v59q102 0 132 43t29 197v68q1 155 -29 197t-132 42v60l393 51v-418q0 -154 30 -197t132 -43v-59z" />
    <glyph glyph-name="icircumflex" unicode="&#xee;" horiz-adv-x="661" 
d="M635 864l-31 -28l-262 170l-264 -170l-31 28l295 318zM627 0h-555v59q102 0 132 43t29 197v68q1 155 -29 197t-132 42v60l393 51v-418q0 -154 30 -197t132 -43v-59z" />
    <glyph glyph-name="idieresis" unicode="&#xef;" horiz-adv-x="661" 
d="M135 1044q43 0 74 -30t31 -73q0 -44 -31 -75q-31 -30 -74 -30t-74 30t-31 75q0 44 31 74q31 29 74 29zM543 1044q43 0 73 -30t31 -73q0 -44 -31 -75q-32 -30 -74 -30t-73 30t-31 75q0 43 31 73t74 30zM627 0h-555v59q102 0 132 43t29 197v68q1 155 -29 197t-132 42v60
l393 51v-418q0 -154 30 -197t132 -43v-59z" />
    <glyph glyph-name="eth" unicode="&#xf0;" horiz-adv-x="1013" 
d="M920 378q0 -186 -119 -299q-119 -114 -291 -114t-294 111q-122 110 -122 266t115 266t278 109q47 -1 97 -19t75 -47q-43 180 -135 305l-178 -106l-45 70l174 104q-70 90 -182 184l39 49q135 -82 237 -176l183 109l47 -70l-166 -100q141 -160 214 -308t73 -334zM670 342
q0 123 -41 201t-121 78t-122 -78t-42 -201t42 -202t122 -79t121 79t41 202z" />
    <glyph glyph-name="ntilde" unicode="&#xf1;" horiz-adv-x="1193" 
d="M780 963q78 0 107 116h39q0 -115 -46 -179t-124 -64q-45 0 -156 66q-110 66 -144 67q-34 0 -64 -33t-42 -80h-37q0 106 46 174q47 68 105 68t166 -68t150 -67zM803 385q0 217 -144 217q-76 0 -135 -54t-59 -149v-100q0 -154 30 -197t132 -43v-59h-555v59q102 0 132 43
t29 197v68q1 155 -29 197t-132 42v60l358 51q23 -43 29 -117q97 117 245 117t238 -87t90 -218v-113q0 -154 30 -197t132 -43v-59h-471v59q43 1 61 49t19 191v86z" />
    <glyph glyph-name="ograve" unicode="&#xf2;" horiz-adv-x="1013" 
d="M213 1069q0 29 20 53q21 24 63 23q42 0 110 -62l249 -231l-14 -18l-367 155q-61 29 -61 80zM670 342q0 123 -41 201t-121 78t-122 -78t-42 -201t42 -202t122 -79t121 79t41 202zM920 342q0 -156 -121 -266t-291 -111q-170 0 -292 111q-122 110 -122 266t122 266t292 109
q170 1 291 -109t121 -266z" />
    <glyph glyph-name="oacute" unicode="&#xf3;" horiz-adv-x="1013" 
d="M791 1069q0 -51 -62 -80l-367 -155l-12 18l248 231q68 61 110 61t62 -22q20 -24 21 -53zM670 342q0 123 -41 201t-121 78t-122 -78t-42 -201t42 -202t122 -79t121 79t41 202zM920 342q0 -156 -121 -266t-291 -111q-170 0 -292 111q-122 110 -122 266t122 266t292 109
q170 1 291 -109t121 -266z" />
    <glyph glyph-name="ocircumflex" unicode="&#xf4;" horiz-adv-x="1013" 
d="M805 866l-31 -30l-264 172l-262 -172l-31 30l293 318zM670 342q0 123 -41 201t-121 78t-122 -78t-42 -201t42 -202t122 -79t121 79t41 202zM920 342q0 -156 -121 -266t-291 -111q-170 0 -292 111q-122 110 -122 266t122 266t292 109q170 1 291 -109t121 -266z" />
    <glyph glyph-name="otilde" unicode="&#xf5;" horiz-adv-x="1013" 
d="M672 942q78 0 104 117h39q0 -115 -45 -179t-123 -65q-45 0 -157 67q-112 66 -144 66t-62 -33t-42 -79h-39q0 106 46 174t104 68t166 -68t153 -68zM670 342q0 123 -41 201t-121 78t-122 -78t-42 -201t42 -202t122 -79t121 79t41 202zM920 342q0 -156 -121 -266t-291 -111
q-170 0 -292 111q-122 110 -122 266t122 266t292 109q170 1 291 -109t121 -266z" />
    <glyph glyph-name="odieresis" unicode="&#xf6;" horiz-adv-x="1013" 
d="M305 1044q43 0 73 -30t30 -73q0 -44 -30 -75q-30 -30 -73 -30t-74 30t-30 74q0 43 30 74q31 30 74 30zM608 941q0 43 30 73t74 30t74 -30t29 -73q0 -44 -30 -75q-29 -30 -73 -30t-74 30t-30 75zM670 342q0 123 -41 201t-121 78t-122 -78t-42 -201t42 -202t122 -79t121 79
t41 202zM920 342q0 -156 -121 -266t-291 -111q-170 0 -292 111q-122 110 -122 266t122 266t292 109q170 1 291 -109t121 -266z" />
    <glyph glyph-name="divide" unicode="&#xf7;" 
d="M467 842q45 0 79 -34t34 -79t-33 -78t-80 -33t-80 33t-33 78t34 79t79 34zM467 289q45 0 79 -34t34 -79t-33 -78q-33 -32 -80 -32t-80 32t-33 78q0 45 34 79t79 34zM836 383h-734v141h734v-141z" />
    <glyph glyph-name="oslash" unicode="&#xf8;" horiz-adv-x="1013" 
d="M94 342q0 156 122 266t292 109q90 0 172 -35l55 90l62 -35l-54 -88q82 -51 129 -132t48 -175q0 -156 -121 -266t-291 -111q-88 0 -162 31l-53 -88l-62 35l52 84q-86 51 -138 134q-51 83 -51 181zM334 352q0 -116 33 -188l247 409q-44 49 -116 49t-118 -76
q-46 -78 -46 -194zM508 59q80 0 126 79q46 78 46 188t-25 178l-245 -404q41 -41 98 -41z" />
    <glyph glyph-name="ugrave" unicode="&#xf9;" horiz-adv-x="1122" 
d="M492 -35q-150 0 -240 88t-90 219v113q0 154 -30 196t-132 42v59h393v-383q0 -107 33 -163t109 -56t135 54t59 149v102q0 152 -30 195t-132 43v59h394v-377q1 -153 25 -195t116 -42v-52l-334 -47q-23 47 -33 115q-93 -119 -243 -119zM252 1067q0 29 19 53t63 23
q44 0 110 -62l248 -231l-12 -19l-367 156q-61 33 -61 80z" />
    <glyph glyph-name="uacute" unicode="&#xfa;" horiz-adv-x="1122" 
d="M492 -35q-150 0 -240 88t-90 219v113q0 154 -30 196t-132 42v59h393v-383q0 -107 33 -163t109 -56t135 54t59 149v102q0 152 -30 195t-132 43v59h394v-377q1 -153 25 -195t116 -42v-52l-334 -47q-23 47 -33 115q-93 -119 -243 -119zM829 1067q0 -47 -61 -80l-367 -156
l-12 19l248 231q68 61 110 61t62 -22q20 -24 20 -53z" />
    <glyph glyph-name="ucircumflex" unicode="&#xfb;" horiz-adv-x="1122" 
d="M492 -35q-150 0 -240 88t-90 219v113q0 154 -30 196t-132 42v59h393v-383q0 -107 33 -163t109 -56t135 54t59 149v102q0 152 -30 195t-132 43v59h394v-377q1 -153 25 -195t116 -42v-52l-334 -47q-23 47 -33 115q-93 -119 -243 -119zM821 866l-30 -30l-263 172l-264 -172
l-31 30l295 318z" />
    <glyph glyph-name="udieresis" unicode="&#xfc;" horiz-adv-x="1122" 
d="M492 -35q-150 0 -240 88t-90 219v113q0 154 -30 196t-132 42v59h393v-383q0 -107 33 -163t109 -56t135 54t59 149v102q0 152 -30 195t-132 43v59h394v-377q1 -153 25 -195t116 -42v-52l-334 -47q-23 47 -33 115q-93 -119 -243 -119zM231 940q0 44 31 74t75 30t74 -30
q29 -30 29 -73q0 -44 -30 -75q-30 -30 -72 -30q-43 0 -75 30t-32 74zM641 941q-1 43 29 73t74 30t74 -30t30 -73q0 -44 -30 -75q-30 -30 -74 -30t-74 30t-29 75z" />
    <glyph glyph-name="yacute" unicode="&#xfd;" horiz-adv-x="796" 
d="M207 -553q-29 0 -55 17q-26 16 -27 54t23 60t65 66q41 43 68 110l88 217l-246 549q-45 102 -137 103v59h450v-59q-66 0 -80 -23t11 -80l120 -266l111 266q22 55 10 79t-69 24v59h303v-59q-102 0 -146 -103l-413 -997q-31 -76 -76 -76zM793 1069q0 -51 -62 -80l-366 -155
l-13 18l248 231q68 61 110 61t62 -22q20 -24 21 -53z" />
    <glyph glyph-name="thorn" unicode="&#xfe;" horiz-adv-x="1044" 
d="M170 913q0 154 -30 197t-132 43v59l393 52v-607q78 59 174 60q167 0 267 -108q100 -109 100 -269t-99 -268t-268 -107q-102 0 -174 62v-240q0 -154 30 -197t132 -43v-59h-555v59q102 0 132 43t30 197v1126zM692 342q0 125 -38 202t-102 77q-64 1 -108 -51t-43 -130v-198
q0 -76 43 -128t108 -52q64 0 102 77q38 78 38 203z" />
    <glyph glyph-name="ydieresis" unicode="&#xff;" horiz-adv-x="796" 
d="M129 940q-1 44 29 74t74 30t74 -30t30 -73q0 -44 -30 -75q-30 -30 -73 -30t-73 30t-31 74zM640 1044q44 0 74 -30t30 -73q0 -44 -30 -75q-30 -30 -74 -30t-74 30t-30 75q0 44 30 74q30 29 74 29zM207 -553q-29 0 -55 17q-26 16 -27 54t23 60t65 66q41 43 68 110l88 217
l-246 549q-45 102 -137 103v59h450v-59q-66 0 -80 -23t11 -80l120 -266l111 266q22 55 10 79t-69 24v59h303v-59q-102 0 -146 -103l-413 -997q-31 -76 -76 -76z" />
    <glyph glyph-name="dotlessi" unicode="&#x131;" horiz-adv-x="661" 
d="M627 0h-555v59q102 0 132 43t29 197v68q1 155 -29 197t-132 42v60l393 51v-418q0 -154 30 -197t132 -43v-59z" />
    <glyph glyph-name="Lslash" unicode="&#x141;" horiz-adv-x="1296" 
d="M528 332q0 -154 35 -197t162 -43h236q166 0 205 66q17 29 32 90l10 41h60l-17 -289h-1173v59q127 0 161 43t33 197v209l-131 -88l-51 76l182 122v312q0 154 -34 196t-160 43v60h647v-60q-127 0 -162 -43t-35 -196v-139l127 86l54 -76l-181 -119v-350z" />
    <glyph glyph-name="lslash" unicode="&#x142;" horiz-adv-x="606" 
d="M418 299q0 -154 30 -197t132 -43v-59h-553v59q102 0 132 43t29 197v217l-141 -96l-53 76l194 129v288q0 154 -29 197q-30 43 -132 43v59l391 52v-484l141 97l53 -76l-194 -131v-371z" />
    <glyph glyph-name="OE" unicode="&#x152;" horiz-adv-x="2045" 
d="M1575 1137h-313v-441h112q154 0 196 35t42 162h59v-485h-59q0 128 -42 162t-196 34h-112v-272q0 -154 34 -197t162 -43h184q167 0 206 66q17 29 32 90l10 41h60l-17 -289h-1132q-340 0 -511 172t-171 442t171 442t511 173h1065l16 -289h-59l-11 41q-25 92 -65 124
q-41 32 -172 32zM1006 905q0 152 -36 192t-154 40q-208 0 -306 -117q-115 -136 -115 -406q0 -385 231 -489q73 -33 169 -33h14q127 0 162 41t35 191v581z" />
    <glyph glyph-name="oe" unicode="&#x153;" horiz-adv-x="1474" 
d="M102 342q0 156 122 266t289 109q167 0 288 -105q115 104 275 104t247 -111q86 -112 49 -226h-444q-12 -147 49 -226t151 -79q143 0 242 86l37 -60q-55 -59 -141 -97t-172 -38q-172 1 -293 107q-121 -106 -288 -106t-289 110t-122 266zM678 342q0 123 -41 201t-121 78
t-121 -78t-41 -201t41 -202t121 -79t121 79t41 202zM940 469h274q4 66 -29 108q-34 42 -98 41q-112 1 -147 -149z" />
    <glyph glyph-name="Scaron" unicode="&#x160;" horiz-adv-x="1062" 
d="M817 1698l-293 -318l-293 318l31 28l262 -170l262 170zM121 -35v451h61q30 -160 138 -259t239 -100q93 1 149 53t56 150q0 58 -41 114t-111 93l-194 102q-141 72 -210 158t-69 221q1 136 105 226t246 90t255 -84q47 39 60 94h57v-451h-59q-12 147 -81 249t-214 102
q-66 0 -116 -46t-50 -106q0 -62 44 -122t120 -99l196 -101q119 -61 192 -154t73 -208q0 -162 -122 -267t-286 -106q-114 0 -248 67q-51 25 -71 29q-47 -39 -60 -96h-59z" />
    <glyph glyph-name="scaron" unicode="&#x161;" horiz-adv-x="784" 
d="M698 197q0 -115 -83 -173t-172 -58t-165 31q-76 32 -79 32q-31 0 -31 -64h-59v299h59q0 -74 76 -144t172 -69q49 0 79 23q29 24 29 58t-30 60t-101 60l-114 51q-154 72 -154 209q0 104 74 154q73 50 151 51q78 -1 140 -19t80 -18t18 37h59v-238h-59q0 61 -60 109t-116 47
q-56 1 -84 -19t-29 -52q0 -32 29 -54t112 -57l99 -47q75 -36 117 -92t42 -117zM705 1153l-293 -317l-293 317l31 29l262 -172l262 172z" />
    <glyph glyph-name="Ydieresis" unicode="&#x178;" horiz-adv-x="1296" 
d="M375 1485q-1 43 31 73t75 31q43 -1 73 -31t30 -73t-30 -74t-73 -31t-75 31t-31 74zM784 1485q0 43 30 73t74 31q44 -1 74 -31t30 -73t-30 -74t-74 -31t-74 31t-30 74zM1362 1169q-121 1 -173 -35t-122 -145l-293 -442v-248q0 -154 34 -197t161 -43v-59h-639v59
q127 0 162 43t34 197v242l-297 448q-72 109 -130 145t-167 35v60h695v-60q-215 0 -109 -155l230 -346l229 346q57 84 33 120q-25 36 -144 35v60h496v-60z" />
    <glyph glyph-name="Zcaron" unicode="&#x17d;" horiz-adv-x="1212" 
d="M401 1137q-166 0 -205 -65q-17 -28 -32 -89l-10 -41h-43l18 287h907v-45l-633 -1092h388q131 0 172 32t65 124l10 41h43l-18 -289h-975v49l627 1088h-314zM877 1698l-295 -318l-293 318l30 28l263 -170l264 170z" />
    <glyph glyph-name="zcaron" unicode="&#x17e;" horiz-adv-x="768" 
d="M668 1153l-293 -317l-295 317l31 29l264 -172l262 172zM668 682v-33l-306 -567h39q131 0 176 27q44 27 60 94l10 41h43l-16 -244h-594v35l305 565h-10q-131 0 -175 -27t-61 -94l-10 -41h-43l14 244h568z" />
    <glyph glyph-name="florin" unicode="&#x192;" horiz-adv-x="690" 
d="M-171 -283q61 0 75 -90q4 -33 28 -61t84 -29q58 0 99 69t57 251l64 735h-168l8 90h168l14 166q18 213 110 314t273 102q115 0 181 -58t61 -123q-4 -35 -26 -59q-23 -24 -61 -25q-38 0 -60 29t-26 62q-4 34 -24 62t-57 28q-63 0 -91 -54t-40 -190l-23 -254h205l-8 -90
h-205l-66 -752q-35 -387 -351 -387q-150 -1 -226 63t-72 130q2 31 22 51t55 20z" />
    <glyph glyph-name="circumflex" unicode="&#x2c6;" horiz-adv-x="700" 
d="M662 1098l-31 -29l-262 170l-263 -170l-30 29l293 317z" />
    <glyph glyph-name="caron" unicode="&#x2c7;" horiz-adv-x="696" 
d="M582 1415l-293 -317l-295 317l33 29l262 -170l262 170z" />
    <glyph glyph-name="breve" unicode="&#x2d8;" horiz-adv-x="630" 
d="M459 1356q0 -84 -50 -134t-127 -50t-127 50q-50 52 -51 134h33q15 -43 55 -71t91 -28t90 28t53 71h33z" />
    <glyph glyph-name="dotaccent" unicode="&#x2d9;" horiz-adv-x="634" 
d="M248 1356q32 0 56 -24t24 -58t-24 -56q-24 -24 -56 -24t-57 24q-23 24 -23 58t24 56q24 24 56 24z" />
    <glyph glyph-name="ring" unicode="&#x2da;" horiz-adv-x="456" 
d="M262 1329q-38 1 -66 -27t-28 -67t28 -66t66 -27t66 28q27 26 26 65q0 39 -26 67q-27 27 -66 27zM262 1440q84 0 144 -60t59 -145q0 -84 -59 -143q-60 -60 -144 -60t-144 60t-61 143q1 85 61 145t144 60z" />
    <glyph glyph-name="ogonek" unicode="&#x2db;" horiz-adv-x="454" 
d="M220 -315q-79 0 -131 53t-52 141t89 153t185 34l23 -5l-17 -34h-18q-51 0 -94 -34t-43 -80t28 -81t82 -35q84 0 109 60l20 41l17 -52l4 -6q-10 -72 -66 -114t-136 -41z" />
    <glyph glyph-name="tilde" unicode="&#x2dc;" horiz-adv-x="614" 
d="M475 1235q78 0 105 117h41q-1 -115 -47 -180t-123 -64q-45 0 -156 68t-145 68t-63 -34q-30 -33 -42 -80h-39q0 104 46 172t104 68t166 -68t153 -67z" />
    <glyph glyph-name="hungarumlaut" unicode="&#x2dd;" horiz-adv-x="671" 
d="M651 1327q0 -39 -49 -61l-280 -121l-11 14l191 178q55 49 86 49t47 -20t16 -39zM349 1386q63 0 63 -68q0 -28 -47 -52l-283 -121l-10 14l190 178q55 49 87 49z" />
    <glyph glyph-name="pi" unicode="&#x3c0;" horiz-adv-x="1034" 
d="M227 483q-115 0 -84 -110l-34 -8q-67 173 5 264q42 53 119 53h594q61 0 79 34q17 34 5 79l37 8q51 -108 39 -208q-6 -50 -48 -81t-118 -31h-88v-344q0 -84 37 -84t76 45l8 -63q-23 -31 -66 -51t-73 -21q-88 0 -134 46t-46 124v348h-129l-39 -374q-16 -143 -109 -144
q-55 0 -96 72l12 63q44 -61 68 -61q37 0 47 86l39 358h-101z" />
    <glyph glyph-name="endash" unicode="&#x2013;" horiz-adv-x="970" 
d="M973 358h-975v123h975v-123z" />
    <glyph glyph-name="emdash" unicode="&#x2014;" horiz-adv-x="1366" 
d="M1366 358h-1368v123h1368v-123z" />
    <glyph glyph-name="quoteleft" unicode="&#x2018;" horiz-adv-x="514" 
d="M393 868q0 -53 -38 -92t-93 -39t-100 43t-45 128q0 86 59 188t170 172l41 -41q-115 -119 -133 -228h10q53 0 91 -39t38 -92z" />
    <glyph glyph-name="quoteright" unicode="&#x2019;" horiz-adv-x="514" 
d="M250 999q-53 0 -91 40q-38 39 -38 93t38 93t94 39t100 -43t44 -128t-59 -187t-170 -173l-41 41q115 119 133 225h-10z" />
    <glyph glyph-name="quotesinglbase" unicode="&#x201a;" horiz-adv-x="514" 
d="M250 -16q-53 0 -91 39t-38 92t38 92t93 39t100 -43t45 -128t-59 -187t-170 -173l-41 41q115 119 133 228h-10z" />
    <glyph glyph-name="quotedblleft" unicode="&#x201c;" horiz-adv-x="888" 
d="M393 868q0 -53 -38 -92t-93 -39t-100 43t-45 128q0 86 59 188t170 172l41 -41q-115 -119 -133 -228h10q53 0 91 -39t38 -92zM768 868q0 -53 -37 -92t-93 -39t-101 43t-45 128q0 86 60 188t171 172l41 -41q-119 -123 -133 -228h10q53 0 90 -39t37 -92z" />
    <glyph glyph-name="quotedblright" unicode="&#x201d;" horiz-adv-x="888" 
d="M250 999q-53 0 -91 40q-38 39 -38 93t38 93t94 39t100 -43t44 -128t-59 -187t-170 -173l-41 41q115 119 133 225h-10zM625 999q-53 0 -90 39q-37 40 -37 94t37 93t93 39t101 -43t45 -128t-60 -187t-171 -173l-41 41q115 119 133 225h-10z" />
    <glyph glyph-name="quotedblbase" unicode="&#x201e;" horiz-adv-x="888" 
d="M250 -16q-53 0 -91 39t-38 92t38 92t93 39t100 -43t45 -128t-59 -187t-170 -173l-41 41q115 119 133 228h-10zM625 -16q-53 0 -90 39t-37 92t37 92t93 39t101 -43t45 -128t-60 -187t-171 -173l-41 41q115 119 133 228h-10z" />
    <glyph glyph-name="dagger" unicode="&#x2020;" horiz-adv-x="917" 
d="M59 836q0 54 45 90q45 37 97 22l229 -76l-84 250q-14 50 22 96t91 46t91 -45t21 -97l-84 -250l228 76q51 14 96 -22t45 -90q0 -56 -45 -92t-96 -21l-223 72l110 -371l-127 -807h-33l-127 807l111 373l-225 -74q-51 -14 -97 22q-45 37 -45 91z" />
    <glyph glyph-name="daggerdbl" unicode="&#x2021;" horiz-adv-x="917" 
d="M856 48q0 -54 -45 -92t-96 -24l-228 78l84 -252q13 -49 -23 -94t-89 -45t-90 45t-23 94l84 252l-229 -78q-49 -14 -96 24q-46 38 -46 91t45 90t97 23l225 -74l-115 354l115 357l-225 -76q-51 -14 -97 23q-45 38 -45 92t46 90q46 37 96 22l229 -78l-84 252q-14 50 23 96
t90 46t90 -45t22 -97l-84 -252l228 78q51 14 96 -22t45 -91q0 -53 -45 -91t-96 -23l-223 74l114 -353l-114 -354l223 72q51 14 96 -22t45 -90z" />
    <glyph glyph-name="bullet" unicode="&#x2022;" horiz-adv-x="620" 
d="M311 750q85 0 145 -60t60 -145t-60 -145t-144 -60t-145 60t-61 144t60 146q60 60 145 60z" />
    <glyph glyph-name="ellipsis" unicode="&#x2026;" horiz-adv-x="1835" 
d="M1500 246q54 0 93 -38t39 -93t-39 -93t-93 -38t-93 38t-39 93t39 93t93 38zM903 246q55 0 93 -38t38 -93t-38 -93t-93 -38t-93 38t-38 93t38 93t93 38zM305 246q55 0 93 -38t38 -93t-38 -93t-93 -38t-93 38t-38 93t38 93t93 38z" />
    <glyph glyph-name="perthousand" unicode="&#x2030;" horiz-adv-x="2320" 
d="M1896 47q64 -1 100 65t36 149t-36 150t-100 67t-99 -68q-36 -66 -36 -149t36 -149t99 -65zM2232 262q0 -121 -99 -208t-237 -87t-236 87q-99 87 -99 208t99 207t236 86q136 0 236 -86t100 -207zM1001 261q0 -83 36 -149q35 -66 99 -65q64 -1 100 65t36 149t-36 150
t-99 67t-100 -67q-36 -67 -36 -150zM1473 262q1 -121 -99 -208t-237 -87t-237 87q-99 87 -99 208t99 207q98 86 236 86t238 -86t99 -207zM1202 1225l-756 -1262l-81 43l757 1264zM559 969q0 83 -35 149t-98 66t-99 -66t-36 -148t36 -150q36 -66 99 -66t98 66t35 149z
M762 969q0 -121 -99 -207t-237 -86t-239 86q-99 86 -99 207t99 208t237 87t238 -87t100 -208z" />
    <glyph glyph-name="guilsinglleft" unicode="&#x2039;" horiz-adv-x="751" 
d="M682 57l-33 -43l-553 402l553 399l33 -41l-295 -358z" />
    <glyph glyph-name="guilsinglright" unicode="&#x203a;" horiz-adv-x="751" 
d="M72 57l293 359l-293 358l32 41l553 -399l-553 -402z" />
    <glyph glyph-name="fraction" unicode="&#x2044;" horiz-adv-x="712" 
d="M784 1217l-757 -1254l-97 51l756 1256z" />
    <glyph glyph-name="Euro" unicode="&#x20ac;" horiz-adv-x="1314" 
d="M864 535v-89h-401q45 -383 287 -383q145 1 229 103t127 307h59v-450h-57q-25 102 -47 116q-121 -174 -319 -174t-344 136t-193 345h-137v89h122q-4 53 -4 79t4 76h-122v88h137q45 209 191 347q146 139 350 139t315 -174q23 18 47 116h57v-450h-59q-43 207 -127 308
t-229 101q-246 0 -287 -387h401v-88h-407q-2 -26 -2 -78t2 -77h407z" />
    <glyph glyph-name="trademark" unicode="&#x2122;" horiz-adv-x="1992" 
d="M1163 723q0 -133 25 -170t112 -37v-53h-362v53q90 0 116 37t25 170v248q0 131 -25 168q-26 37 -116 37v53h334l213 -498l215 498h287v-53q-88 0 -113 -37t-25 -168v-248q0 -133 25 -170t113 -37v-53h-445v53q88 0 114 37t25 170v272l-241 -561h-25l-252 586v-297z
M344 1145h-35q-115 0 -153 -24t-52 -89l-8 -35h-53l12 232h787l14 -232h-55l-6 35q-13 68 -51 90t-154 23h-33v-422q0 -133 26 -170t115 -37v-53h-497v53q91 0 117 37t26 170v422z" />
    <glyph glyph-name="Omega" unicode="&#x2126;" horiz-adv-x="1177" 
d="M836 780q0 134 -50 254q-50 121 -196 121q-96 0 -156 -63q-60 -62 -76 -140q-18 -78 -18 -186t38 -212q38 -103 126 -136v-418h-354l-13 391h66l8 -41q16 -90 48 -123t130 -32h19v155q-131 53 -210 170t-79 254q0 184 134 322t336 139q202 0 336 -138t134 -323
q0 -135 -80 -253t-209 -169v-157h18q98 0 132 32q33 33 49 123l6 41h65l-12 -391h-356v418q164 61 164 362z" />
    <glyph glyph-name="partialdiff" unicode="&#x2202;" horiz-adv-x="1091" 
d="M551 635q-178 0 -202 -285t132 -284q193 -1 238 503q-37 66 -168 66zM522 1186q-49 0 -90 -20t-80 -62q-39 -43 -61 -54t-51 3q-55 37 6 106q78 84 223 107q33 4 63 4q150 0 255 -111t145 -273t26 -320q-25 -288 -145 -433q-51 -61 -115 -101q-106 -67 -225 -67
q-171 0 -281 114q-110 113 -96 271t152 271t311 112q109 0 170 -53q25 506 -207 506z" />
    <glyph glyph-name="Delta" unicode="&#x2206;" horiz-adv-x="1157" 
d="M92 0l467 1264h62l444 -1264h-973zM242 106h553l-269 768z" />
    <glyph glyph-name="product" unicode="&#x220f;" horiz-adv-x="1501" 
d="M512 1122v-823q0 -154 35 -197t162 -43v-59h-631v59q127 0 161 43t33 197v631q0 154 -34 196t-160 43v60h1347v-60q-127 0 -161 -43t-35 -196v-631q0 -154 35 -197t161 -43v-59h-630v59q127 0 161 43t33 197v823h-477z" />
    <glyph glyph-name="summation" unicode="&#x2211;" horiz-adv-x="1224" 
d="M100 -348v35l449 854l-445 653v35h988l18 -289h-59l-11 41q-16 61 -33 90q-38 64 -204 66h-500l467 -688l-371 -705h455q164 0 204 66q17 29 34 90l10 41h59l-18 -289h-1043z" />
    <glyph glyph-name="minus" unicode="&#x2212;" 
d="M768 383h-598v141h598v-141z" />
    <glyph glyph-name="radical" unicode="&#x221a;" horiz-adv-x="960" 
d="M78 590l182 82l156 -387l458 1233h101l-582 -1563h-49z" />
    <glyph glyph-name="infinity" unicode="&#x221e;" horiz-adv-x="1460" 
d="M392 580q-64 0 -100 -38t-36 -92t37 -94t101 -38q64 0 200 131q-138 131 -202 131zM1169 450q0 54 -35 92q-36 38 -98 38t-231 -131q170 -131 230 -131t98 38q36 40 36 94zM1313 449q0 -113 -77 -190t-198 -77q-70 0 -158 52t-165 124q-76 -72 -167 -124t-159 -52
q-123 0 -200 77t-76 190t77 189t199 77q68 0 159 -52t167 -124q76 72 165 124t158 52q123 -1 199 -77t76 -189z" />
    <glyph glyph-name="integral" unicode="&#x222b;" horiz-adv-x="587" 
d="M406 -160q0 -201 -84 -294t-234 -93q-150 -1 -232 63q-81 64 -83 130q-2 31 16 51t53 20q62 0 84 -90q8 -33 35 -61t85 -29q58 0 94 69q34 69 34 251v991q0 211 83 313t263 103q115 0 187 -58t71 -123q0 -35 -20 -59t-60 -25q-40 0 -62 29q-24 29 -32 62q-8 34 -30 62
t-58 28q-63 0 -87 -54t-23 -190v-1096z" />
    <glyph glyph-name="approxequal" unicode="&#x2248;" 
d="M332 406q41 0 135 -34t150 -34t122 51l23 17v-142q-78 -70 -158 -69q-41 1 -135 35t-150 34t-122 -51l-23 -18v143q78 68 158 68zM332 711q41 0 135 -34t151 -34t121 49l23 19v-142q-78 -68 -158 -67q-41 0 -135 34t-152 33t-120 -49l-23 -18v141q78 68 158 68z" />
    <glyph glyph-name="notequal" unicode="&#x2260;" 
d="M768 371v-142h-385l-119 -188l-84 49l88 139h-98v142h188l105 166h-293v141h383l121 190l84 -51l-88 -139h98v-141h-188l-107 -166h295z" />
    <glyph glyph-name="lessequal" unicode="&#x2264;" 
d="M836 125v-125h-734v125h734zM809 317l-12 -129l-695 269l695 266l12 -127l-363 -139z" />
    <glyph glyph-name="greaterequal" unicode="&#x2265;" 
d="M102 125h734v-125h-734v125zM129 317l363 140l-363 139l12 127l695 -266l-695 -269z" />
    <glyph glyph-name="lozenge" unicode="&#x25ca;" horiz-adv-x="1011" 
d="M512 119l266 487l-266 465l-268 -465zM512 1282l393 -678l-393 -698l-393 698z" />
    <glyph glyph-name="quotedblleft.alt" unicode="&#xf006;" horiz-adv-x="888" 
d="M393 1133q0 -53 -38 -93t-91 -41h-10q18 -106 133 -225l-41 -41q-111 70 -170 172q-59 101 -59 187t44 129t100 43t94 -39t38 -92zM768 1132q0 -54 -37 -94t-90 -39h-10q14 -102 133 -225l-41 -41q-111 70 -171 172q-60 101 -60 187t45 129t101 43t93 -39t37 -93z" />
    <glyph glyph-name="quoteleft.alt" unicode="&#xf007;" horiz-adv-x="514" 
d="M393 1133q0 -53 -38 -93t-91 -41h-10q18 -106 133 -225l-41 -41q-111 70 -170 172q-59 101 -59 187t44 129t100 43t94 -39t38 -92z" />
    <glyph glyph-name="s_s" unicode="&#xf008;" horiz-adv-x="1218" 
d="M174 848q0 211 83 313t263 103q115 0 187 -58t71 -123q0 -35 -20 -59t-60 -25q-40 0 -62 29q-24 29 -32 62q-8 34 -30 62t-58 28q-63 0 -87 -54t-23 -190v-1088q0 -203 -94 -299t-251 -96q-100 1 -162 57t-61 117q-2 31 16 50t52 19q61 1 74 -85q4 -33 26 -60t66 -26
q55 0 79 73t23 250v1000zM1178 197q0 -115 -83 -173t-179 -58t-180 41q-67 34 -78 16q-11 -17 -11 -58h-59v299h59q0 -74 77 -144t173 -69q49 0 78 23q29 24 29 58t-31 61t-101 59l-114 51q-154 72 -154 209q0 104 74 154t161 51q87 0 148 -23t70 -12q10 10 10 35h59v-238
h-59q0 61 -60 109q-59 48 -115 47q-56 1 -85 -19t-29 -52t29 -54t113 -57l100 -47q76 -36 117 -92t41 -117z" />
    <glyph glyph-name="s.alt_s" unicode="&#xf009;" horiz-adv-x="1218" 
d="M1178 197q0 -115 -83 -173t-179 -58t-180 41q-67 34 -78 16q-11 -17 -11 -58h-59v299h59q0 -74 77 -144t173 -69q49 0 78 23q29 24 29 58t-31 61t-101 59l-114 51q-154 72 -154 209q0 104 74 154t161 51q87 0 148 -23t70 -12q10 10 10 35h59v-238h-59q0 61 -60 109
q-59 48 -115 47q-56 1 -85 -19t-29 -52t29 -54t113 -57l100 -47q76 -36 117 -92t41 -117zM174 848q0 211 83 313t263 103q115 0 187 -58t71 -123q0 -35 -20 -59t-60 -25q-40 0 -62 29q-24 29 -32 62q-8 34 -30 62t-58 28q-63 0 -87 -54t-23 -190v-936h-394v59q102 0 132 43
t30 197v293h-162v59q98 0 130 42t32 155z" />
    <glyph glyph-name="zero.lprp" unicode="&#xf144;" horiz-adv-x="1177" 
d="M589 1163q-103 0 -153 -164t-49 -385q0 -221 49 -385t154 -163q102 0 151 164t50 384q0 221 -50 385q-49 164 -152 164zM1051 614q-1 -266 -137 -457t-324 -191t-324 190q-136 192 -137 458q0 266 136 458q137 192 325 192t324 -192t137 -458z" />
    <glyph glyph-name="one.lprp" unicode="&#xf145;" horiz-adv-x="835" 
d="M694 0h-555v59q104 0 134 43t30 197v614q0 143 -45 183t-160 39v59l434 70v-965q0 -154 30 -197t132 -43v-59z" />
    <glyph glyph-name="two.lprp" unicode="&#xf146;" horiz-adv-x="1040" 
d="M111 0v49l325 408q188 240 189 475q0 102 -43 164t-135 61q-93 0 -135 -80t18 -190l-99 -82q-94 55 -127 135t-4 151t121 121t249 52q157 0 279 -102t121 -238q0 -59 -15 -97q-15 -37 -22 -57t-30 -52t-34 -48t-43 -54t-43 -52q-11 -13 -51 -58t-52 -60l-226 -258h271
q131 0 173 30t68 126h45l-61 -344h-739z" />
    <glyph glyph-name="three.lprp" unicode="&#xf147;" horiz-adv-x="1075" 
d="M645 961q0 94 -45 146t-134 52t-134 -80t16 -202l-96 -64q-119 71 -128 179t93 190t278 82q177 0 299 -72t121 -197q0 -172 -217 -301l-100 -57q152 -19 252 -115t100 -215q0 -156 -129 -249t-323 -93t-312 121q-74 78 -51 139q10 29 47 36q65 12 120 -92q22 -40 72 -75
t127 -35t122 70t45 178q-1 197 -140 277q-12 -10 -50 -52t-55 -42t-36 12q-29 25 -10 53t49 57l113 119q51 51 78 116q28 65 28 114z" />
    <glyph glyph-name="four.lprp" unicode="&#xf148;" horiz-adv-x="1157" 
d="M504 451v415l-293 -415h293zM733 1280v-829h6q131 -1 172 31t66 124l10 41h60l-17 -289h-297v-59q0 -154 35 -197t162 -43v-59h-623v59q127 0 162 43t35 197v59h-430v58l606 864h53z" />
    <glyph glyph-name="five.lprp" unicode="&#xf149;" horiz-adv-x="1050" 
d="M924 376q0 -177 -125 -294t-322 -117q-145 0 -245 80q-99 81 -99 149t57 68q66 0 99 -101q12 -38 55 -70t127 -32t140 86q57 87 57 231t-56 225t-142 81q-85 0 -132 -38t-84 -146h-92l63 731h652l-29 -230h-545l-31 -323q27 43 93 76t129 32q188 0 309 -116t121 -292z
" />
    <glyph glyph-name="six.lprp" unicode="&#xf14a;" horiz-adv-x="1091" 
d="M543 733q172 -1 301 -113t129 -270t-122 -272t-276 -113q-154 0 -287 110q-71 58 -115 180t-44 296t54 336q54 163 169 273q116 110 268 110t250 -88q74 -66 37 -113q-6 -10 -16 -16q-25 -20 -55 -4t-48 43q-18 26 -64 52t-106 25q-235 0 -251 -489q63 53 176 53z
M719 350q0 284 -176 285q-133 0 -176 -66q0 -504 192 -503q160 0 160 284z" />
    <glyph glyph-name="seven.lprp" unicode="&#xf14b;" horiz-adv-x="980" 
d="M891 1229v-55l-453 -1137q-33 -84 -89 -84t-78 45t10 115l442 886h-307q-133 1 -174 -31t-64 -124l-10 -41h-43l61 426h705z" />
    <glyph glyph-name="eight.lprp" unicode="&#xf14c;" horiz-adv-x="1116" 
d="M989 324q0 -152 -129 -255t-302 -103t-301 100q-128 102 -128 240t93 220q50 43 86 66t110 63q-113 90 -170 161t-58 153q0 125 108 210t250 85t252 -79t110 -179t-60 -164q-58 -64 -162 -127q59 -47 115 -90t83 -78t65 -87q38 -51 38 -136zM344 299q0 -94 57 -166
t151 -72q94 -1 148 59t54 143t-70 162t-195 175q-145 -121 -145 -301zM560 1167q-60 0 -98 -40t-38 -91q0 -108 188 -262q98 98 99 242q0 70 -45 110q-46 40 -106 41z" />
    <glyph glyph-name="nine.lprp" unicode="&#xf14d;" horiz-adv-x="1091" 
d="M549 594q133 0 176 68q0 502 -193 501q-158 -1 -158 -285t175 -284zM965 678q-1 -174 -55 -336t-169 -272t-269 -111q-154 0 -251 90q-97 89 -10 131q21 10 36 5q31 -10 80 -67t148 -59q233 0 250 490q-63 -53 -176 -53q-170 0 -300 114t-130 271q0 159 122 271t277 112
t288 -110q71 -58 115 -180t44 -296z" />
    <glyph glyph-name="sterling.lprp" unicode="&#xf14e;" horiz-adv-x="1050" 
d="M731 92q163 0 204 66q17 29 34 90l10 41h59l-18 -289h-957v59q102 0 133 43q30 43 29 197v293h-168v90h168v166q0 211 83 313t263 103q115 0 187 -58t71 -123q0 -35 -20 -59t-59 -25q-39 0 -63 29t-32 62q-7 34 -29 62t-59 28q-63 0 -87 -54t-23 -190v-254h291v-90h-291
v-260q-1 -154 29 -197t132 -43h113z" />
    <glyph glyph-name="yen.lprp" unicode="&#xf150;" horiz-adv-x="1296" 
d="M774 522v-137h266v-115h-266q2 -135 37 -173t158 -38v-59h-639v59q122 0 158 38t38 173h-274v115h274v137h-274v117h209l-232 350q-72 109 -130 145t-167 35v60h695v-60q-215 0 -109 -155l230 -346l229 346q57 84 33 120q-25 36 -144 35v60h496v-60q-121 1 -173 -35
t-122 -145l-233 -350h206v-117h-266z" />
    <glyph glyph-name="dollar.lprp" unicode="&#xf151;" horiz-adv-x="1019" 
d="M301 975q0 -106 125 -180v327q-53 -12 -89 -52t-36 -95zM692 272q0 129 -160 222v-394q72 10 116 56t44 116zM887 367q1 -152 -101 -246t-254 -105v-186h-106v190q-190 25 -295 148q-72 84 -39 135q8 13 36 25t58 -12t50 -66t69 -85q49 -44 121 -59v443l-98 51
q-96 49 -159 131t-63 195q0 112 90 194t230 90v189h106v-193q174 -23 250 -131q55 -78 13 -125q-14 -16 -42 -24t-54 12t-41 54t-49 72t-77 52v-379l144 -73q102 -54 156 -134t55 -163z" />
    <glyph glyph-name="percent.lprp" unicode="&#xf152;" horiz-adv-x="1562" 
d="M1001 261q0 -83 36 -149q35 -66 99 -65q64 -1 100 65t36 149t-36 150t-99 67t-100 -67q-36 -67 -36 -150zM1473 262q1 -121 -99 -208t-237 -87t-237 87q-99 87 -99 208t99 207q98 86 236 86t238 -86t99 -207zM1202 1225l-756 -1262l-81 43l757 1264zM559 969
q0 83 -35 149t-98 66t-99 -66t-36 -148t36 -150q36 -66 99 -66t98 66t35 149zM762 969q0 -121 -99 -207t-237 -86t-239 86q-99 86 -99 207t99 208t237 87t238 -87t100 -208z" />
    <glyph glyph-name="perthousand.lprp" unicode="&#xf153;" horiz-adv-x="2320" 
d="M1896 47q64 -1 100 65t36 149t-36 150t-100 67t-99 -68q-36 -66 -36 -149t36 -149t99 -65zM2232 262q0 -121 -99 -208t-237 -87t-236 87q-99 87 -99 208t99 207t236 86q136 0 236 -86t100 -207zM1001 261q0 -83 36 -149q35 -66 99 -65q64 -1 100 65t36 149t-36 150
t-99 67t-100 -67q-36 -67 -36 -150zM1473 262q1 -121 -99 -208t-237 -87t-237 87q-99 87 -99 208t99 207q98 86 236 86t238 -86t99 -207zM1202 1225l-756 -1262l-81 43l757 1264zM559 969q0 83 -35 149t-98 66t-99 -66t-36 -148t36 -150q36 -66 99 -66t98 66t35 149z
M762 969q0 -121 -99 -207t-237 -86t-239 86q-99 86 -99 207t99 208t237 87t238 -87t100 -208z" />
    <glyph glyph-name="cent.lprp" unicode="&#xf154;" horiz-adv-x="974" 
d="M354 598q0 -176 140 -238v531q-66 -29 -103 -107t-37 -186zM823 825q1 -33 -21 -61t-62 -27q-40 0 -64 25t-25 57q0 80 -63 88v-567q10 -2 28 -2q100 0 215 94l35 -57q-117 -117 -278 -133v-277h-94v277q-166 12 -271 111q-104 99 -104 254t107 260q108 105 268 122v275
h94v-275q111 -12 173 -59t62 -105z" />
    <glyph glyph-name="less.lprp" unicode="&#xf155;" horiz-adv-x="989" 
d="M137 594l690 446l47 -63l-407 -383l407 -381l-47 -63z" />
    <glyph glyph-name="equal.lprp" unicode="&#xf156;" 
d="M768 365h-598v159h598v-159zM768 655h-598v160h598v-160z" />
    <glyph glyph-name="greater.lprp" unicode="&#xf157;" horiz-adv-x="989" 
d="M854 594l-692 -444l-45 63l405 381l-405 383l45 63z" />
    <glyph glyph-name="plus.lprp" unicode="&#xf158;" 
d="M549 670h287v-160h-287v-289h-160v289h-287v160h287v286h160v-286z" />
    <glyph glyph-name="plusminus.lprp" unicode="&#xf159;" 
d="M549 670h287v-160h-287v-289h-160v289h-287v160h287v286h160v-286zM836 125v-125h-734v125h734z" />
    <glyph glyph-name="infinity.lprp" unicode="&#xf15a;" horiz-adv-x="1460" 
d="M392 717q-64 0 -100 -38t-36 -92t37 -93t90 -39q74 0 211 131q-138 131 -202 131zM1169 587q0 54 -35 92q-36 38 -98 38t-231 -131q170 -131 230 -131t98 39q36 39 36 93zM1313 586q0 -113 -76 -190t-199 -77q-70 1 -158 53t-165 124q-76 -72 -167 -124t-159 -53
q-123 0 -200 77t-76 190q1 114 77 190t199 76q68 0 159 -52t167 -124q76 72 165 124t158 52q123 0 199 -76t76 -190z" />
    <glyph glyph-name="lessequal.lprp" unicode="&#xf15b;" 
d="M809 328l-33 -47l-674 309l674 307l33 -45l-342 -262zM836 125v-125h-734v125h734z" />
    <glyph glyph-name="greaterequal.lprp" unicode="&#xf15c;" 
d="M836 0h-734v125h734v-125zM836 590l-674 -309l-33 47l342 262l-342 262l33 45z" />
    <glyph glyph-name="Euro.lprp" unicode="&#xf15d;" horiz-adv-x="1314" 
d="M68 688v119h143q51 201 197 329t344 128t309 -174q23 18 47 116h57v-450h-59q-43 207 -127 308t-229 101q-238 0 -285 -358h401v-119h-409q-2 -25 -2 -74v-73h411v-119h-401q20 -158 91 -258t205 -100t218 102t127 307h59v-450h-57q-25 102 -47 116q-121 -174 -313 -174
t-339 128q-146 128 -198 329h-143v119h120l-2 73q0 25 4 74h-122z" />
    <glyph glyph-name="notequal.lprp" unicode="&#xf15e;" 
d="M768 518v-160h-391l-113 -172l-94 56l78 116h-78v160h182l84 131h-266v158h371l133 205l94 -56l-96 -149h96v-158h-201l-86 -131h287z" />
    <glyph glyph-name="approxequal.lprp" unicode="&#xf15f;" 
d="M600 500q75 0 125 53l16 16v-172q-57 -68 -137 -67q-41 0 -135 34t-133 34t-73 -17q-34 -16 -50 -33l-18 -18v170q57 70 137 69q41 -1 135 -35t133 -34zM332 842q41 0 135 -34t148 -34t110 49l16 19v-170q-57 -70 -137 -70q-41 0 -135 35t-133 35t-73 -18t-50 -36
l-18 -16v172q57 68 137 68z" />
    <glyph glyph-name="logicalnot.lprp" unicode="&#xf160;" horiz-adv-x="1167" 
d="M940 741v-368h-158v209h-612v159h770z" />
    <glyph glyph-name="divide.lprp" unicode="&#xf161;" 
d="M588 874q0 -48 -37 -84t-83 -36t-80 37t-34 83t34 83q34 36 80 36t83 -36t37 -83zM588 305q0 -47 -37 -83t-83 -36t-80 36t-34 83t34 84t80 37t83 -37t37 -84zM836 510h-734v160h734v-160z" />
    <glyph glyph-name="minus.lprp" unicode="&#xf162;" 
d="M768 510h-598v160h598v-160z" />
    <glyph glyph-name="multiply.lprp" unicode="&#xf163;" 
d="M580 590l223 -223l-113 -111l-221 221l-221 -221l-113 111l221 223l-219 219l113 113l219 -220l221 220l111 -113z" />
    <glyph glyph-name="approxequal.caps" unicode="&#xf215;" 
d="M600 500q75 0 125 53l16 16v-172q-57 -68 -137 -67q-41 0 -135 34t-133 34t-73 -17q-34 -16 -50 -33l-18 -18v170q57 70 137 69q41 -1 135 -35t133 -34zM332 842q41 0 135 -34t148 -34t110 49l16 19v-170q-57 -70 -137 -70q-41 0 -135 35t-133 35t-73 -18t-50 -36
l-18 -16v172q57 68 137 68z" />
    <glyph glyph-name="integral.caps" unicode="&#xf21c;" horiz-adv-x="825" 
d="M524 352q0 -201 -83 -294t-233 -93q-150 -1 -233 63q-82 64 -84 132q0 70 70 69q63 0 85 -90q7 -33 35 -61q27 -28 85 -29q126 0 127 320v479q0 211 84 313t264 103q115 0 185 -58t71 -123q0 -35 -20 -59q-19 -24 -59 -25q-40 0 -64 29t-31 62q-8 34 -30 62t-58 28
q-63 0 -87 -54t-24 -190v-584z" />
    <glyph glyph-name="fi.caps" unicode="&#xf21d;" horiz-adv-x="2019" 
d="M1942 0h-648v59q127 0 162 43t35 197v631q0 154 -35 196t-162 43v60h648v-60q-127 0 -161 -43t-34 -196v-631q0 -154 34 -197t161 -43v-59zM528 1137v-441h113q154 0 196 35t42 162h59v-485h-59q0 128 -42 162t-196 34h-113v-305q0 -154 35 -197t162 -43v-59h-647v59
q127 0 161 43t33 197v631q0 154 -34 196t-160 43v60h1087l19 -289h-62l-10 41q-23 90 -63 123q-41 33 -172 33h-349z" />
    <glyph glyph-name="fl.caps" unicode="&#xf21e;" horiz-adv-x="2514" 
d="M1491 930q0 154 -35 196t-162 43v60h648v-60q-127 0 -161 -43t-34 -196v-598q0 -154 34 -197t161 -43h235q165 0 206 66q17 29 32 90l10 41h59l-16 -289h-1174v59q127 0 162 43t35 197v631zM528 1137v-441h113q154 0 196 35t42 162h59v-485h-59q0 128 -42 162t-196 34
h-113v-305q0 -154 35 -197t162 -43v-59h-647v59q127 0 161 43t33 197v631q0 154 -34 196t-160 43v60h1087l19 -289h-62l-10 41q-23 90 -63 123q-41 33 -172 33h-349z" />
    <glyph glyph-name="germandbls.caps" unicode="&#xf21f;" horiz-adv-x="2074" 
d="M1147 -35v451h59q29 -160 139 -259t221 -99q110 0 166 52t56 150q0 56 -40 114t-110 93l-196 102q-141 72 -210 158t-69 221q1 136 105 226t246 90t258 -84q43 37 57 94h59v-451h-59q-21 244 -162 320q-57 31 -129 31t-121 -46t-49 -107t43 -121t121 -99l194 -101
q119 -61 193 -154t74 -208q0 -162 -122 -267t-288 -106q-91 0 -203 48t-114 48q-49 -41 -62 -96h-57zM109 -35v451h61q30 -160 138 -259t239 -100q92 1 148 53t57 150q0 58 -41 114t-111 93l-194 102q-141 72 -210 158t-69 221q0 136 104 226q103 90 245 90t257 -84
q47 39 60 94h57v-451h-59q-12 147 -81 249t-214 102q-66 0 -116 -46t-50 -106q0 -62 44 -122t120 -99l196 -101q119 -61 192 -154t72 -208q0 -162 -122 -267t-285 -106q-114 0 -248 67q-52 25 -72 29q-47 -39 -59 -96h-59z" />
    <glyph glyph-name="pi.caps" unicode="&#xf220;" horiz-adv-x="1501" 
d="M512 1122v-823q0 -154 35 -197t162 -43v-59h-631v59q127 0 161 43t33 197v631q0 154 -34 196t-160 43v60h1347v-60q-127 0 -161 -43t-35 -196v-631q0 -154 35 -197t161 -43v-59h-630v59q127 0 161 43t33 197v823h-477z" />
    <glyph glyph-name="florin.caps" unicode="&#xf221;" horiz-adv-x="927" 
d="M575 352q-1 -201 -83 -294t-232 -93q-150 -1 -233 63q-82 64 -83 133t68 68q66 0 85 -90q7 -33 35 -61t86 -29q126 0 126 320v223h-166v90h166v166q0 211 84 313t264 103q115 0 186 -58t70 -123q0 -35 -20 -59t-60 -25q-40 0 -62 29q-24 29 -32 62q-8 34 -30 62t-58 28
q-63 0 -87 -54t-24 -190v-254h207v-90h-207v-240z" />
    <glyph glyph-name="mu.caps" unicode="&#xf222;" horiz-adv-x="1501" 
d="M489 -49q0 -154 30 -197t132 -43v-59h-553v59q102 0 132 43t30 197v979q0 154 -35 196t-162 43v60h650v-60q-129 0 -163 -42t-34 -197v-451q0 -191 89 -289t227 -98t221 98q82 98 82 289v451q0 156 -34 198t-163 41v60h502v-60q-127 0 -161 -43t-34 -196v-473
q0 -231 -140 -361t-353 -131q-150 1 -263 64v-78z" />
    <glyph glyph-name="ordfeminine.caps" unicode="&#xf223;" horiz-adv-x="917" 
d="M406 1006l-82 -183h168zM342 598v-51h-311v51q65 0 93 17t54 73l260 569h39l262 -569q27 -54 52 -72t96 -18v-51h-414v51q72 0 91 14t-1 54l-37 82h-239l-35 -82q-16 -40 1 -54t89 -14z" />
    <glyph glyph-name="ordmasculine.caps" unicode="&#xf224;" horiz-adv-x="1038" 
d="M518 1180q-113 0 -169 -89t-56 -203t56 -203t169 -89t169 89t56 203t-56 203t-169 89zM928 888q0 -152 -120 -262q-120 -108 -289 -108t-289 109t-120 261t120 260q118 108 288 108t290 -108t120 -260z" />
    <glyph glyph-name="colon.caps" unicode="&#xf225;" horiz-adv-x="583" 
d="M408 573q0 -49 -35 -83t-83 -34t-81 34t-33 83t33 84t81 35t83 -35t35 -84zM408 101q0 -48 -35 -83q-35 -34 -83 -34t-81 34t-33 82q0 49 33 84t81 35t83 -35t35 -83z" />
    <glyph glyph-name="semicolon.caps" unicode="&#xf226;" horiz-adv-x="569" 
d="M395 573q0 -49 -35 -83t-84 -34q-50 0 -82 34t-32 83t33 84t81 35t84 -35q35 -35 35 -84zM274 -20q-46 0 -80 36t-34 82q0 47 34 83t84 36t90 -39q42 -40 42 -116t-54 -168t-155 -156l-35 37q104 111 119 205h-11z" />
    <glyph glyph-name="questiondown.caps" unicode="&#xf227;" horiz-adv-x="1050" 
d="M717 1126q0 -49 -35 -83q-35 -33 -83 -33t-81 34t-33 82q0 49 33 84t81 35t83 -35t35 -84zM887 193q1 -98 -105 -164t-227 -66q-207 0 -333 115t-126 248q0 184 127 295t332 135v110h90v-356q-174 0 -285 -66q-110 -66 -110 -166t86 -166t217 -67q86 0 137 31t51 61
q0 45 -69 45q-39 0 -66 26q-26 26 -26 70t45 70q45 27 99 27t109 -42q54 -42 54 -140z" />
    <glyph glyph-name="exclamdown.caps" unicode="&#xf228;" horiz-adv-x="673" 
d="M457 1126q0 -49 -35 -83q-35 -33 -84 -33t-82 34t-33 82q0 49 33 84t82 35t84 -35t35 -84zM498 121q0 -63 -48 -111t-112 -47q-64 0 -109 47t-45 117q0 71 26 143q84 234 93 561h70q12 -336 68 -472q57 -135 57 -238z" />
    <glyph glyph-name="endash.caps" unicode="&#xf229;" horiz-adv-x="1075" 
d="M1075 510h-1077v160h1077v-160z" />
    <glyph glyph-name="emdash.caps" unicode="&#xf22a;" horiz-adv-x="1366" 
d="M1366 510h-1368v160h1368v-160z" />
    <glyph glyph-name="hyphen.caps" unicode="&#xf22b;" 
d="M768 510h-598v160h598v-160z" />
    <glyph glyph-name="periodcentered.caps" unicode="&#xf22c;" horiz-adv-x="579" 
d="M291 723q55 0 92 -38t37 -93t-37 -93t-92 -38t-93 38t-38 93t38 93t93 38z" />
    <glyph glyph-name="guillemotleft.caps" unicode="&#xf22d;" horiz-adv-x="1091" 
d="M1010 309l-31 -45l-451 322l451 321l31 -43l-228 -278zM680 227l-33 -43l-553 402l553 401l33 -41l-295 -360z" />
    <glyph glyph-name="guillemotright.caps" unicode="&#xf22e;" horiz-adv-x="1091" 
d="M84 309l227 277l-227 278l29 43l450 -321l-450 -322zM414 227l293 359l-293 360l32 41l553 -401l-553 -402z" />
    <glyph glyph-name="asciitilde.caps" unicode="&#xf22f;" horiz-adv-x="866" 
d="M610 625q90 0 119 110h43q0 -153 -49 -233t-139 -80q-51 0 -174 66t-161 67q-38 0 -71 -30t-45 -79h-43q0 140 48 224t128 84q55 0 176 -64t168 -65z" />
    <glyph glyph-name="guilsinglleft.caps" unicode="&#xf230;" horiz-adv-x="751" 
d="M682 227l-33 -43l-553 402l553 401l33 -41l-295 -360z" />
    <glyph glyph-name="guilsinglright.caps" unicode="&#xf231;" horiz-adv-x="751" 
d="M72 227l293 359l-293 360l32 41l553 -401l-553 -402z" />
    <glyph glyph-name="at.caps" unicode="&#xf233;" horiz-adv-x="1449" 
d="M815 905q-76 0 -132 -90t-79 -213q-45 -279 88 -278q49 0 93 48t59 115l65 383q-39 35 -94 35zM1380 737q0 -207 -127 -361t-266 -153q-94 0 -141 82q-39 -39 -92 -63t-95 -25q-133 0 -197 114q-64 115 -35 277q30 162 144 275q115 113 248 112q70 0 133 -32h138
l-99 -547q-18 -90 39 -90q82 0 164 114t82 302t-131 305t-314 116q-239 0 -405 -179t-166 -416q0 -238 140 -388t354 -150t436 140l39 -57q-237 -179 -501 -179t-458 180t-192 464q0 282 213 494t512 212q250 0 414 -151q163 -152 163 -396z" />
    <glyph glyph-name="zero.ltab" unicode="&#xf235;" horiz-adv-x="1126" 
d="M563 1163q-63 0 -104 -87q-72 -153 -72 -464t72 -459q41 -87 104 -87t105 87q71 151 71 461q0 311 -71 462q-42 87 -105 87zM999 614q0 -268 -128 -458t-308 -190t-307 190t-127 458t127 458t307 192q180 0 308 -191t128 -459z" />
    <glyph glyph-name="one.ltab" unicode="&#xf236;" horiz-adv-x="1126" 
d="M842 0h-555v59q102 0 132 43t30 197v614q1 143 -45 183t-160 39v59l436 70v-965q0 -154 30 -197t132 -43v-59z" />
    <glyph glyph-name="two.ltab" unicode="&#xf237;" horiz-adv-x="1126" 
d="M154 0v49l323 408q190 240 191 475q0 102 -43 164t-135 61q-92 0 -136 -80t19 -190l-99 -82q-94 55 -127 135t-4 151t121 121t249 52q157 0 279 -102t121 -238q0 -95 -50 -175q-22 -37 -33 -55t-46 -59t-48 -56t-57 -65t-58 -68l-226 -258h273q129 0 172 30t67 126h47
l-61 -344h-739z" />
    <glyph glyph-name="three.ltab" unicode="&#xf238;" horiz-adv-x="1126" 
d="M672 961q0 94 -46 146t-134 52t-134 -80t17 -202l-99 -64q-118 71 -126 179t94 190t278 82t297 -71t121 -198q0 -174 -217 -301l-100 -57q154 -19 254 -115t100 -215q0 -156 -130 -249q-131 -93 -325 -93t-309 121q-76 78 -53 139q12 29 49 36t67 -23t51 -69
q21 -40 71 -75t128 -35t122 70t44 178q0 197 -139 277q-29 -24 -56 -59t-46 -35t-37 12q-29 25 -10 53t47 57l114 119q51 53 79 117t28 113z" />
    <glyph glyph-name="four.ltab" unicode="&#xf239;" horiz-adv-x="1126" 
d="M502 451v415l-291 -415h291zM733 1280v-829h4q106 0 147 31q40 32 64 124l10 41h60l-19 -289h-266v-59q0 -154 34 -197t161 -43v-59h-623v59q129 0 163 42t34 198v59h-430v58l606 864h55z" />
    <glyph glyph-name="five.ltab" unicode="&#xf23a;" horiz-adv-x="1126" 
d="M961 375q0 -178 -124 -294t-323 -116q-145 0 -245 80q-99 81 -99 149t57 68q65 0 100 -101q13 -38 56 -70t126 -32t139 86q56 85 56 229t-56 226t-140 82t-131 -38t-84 -146h-92l61 731h653l-28 -230h-545l-33 -323q27 43 93 76t128 32q188 0 310 -115q121 -116 121 -294
z" />
    <glyph glyph-name="six.ltab" unicode="&#xf23b;" horiz-adv-x="1126" 
d="M559 733q172 -1 301 -113t129 -270t-121 -272t-276 -113q-155 0 -288 110q-71 58 -115 180t-44 296t55 336q54 163 169 273t267 110t251 -88q74 -66 37 -113q-6 -10 -17 -16q-25 -20 -55 -4t-47 43q-19 26 -65 52t-105 25q-234 0 -250 -489q63 53 174 53zM559 635
q-131 0 -174 -66q0 -504 193 -503q158 0 158 284t-177 285z" />
    <glyph glyph-name="seven.ltab" unicode="&#xf23c;" horiz-adv-x="1126" 
d="M965 1229v-55l-469 -1137q-33 -84 -99 -84q-47 0 -69 45t8 115l461 886h-351q-131 -1 -173 -33t-64 -122l-10 -41h-43l61 426h748z" />
    <glyph glyph-name="eight.ltab" unicode="&#xf23d;" horiz-adv-x="1126" 
d="M195 969q0 125 107 210q108 85 251 85t253 -79t110 -179t-60 -164q-58 -64 -164 -127q234 -177 279 -280q23 -52 22 -111q0 -152 -128 -255t-302 -103t-302 100q-128 102 -128 240t93 220q50 43 87 67t111 62q-113 90 -171 161t-58 153zM558 61q94 -1 148 59t54 143
t-70 162t-194 175q-145 -117 -146 -301q0 -94 58 -166t150 -72zM564 1167q-60 0 -98 -40t-38 -91q0 -106 190 -262q96 96 97 242q0 70 -45 110q-46 40 -106 41z" />
    <glyph glyph-name="nine.ltab" unicode="&#xf23e;" horiz-adv-x="1126" 
d="M391 878q0 -284 176 -284q133 0 176 68q0 502 -194 501q-158 -1 -158 -285zM981 678q0 -174 -54 -336t-169 -272q-116 -110 -268 -111q-152 0 -250 90q-74 66 -37 113q5 8 25 18t35 5q31 -10 80 -67t149 -59q231 0 251 490q-68 -53 -176 -53q-172 0 -301 112t-129 272
t121 272t276 112t288 -110q71 -58 115 -180t44 -296z" />
    <glyph glyph-name="zero.otab" unicode="&#xf244;" horiz-adv-x="1126" 
d="M563 825q-63 0 -104 -60q-72 -105 -72 -322q0 -216 72 -319q41 -60 104 -60t105 60q72 104 71 320q0 217 -71 321q-42 60 -105 60zM999 444q0 -199 -128 -339t-308 -140t-307 140t-127 339t127 338q127 140 307 140t308 -140t128 -338z" />
    <glyph glyph-name="one.otab" unicode="&#xf245;" horiz-adv-x="1126" 
d="M877 0h-625v59q129 0 163 42t34 198v291q0 154 -34 196t-163 41v60h625v-60q-129 0 -163 -42t-34 -195v-291q0 -156 34 -198t163 -42v-59z" />
    <glyph glyph-name="two.otab" unicode="&#xf246;" horiz-adv-x="1126" 
d="M864 -162q0 102 -43 132t-196 30h-473v49l385 316q139 117 139 256q0 86 -49 141t-150 55t-147 -80t18 -209l-96 -63q-119 71 -124 181t101 193t293 83q186 0 306 -79t120 -189t-66 -183q-66 -74 -169 -137l-240 -146h485l-51 -350h-43z" />
    <glyph glyph-name="three.otab" unicode="&#xf247;" horiz-adv-x="1126" 
d="M672 612q0 94 -46 150t-134 55q-88 0 -134 -83t17 -206l-99 -63q-118 71 -126 181t94 193t278 83t297 -74t121 -201q0 -174 -217 -301l-100 -57q154 -19 254 -115t100 -215q0 -156 -130 -249q-131 -93 -325 -93t-309 121q-76 78 -53 137q12 31 46 37q56 10 101 -62
q20 -30 44 -62q58 -76 156 -77q97 0 141 70t44 178q0 197 -139 277q-29 -24 -56 -59t-46 -35t-37 12q-29 25 -11 50q18 26 48 60l114 119q51 51 79 116t28 113z" />
    <glyph glyph-name="four.otab" unicode="&#xf248;" horiz-adv-x="1126" 
d="M502 178v416l-291 -416h291zM733 1008v-830h4q106 0 147 32q40 32 64 124l10 41h60l-19 -289h-266v-135q0 -154 34 -197t161 -43v-59h-623v59q129 0 163 42t34 198v135h-430v55l606 867h55z" />
    <glyph glyph-name="five.otab" unicode="&#xf249;" horiz-adv-x="1126" 
d="M651 887q133 0 174 32t64 123h47l-49 -385h-545l-33 -323q27 45 93 78t128 32q188 0 310 -115q121 -116 121 -294t-124 -294t-323 -116q-145 0 -245 80q-99 79 -99 147t57 68q65 0 100 -101q13 -38 56 -70t126 -32t139 86q56 87 56 231t-56 226t-140 82t-131 -38
t-84 -146h-92l61 729h389z" />
    <glyph glyph-name="six.otab" unicode="&#xf24a;" horiz-adv-x="1126" 
d="M559 733q172 -1 301 -113t129 -270t-121 -272t-276 -113q-155 0 -288 110q-71 58 -115 180t-44 296t55 336q54 163 169 273t267 110t251 -88q74 -66 37 -113q-6 -10 -17 -16q-25 -20 -55 -4t-47 43q-19 26 -65 52t-105 25q-234 0 -250 -489q63 53 174 53zM559 635
q-131 0 -174 -66q0 -504 193 -503q158 0 158 284t-177 285z" />
    <glyph glyph-name="seven.otab" unicode="&#xf24b;" horiz-adv-x="1126" 
d="M965 905v-57l-478 -1151q-35 -82 -90 -82t-78 45t9 115l469 899h-351q-165 0 -203 -64q-17 -29 -32 -92l-10 -41h-43l84 590h43q0 -102 43 -132t196 -30h441z" />
    <glyph glyph-name="eight.otab" unicode="&#xf24c;" horiz-adv-x="1126" 
d="M195 969q0 125 107 210q108 85 251 85t253 -79t110 -179t-60 -164q-58 -64 -164 -127q234 -177 279 -280q23 -52 22 -111q0 -152 -128 -255t-302 -103t-302 100q-128 102 -128 240t93 220q50 43 87 67t111 62q-113 90 -171 161t-58 153zM558 61q94 -1 148 59t54 143
t-70 162t-194 175q-145 -117 -146 -301q0 -94 58 -166t150 -72zM564 1167q-60 0 -98 -40t-38 -91q0 -106 190 -262q96 96 97 242q0 70 -45 110q-46 40 -106 41z" />
    <glyph glyph-name="nine.otab" unicode="&#xf24d;" horiz-adv-x="1126" 
d="M549 823q-158 1 -158 -285t176 -286q131 -1 176 67q0 504 -194 504zM981 338q0 -174 -54 -337t-169 -273q-116 -110 -268 -111q-152 0 -250 90q-74 66 -37 113q5 8 25 18t35 5q31 -10 80 -67t149 -59q231 0 251 492q-70 -55 -176 -55q-172 0 -301 114t-129 271
q0 159 121 271t276 112t288 -110q71 -58 115 -179t44 -295z" />
    <glyph glyph-name="a_e" unicode="&#xf26e;" horiz-adv-x="1808" 
d="M535 438q-1 195 -121 195q-54 0 -88 -22q-34 -23 -35 -61q0 -38 -24 -62q-25 -24 -59 -24t-56 24t-23 65q0 74 89 119q90 45 232 45q142 1 219 -61t81 -199q172 12 294 12q42 113 144 181t246 67q144 0 229 -112q86 -112 51 -226h-446q-10 -147 51 -226t151 -79
q143 0 242 86l35 -60q-55 -59 -140 -97t-171 -38q-180 0 -297 110t-117 267q0 25 2 37q-197 -4 -274 -10v-207q0 -78 45 -78q20 0 59 25l29 -56q-100 -76 -191 -76q-135 0 -157 119q-93 -72 -143 -98t-122 -25q-72 0 -131 47t-59 125q0 123 118 191t337 100v2zM283 170
q0 -82 82 -82q66 0 170 92v174q-131 -35 -192 -73q-60 -39 -60 -111zM1282 469h272q6 66 -27 108q-34 42 -97 41q-113 1 -148 -149z" />
    <glyph glyph-name="c_t" unicode="&#xf26f;" horiz-adv-x="1474" 
d="M344 324q0 -123 55 -191q55 -67 153 -67t208 94l35 -60q-125 -135 -305 -135q-180 -1 -288 101t-108 267t109 273t264 111q-23 143 30 253q52 110 145 164t206 54q170 0 273 -93t104 -255v-158h178v-90h-178v-356q0 -147 92 -148q55 0 139 59l29 -59q-51 -47 -125 -82
t-127 -35q-111 0 -174 66t-64 184v371h-108v67l45 13q96 28 146 94t50 146t-74 151q-75 72 -214 72q-140 0 -232 -125t-14 -312q74 -18 111 -59t37 -82t-28 -73q-26 -32 -73 -31q-94 0 -145 143q-11 33 -11 39q-141 -6 -141 -311z" />
    <glyph glyph-name="c_k_y" unicode="&#xf270;" horiz-adv-x="2514" 
d="M1810 59v-59h-288l-275 326v-43q0 -135 26 -179t103 -45v-59h-520v59q102 0 132 43t30 197v598q0 152 -30 195t-142 43t-195 -70q-82 -70 -93 -167t28 -200q74 -18 110 -59t37 -82q-1 -41 -27 -73t-73 -31q-94 0 -146 143q-10 33 -10 39q-141 -6 -141 -311
q0 -123 55 -191q55 -67 153 -67t208 94l34 -60q-125 -135 -300 -135q-176 1 -288 103t-112 266t109 272t264 111q-33 215 86 343t311 152l391 52v-858l264 188q5 4 25 17t47 36t66 39q37 16 55 24q41 18 96 17q118 0 182 -48t113 -159l119 -266l110 266q23 55 11 79t-70 24
v59h303v-59q-102 0 -145 -103l-219 -534q-29 -66 -44 -103q-65 -161 -177 -286q-120 -133 -315 -135q-73 0 -129 42q-56 43 -56 90q0 94 90 95q41 0 54 -53q5 -19 27 -35t62 -17q127 0 217 98t162 289l-246 549q-79 184 -278 29l-156 -119l240 -289q70 -82 155 -82z" />
    <glyph glyph-name="e_e" unicode="&#xf271;" horiz-adv-x="1757" 
d="M506 -35q-192 0 -302 108q-110 109 -110 269t116 268t261 107q145 0 227 -74t95 -174h196q41 113 143 181t230 67q160 0 246 -112t51 -226h-447q-10 -147 45 -222t156 -81q137 -8 244 84l35 -60q-56 -59 -142 -97t-170 -38q-194 0 -304 108t-109 269q0 25 2 37h-629
q-12 -147 45 -222t156 -81q137 -8 241 84l37 -60q-55 -59 -141 -97t-172 -38zM1499 469q4 66 -29 108t-98 41q-111 0 -145 -149h272zM627 469q4 66 -30 108t-97 41q-113 0 -148 -149h275z" />
    <glyph glyph-name="f_f_y" unicode="&#xf272;" horiz-adv-x="2113" 
d="M1862 623v59h305v-59q-106 0 -146 -103l-221 -534q-127 -309 -236 -409q-50 -46 -126 -81t-160 -35t-140 43t-57 90q0 94 88 95q39 0 55 -53q6 -19 28 -35t63 -17q127 0 217 98t162 289l-234 518q-43 102 -135 103h-180v-293q0 -154 30 -197t132 -43v-59h-553v59
q102 0 132 43t29 197v293h-458v-293q-1 -154 29 -197t132 -43v-59h-555v59q102 0 133 43q30 43 29 197v293h-168v90h168v98q0 397 334 398q102 0 168 -52t66 -108q1 -34 -19 -56t-55 -22t-57 26t-28 56t-26 54q-20 26 -53 26q-57 0 -77 -48t-21 -171v-201h458v166
q0 211 83 313t264 103q114 0 186 -58t72 -123q0 -35 -22 -59t-60 -25q-38 0 -63 29q-24 29 -32 62q-7 34 -29 62t-59 28q-61 0 -86 -54t-24 -190v-254h614v-59q-63 0 -79 -23t12 -80l118 -266l111 266q25 55 11 79t-70 24z" />
    <glyph glyph-name="f_y" unicode="&#xf273;" horiz-adv-x="1423" 
d="M1174 623v59h303v-59q-106 0 -146 -103l-219 -534q-40 -92 -64 -146t-74 -135q-50 -82 -100 -128t-126 -81t-160 -35t-141 43q-56 43 -56 90q0 94 88 95q39 0 55 -53q6 -19 28 -35t63 -17q127 0 217 98t162 289l-232 518q-45 102 -137 103h-178v-293q-1 -154 29 -197
t132 -43v-59h-555v59q102 0 133 43q30 43 29 197v293h-168v90h168v166q0 211 83 313t263 103q115 0 187 -58t71 -123q0 -35 -20 -59t-59 -25q-39 0 -63 29t-32 62q-7 34 -29 62t-59 28q-63 0 -87 -54t-23 -190v-254h614v-59q-66 0 -80 -23t10 -80l121 -266l111 266
q23 55 11 79t-70 24z" />
    <glyph glyph-name="g_g_y" unicode="&#xf274;" horiz-adv-x="2412" 
d="M1071 92q0 -25 36 -34q35 -9 101 -15t80 -8q178 -21 263 -105t85 -184q0 -131 -112 -212t-279 -81q-238 0 -334 111q-78 90 -6 182q35 45 103 80l39 -23q-61 -67 -65 -119t38 -82q80 -59 197 -60t185 37q68 37 66 97q0 60 -61 92t-244 52q-256 27 -256 205q0 55 49 104
t129 74q-69 31 -111 94t-42 141q0 115 90 197t204 82t204 -66q-37 164 31 258q69 95 187 95t146 -86q23 -66 -18 -105q-25 -27 -58 -19q-53 14 -63 64q-10 49 -60 49q-79 0 -105 -91t3 -228q49 -60 49 -158t-80 -179t-210 -92t-156 -27q-25 -16 -25 -40zM1352 439
q0 87 -29 141t-85 53q-56 0 -86 -54q-30 -55 -30 -141t30 -140t86 -54t85 54t29 141zM1831 -553q-29 0 -55 17q-26 16 -27 54q0 38 25 60q95 85 131 176l88 217l-246 549q-43 102 -135 103v59h448v-59q-66 0 -80 -23t13 -80l118 -266l111 266q22 55 10 79t-69 24v59h303v-59
q-102 0 -146 -103l-411 -997q-35 -76 -78 -76zM512 439q0 87 -29 141t-85 53q-56 0 -86 -54q-30 -55 -30 -141t30 -140t86 -54t85 54t29 141zM702 430q0 -98 -80 -179t-210 -92q-132 -11 -156 -27t-25 -40q0 -25 36 -34t102 -15t80 -8q178 -21 263 -105t85 -184
q0 -131 -113 -212t-278 -81q-233 0 -332 109q-80 88 -13 182q37 47 107 82l39 -23q-61 -67 -65 -119t38 -82q80 -59 197 -60t185 37q68 37 67 97q1 60 -61 92t-244 52q-256 27 -256 205q0 55 49 104t129 74q-68 31 -111 94t-43 141q0 115 90 197t214 82t214 -78q25 33 71 55
t81 23q113 0 141 -86q23 -66 -18 -105q-25 -26 -58 -18q-54 13 -62 62t-48 51q-31 0 -64 -33q49 -60 49 -158z" />
    <glyph glyph-name="g_g" unicode="&#xf275;" horiz-adv-x="1679" 
d="M1556 819q0 48 -47 60q-49 11 -62 64q-13 54 48 77q68 20 114 -26t46 -128q1 -82 -55 -146q-56 -65 -158 -77q100 -83 100 -197t-80 -195t-210 -92t-156 -27q-24 -16 -25 -40q0 -25 36 -34q35 -9 101 -15t80 -8q178 -21 263 -105t85 -184q0 -131 -112 -212t-279 -81
q-238 0 -334 111q-78 90 -6 182q35 45 103 80l39 -23q-61 -67 -65 -119t38 -82q80 -59 197 -60t185 37q68 37 66 97q0 60 -61 92t-244 52q-256 27 -256 205q0 55 49 104t129 74q-69 31 -111 94t-42 141q0 115 90 197t215 82l133 -15q186 0 186 117zM1352 439q0 87 -29 141
t-85 53q-56 0 -86 -54q-30 -55 -30 -141t30 -140t86 -54t85 54t29 141zM702 430q0 -98 -80 -179t-210 -92q-132 -11 -156 -27t-25 -40q0 -25 36 -34t102 -15t80 -8q178 -21 263 -105t85 -184q0 -131 -113 -212t-278 -81q-233 0 -332 109q-80 88 -13 182q37 47 107 82l39 -23
q-61 -67 -65 -119t38 -82q80 -59 197 -60t185 37q68 37 67 97q1 60 -61 92t-244 52q-256 27 -256 205q0 55 49 104t129 74q-68 31 -111 94t-43 141q0 115 90 197t204 82t204 -66q-37 164 32 258q68 95 186 95t146 -86q23 -66 -18 -105q-25 -26 -58 -18q-50 12 -63 64
q-10 48 -59 48q-80 0 -106 -91t3 -228q49 -60 49 -158zM512 439q0 87 -29 141t-85 53q-56 0 -86 -54q-30 -55 -30 -141t30 -140t86 -54t85 54t29 141z" />
    <glyph glyph-name="g_i" unicode="&#xf276;" horiz-adv-x="1423" 
d="M1389 -16h-553v59q102 0 132 43t29 197v67q0 154 -29 197q-30 43 -132 43v59l391 51v-417q-1 -154 29 -197t133 -43v-59zM1210 1035q0 -48 -28 -78t-70 -29q-63 0 -104 94q-41 86 -149 80t-179 -119q-96 -154 -29 -408q51 -67 51 -163t-79 -178q-80 -81 -213 -92
t-162 -31q-16 -16 -17 -35q0 -37 168 -53q31 -4 50 -7q178 -18 263 -102t85 -186q0 -131 -113 -211t-278 -80q-233 0 -332 108q-80 88 -13 183q37 47 107 82l39 -23q-61 -66 -65 -119t38 -84q81 -61 197 -61q117 0 185 39t67 98q1 59 -61 91t-244 50q-256 27 -256 205
q0 54 49 104t129 76q-68 29 -111 94t-43 142q0 114 90 196t198 82t189 -49q-57 264 104 429t402 94q41 -12 88 -52t47 -87zM512 422q0 86 -29 140t-85 54t-86 -54t-30 -140t30 -140t86 -54t85 54t29 140z" />
    <glyph glyph-name="g_y" unicode="&#xf277;" horiz-adv-x="1572" 
d="M231 92q0 -25 36 -34t102 -15t80 -8q178 -21 263 -105t85 -184q0 -131 -113 -212t-278 -81q-233 0 -332 109q-80 88 -13 182q37 47 107 82l39 -23q-61 -67 -65 -119t38 -82q80 -59 197 -60t185 37q68 37 67 97q1 60 -61 92t-244 52q-256 27 -256 205q0 55 49 104t129 74
q-68 31 -111 94t-43 141q0 115 90 197t204 82t204 -66q-37 164 32 258q68 95 186 95t146 -86q23 -66 -18 -105q-25 -27 -58 -19q-50 13 -63 65q-10 48 -59 48q-80 0 -106 -91t3 -228q49 -60 49 -158t-80 -179t-210 -92q-131 -11 -156 -27t-25 -40zM512 439q0 87 -29 141
t-85 53q-56 0 -86 -54q-30 -55 -30 -141t30 -140t86 -54t85 54t29 141zM991 -553q-29 0 -55 17q-26 16 -27 54q0 38 25 60q95 85 131 176l88 217l-246 549q-43 102 -135 103v59h449v-59q-66 0 -80 -23t12 -80l119 -266l110 266q23 55 11 79t-70 24v59h303v-59
q-102 0 -145 -103l-412 -997q-35 -76 -78 -76z" />
    <glyph glyph-name="i_p" unicode="&#xf278;" horiz-adv-x="1722" 
d="M635 0h-555v59q102 0 132 43t30 197v68q0 155 -30 197t-132 42v60l393 51v-418q0 -154 30 -197t132 -43v-59zM967 911q0 80 -75 152t-210 72q-82 0 -135 -36t-98 -120q-10 -21 -40 -37t-66 -16t-70 35q-33 35 -33 83q1 98 148 124q115 20 292 20q176 0 279 -93t104 -255
v-197q78 74 190 74q167 0 267 -108q100 -109 100 -269t-99 -268t-268 -107q-102 0 -174 62v-240q0 -154 30 -197t132 -43v-59h-555v59q102 0 132 43t30 197v580q0 155 -30 197t-132 42v60l80 12q100 14 150 84t51 149zM1368 342q0 279 -147 279q-55 1 -99 -51t-43 -130v-198
q0 -76 43 -128t109 -52q65 0 101 77q36 78 36 203z" />
    <glyph glyph-name="i_t" unicode="&#xf279;" horiz-adv-x="1366" 
d="M344 926q-37 0 -70 35q-32 35 -32 83q1 98 148 124q115 20 292 20q176 0 280 -93t103 -255v-158h178v-90h-178v-356q0 -147 92 -148q55 0 139 59l29 -59q-51 -47 -126 -82t-126 -35q-111 0 -174 66t-63 184v371h-109v67l45 13q96 27 147 93q50 67 50 147t-76 151
q-76 72 -211 72q-86 0 -135 -36t-98 -122q-12 -19 -40 -35t-65 -16zM635 0h-555v59q102 0 132 43t30 197v68q0 155 -30 197t-132 42v60l393 51v-418q0 -154 30 -197t132 -43v-59z" />
    <glyph glyph-name="k_y" unicode="&#xf27a;" horiz-adv-x="1685" 
d="M1436 623v59h303v-59q-102 0 -146 -103l-219 -534q-29 -66 -44 -103q-66 -163 -176 -286q-120 -133 -315 -135q-73 0 -129 42q-56 43 -57 90q0 94 90 95q39 0 55 -53q4 -19 26 -35t63 -17q127 0 217 98t162 289l-246 549q-80 185 -279 29l-155 -119l239 -289
q70 -82 156 -82v-59h-289l-274 326v-43q0 -135 25 -180q26 -44 104 -44v-59h-520v59q102 0 132 43t29 197v614q0 154 -29 197q-30 43 -132 43v59l391 52v-858l264 188q61 43 91 62t89 45t109 26q117 0 181 -48t114 -159l118 -266l111 266q23 55 11 79t-70 24z" />
    <glyph glyph-name="o_e" unicode="&#xf27b;" horiz-adv-x="1900" 
d="M1505 717q160 0 246 -112t51 -226h-446q-10 -147 45 -222t155 -81q137 -8 244 84l35 -60q-55 -59 -141 -97t-170 -38q-194 0 -304 108t-110 269q0 25 2 37h-203q2 -12 2 -37q1 -156 -121 -266t-292 -111q-170 0 -291 111q-121 110 -121 266t121 266t291 109
q132 1 238 -69t151 -179h246q41 113 143 181t229 67zM662 342q0 123 -42 201t-122 78t-121 -78t-41 -201t41 -202t121 -79t122 79t42 202zM1370 469h272q4 66 -28 108q-33 42 -98 41q-111 1 -146 -149z" />
    <glyph glyph-name="p_y" unicode="&#xf27c;" horiz-adv-x="1769" 
d="M969 682h448v-59q-66 0 -80 -23t13 -80l118 -266l111 266q23 55 11 79t-70 24v59h303v-59q-102 0 -146 -103l-219 -534q-29 -66 -44 -103q-66 -163 -176 -286q-120 -133 -315 -135q-73 0 -129 42q-56 43 -57 90q0 94 90 95q39 0 55 -53q4 -19 26 -35t63 -17q127 0 217 98
t162 289l-246 549q-43 102 -135 103v59zM567 717q167 1 267 -107t100 -269t-99 -269t-268 -107q-102 0 -174 62v-240q0 -154 30 -197t132 -43v-59h-555v59q102 0 132 43t30 197v580q0 155 -30 197t-132 42v60l358 51q6 -8 19 -74q78 74 190 74zM684 342q0 125 -37 202
t-101 77q-64 1 -108 -51t-45 -130v-198q0 -76 44 -128t109 -52q66 0 102 77q36 78 36 203z" />
    <glyph glyph-name="s_p" unicode="&#xf27d;" horiz-adv-x="1761" 
d="M735 1135q-137 0 -221 -130t-6 -317q106 -51 106 -123q0 -29 -22 -53t-57 -25q-76 0 -117 113q0 8 -10 31q-10 4 -42 4q-32 1 -61 -19t-29 -52t29 -54t113 -57l100 -47q76 -36 117 -92t41 -117q0 -115 -83 -173t-179 -58t-172 37q-76 38 -87 17q-9 -14 -10 -55h-59v299
h59q0 -74 77 -144t173 -69q49 0 78 23q29 24 29 58t-31 61t-100 59l-115 51q-154 72 -154 209q0 104 74 154t168 51q31 0 45 -2q-6 39 -6 82q0 180 104 285q104 106 264 106q159 0 255 -92t96 -256v-197q78 74 184 74q170 0 272 -108q102 -107 101 -267t-103 -268t-270 -109
q-96 0 -168 62v-240q0 -154 30 -197t132 -43v-59h-555v59q102 0 132 43t30 197v580q0 155 -30 197t-132 42v60l80 12q98 14 149 83q52 69 52 151t-67 153q-67 70 -204 70zM1409 342q0 123 -39 201q-38 78 -104 78q-66 1 -107 -51t-41 -130v-198q0 -76 41 -128t107 -52
t104 78q39 79 39 202z" />
    <glyph glyph-name="s_t" unicode="&#xf27e;" horiz-adv-x="1404" 
d="M383 797q0 180 104 285q104 106 264 106q161 0 257 -92t96 -256v-158h178v-90h-178v-356q0 -147 92 -148q55 0 139 59l29 -59q-51 -47 -125 -82t-127 -35q-111 0 -174 66t-64 184v371h-108v67l45 13q96 28 146 94q51 66 51 146t-68 152q-68 71 -205 71t-221 -130t-6 -317
q106 -51 106 -123q0 -29 -22 -53t-57 -25q-76 0 -117 113q0 8 -10 31q-10 4 -42 4q-32 1 -61 -19t-29 -52t29 -54t113 -57l100 -47q76 -36 117 -92t41 -117q0 -115 -83 -173t-179 -58t-172 37q-76 38 -87 17q-9 -14 -10 -55h-59v299h59q0 -74 77 -144t173 -69q49 0 78 23
q29 24 29 58t-31 61t-100 59l-115 51q-154 72 -154 209q0 104 74 154t168 51q31 0 45 -2q-6 39 -6 82z" />
    <glyph glyph-name="t_t_y" unicode="&#xf27f;" horiz-adv-x="1972" 
d="M1008 592v-356q0 -147 92 -148q57 0 137 59l29 -59q-49 -47 -124 -82t-126 -35q-113 0 -176 66t-64 184v371h-389v-356q0 -147 92 -148q55 0 139 59l29 -59q-51 -47 -125 -82t-127 -35q-111 0 -174 66t-63 184v371h-109v67q98 21 179 107t89 197h70v-281h258
q127 0 204 85t89 196h70v-281h612v-59q-66 0 -80 -23t12 -80l119 -266l111 266q22 55 10 79t-70 24v59h303v-59q-102 0 -145 -103l-219 -534q-29 -66 -44 -103t-57 -118t-102 -148q-59 -67 -102 -93q-101 -61 -202 -62t-158 42q-56 43 -56 90q0 94 90 95q41 0 54 -53
q5 -19 27 -35t63 -17q127 0 217 98t161 289l-231 518q-45 102 -137 103h-176z" />
    <glyph glyph-name="t_t" unicode="&#xf280;" horiz-adv-x="1306" 
d="M645 682q127 0 204 85t89 196h70v-281h176v-90h-176v-356q0 -147 92 -148q57 0 137 59l29 -59q-49 -47 -124 -82t-126 -35q-113 0 -176 66t-64 184v371h-389v-356q0 -147 92 -148q55 0 139 59l29 -59q-51 -47 -125 -82t-127 -35q-111 0 -174 66t-63 184v371h-109v67
q98 21 179 107t89 197h70v-281h258z" />
    <glyph glyph-name="t_y" unicode="&#xf281;" horiz-adv-x="1353" 
d="M387 592v-356q0 -147 92 -148q55 0 139 59l29 -59q-51 -47 -125 -82t-127 -35q-111 0 -174 66t-63 184v371h-109v67q98 21 179 107t89 197h70v-281h612v-59q-63 0 -78 -23t11 -80l119 -266l112 266q25 55 11 79t-72 24v59h305v-59q-106 0 -145 -103l-222 -534
q-127 -309 -236 -409q-50 -46 -126 -81t-160 -35t-140 43t-56 90q0 94 88 95q38 0 54 -53q5 -19 28 -35t63 -17q127 0 217 98t162 289l-232 518q-45 102 -137 103h-178z" />
    <glyph glyph-name="t_w" unicode="&#xf282;" horiz-adv-x="1654" 
d="M991 682v-59q-63 0 -77 -22t10 -81l84 -203l141 365h65l152 -365l78 203q22 57 10 80t-70 23v59h304v-59q-56 0 -90 -22t-56 -81l-215 -557h-41l-164 395l-153 -395h-41l-219 526q-27 59 -56 81t-82 22h-184v-356q0 -147 92 -148q55 0 139 59l29 -59q-51 -47 -125 -82
t-127 -35q-111 0 -174 66t-63 184v371h-109v67q96 21 177 103t91 178h70v-258h604z" />
    <glyph glyph-name="A_A" unicode="&#xf283;" horiz-adv-x="2115" 
d="M418 59v-59h-496v59q106 0 156 36q49 36 96 145l444 1024h44l397 -910l393 910h43l447 -1024q49 -109 93 -145t158 -36v-59h-671v59q130 0 162 37t-9 119l-84 195h-409l-193 -445h-43l-188 445h-410l-84 -195q-39 -84 -5 -120t159 -36zM719 502l-164 385l-166 -385h330z
M1552 502l-163 385l-166 -385h329z" />
    <glyph glyph-name="A_V" unicode="&#xf284;" horiz-adv-x="1611" 
d="M1194 1229h494v-60q-104 0 -154 -35q-49 -36 -96 -145l-445 -1024h-45l-190 445h-410l-84 -195q-39 -84 -5 -120t159 -36v-59h-496v59q106 0 156 36q49 36 96 145l444 1024h44l397 -916l289 666q39 84 5 120t-159 35v60zM719 502l-164 385l-166 -385h330z" />
    <glyph glyph-name="F_F" unicode="&#xf285;" horiz-adv-x="2330" 
d="M1645 1137v-441h110q154 0 196 35t42 162h61v-485h-61q0 128 -42 162t-196 34h-110v-305q-1 -154 33 -197t161 -43v-59h-647v59q127 0 162 43t35 197v598q0 154 -35 197t-162 43h-664v-441h113q154 0 196 35t42 162h59v-485h-59q0 128 -42 162t-196 34h-113v-305
q0 -154 35 -197t162 -43v-59h-647v59q127 0 161 43t33 197v631q0 154 -34 196t-160 43v60h2201l19 -289h-60l-10 41q-16 61 -34 90q-39 64 -203 66h-346z" />
    <glyph glyph-name="F_I" unicode="&#xf286;" horiz-adv-x="1933" 
d="M1858 1229v-60q-129 0 -163 -42t-34 -197v-631q0 -156 34 -198t163 -42v-59h-650v59q127 0 162 43t35 197v598q0 154 -35 197t-162 43h-680v-441h113q154 0 196 35t42 162h59v-485h-59q0 128 -42 162t-196 34h-113v-305q0 -154 35 -197t162 -43v-59h-647v59q127 0 161 43
t33 197v631q0 154 -34 196t-160 43v60h1780z" />
    <glyph glyph-name="F_L" unicode="&#xf287;" horiz-adv-x="2428" 
d="M1858 1229v-60q-129 0 -163 -42t-34 -197v-598q0 -156 34 -198t163 -42h235q163 0 204 66q17 29 34 90l10 41h59l-18 -289h-1174v59q127 0 162 43t35 197v598q0 154 -35 197t-162 43h-680v-441h113q154 0 196 35t42 162h59v-485h-59q0 128 -42 162t-196 34h-113v-305
q0 -154 35 -197t162 -43v-59h-647v59q127 0 161 43t33 197v631q0 154 -34 196t-160 43v60h1780z" />
    <glyph glyph-name="H_E" unicode="&#xf288;" horiz-adv-x="2197" 
d="M1157 606h-629v-307q0 -154 35 -197t162 -43v-59h-647v59q127 0 161 43t33 197v631q0 154 -34 196t-160 43v60h647v-60q-127 0 -162 -43t-35 -196v-232h629v232q0 156 -34 198t-162 41v60h1054l19 -289h-62l-10 41q-23 90 -64 123t-172 33h-313v-441h111q154 0 196 35
t43 162h60v-485h-60q0 128 -42 162t-197 34h-111v-272q0 -154 35 -197t162 -43h184q131 0 172 32t66 124l10 41h59l-16 -289h-1124v59q129 0 163 42t33 198v307z" />
    <glyph glyph-name="L_A" unicode="&#xf289;" horiz-adv-x="2287" 
d="M1726 502l-163 385l-166 -385h329zM78 0v59q127 0 161 43t33 197v631q0 154 -34 196t-160 43v60h647v-60q-127 0 -162 -43t-35 -196v-598q0 -154 35 -197t162 -43h221q104 0 155 36q50 36 95 144l430 992h43l447 -1024q47 -109 91 -145t158 -36v-59h-667v59q131 0 163 37
t-10 119l-86 195h-409l-84 -195q-39 -84 -5 -120t158 -36v-59h-1347z" />
    <glyph glyph-name="M_B" unicode="&#xf28a;" horiz-adv-x="2293" 
d="M1030 0v59q127 0 162 43t35 197v641l-408 -975h-45l-409 975v-641q1 -154 35 -197t161 -43v-59h-483v59q127 0 161 43t33 197v631q0 154 -34 196t-160 43v60h428l373 -887l372 887h471q166 0 268 -88t103 -219q0 -166 -151 -254q118 -37 186 -125t67 -199
q0 -145 -114 -245q-115 -99 -301 -99h-750zM1479 1137v-441h114q111 0 168 62t57 156t-56 158q-58 64 -169 65h-114zM1479 319q1 -145 33 -185t155 -40t189 72t65 182q0 110 -68 184q-68 72 -194 72h-180v-285z" />
    <glyph glyph-name="M_D" unicode="&#xf28b;" horiz-adv-x="2508" 
d="M1479 1137v-813q-1 -150 33 -191t163 -41h21q118 0 200 47q136 77 182 295q17 84 17 180q0 199 -76 347q-41 82 -124 129t-199 47h-217zM1030 0v59q127 0 162 43t35 197v641l-408 -975h-45l-409 975v-641q1 -154 35 -197t161 -43v-59h-483v59q127 0 161 43t33 197v631
q0 154 -34 196t-160 43v60h428l373 -887l372 887h451q340 0 511 -172q171 -173 171 -443t-171 -442t-511 -172h-672z" />
    <glyph glyph-name="M_E" unicode="&#xf28c;" horiz-adv-x="2260" 
d="M1479 1137v-441h110q154 0 197 35t43 162h59v-485h-59q0 128 -42 162t-198 34h-110v-272q-1 -156 33 -198t163 -42h185q131 0 172 33t63 123l10 41h62l-19 -289h-1118v59q127 0 162 43t35 197v643l-408 -977h-45l-409 977v-643q1 -154 35 -197t161 -43v-59h-483v59
q127 0 161 43t33 197v631q0 154 -34 196t-160 43v60h428l373 -887l372 887h830l16 -289h-59l-10 41q-14 61 -32 90q-39 64 -206 66h-311z" />
    <glyph glyph-name="M_P" unicode="&#xf28d;" horiz-adv-x="2174" 
d="M1030 0v59q127 0 162 43t35 197v643l-408 -977h-45l-409 977v-643q1 -154 35 -197t161 -43v-59h-483v59q127 0 161 43t33 197v631q0 154 -34 196t-160 43v60h428l373 -887l372 887h461q186 1 300 -99t114 -247t-114 -245t-300 -99h-233v-240q-1 -156 33 -198t163 -42v-59
h-645zM1591 631q127 1 194 71t66 181t-67 183t-193 71h-112v-506h112z" />
    <glyph glyph-name="N_K" unicode="&#xf28e;" horiz-adv-x="2359" 
d="M1274 -35h-62l-847 1012v-678q1 -154 35 -197t161 -43v-59h-483v59q127 0 161 43t33 197v631q0 154 -34 196t-160 43v60h409l564 -674v375q0 154 -34 196t-161 43v60h614v-60q-128 0 -162 -42t-34 -197v-275l428 346q53 43 79 86q25 44 7 63t-78 19v60h494v-60
q-82 1 -149 -23t-103 -50t-123 -95l-293 -233l569 -588q49 -49 132 -85t133 -36v-59h-682v59q181 0 77 121l-405 438l-86 -71v-582z" />
    <glyph glyph-name="N_T" unicode="&#xf28f;" horiz-adv-x="2678" 
d="M2148 1137v-838q0 -154 35 -197t162 -43v-59h-649v59q129 0 163 42t33 198v838h-432q-129 0 -163 -42t-33 -198v-932h-52l-847 1012v-678q1 -154 35 -197t161 -43v-59h-483v59q127 0 161 43t33 197v631q0 154 -34 196t-160 43v60h409l684 -815v516q-1 154 -35 196
t-161 43v60h1669l16 -289h-59l-10 41q-13 61 -31 90q-39 64 -207 66h-205z" />
    <glyph glyph-name="O_C" unicode="&#xf290;" horiz-adv-x="1996" 
d="M1362 63q154 0 268 108t158 302h59v-450h-59q-18 92 -51 116q-170 -174 -383 -174q-145 0 -277 68q-141 -68 -301 -68q-282 1 -482 191t-200 458t201 458t481 192q160 0 301 -68q131 68 277 68q215 0 383 -174q33 29 51 116h59v-450h-59q-43 197 -157 303t-269 106
q-92 0 -164 -43q123 -90 193 -222q69 -132 69 -285t-70 -285t-192 -224q72 -43 164 -43zM985 614q0 -246 98 -395q121 155 121 395t-121 396q-98 -150 -98 -396zM725 614q0 150 62 282t174 224q-80 45 -204 45q-125 0 -225 -88q-182 -160 -182 -463t182 -462
q100 -88 224 -88t205 45q-111 90 -174 222q-62 133 -62 283z" />
    <glyph glyph-name="O_G" unicode="&#xf291;" horiz-adv-x="2064" 
d="M1382 63q112 -1 200 61q87 62 87 193q0 68 -29 100t-96 32v59h539v-59q-129 0 -163 -42t-34 -196v-139q-126 0 -280 -54t-276 -53q-122 0 -253 68q-141 -68 -301 -68q-282 1 -482 191t-200 458t201 458t481 192q160 0 301 -68q131 68 277 68q215 0 383 -174q33 29 51 116
h59v-450h-59q-43 197 -157 303t-269 106q-92 0 -164 -43q123 -90 193 -222q69 -132 69 -285t-70 -285t-192 -224q72 -43 184 -43zM985 614q0 -246 98 -395q121 155 121 395t-121 396q-98 -150 -98 -396zM725 614q0 150 62 282t174 224q-80 45 -204 45q-125 0 -225 -88
q-182 -160 -182 -463t182 -462q100 -88 224 -88t205 45q-111 90 -174 222q-62 133 -62 283z" />
    <glyph glyph-name="O_O" unicode="&#xf292;" horiz-adv-x="2185" 
d="M1835 614q0 133 -41 254t-141 209q-99 88 -229 88t-212 -53q115 -92 182 -221q66 -129 66 -277t-66 -278q-66 -131 -182 -219q82 -53 211 -53t229 88t142 208q41 120 41 254zM725 615q0 145 67 277t181 220q-84 53 -212 53q-129 0 -229 -88q-182 -160 -182 -463t182 -462
q100 -88 228 -88t213 53q-115 92 -181 222q-67 130 -67 276zM1409 1264q281 0 481 -190t201 -460q0 -268 -201 -458t-481 -191q-160 0 -317 74q-152 -74 -316 -74q-282 1 -482 191t-200 458t201 458t481 192q162 0 316 -74q154 74 317 74zM981 614q0 -227 111 -385
q113 158 112 385q1 227 -112 385q-111 -158 -111 -385z" />
    <glyph glyph-name="T_H_E" unicode="&#xf293;" horiz-adv-x="2453" 
d="M1413 606h-629v-307q0 -154 35 -197t162 -43v-59h-647v59q127 0 161 43t33 197v838h-204q-131 0 -172 -33t-64 -123l-10 -41h-62l19 289h946v-60q-127 0 -162 -43t-35 -196v-232h629v232q0 156 -34 198t-162 41v60h1054l19 -289h-62l-10 41q-23 90 -64 123t-172 33h-313
v-441h111q154 0 196 35t43 162h60v-485h-60q0 128 -42 162t-197 34h-111v-272q0 -154 35 -197t162 -43h184q131 0 172 32t66 124l10 41h59l-16 -289h-1124v59q129 0 163 42t33 198v307z" />
    <glyph glyph-name="T_h" unicode="&#xf294;" horiz-adv-x="2283" 
d="M784 1137v-838q0 -154 35 -197t162 -43v-59h-647v59q127 0 161 43t33 197v838h-204q-131 0 -172 -33t-64 -123l-10 -41h-62l19 289h1141q162 0 348 24l59 11v-658q95 111 237 111t222 -86t80 -219v-113q0 -154 30 -197t132 -43v-59h-474v59q44 1 62 49t18 191v86
q0 109 -26 163q-27 54 -98 54t-127 -53t-56 -150v-100q0 -152 27 -196t114 -44v-59h-532v59q102 0 132 43t30 197v598q0 154 -30 197t-132 43h-408z" />
    <glyph glyph-name="T_E" unicode="&#xf295;" horiz-adv-x="1568" 
d="M1098 1137h-314v-441h113q154 0 196 35t42 162h59v-485h-59q0 128 -42 162t-196 34h-113v-272q0 -154 35 -197t162 -43h184q167 0 206 66q17 29 32 90l10 41h60l-17 -289h-1122v59q127 0 161 43t33 197v838h-204q-131 0 -172 -33t-64 -123l-10 -41h-62l19 289h1354
l16 -289h-59l-11 41q-25 92 -65 124q-41 32 -172 32z" />
    <glyph glyph-name="T_R" unicode="&#xf296;" horiz-adv-x="1644" 
d="M334 0v59q127 0 161 43t33 197v838h-204q-131 0 -172 -33t-64 -123l-10 -41h-62l19 289h985q186 1 300 -99t114 -241t-100 -239t-263 -111l199 -217q133 -146 210 -198t173 -65v-59h-445l-364 539h-60v-240q0 -154 35 -197t162 -43v-59h-647zM897 631q127 1 195 71
t67 181q1 111 -67 183t-195 71h-113v-506h113z" />
    <glyph glyph-name="T_T" unicode="&#xf297;" horiz-adv-x="2422" 
d="M1894 1137v-838q0 -154 35 -197t162 -43v-59h-649v59q129 0 163 42t33 198v838h-854v-838q0 -154 35 -197t162 -43v-59h-647v59q127 0 161 43t33 197v838h-204q-131 0 -172 -33t-64 -123l-10 -41h-62l19 289h2355l16 -289h-59l-10 41q-13 61 -31 90q-39 64 -207 66h-205z
" />
    <glyph glyph-name="T_W" unicode="&#xf298;" horiz-adv-x="2770" 
d="M1772 1229v-60q-125 -1 -157 -33t-3 -122l186 -576l250 791h47l256 -793l189 578q28 84 -4 120t-140 35v60h477v-60q-123 -1 -166 -35t-77 -145l-330 -1024h-45l-258 793l-252 -793h-45l-322 993q-35 111 -76 145q-42 34 -167 34h-351v-838q0 -154 35 -197t162 -43v-59
h-647v59q127 0 161 43t33 197v838h-204q-131 0 -172 -33t-64 -123l-10 -41h-62l19 289h1737z" />
    <glyph glyph-name="T_Y" unicode="&#xf299;" horiz-adv-x="2457" 
d="M1788 1229v-60q-217 0 -111 -155l232 -346l227 346q57 84 34 120q-24 36 -142 35v60h495v-60q-121 -1 -172 -35t-123 -145l-295 -442v-248q0 -154 35 -197t162 -43v-59h-639v59q127 0 161 43t34 197v242l-275 417q-72 109 -130 144t-165 35h-332v-838q0 -154 35 -197
t162 -43v-59h-647v59q127 0 161 43t33 197v838h-204q-131 0 -172 -33t-64 -123l-10 -41h-62l19 289h1753z" />
    <glyph glyph-name="U_B" unicode="&#xf29a;" horiz-adv-x="2207" 
d="M1135 0v129q-135 -164 -383 -164q-213 0 -353 129q-139 129 -139 363v473q0 154 -35 196t-162 43v60h650v-60q-129 0 -163 -42t-34 -197v-451q0 -191 89 -289t227 -98t221 98q82 98 82 289v451q0 156 -34 198t-163 41v60h696q166 0 268 -88t103 -219q0 -166 -152 -254
q119 -37 187 -124t67 -200q0 -147 -113 -246q-114 -98 -300 -98h-559zM1391 1137v-441h114q111 0 168 62t57 156t-56 158q-58 64 -169 65h-114zM1391 319q1 -143 33 -184t155 -41t189 72t65 182q0 110 -67 184q-67 72 -193 72h-182v-285z" />
    <glyph glyph-name="U_D" unicode="&#xf29b;" horiz-adv-x="2422" 
d="M1391 1137v-813q1 -150 35 -191t161 -41h21q96 0 169 33q230 104 230 489t-230 490q-73 33 -169 33h-217zM1135 0v129q-135 -164 -383 -164q-213 0 -353 129q-139 129 -139 363v473q0 154 -35 196t-162 43v60h650v-60q-129 0 -163 -42t-34 -197v-451q0 -191 89 -289
t227 -98t221 98q82 98 82 289v451q0 156 -34 198t-163 41v60h676q340 0 512 -172q172 -173 172 -443t-172 -442t-512 -172h-479z" />
    <glyph glyph-name="U_L" unicode="&#xf29c;" horiz-adv-x="2158" 
d="M1587 1229v-60q-127 0 -162 -43t-34 -196v-598q1 -154 35 -197t161 -43h236q165 0 206 66q17 29 31 90l11 41h59l-16 -289h-979v129q-135 -164 -383 -164q-213 0 -353 129q-139 129 -139 363v473q0 154 -35 196t-162 43v60h650v-60q-129 0 -163 -42t-34 -197v-451
q0 -191 89 -289t227 -98t221 98q82 98 82 289v451q0 156 -34 198t-163 41v60h649z" />
    <glyph glyph-name="U_P" unicode="&#xf29d;" horiz-adv-x="2086" 
d="M1135 0v129q-135 -164 -383 -164q-213 0 -353 129q-139 129 -139 363v473q0 154 -35 196t-162 43v60h650v-60q-129 0 -163 -42t-34 -197v-451q0 -191 89 -289t227 -98t221 98q82 98 82 289v451q0 156 -34 198t-163 41v60h686q186 1 301 -99t115 -247t-114 -245t-302 -99
h-233v-240q1 -154 35 -197t161 -43v-59h-452zM1503 631q127 1 195 71t67 181q1 111 -67 183t-195 71h-112v-506h112z" />
    <glyph glyph-name="U_R" unicode="&#xf29e;" horiz-adv-x="2250" 
d="M1135 0v129q-135 -164 -383 -164q-213 0 -353 129q-139 129 -139 363v473q0 154 -35 196t-162 43v60h650v-60q-129 0 -163 -42t-34 -197v-451q0 -191 89 -289t227 -98t221 98q82 98 82 289v451q0 156 -34 198t-163 41v60h686q186 1 301 -99t115 -241t-100 -239t-265 -111
l201 -217q133 -146 210 -198t173 -65v-59h-444l-365 539h-59v-240q1 -154 35 -197t161 -43v-59h-452zM1503 631q127 1 195 71t67 181q1 111 -67 183t-195 71h-112v-506h112z" />
    <glyph glyph-name="V_A" unicode="&#xf29f;" horiz-adv-x="1785" 
d="M1225 502l-164 385l-166 -385h330zM1864 0h-668v59q131 0 163 37t-9 119l-86 195h-410l-192 -445h-44l-446 1024q-47 109 -91 145t-159 35v60h672v-60q-131 -1 -163 -37t9 -118l287 -666l397 916h43l447 -1024q47 -109 91 -145t159 -36v-59z" />
    <glyph glyph-name="aacute_e" unicode="&#xf2a0;" horiz-adv-x="1808" 
d="M743 1069q0 -53 -61 -80l-367 -155l-12 18l248 231q68 61 111 61t62 -22q19 -24 19 -53zM535 438q-1 195 -121 195q-54 0 -88 -22q-34 -23 -35 -61q0 -38 -24 -62q-25 -24 -59 -24t-56 24t-23 65q0 74 89 119q90 45 232 45q142 1 219 -61t81 -199q172 12 294 12
q42 113 144 181t246 67q144 0 229 -112q86 -112 51 -226h-446q-10 -147 51 -226t151 -79q143 0 242 86l35 -60q-55 -59 -140 -97t-171 -38q-180 0 -297 110t-117 267q0 25 2 37q-197 -4 -274 -10v-207q0 -78 45 -78q20 0 59 25l29 -56q-100 -76 -191 -76q-135 0 -157 119
q-93 -72 -143 -98t-122 -25q-72 0 -131 47t-59 125q0 123 118 191t337 100v2zM283 170q0 -82 82 -82q66 0 170 92v174q-131 -35 -192 -73q-60 -39 -60 -111zM1282 469h272q6 66 -27 108q-34 42 -97 41q-113 1 -148 -149z" />
    <glyph glyph-name="agrave_e" unicode="&#xf2a1;" horiz-adv-x="1808" 
d="M168 1069q0 29 19 53t63 23q44 0 110 -62l250 -231l-14 -18l-367 155q-61 27 -61 80zM535 438q-1 195 -121 195q-54 0 -88 -22q-34 -23 -35 -61q0 -38 -24 -62q-25 -24 -59 -24t-56 24t-23 65q0 74 89 119q90 45 232 45q142 1 219 -61t81 -199q172 12 294 12
q42 113 144 181t246 67q144 0 229 -112q86 -112 51 -226h-446q-10 -147 51 -226t151 -79q143 0 242 86l35 -60q-55 -59 -140 -97t-171 -38q-180 0 -297 110t-117 267q0 25 2 37q-197 -4 -274 -10v-207q0 -78 45 -78q20 0 59 25l29 -56q-100 -76 -191 -76q-135 0 -157 119
q-93 -72 -143 -98t-122 -25q-72 0 -131 47t-59 125q0 123 118 191t337 100v2zM283 170q0 -82 82 -82q66 0 170 92v174q-131 -35 -192 -73q-60 -39 -60 -111zM1282 469h272q6 66 -27 108q-34 42 -97 41q-113 1 -148 -149z" />
    <glyph glyph-name="acircumflex_e" unicode="&#xf2a2;" horiz-adv-x="1808" 
d="M756 866l-31 -30l-262 172l-262 -172l-31 30l293 318zM535 438q-1 195 -121 195q-54 0 -88 -22q-34 -23 -35 -61q0 -38 -24 -62q-25 -24 -59 -24t-56 24t-23 65q0 74 89 119q90 45 232 45q142 1 219 -61t81 -199q172 12 294 12q42 113 144 181t246 67q144 0 229 -112
q86 -112 51 -226h-446q-10 -147 51 -226t151 -79q143 0 242 86l35 -60q-55 -59 -140 -97t-171 -38q-180 0 -297 110t-117 267q0 25 2 37q-197 -4 -274 -10v-207q0 -78 45 -78q20 0 59 25l29 -56q-100 -76 -191 -76q-135 0 -157 119q-93 -72 -143 -98t-122 -25q-72 0 -131 47
t-59 125q0 123 118 191t337 100v2zM283 170q0 -82 82 -82q66 0 170 92v174q-131 -35 -192 -73q-60 -39 -60 -111zM1282 469h272q6 66 -27 108q-34 42 -97 41q-113 1 -148 -149z" />
    <glyph glyph-name="adieresis_e" unicode="&#xf2a3;" horiz-adv-x="1808" 
d="M256 1044q43 0 74 -30q30 -30 30 -73q0 -44 -30 -75q-30 -30 -73 -30q-42 0 -74 30t-31 74q0 43 30 74q31 30 74 30zM559 941q0 43 31 73t75 30q43 0 73 -30t30 -73q0 -44 -30 -75q-30 -30 -74 -30t-74 30q-31 30 -31 75zM535 438q-1 195 -121 195q-54 0 -88 -22
q-34 -23 -35 -61q0 -38 -24 -62q-25 -24 -59 -24t-56 24t-23 65q0 74 89 119q90 45 232 45q142 1 219 -61t81 -199q172 12 294 12q42 113 144 181t246 67q144 0 229 -112q86 -112 51 -226h-446q-10 -147 51 -226t151 -79q143 0 242 86l35 -60q-55 -59 -140 -97t-171 -38
q-180 0 -297 110t-117 267q0 25 2 37q-197 -4 -274 -10v-207q0 -78 45 -78q20 0 59 25l29 -56q-100 -76 -191 -76q-135 0 -157 119q-93 -72 -143 -98t-122 -25q-72 0 -131 47t-59 125q0 123 118 191t337 100v2zM283 170q0 -82 82 -82q66 0 170 92v174q-131 -35 -192 -73
q-60 -39 -60 -111zM1282 469h272q6 66 -27 108q-34 42 -97 41q-113 1 -148 -149z" />
    <glyph glyph-name="atilde_e" unicode="&#xf2a4;" horiz-adv-x="1808" 
d="M623 942q80 0 106 117h39q0 -115 -45 -179t-123 -65q-47 0 -158 67q-110 66 -144 66t-62 -33t-43 -79h-37q0 106 46 174t104 68t166 -68t151 -68zM535 438q-1 195 -121 195q-54 0 -88 -22q-34 -23 -35 -61q0 -38 -24 -62q-25 -24 -59 -24t-56 24t-23 65q0 74 89 119
q90 45 232 45q142 1 219 -61t81 -199q172 12 294 12q42 113 144 181t246 67q144 0 229 -112q86 -112 51 -226h-446q-10 -147 51 -226t151 -79q143 0 242 86l35 -60q-55 -59 -140 -97t-171 -38q-180 0 -297 110t-117 267q0 25 2 37q-197 -4 -274 -10v-207q0 -78 45 -78
q20 0 59 25l29 -56q-100 -76 -191 -76q-135 0 -157 119q-93 -72 -143 -98t-122 -25q-72 0 -131 47t-59 125q0 123 118 191t337 100v2zM283 170q0 -82 82 -82q66 0 170 92v174q-131 -35 -192 -73q-60 -39 -60 -111zM1282 469h272q6 66 -27 108q-34 42 -97 41
q-113 1 -148 -149z" />
    <glyph glyph-name="aring_e" unicode="&#xf2a5;" horiz-adv-x="1808" 
d="M463 1133q-39 0 -67 -28t-28 -67q0 -38 28 -66t67 -28t67 28t27 66q1 38 -27 67q-28 28 -67 28zM463 1241q84 0 143 -59q60 -60 60 -144t-60 -143t-143 -59q-84 0 -144 59q-59 59 -59 143t59 144q60 59 144 59zM535 438q-1 195 -121 195q-54 0 -88 -22q-34 -23 -35 -61
q0 -38 -24 -62q-25 -24 -59 -24t-56 24t-23 65q0 74 89 119q90 45 232 45q142 1 219 -61t81 -199q172 12 294 12q42 113 144 181t246 67q144 0 229 -112q86 -112 51 -226h-446q-10 -147 51 -226t151 -79q143 0 242 86l35 -60q-55 -59 -140 -97t-171 -38q-180 0 -297 110
t-117 267q0 25 2 37q-197 -4 -274 -10v-207q0 -78 45 -78q20 0 59 25l29 -56q-100 -76 -191 -76q-135 0 -157 119q-93 -72 -143 -98t-122 -25q-72 0 -131 47t-59 125q0 123 118 191t337 100v2zM283 170q0 -82 82 -82q66 0 170 92v174q-131 -35 -192 -73q-60 -39 -60 -111z
M1282 469h272q6 66 -27 108q-34 42 -97 41q-113 1 -148 -149z" />
    <glyph glyph-name="a_eacute" unicode="&#xf2a6;" horiz-adv-x="1808" 
d="M1698 1069q0 -53 -62 -80l-366 -155l-13 18l248 231q68 61 111 61q42 0 62 -22q20 -24 20 -53zM535 438q-1 195 -121 195q-54 0 -88 -22q-34 -23 -35 -61q0 -38 -24 -62q-25 -24 -59 -24t-56 24t-23 65q0 74 89 119q90 45 232 45q142 1 219 -61t81 -199q172 12 294 12
q42 113 144 181t246 67q144 0 229 -112q86 -112 51 -226h-446q-10 -147 51 -226t151 -79q143 0 242 86l35 -60q-55 -59 -140 -97t-171 -38q-180 0 -297 110t-117 267q0 25 2 37q-197 -4 -274 -10v-207q0 -78 45 -78q20 0 59 25l29 -56q-100 -76 -191 -76q-135 0 -157 119
q-93 -72 -143 -98t-122 -25q-72 0 -131 47t-59 125q0 123 118 191t337 100v2zM283 170q0 -82 82 -82q66 0 170 92v174q-131 -35 -192 -73q-60 -39 -60 -111zM1282 469h272q6 66 -27 108q-34 42 -97 41q-113 1 -148 -149z" />
    <glyph glyph-name="a_egrave" unicode="&#xf2a7;" horiz-adv-x="1808" 
d="M1202 1145q43 0 111 -62l250 -231l-15 -18l-366 155q-61 27 -62 80q0 29 20 53t62 23zM535 438q-1 195 -121 195q-54 0 -88 -22q-34 -23 -35 -61q0 -38 -24 -62q-25 -24 -59 -24t-56 24t-23 65q0 74 89 119q90 45 232 45q142 1 219 -61t81 -199q172 12 294 12
q42 113 144 181t246 67q144 0 229 -112q86 -112 51 -226h-446q-10 -147 51 -226t151 -79q143 0 242 86l35 -60q-55 -59 -140 -97t-171 -38q-180 0 -297 110t-117 267q0 25 2 37q-197 -4 -274 -10v-207q0 -78 45 -78q20 0 59 25l29 -56q-100 -76 -191 -76q-135 0 -157 119
q-93 -72 -143 -98t-122 -25q-72 0 -131 47t-59 125q0 123 118 191t337 100v2zM283 170q0 -82 82 -82q66 0 170 92v174q-131 -35 -192 -73q-60 -39 -60 -111zM1282 469h272q6 66 -27 108q-34 42 -97 41q-113 1 -148 -149z" />
    <glyph glyph-name="a_ecircumflex" unicode="&#xf2a8;" horiz-adv-x="1808" 
d="M1710 866l-31 -30l-262 172l-264 -172l-31 30l295 318zM535 438q-1 195 -121 195q-54 0 -88 -22q-34 -23 -35 -61q0 -38 -24 -62q-25 -24 -59 -24t-56 24t-23 65q0 74 89 119q90 45 232 45q142 1 219 -61t81 -199q172 12 294 12q42 113 144 181t246 67q144 0 229 -112
q86 -112 51 -226h-446q-10 -147 51 -226t151 -79q143 0 242 86l35 -60q-55 -59 -140 -97t-171 -38q-180 0 -297 110t-117 267q0 25 2 37q-197 -4 -274 -10v-207q0 -78 45 -78q20 0 59 25l29 -56q-100 -76 -191 -76q-135 0 -157 119q-93 -72 -143 -98t-122 -25q-72 0 -131 47
t-59 125q0 123 118 191t337 100v2zM283 170q0 -82 82 -82q66 0 170 92v174q-131 -35 -192 -73q-60 -39 -60 -111zM1282 469h272q6 66 -27 108q-34 42 -97 41q-113 1 -148 -149z" />
    <glyph glyph-name="a_edieresis" unicode="&#xf2a9;" horiz-adv-x="1808" 
d="M1210 1044q43 0 74 -30t31 -73q0 -44 -31 -75q-31 -30 -74 -30q-44 0 -74 30t-30 75q0 43 30 73t74 30zM1618 1044q43 0 74 -30q30 -30 30 -73q0 -44 -30 -75q-30 -30 -74 -30q-43 0 -74 30t-31 75q0 43 31 73t74 30zM535 438q-1 195 -121 195q-54 0 -88 -22
q-34 -23 -35 -61q0 -38 -24 -62q-25 -24 -59 -24t-56 24t-23 65q0 74 89 119q90 45 232 45q142 1 219 -61t81 -199q172 12 294 12q42 113 144 181t246 67q144 0 229 -112q86 -112 51 -226h-446q-10 -147 51 -226t151 -79q143 0 242 86l35 -60q-55 -59 -140 -97t-171 -38
q-180 0 -297 110t-117 267q0 25 2 37q-197 -4 -274 -10v-207q0 -78 45 -78q20 0 59 25l29 -56q-100 -76 -191 -76q-135 0 -157 119q-93 -72 -143 -98t-122 -25q-72 0 -131 47t-59 125q0 123 118 191t337 100v2zM283 170q0 -82 82 -82q66 0 170 92v174q-131 -35 -192 -73
q-60 -39 -60 -111zM1282 469h272q6 66 -27 108q-34 42 -97 41q-113 1 -148 -149z" />
    <glyph glyph-name="c_k_yacute" unicode="&#xf2aa;" horiz-adv-x="2514" 
d="M2519 1069q0 -51 -61 -80l-367 -155l-12 18l248 231q118 100 172 38q20 -23 20 -52zM1810 59v-59h-288l-275 326v-43q0 -135 26 -179t103 -45v-59h-520v59q102 0 132 43t30 197v598q0 152 -30 195t-142 43t-195 -70q-82 -70 -93 -167t28 -200q74 -18 110 -59t37 -82
q-1 -41 -27 -73t-73 -31q-94 0 -146 143q-10 33 -10 39q-141 -6 -141 -311q0 -123 55 -191q55 -67 153 -67t208 94l34 -60q-125 -135 -300 -135q-176 1 -288 103t-112 266t109 272t264 111q-33 215 86 343t311 152l391 52v-858l264 188q5 4 25 17t47 36t66 39q37 16 55 24
q41 18 96 17q118 0 182 -48t113 -159l119 -266l110 266q23 55 11 79t-70 24v59h303v-59q-102 0 -145 -103l-219 -534q-29 -66 -44 -103q-65 -161 -177 -286q-120 -133 -315 -135q-73 0 -129 42q-56 43 -56 90q0 94 90 95q41 0 54 -53q5 -19 27 -35t62 -17q127 0 217 98
t162 289l-246 549q-79 184 -278 29l-156 -119l240 -289q70 -82 155 -82z" />
    <glyph glyph-name="c_k_ydieresis" unicode="&#xf2ab;" horiz-adv-x="2514" 
d="M1960 1044q43 0 74 -30q30 -30 30 -73q0 -44 -30 -75q-30 -30 -74 -30q-43 0 -74 30t-31 75q0 43 31 73t74 30zM2367 1044q43 0 74 -30t31 -73q0 -44 -31 -75q-31 -30 -74 -30t-73 30t-31 75q1 43 31 73t73 30zM1810 59v-59h-288l-275 326v-43q0 -135 26 -179t103 -45
v-59h-520v59q102 0 132 43t30 197v598q0 152 -30 195t-142 43t-195 -70q-82 -70 -93 -167t28 -200q74 -18 110 -59t37 -82q-1 -41 -27 -73t-73 -31q-94 0 -146 143q-10 33 -10 39q-141 -6 -141 -311q0 -123 55 -191q55 -67 153 -67t208 94l34 -60q-125 -135 -300 -135
q-176 1 -288 103t-112 266t109 272t264 111q-33 215 86 343t311 152l391 52v-858l264 188q5 4 25 17t47 36t66 39q37 16 55 24q41 18 96 17q118 0 182 -48t113 -159l119 -266l110 266q23 55 11 79t-70 24v59h303v-59q-102 0 -145 -103l-219 -534q-29 -66 -44 -103
q-65 -161 -177 -286q-120 -133 -315 -135q-73 0 -129 42q-56 43 -56 90q0 94 90 95q41 0 54 -53q5 -19 27 -35t62 -17q127 0 217 98t162 289l-246 549q-79 184 -278 29l-156 -119l240 -289q70 -82 155 -82z" />
    <glyph glyph-name="ccedilla_t" unicode="&#xf2ac;" horiz-adv-x="1466" 
d="M86 324q0 174 109 282t264 111q-23 143 29 253t146 164t206 54q170 0 273 -93t104 -255v-158h178v-90h-178v-356q0 -147 92 -148q55 0 139 59l29 -59q-51 -47 -125 -82t-127 -35q-111 0 -174 66t-64 184v371h-108v67l45 13q96 28 146 94t50 146t-74 151q-75 72 -214 72
q-140 0 -232 -125t-14 -312q74 -18 110 -59t37 -82q-1 -41 -27 -73t-73 -31q-94 0 -146 143q-10 33 -10 39q-141 -6 -141 -311q0 -123 55 -191q55 -67 153 -67t208 94l34 -60q-125 -135 -305 -135h-16l-100 -100q85 -3 155 -57t70 -137q0 -152 -167 -221q-131 -54 -222 -66
v73q225 70 225 199q0 68 -85 94t-183 -6v37l200 201q-124 35 -198 127t-74 215z" />
    <glyph glyph-name="eacute_e" unicode="&#xf2ad;" horiz-adv-x="1757" 
d="M506 -35q-192 0 -302 108q-110 109 -110 269t116 268t261 107q145 0 227 -74t95 -174h196q41 113 143 181t230 67q160 0 246 -112t51 -226h-447q-10 -147 45 -222t156 -81q137 -8 244 84l35 -60q-56 -59 -142 -97t-170 -38q-194 0 -304 108t-109 269q0 25 2 37h-629
q-12 -147 45 -222t156 -81q137 -8 241 84l37 -60q-55 -59 -141 -97t-172 -38zM1499 469q4 66 -29 108t-98 41q-111 0 -145 -149h272zM627 469q4 66 -30 108t-97 41q-113 0 -148 -149h275zM762 1069q0 -51 -62 -80l-366 -155l-12 18l247 231q66 61 109 61q44 0 64 -22
q20 -24 20 -53z" />
    <glyph glyph-name="egrave_e" unicode="&#xf2ae;" horiz-adv-x="1757" 
d="M506 -35q-192 0 -302 108q-110 109 -110 269t116 268t261 107q145 0 227 -74t95 -174h196q41 113 143 181t230 67q160 0 246 -112t51 -226h-447q-10 -147 45 -222t156 -81q137 -8 244 84l35 -60q-56 -59 -142 -97t-170 -38q-194 0 -304 108t-109 269q0 25 2 37h-629
q-12 -147 45 -222t156 -81q137 -8 241 84l37 -60q-55 -59 -141 -97t-172 -38zM1499 469q4 66 -29 108t-98 41q-111 0 -145 -149h272zM627 469q4 66 -30 108t-97 41q-113 0 -148 -149h275zM267 1145q44 0 108 -62l250 -231l-15 -18l-366 155q-61 29 -62 80q0 29 20 53t65 23z
" />
    <glyph glyph-name="ecircumflex_e" unicode="&#xf2af;" horiz-adv-x="1757" 
d="M506 -35q-192 0 -302 108q-110 109 -110 269t116 268t261 107q145 0 227 -74t95 -174h196q41 113 143 181t230 67q160 0 246 -112t51 -226h-447q-10 -147 45 -222t156 -81q137 -8 244 84l35 -60q-56 -59 -142 -97t-170 -38q-194 0 -304 108t-109 269q0 25 2 37h-629
q-12 -147 45 -222t156 -81q137 -8 241 84l37 -60q-55 -59 -141 -97t-172 -38zM1499 469q4 66 -29 108t-98 41q-111 0 -145 -149h272zM627 469q4 66 -30 108t-97 41q-113 0 -148 -149h275zM774 866l-31 -30l-264 172l-262 -172l-31 30l293 318z" />
    <glyph glyph-name="edieresis_e" unicode="&#xf2b0;" horiz-adv-x="1757" 
d="M506 -35q-192 0 -302 108q-110 109 -110 269t116 268t261 107q145 0 227 -74t95 -174h196q41 113 143 181t230 67q160 0 246 -112t51 -226h-447q-10 -147 45 -222t156 -81q137 -8 244 84l35 -60q-56 -59 -142 -97t-170 -38q-194 0 -304 108t-109 269q0 25 2 37h-629
q-12 -147 45 -222t156 -81q137 -8 241 84l37 -60q-55 -59 -141 -97t-172 -38zM1499 469q4 66 -29 108t-98 41q-111 0 -145 -149h272zM627 469q4 66 -30 108t-97 41q-113 0 -148 -149h275zM170 940q0 44 30 74t73 30q44 0 74 -30t30 -73q0 -44 -30 -75q-30 -30 -73 -30
q-44 0 -74 30t-30 74zM681 1044q44 0 74 -30q29 -30 29 -73q0 -44 -30 -75q-30 -30 -73 -30q-44 0 -74 30q-29 30 -29 75q0 44 29 74q30 29 74 29z" />
    <glyph glyph-name="e_eacute" unicode="&#xf2b1;" horiz-adv-x="1757" 
d="M506 -35q-192 0 -302 108q-110 109 -110 269t116 268t261 107q145 0 227 -74t95 -174h196q41 113 143 181t230 67q160 0 246 -112t51 -226h-447q-10 -147 45 -222t156 -81q137 -8 244 84l35 -60q-56 -59 -142 -97t-170 -38q-194 0 -304 108t-109 269q0 25 2 37h-629
q-12 -147 45 -222t156 -81q137 -8 241 84l37 -60q-55 -59 -141 -97t-172 -38zM1499 469q4 66 -29 108t-98 41q-111 0 -145 -149h272zM627 469q4 66 -30 108t-97 41q-113 0 -148 -149h275zM1649 1069q0 -53 -62 -80l-366 -155l-13 18l248 231q68 61 110 61t62 -22
q20 -24 21 -53z" />
    <glyph glyph-name="e_egrave" unicode="&#xf2b2;" horiz-adv-x="1757" 
d="M506 -35q-192 0 -302 108q-110 109 -110 269t116 268t261 107q145 0 227 -74t95 -174h196q41 113 143 181t230 67q160 0 246 -112t51 -226h-447q-10 -147 45 -222t156 -81q137 -8 244 84l35 -60q-56 -59 -142 -97t-170 -38q-194 0 -304 108t-109 269q0 25 2 37h-629
q-12 -147 45 -222t156 -81q137 -8 241 84l37 -60q-55 -59 -141 -97t-172 -38zM1499 469q4 66 -29 108t-98 41q-111 0 -145 -149h272zM627 469q4 66 -30 108t-97 41q-113 0 -148 -149h275zM1153 1145q43 0 111 -62l247 -231l-12 -18l-366 155q-61 27 -62 80q-1 29 19 53
t63 23z" />
    <glyph glyph-name="e_ecircumflex" unicode="&#xf2b3;" horiz-adv-x="1757" 
d="M506 -35q-192 0 -302 108q-110 109 -110 269t116 268t261 107q145 0 227 -74t95 -174h196q41 113 143 181t230 67q160 0 246 -112t51 -226h-447q-10 -147 45 -222t156 -81q137 -8 244 84l35 -60q-56 -59 -142 -97t-170 -38q-194 0 -304 108t-109 269q0 25 2 37h-629
q-12 -147 45 -222t156 -81q137 -8 241 84l37 -60q-55 -59 -141 -97t-172 -38zM1499 469q4 66 -29 108t-98 41q-111 0 -145 -149h272zM627 469q4 66 -30 108t-97 41q-113 0 -148 -149h275zM1661 866l-31 -30l-262 172l-264 -172l-31 30l295 318z" />
    <glyph glyph-name="e_edieresis" unicode="&#xf2b4;" horiz-adv-x="1757" 
d="M506 -35q-192 0 -302 108q-110 109 -110 269t116 268t261 107q145 0 227 -74t95 -174h196q41 113 143 181t230 67q160 0 246 -112t51 -226h-447q-10 -147 45 -222t156 -81q137 -8 244 84l35 -60q-56 -59 -142 -97t-170 -38q-194 0 -304 108t-109 269q0 25 2 37h-629
q-12 -147 45 -222t156 -81q137 -8 241 84l37 -60q-55 -59 -141 -97t-172 -38zM1499 469q4 66 -29 108t-98 41q-111 0 -145 -149h272zM627 469q4 66 -30 108t-97 41q-113 0 -148 -149h275zM1161 1044q43 0 74 -30t31 -73q0 -44 -31 -75q-31 -30 -74 -30t-74 30t-31 75
q0 44 31 74q31 29 74 29zM1569 1044q43 0 73 -30t31 -73q0 -44 -31 -75q-32 -30 -74 -30t-73 30t-31 75q0 43 31 73t74 30z" />
    <glyph glyph-name="k_ydieresis" unicode="&#xf2b5;" horiz-adv-x="1685" 
d="M1130 1044q43 0 74 -30t31 -73q0 -44 -31 -75q-31 -30 -74 -30q-44 0 -74 30t-30 75q0 43 30 73t74 30zM1538 1044q43 0 74 -30q30 -30 30 -73q0 -44 -30 -75q-30 -30 -74 -30q-43 0 -74 30q-30 30 -30 75q0 44 30 74q31 29 74 29zM1436 623v59h303v-59q-102 0 -146 -103
l-219 -534q-29 -66 -44 -103q-66 -163 -176 -286q-120 -133 -315 -135q-73 0 -129 42q-56 43 -57 90q0 94 90 95q39 0 55 -53q4 -19 26 -35t63 -17q127 0 217 98t162 289l-246 549q-80 185 -279 29l-155 -119l239 -289q70 -82 156 -82v-59h-289l-274 326v-43q0 -135 25 -180
q26 -44 104 -44v-59h-520v59q102 0 132 43t29 197v614q0 154 -29 197q-30 43 -132 43v59l391 52v-858l264 188q61 43 91 62t89 45t109 26q117 0 181 -48t114 -159l118 -266l111 266q23 55 11 79t-70 24z" />
    <glyph glyph-name="k_yacute" unicode="&#xf2b6;" horiz-adv-x="1685" 
d="M1690 1069q0 -51 -62 -80l-366 -155l-13 18l248 231q119 101 172 38q21 -23 21 -52zM1436 623v59h303v-59q-102 0 -146 -103l-219 -534q-29 -66 -44 -103q-66 -163 -176 -286q-120 -133 -315 -135q-73 0 -129 42q-56 43 -57 90q0 94 90 95q39 0 55 -53q4 -19 26 -35
t63 -17q127 0 217 98t162 289l-246 549q-80 185 -279 29l-155 -119l239 -289q70 -82 156 -82v-59h-289l-274 326v-43q0 -135 25 -180q26 -44 104 -44v-59h-520v59q102 0 132 43t29 197v614q0 154 -29 197q-30 43 -132 43v59l391 52v-858l264 188q61 43 91 62t89 45t109 26
q117 0 181 -48t114 -159l118 -266l111 266q23 55 11 79t-70 24z" />
    <glyph glyph-name="oacute_e" unicode="&#xf2b7;" horiz-adv-x="1900" 
d="M1505 717q160 0 246 -112t51 -226h-446q-10 -147 45 -222t155 -81q137 -8 244 84l35 -60q-55 -59 -141 -97t-170 -38q-194 0 -304 108t-110 269q0 25 2 37h-203q2 -12 2 -37q1 -156 -121 -266t-292 -111q-170 0 -291 111q-121 110 -121 266t121 266t291 109
q132 1 238 -69t151 -179h246q41 113 143 181t229 67zM662 342q0 123 -42 201t-122 78t-121 -78t-41 -201t41 -202t121 -79t122 79t42 202zM1370 469h272q4 66 -28 108q-33 42 -98 41q-111 1 -146 -149zM782 1069q0 -51 -61 -80l-367 -155l-12 18l248 231q66 61 109 61
t63 -22q20 -24 20 -53z" />
    <glyph glyph-name="ograve_e" unicode="&#xf2b8;" horiz-adv-x="1900" 
d="M1505 717q160 0 246 -112t51 -226h-446q-10 -147 45 -222t155 -81q137 -8 244 84l35 -60q-55 -59 -141 -97t-170 -38q-194 0 -304 108t-110 269q0 25 2 37h-203q2 -12 2 -37q1 -156 -121 -266t-292 -111q-170 0 -291 111q-121 110 -121 266t121 266t291 109
q132 1 238 -69t151 -179h246q41 113 143 181t229 67zM662 342q0 123 -42 201t-122 78t-121 -78t-41 -201t41 -202t121 -79t122 79t42 202zM1370 469h272q4 66 -28 108q-33 42 -98 41q-111 1 -146 -149zM205 1069q0 29 20 53q19 24 63 23q44 0 109 -62l250 -231l-14 -18
l-367 155q-61 27 -61 80z" />
    <glyph glyph-name="ocircumflex_e" unicode="&#xf2b9;" horiz-adv-x="1900" 
d="M1505 717q160 0 246 -112t51 -226h-446q-10 -147 45 -222t155 -81q137 -8 244 84l35 -60q-55 -59 -141 -97t-170 -38q-194 0 -304 108t-110 269q0 25 2 37h-203q2 -12 2 -37q1 -156 -121 -266t-292 -111q-170 0 -291 111q-121 110 -121 266t121 266t291 109
q132 1 238 -69t151 -179h246q41 113 143 181t229 67zM662 342q0 123 -42 201t-122 78t-121 -78t-41 -201t41 -202t121 -79t122 79t42 202zM1370 469h272q4 66 -28 108q-33 42 -98 41q-111 1 -146 -149zM795 866l-31 -30l-262 172l-262 -172l-31 30l293 318z" />
    <glyph glyph-name="odieresis_e" unicode="&#xf2ba;" horiz-adv-x="1900" 
d="M1505 717q160 0 246 -112t51 -226h-446q-10 -147 45 -222t155 -81q137 -8 244 84l35 -60q-55 -59 -141 -97t-170 -38q-194 0 -304 108t-110 269q0 25 2 37h-203q2 -12 2 -37q1 -156 -121 -266t-292 -111q-170 0 -291 111q-121 110 -121 266t121 266t291 109
q132 1 238 -69t151 -179h246q41 113 143 181t229 67zM662 342q0 123 -42 201t-122 78t-121 -78t-41 -201t41 -202t121 -79t122 79t42 202zM1370 469h272q4 66 -28 108q-33 42 -98 41q-111 1 -146 -149zM190 940q0 44 31 74t75 30t74 -30t30 -73q0 -44 -30 -75
q-30 -30 -73 -30t-75 30t-32 74zM600 941q0 43 30 73t73 30q44 0 74 -30t30 -73q0 -44 -30 -75q-30 -30 -74 -30q-43 0 -73 30t-30 75z" />
    <glyph glyph-name="otilde_e" unicode="&#xf2bb;" horiz-adv-x="1900" 
d="M1505 717q160 0 246 -112t51 -226h-446q-10 -147 45 -222t155 -81q137 -8 244 84l35 -60q-55 -59 -141 -97t-170 -38q-194 0 -304 108t-110 269q0 25 2 37h-203q2 -12 2 -37q1 -156 -121 -266t-292 -111q-170 0 -291 111q-121 110 -121 266t121 266t291 109
q132 1 238 -69t151 -179h246q41 113 143 181t229 67zM662 342q0 123 -42 201t-122 78t-121 -78t-41 -201t41 -202t121 -79t122 79t42 202zM1370 469h272q4 66 -28 108q-33 42 -98 41q-111 1 -146 -149zM662 942q80 0 106 117h39q0 -115 -45 -179t-123 -65q-45 0 -158 67
q-113 66 -145 66t-61 -33q-30 -33 -44 -79h-36q0 106 46 174t104 68t166 -68t151 -68z" />
    <glyph glyph-name="o_eacute" unicode="&#xf2bc;" horiz-adv-x="1900" 
d="M1505 717q160 0 246 -112t51 -226h-446q-10 -147 45 -222t155 -81q137 -8 244 84l35 -60q-55 -59 -141 -97t-170 -38q-194 0 -304 108t-110 269q0 25 2 37h-203q2 -12 2 -37q1 -156 -121 -266t-292 -111q-170 0 -291 111q-121 110 -121 266t121 266t291 109
q132 1 238 -69t151 -179h246q41 113 143 181t229 67zM662 342q0 123 -42 201t-122 78t-121 -78t-41 -201t41 -202t121 -79t122 79t42 202zM1370 469h272q4 66 -28 108q-33 42 -98 41q-111 1 -146 -149zM1794 1069q0 -53 -61 -80l-367 -155l-12 18l248 231q66 61 108 61
t64 -22q20 -24 20 -53z" />
    <glyph glyph-name="o_egrave" unicode="&#xf2bd;" horiz-adv-x="1900" 
d="M1505 717q160 0 246 -112t51 -226h-446q-10 -147 45 -222t155 -81q137 -8 244 84l35 -60q-55 -59 -141 -97t-170 -38q-194 0 -304 108t-110 269q0 25 2 37h-203q2 -12 2 -37q1 -156 -121 -266t-292 -111q-170 0 -291 111q-121 110 -121 266t121 266t291 109
q132 1 238 -69t151 -179h246q41 113 143 181t229 67zM662 342q0 123 -42 201t-122 78t-121 -78t-41 -201t41 -202t121 -79t122 79t42 202zM1370 469h272q4 66 -28 108q-33 42 -98 41q-111 1 -146 -149zM1298 1145q43 0 111 -62l248 -231l-12 -18l-369 155q-61 29 -62 80
q0 29 20 53t64 23z" />
    <glyph glyph-name="o_ecircumflex" unicode="&#xf2be;" horiz-adv-x="1900" 
d="M1505 717q160 0 246 -112t51 -226h-446q-10 -147 45 -222t155 -81q137 -8 244 84l35 -60q-55 -59 -141 -97t-170 -38q-194 0 -304 108t-110 269q0 25 2 37h-203q2 -12 2 -37q1 -156 -121 -266t-292 -111q-170 0 -291 111q-121 110 -121 266t121 266t291 109
q132 1 238 -69t151 -179h246q41 113 143 181t229 67zM662 342q0 123 -42 201t-122 78t-121 -78t-41 -201t41 -202t121 -79t122 79t42 202zM1370 469h272q4 66 -28 108q-33 42 -98 41q-111 1 -146 -149zM1806 866l-30 -30l-265 172l-262 -172l-30 30l292 318z" />
    <glyph glyph-name="o_edieresis" unicode="&#xf2bf;" horiz-adv-x="1900" 
d="M1505 717q160 0 246 -112t51 -226h-446q-10 -147 45 -222t155 -81q137 -8 244 84l35 -60q-55 -59 -141 -97t-170 -38q-194 0 -304 108t-110 269q0 25 2 37h-203q2 -12 2 -37q1 -156 -121 -266t-292 -111q-170 0 -291 111q-121 110 -121 266t121 266t291 109
q132 1 238 -69t151 -179h246q41 113 143 181t229 67zM662 342q0 123 -42 201t-122 78t-121 -78t-41 -201t41 -202t121 -79t122 79t42 202zM1370 469h272q4 66 -28 108q-33 42 -98 41q-111 1 -146 -149zM1307 1044q43 0 73 -30t29 -73q0 -44 -30 -75q-31 -30 -73 -30t-73 30
t-31 75q0 43 31 73t74 30zM1713 1044q44 0 75 -30t31 -73q0 -44 -31 -75q-31 -30 -75 -30t-74 30q-29 30 -29 75q0 44 29 74q30 29 74 29z" />
    <glyph glyph-name="p_ydieresis" unicode="&#xf2c0;" horiz-adv-x="1769" 
d="M969 682h448v-59q-66 0 -80 -23t13 -80l118 -266l111 266q23 55 11 79t-70 24v59h303v-59q-102 0 -146 -103l-219 -534q-29 -66 -44 -103q-66 -163 -176 -286q-120 -133 -315 -135q-73 0 -129 42q-56 43 -57 90q0 94 90 95q39 0 55 -53q4 -19 26 -35t63 -17q127 0 217 98
t162 289l-246 549q-43 102 -135 103v59zM567 717q167 1 267 -107t100 -269t-99 -269t-268 -107q-102 0 -174 62v-240q0 -154 30 -197t132 -43v-59h-555v59q102 0 132 43t30 197v580q0 155 -30 197t-132 42v60l358 51q6 -8 19 -74q78 74 190 74zM684 342q0 125 -37 202
t-101 77q-64 1 -108 -51t-45 -130v-198q0 -76 44 -128t109 -52q66 0 102 77q36 78 36 203zM1223 1044q43 0 73 -30t31 -73q0 -44 -31 -75q-32 -30 -74 -30t-73 30t-31 75q0 43 31 73t74 30zM1630 1044q43 0 74 -30t31 -73q0 -44 -31 -75q-31 -30 -74 -30t-74 30
q-30 30 -30 75q0 44 30 74q31 29 74 29z" />
    <glyph glyph-name="p_yacute" unicode="&#xf2c1;" horiz-adv-x="1769" 
d="M969 682h448v-59q-66 0 -80 -23t13 -80l118 -266l111 266q23 55 11 79t-70 24v59h303v-59q-102 0 -146 -103l-219 -534q-29 -66 -44 -103q-66 -163 -176 -286q-120 -133 -315 -135q-73 0 -129 42q-56 43 -57 90q0 94 90 95q39 0 55 -53q4 -19 26 -35t63 -17q127 0 217 98
t162 289l-246 549q-43 102 -135 103v59zM567 717q167 1 267 -107t100 -269t-99 -269t-268 -107q-102 0 -174 62v-240q0 -154 30 -197t132 -43v-59h-555v59q102 0 132 43t30 197v580q0 155 -30 197t-132 42v60l358 51q6 -8 19 -74q78 74 190 74zM684 342q0 125 -37 202
t-101 77q-64 1 -108 -51t-45 -130v-198q0 -76 44 -128t109 -52q66 0 102 77q36 78 36 203zM1782 1069q0 -51 -62 -80l-366 -155l-13 18l248 231q119 101 172 38q21 -23 21 -52z" />
    <glyph glyph-name="t_ydieresis" unicode="&#xf2c2;" horiz-adv-x="1353" 
d="M692 940q0 44 31 74t75 30t74 -30t29 -73q0 -44 -30 -75q-31 -30 -73 -30t-74 30t-32 74zM1102 941q0 43 30 73t73 30q44 0 74 -30t30 -73q0 -44 -30 -75q-30 -30 -74 -30q-43 0 -73 30t-30 75zM387 592v-361q0 -150 92 -149q55 0 139 59l29 -57q-53 -47 -126 -83
t-126 -36q-111 0 -174 67t-63 185v375h-109v67q98 21 179 107t89 197h70v-281h612v-59q-63 0 -78 -23t11 -80l119 -266l112 266q25 55 11 79t-72 24v59h305v-59q-106 0 -145 -103l-222 -534q-127 -309 -236 -409q-50 -46 -126 -81t-160 -35t-140 43t-56 90q0 94 88 95
q38 0 54 -53q5 -19 28 -35t63 -17q127 0 217 98t162 289l-232 518q-45 102 -137 103h-178z" />
    <glyph glyph-name="t_yacute" unicode="&#xf2c3;" horiz-adv-x="1353" 
d="M1358 1069q0 -49 -62 -80l-368 -155l-10 18l245 231q121 102 174 38q21 -23 21 -52zM387 592v-361q0 -150 92 -149q55 0 139 59l29 -57q-53 -47 -126 -83t-126 -36q-111 0 -174 67t-63 185v375h-109v67q98 21 179 107t89 197h70v-281h612v-59q-63 0 -78 -23t11 -80
l119 -266l112 266q25 55 11 79t-72 24v59h305v-59q-106 0 -145 -103l-222 -534q-127 -309 -236 -409q-50 -46 -126 -81t-160 -35t-140 43t-56 90q0 94 88 95q38 0 54 -53q5 -19 28 -35t63 -17q127 0 217 98t162 289l-232 518q-45 102 -137 103h-178z" />
    <glyph glyph-name="t_t_ydieresis" unicode="&#xf2c4;" horiz-adv-x="1972" 
d="M1417 1044q43 0 74 -30t31 -73q0 -44 -31 -75q-31 -30 -74 -30t-74 30t-31 75q0 44 31 74q31 29 74 29zM1825 1044q43 0 73 -30t31 -73q0 -44 -31 -75q-32 -30 -74 -30t-73 30t-31 75q0 43 31 73t74 30zM1008 592v-361q0 -150 92 -149q57 0 137 59l29 -57
q-51 -47 -125 -83t-125 -36q-113 0 -176 67t-64 185v375h-389v-361q0 -150 92 -149q55 0 139 59l29 -57q-53 -47 -126 -83t-126 -36q-111 0 -174 67t-63 185v375h-109v67q98 21 179 107t89 197h70v-281h258q127 0 204 85t89 196h70v-281h612v-59q-66 0 -80 -23t12 -80
l119 -266l111 266q22 55 10 79t-70 24v59h303v-59q-102 0 -145 -103l-219 -534q-29 -66 -44 -103t-57 -118t-102 -148q-59 -67 -102 -93q-101 -61 -202 -62t-158 42q-56 43 -56 90q0 94 90 95q41 0 54 -53q5 -19 27 -35t63 -17q127 0 217 98t161 289l-231 518
q-45 102 -137 103h-176z" />
    <glyph glyph-name="t_t_yacute" unicode="&#xf2c5;" horiz-adv-x="1972" 
d="M1976 1069q0 -51 -61 -80l-367 -155l-12 18l248 231q119 101 172 38q20 -23 20 -52zM1008 592v-361q0 -150 92 -149q57 0 137 59l29 -57q-51 -47 -125 -83t-125 -36q-113 0 -176 67t-64 185v375h-389v-361q0 -150 92 -149q55 0 139 59l29 -57q-53 -47 -126 -83t-126 -36
q-111 0 -174 67t-63 185v375h-109v67q98 21 179 107t89 197h70v-281h258q127 0 204 85t89 196h70v-281h612v-59q-66 0 -80 -23t12 -80l119 -266l111 266q22 55 10 79t-70 24v59h303v-59q-102 0 -145 -103l-219 -534q-29 -66 -44 -103t-57 -118t-102 -148q-59 -67 -102 -93
q-101 -61 -202 -62t-158 42q-56 43 -56 90q0 94 90 95q41 0 54 -53q5 -19 27 -35t63 -17q127 0 217 98t161 289l-231 518q-45 102 -137 103h-176z" />
    <glyph glyph-name="Aacute_V" unicode="&#xf2c6;" horiz-adv-x="1611" 
d="M1194 1229h494v-60q-104 0 -154 -35q-49 -36 -96 -145l-445 -1024h-45l-190 445h-410l-84 -195q-39 -84 -5 -120t159 -36v-59h-496v59q106 0 156 36q49 36 96 145l444 1024h44l397 -916l289 666q39 84 5 120t-159 35v60zM719 502l-164 385l-166 -385h330zM915 1614
q0 -49 -61 -82l-367 -154l-12 19l248 231q68 62 110 62t62 -24t20 -52z" />
    <glyph glyph-name="Agrave_V" unicode="&#xf2c7;" horiz-adv-x="1611" 
d="M1194 1229h494v-60q-104 0 -154 -35q-49 -36 -96 -145l-445 -1024h-45l-190 445h-410l-84 -195q-39 -84 -5 -120t159 -36v-59h-496v59q106 0 156 36q49 36 96 145l444 1024h44l397 -916l289 666q39 84 5 120t-159 35v60zM719 502l-164 385l-166 -385h330zM338 1614
q0 28 20 52t62 24t110 -62l250 -231l-14 -19l-367 154q-61 33 -61 82z" />
    <glyph glyph-name="Atilde_V" unicode="&#xf2c8;" horiz-adv-x="1611" 
d="M1194 1229h494v-60q-104 0 -154 -35q-49 -36 -96 -145l-445 -1024h-45l-190 445h-410l-84 -195q-39 -84 -5 -120t159 -36v-59h-496v59q106 0 156 36q49 36 96 145l444 1024h44l397 -916l289 666q39 84 5 120t-159 35v60zM719 502l-164 385l-166 -385h330zM797 1497
q80 0 106 117h39q0 -114 -45 -180t-123 -66q-45 0 -158 68q-114 68 -146 68t-60 -34q-28 -33 -43 -79h-37q0 104 46 173q46 68 104 68t166 -68t151 -67z" />
    <glyph glyph-name="Acircumflex_V" unicode="&#xf2c9;" horiz-adv-x="1611" 
d="M1194 1229h494v-60q-104 0 -154 -35q-49 -36 -96 -145l-445 -1024h-45l-190 445h-410l-84 -195q-39 -84 -5 -120t159 -36v-59h-496v59q106 0 156 36q49 36 96 145l444 1024h44l397 -916l289 666q39 84 5 120t-159 35v60zM719 502l-164 385l-166 -385h330zM930 1411
l-31 -29l-262 170l-262 -170l-31 29l293 318z" />
    <glyph glyph-name="Adieresis_V" unicode="&#xf2ca;" horiz-adv-x="1611" 
d="M1194 1229h494v-60q-104 0 -154 -35q-49 -36 -96 -145l-445 -1024h-45l-190 445h-410l-84 -195q-39 -84 -5 -120t159 -36v-59h-496v59q106 0 156 36q49 36 96 145l444 1024h44l397 -916l289 666q39 84 5 120t-159 35v60zM719 502l-164 385l-166 -385h330zM431 1589
q42 -1 73 -31t31 -73t-31 -74t-73 -31t-74 31t-31 74q0 43 31 74q32 30 74 30zM733 1485q0 43 31 73t75 31q43 -1 73 -31t30 -73t-30 -74t-74 -31t-74 31q-31 31 -31 74z" />
    <glyph glyph-name="Aring_V" unicode="&#xf2cb;" horiz-adv-x="1611" 
d="M1194 1229h494v-60q-104 0 -154 -35q-49 -36 -96 -145l-445 -1024h-45l-190 445h-410l-84 -195q-39 -84 -5 -120t159 -36v-59h-496v59q106 0 156 36q49 36 96 145l444 1024h44l397 -916l289 666q39 84 5 120t-159 35v60zM719 502l-164 385l-166 -385h330zM631 1679
q-39 1 -66 -27t-27 -67t28 -67q26 -28 65 -27q39 0 67 28q28 29 27 67q1 38 -27 66t-67 27zM631 1788q84 0 144 -59q61 -59 61 -143t-60 -144t-145 -60q-83 0 -143 60t-60 143q0 84 59 144q60 59 144 59z" />
    <glyph glyph-name="Agrave_A" unicode="&#xf2cc;" horiz-adv-x="2115" 
d="M418 59v-59h-496v59q106 0 156 36q49 36 96 145l444 1024h44l397 -910l393 910h43l447 -1024q49 -109 93 -145t158 -36v-59h-671v59q130 0 162 37t-9 119l-84 195h-409l-193 -445h-43l-188 445h-410l-84 -195q-39 -84 -5 -120t159 -36zM719 502l-164 385l-166 -385h330z
M1552 502l-163 385l-166 -385h329zM338 1614q0 28 20 52t62 24t110 -62l250 -231l-14 -19l-367 154q-61 33 -61 82z" />
    <glyph glyph-name="Atilde_A" unicode="&#xf2cd;" horiz-adv-x="2115" 
d="M418 59v-59h-496v59q106 0 156 36q49 36 96 145l444 1024h44l397 -910l393 910h43l447 -1024q49 -109 93 -145t158 -36v-59h-671v59q130 0 162 37t-9 119l-84 195h-409l-193 -445h-43l-188 445h-410l-84 -195q-39 -84 -5 -120t159 -36zM719 502l-164 385l-166 -385h330z
M1552 502l-163 385l-166 -385h329zM797 1497q80 0 106 117h39q0 -114 -45 -180t-123 -66q-45 0 -158 68q-114 68 -146 68t-60 -34q-28 -33 -43 -79h-37q0 104 46 173q46 68 104 68t166 -68t151 -67z" />
    <glyph glyph-name="Acircumflex_A" unicode="&#xf2ce;" horiz-adv-x="2115" 
d="M418 59v-59h-496v59q106 0 156 36q49 36 96 145l444 1024h44l397 -910l393 910h43l447 -1024q49 -109 93 -145t158 -36v-59h-671v59q130 0 162 37t-9 119l-84 195h-409l-193 -445h-43l-188 445h-410l-84 -195q-39 -84 -5 -120t159 -36zM719 502l-164 385l-166 -385h330z
M1552 502l-163 385l-166 -385h329zM930 1411l-31 -29l-262 170l-262 -170l-31 29l293 318z" />
    <glyph glyph-name="Aacute_A" unicode="&#xf2cf;" horiz-adv-x="2115" 
d="M418 59v-59h-496v59q106 0 156 36q49 36 96 145l444 1024h44l397 -910l393 910h43l447 -1024q49 -109 93 -145t158 -36v-59h-671v59q130 0 162 37t-9 119l-84 195h-409l-193 -445h-43l-188 445h-410l-84 -195q-39 -84 -5 -120t159 -36zM719 502l-164 385l-166 -385h330z
M1552 502l-163 385l-166 -385h329zM915 1614q0 -49 -61 -82l-367 -154l-12 19l248 231q68 62 110 62t62 -24t20 -52z" />
    <glyph glyph-name="Adieresis_A" unicode="&#xf2d0;" horiz-adv-x="2115" 
d="M418 59v-59h-496v59q106 0 156 36q49 36 96 145l444 1024h44l397 -910l393 910h43l447 -1024q49 -109 93 -145t158 -36v-59h-671v59q130 0 162 37t-9 119l-84 195h-409l-193 -445h-43l-188 445h-410l-84 -195q-39 -84 -5 -120t159 -36zM719 502l-164 385l-166 -385h330z
M1552 502l-163 385l-166 -385h329zM431 1589q42 -1 73 -31t31 -73t-31 -74t-73 -31t-74 31t-31 74q0 43 31 74q32 30 74 30zM733 1485q0 43 31 73t75 31q43 -1 73 -31t30 -73t-30 -74t-74 -31t-74 31q-31 31 -31 74z" />
    <glyph glyph-name="Aring_A" unicode="&#xf2d1;" horiz-adv-x="2115" 
d="M418 59v-59h-496v59q106 0 156 36q49 36 96 145l444 1024h44l397 -910l393 910h43l447 -1024q49 -109 93 -145t158 -36v-59h-671v59q130 0 162 37t-9 119l-84 195h-409l-193 -445h-43l-188 445h-410l-84 -195q-39 -84 -5 -120t159 -36zM719 502l-164 385l-166 -385h330z
M1552 502l-163 385l-166 -385h329zM631 1679q-39 1 -66 -27t-27 -67t28 -67q26 -28 65 -27q39 0 67 28q28 29 27 67q1 38 -27 66t-67 27zM631 1788q84 0 144 -59q61 -59 61 -143t-60 -144t-145 -60q-83 0 -143 60t-60 143q0 84 59 144q60 59 144 59z" />
    <glyph glyph-name="A_Agrave" unicode="&#xf2d2;" horiz-adv-x="2115" 
d="M418 59v-59h-496v59q106 0 156 36q49 36 96 145l444 1024h44l397 -910l393 910h43l447 -1024q49 -109 93 -145t158 -36v-59h-671v59q130 0 162 37t-9 119l-84 195h-409l-193 -445h-43l-188 445h-410l-84 -195q-39 -84 -5 -120t159 -36zM719 502l-164 385l-166 -385h330z
M1552 502l-163 385l-166 -385h329zM1174 1614q0 28 20 52t63 24t111 -62l248 -231l-12 -19l-369 154q-61 29 -61 82z" />
    <glyph glyph-name="A_Atilde" unicode="&#xf2d3;" horiz-adv-x="2115" 
d="M418 59v-59h-496v59q106 0 156 36q49 36 96 145l444 1024h44l397 -910l393 910h43l447 -1024q49 -109 93 -145t158 -36v-59h-671v59q130 0 162 37t-9 119l-84 195h-409l-193 -445h-43l-188 445h-410l-84 -195q-39 -84 -5 -120t159 -36zM719 502l-164 385l-166 -385h330z
M1552 502l-163 385l-166 -385h329zM1634 1497q78 0 105 117h39q0 -114 -45 -180t-123 -66q-45 0 -158 68q-112 68 -144 68t-62 -34q-30 -33 -42 -79h-39q0 104 46 173q47 68 105 68t166 -68t152 -67z" />
    <glyph glyph-name="A_Acircumflex" unicode="&#xf2d4;" horiz-adv-x="2115" 
d="M418 59v-59h-496v59q106 0 156 36q49 36 96 145l444 1024h44l397 -910l393 910h43l447 -1024q49 -109 93 -145t158 -36v-59h-671v59q130 0 162 37t-9 119l-84 195h-409l-193 -445h-43l-188 445h-410l-84 -195q-39 -84 -5 -120t159 -36zM719 502l-164 385l-166 -385h330z
M1552 502l-163 385l-166 -385h329zM1767 1411l-30 -29l-264 170l-263 -170l-30 29l293 318z" />
    <glyph glyph-name="A_Aacute" unicode="&#xf2d5;" horiz-adv-x="2115" 
d="M418 59v-59h-496v59q106 0 156 36q49 36 96 145l444 1024h44l397 -910l393 910h43l447 -1024q49 -109 93 -145t158 -36v-59h-671v59q130 0 162 37t-9 119l-84 195h-409l-193 -445h-43l-188 445h-410l-84 -195q-39 -84 -5 -120t159 -36zM719 502l-164 385l-166 -385h330z
M1552 502l-163 385l-166 -385h329zM1751 1613q0 -27 -19 -49t-42 -32l-367 -154l-12 19l248 231q67 62 109 62t62 -24t21 -53z" />
    <glyph glyph-name="A_Adieresis" unicode="&#xf2d6;" horiz-adv-x="2115" 
d="M418 59v-59h-496v59q106 0 156 36q49 36 96 145l444 1024h44l397 -910l393 910h43l447 -1024q49 -109 93 -145t158 -36v-59h-671v59q130 0 162 37t-9 119l-84 195h-409l-193 -445h-43l-188 445h-410l-84 -195q-39 -84 -5 -120t159 -36zM719 502l-164 385l-166 -385h330z
M1552 502l-163 385l-166 -385h329zM1163 1485q0 43 31 73t74 31q42 -1 72 -31t30 -73t-30 -74t-72 -31t-74 31q-31 31 -31 74zM1571 1485q-1 43 29 73t74 31q44 -1 74 -31t30 -73t-30 -74t-74 -31t-74 31t-29 74z" />
    <glyph glyph-name="A_Aring" unicode="&#xf2d7;" horiz-adv-x="2115" 
d="M418 59v-59h-496v59q106 0 156 36q49 36 96 145l444 1024h44l397 -910l393 910h43l447 -1024q49 -109 93 -145t158 -36v-59h-671v59q130 0 162 37t-9 119l-84 195h-409l-193 -445h-43l-188 445h-410l-84 -195q-39 -84 -5 -120t159 -36zM719 502l-164 385l-166 -385h330z
M1552 502l-163 385l-166 -385h329zM1468 1679q-38 1 -66 -27t-28 -67t28 -67t66 -27q38 0 67 28q28 29 28 67t-28 66t-67 27zM1468 1788q84 0 144 -59t59 -143q0 -84 -59 -144q-60 -60 -144 -60t-143 60t-59 143t59 143t143 60z" />
    <glyph glyph-name="Oacute_C" unicode="&#xf2d8;" horiz-adv-x="1996" 
d="M1059 1614q0 -53 -62 -82l-366 -154l-13 19l248 231q64 62 108 62t64 -24t21 -52zM1362 63q154 0 268 108t158 302h59v-450h-59q-18 92 -51 116q-170 -174 -383 -174q-145 0 -277 68q-141 -68 -301 -68q-282 1 -482 191t-200 458t201 458t481 192q160 0 301 -68
q131 68 277 68q215 0 383 -174q33 29 51 116h59v-450h-59q-43 197 -157 303t-269 106q-92 0 -164 -43q123 -90 193 -222q69 -132 69 -285t-70 -285t-192 -224q72 -43 164 -43zM985 614q0 -246 98 -395q121 155 121 395t-121 396q-98 -150 -98 -396zM725 614q0 150 62 282
t174 224q-80 45 -204 45q-125 0 -225 -88q-182 -160 -182 -463t182 -462q100 -88 224 -88t205 45q-111 90 -174 222q-62 133 -62 283z" />
    <glyph glyph-name="Ocircumflex_C" unicode="&#xf2d9;" horiz-adv-x="1996" 
d="M1071 1407l-31 -29l-262 170l-262 -170l-31 29l293 317zM1362 63q154 0 268 108t158 302h59v-450h-59q-18 92 -51 116q-170 -174 -383 -174q-145 0 -277 68q-141 -68 -301 -68q-282 1 -482 191t-200 458t201 458t481 192q160 0 301 -68q131 68 277 68q215 0 383 -174
q33 29 51 116h59v-450h-59q-43 197 -157 303t-269 106q-92 0 -164 -43q123 -90 193 -222q69 -132 69 -285t-70 -285t-192 -224q72 -43 164 -43zM985 614q0 -246 98 -395q121 155 121 395t-121 396q-98 -150 -98 -396zM725 614q0 150 62 282t174 224q-80 45 -204 45
q-125 0 -225 -88q-182 -160 -182 -463t182 -462q100 -88 224 -88t205 45q-111 90 -174 222q-62 133 -62 283z" />
    <glyph glyph-name="Ograve_C" unicode="&#xf2da;" horiz-adv-x="1996" 
d="M566 1690q44 0 108 -62l250 -231l-15 -19l-366 154q-23 10 -42 32t-19 50t20 52t64 24zM1362 63q154 0 268 108t158 302h59v-450h-59q-18 92 -51 116q-170 -174 -383 -174q-145 0 -277 68q-141 -68 -301 -68q-282 1 -482 191t-200 458t201 458t481 192q160 0 301 -68
q131 68 277 68q215 0 383 -174q33 29 51 116h59v-450h-59q-43 197 -157 303t-269 106q-92 0 -164 -43q123 -90 193 -222q69 -132 69 -285t-70 -285t-192 -224q72 -43 164 -43zM985 614q0 -246 98 -395q121 155 121 395t-121 396q-98 -150 -98 -396zM725 614q0 150 62 282
t174 224q-80 45 -204 45q-125 0 -225 -88q-182 -160 -182 -463t182 -462q100 -88 224 -88t205 45q-111 90 -174 222q-62 133 -62 283z" />
    <glyph glyph-name="Otilde_C" unicode="&#xf2db;" horiz-adv-x="1996" 
d="M940 1497q80 0 107 117h38q0 -114 -45 -180t-122 -66q-47 0 -159 68t-145 68q-34 0 -62 -34q-28 -33 -42 -79h-37q0 104 46 173q47 68 105 68t166 -68t150 -67zM1362 63q154 0 268 108t158 302h59v-450h-59q-18 92 -51 116q-170 -174 -383 -174q-145 0 -277 68
q-141 -68 -301 -68q-282 1 -482 191t-200 458t201 458t481 192q160 0 301 -68q131 68 277 68q215 0 383 -174q33 29 51 116h59v-450h-59q-43 197 -157 303t-269 106q-92 0 -164 -43q123 -90 193 -222q69 -132 69 -285t-70 -285t-192 -224q72 -43 164 -43zM985 614
q0 -246 98 -395q121 155 121 395t-121 396q-98 -150 -98 -396zM725 614q0 150 62 282t174 224q-80 45 -204 45q-125 0 -225 -88q-182 -160 -182 -463t182 -462q100 -88 224 -88t205 45q-111 90 -174 222q-62 133 -62 283z" />
    <glyph glyph-name="Odieresis_C" unicode="&#xf2dc;" horiz-adv-x="1996" 
d="M578 1589q44 -1 74 -31t30 -73t-31 -74t-73 -31t-74 31q-31 31 -31 74t31 73t74 31zM985 1589q43 -1 74 -31t31 -73t-31 -74t-74 -31t-74 31t-30 74q0 43 30 74q31 30 74 30zM1362 63q154 0 268 108t158 302h59v-450h-59q-18 92 -51 116q-170 -174 -383 -174
q-145 0 -277 68q-141 -68 -301 -68q-282 1 -482 191t-200 458t201 458t481 192q160 0 301 -68q131 68 277 68q215 0 383 -174q33 29 51 116h59v-450h-59q-43 197 -157 303t-269 106q-92 0 -164 -43q123 -90 193 -222q69 -132 69 -285t-70 -285t-192 -224q72 -43 164 -43z
M985 614q0 -246 98 -395q121 155 121 395t-121 396q-98 -150 -98 -396zM725 614q0 150 62 282t174 224q-80 45 -204 45q-125 0 -225 -88q-182 -160 -182 -463t182 -462q100 -88 224 -88t205 45q-111 90 -174 222q-62 133 -62 283z" />
    <glyph glyph-name="O_Ccedilla" unicode="&#xf2dd;" horiz-adv-x="1996" 
d="M1481 -344q0 -68 -47 -122t-147 -96t-195 -54v73q227 70 227 199q0 68 -85 94t-183 -6v37l194 194q-82 14 -168 58q-141 -68 -301 -68q-282 1 -482 191t-200 458t201 458t481 192q160 0 301 -68q131 68 277 68q215 0 383 -174q33 29 51 116h59v-450h-59q-43 197 -157 303
t-269 106q-92 0 -164 -43q123 -90 193 -222q69 -132 69 -285t-70 -285t-192 -224q72 -43 164 -43q154 0 268 108t158 302h59v-450h-59q-18 92 -51 116q-168 -172 -379 -174l-101 -100q84 -4 154 -56t70 -153zM725 614q0 150 62 282t174 224q-80 45 -204 45q-125 0 -225 -88
q-182 -160 -182 -463t182 -462q100 -88 224 -88t205 45q-111 90 -174 222q-62 133 -62 283zM985 614q0 -246 98 -395q121 155 121 395t-121 396q-98 -150 -98 -396z" />
    <glyph glyph-name="M_Ecircumflex" unicode="&#xf2de;" horiz-adv-x="2260" 
d="M1479 1137v-441h110q154 0 197 35t43 162h59v-485h-59q0 128 -42 162t-198 34h-110v-272q-1 -156 33 -198t163 -42h185q131 0 172 33t63 123l10 41h62l-19 -289h-1118v59q127 0 162 43t35 197v643l-408 -977h-45l-409 977v-643q1 -154 35 -197t161 -43v-59h-483v59
q127 0 161 43t33 197v631q0 154 -34 196t-160 43v60h428l373 -887l372 887h830l16 -289h-59l-10 41q-14 61 -32 90q-39 64 -206 66h-311zM1921 1411l-31 -29l-264 170l-262 -170l-31 29l293 318z" />
    <glyph glyph-name="M_Edieresis" unicode="&#xf2df;" horiz-adv-x="2260" 
d="M1479 1137v-441h110q154 0 197 35t43 162h59v-485h-59q0 128 -42 162t-198 34h-110v-272q-1 -156 33 -198t163 -42h185q131 0 172 33t63 123l10 41h62l-19 -289h-1118v59q127 0 162 43t35 197v643l-408 -977h-45l-409 977v-643q1 -154 35 -197t161 -43v-59h-483v59
q127 0 161 43t33 197v631q0 154 -34 196t-160 43v60h428l373 -887l372 887h830l16 -289h-59l-10 41q-14 61 -32 90q-39 64 -206 66h-311zM1446 1589q43 -1 74 -31q30 -30 30 -73t-30 -74t-74 -31q-43 0 -74 31t-31 74t31 73t74 31zM1853 1589q43 -1 74 -31t31 -73t-31 -74
t-74 -31t-73 31t-31 74q1 43 31 73t73 31z" />
    <glyph glyph-name="M_Egrave" unicode="&#xf2e0;" horiz-adv-x="2260" 
d="M1479 1137v-441h110q154 0 197 35t43 162h59v-485h-59q0 128 -42 162t-198 34h-110v-272q-1 -156 33 -198t163 -42h185q131 0 172 33t63 123l10 41h62l-19 -289h-1118v59q127 0 162 43t35 197v643l-408 -977h-45l-409 977v-643q1 -154 35 -197t161 -43v-59h-483v59
q127 0 161 43t33 197v631q0 154 -34 196t-160 43v60h428l373 -887l372 887h830l16 -289h-59l-10 41q-14 61 -32 90q-39 64 -206 66h-311zM1352 1614q0 28 20 52t63 24t109 -62l250 -231l-14 -19l-367 154q-23 10 -42 32t-19 50z" />
    <glyph glyph-name="M_Eacute" unicode="&#xf2e1;" horiz-adv-x="2260" 
d="M1479 1137v-441h110q154 0 197 35t43 162h59v-485h-59q0 128 -42 162t-198 34h-110v-272q-1 -156 33 -198t163 -42h185q131 0 172 33t63 123l10 41h62l-19 -289h-1118v59q127 0 162 43t35 197v643l-408 -977h-45l-409 977v-643q1 -154 35 -197t161 -43v-59h-483v59
q127 0 161 43t33 197v631q0 154 -34 196t-160 43v60h428l373 -887l372 887h830l16 -289h-59l-10 41q-14 61 -32 90q-39 64 -206 66h-311zM1968 1614q0 -53 -61 -80l-367 -156l-12 21l248 231q63 62 107 62q45 0 65 -24t20 -54z" />
    <glyph glyph-name="Oacute_G" unicode="&#xf2e2;" horiz-adv-x="2064" 
d="M1059 1614q0 -53 -62 -82l-366 -154l-13 19l248 231q64 62 108 62t64 -24t21 -52zM1382 63q112 -1 200 61q87 62 87 193q0 68 -29 100t-96 32v59h539v-59q-129 0 -163 -42t-34 -196v-139q-126 0 -280 -54t-276 -53q-122 0 -253 68q-141 -68 -301 -68q-282 1 -482 191
t-200 458t201 458t481 192q160 0 301 -68q131 68 277 68q215 0 383 -174q33 29 51 116h59v-450h-59q-43 197 -157 303t-269 106q-92 0 -164 -43q123 -90 193 -222q69 -132 69 -285t-70 -285t-192 -224q72 -43 184 -43zM985 614q0 -246 98 -395q121 155 121 395t-121 396
q-98 -150 -98 -396zM725 614q0 150 62 282t174 224q-80 45 -204 45q-125 0 -225 -88q-182 -160 -182 -463t182 -462q100 -88 224 -88t205 45q-111 90 -174 222q-62 133 -62 283z" />
    <glyph glyph-name="Ocircumflex_G" unicode="&#xf2e3;" horiz-adv-x="2064" 
d="M1071 1407l-31 -29l-262 170l-262 -170l-31 29l293 317zM1382 63q112 -1 200 61q87 62 87 193q0 68 -29 100t-96 32v59h539v-59q-129 0 -163 -42t-34 -196v-139q-126 0 -280 -54t-276 -53q-122 0 -253 68q-141 -68 -301 -68q-282 1 -482 191t-200 458t201 458t481 192
q160 0 301 -68q131 68 277 68q215 0 383 -174q33 29 51 116h59v-450h-59q-43 197 -157 303t-269 106q-92 0 -164 -43q123 -90 193 -222q69 -132 69 -285t-70 -285t-192 -224q72 -43 184 -43zM985 614q0 -246 98 -395q121 155 121 395t-121 396q-98 -150 -98 -396zM725 614
q0 150 62 282t174 224q-80 45 -204 45q-125 0 -225 -88q-182 -160 -182 -463t182 -462q100 -88 224 -88t205 45q-111 90 -174 222q-62 133 -62 283z" />
    <glyph glyph-name="Ograve_G" unicode="&#xf2e4;" horiz-adv-x="2064" 
d="M566 1690q44 0 108 -62l250 -231l-15 -19l-366 154q-23 10 -42 32t-19 50t20 52t64 24zM1382 63q112 -1 200 61q87 62 87 193q0 68 -29 100t-96 32v59h539v-59q-129 0 -163 -42t-34 -196v-139q-126 0 -280 -54t-276 -53q-122 0 -253 68q-141 -68 -301 -68
q-282 1 -482 191t-200 458t201 458t481 192q160 0 301 -68q131 68 277 68q215 0 383 -174q33 29 51 116h59v-450h-59q-43 197 -157 303t-269 106q-92 0 -164 -43q123 -90 193 -222q69 -132 69 -285t-70 -285t-192 -224q72 -43 184 -43zM985 614q0 -246 98 -395
q121 155 121 395t-121 396q-98 -150 -98 -396zM725 614q0 150 62 282t174 224q-80 45 -204 45q-125 0 -225 -88q-182 -160 -182 -463t182 -462q100 -88 224 -88t205 45q-111 90 -174 222q-62 133 -62 283z" />
    <glyph glyph-name="Otilde_G" unicode="&#xf2e5;" horiz-adv-x="2064" 
d="M940 1497q80 0 107 117h38q0 -114 -45 -180t-122 -66q-47 0 -159 68t-145 68q-34 0 -62 -34q-28 -33 -42 -79h-37q0 104 46 173q47 68 105 68t166 -68t150 -67zM1382 63q112 -1 200 61q87 62 87 193q0 68 -29 100t-96 32v59h539v-59q-129 0 -163 -42t-34 -196v-139
q-126 0 -280 -54t-276 -53q-122 0 -253 68q-141 -68 -301 -68q-282 1 -482 191t-200 458t201 458t481 192q160 0 301 -68q131 68 277 68q215 0 383 -174q33 29 51 116h59v-450h-59q-43 197 -157 303t-269 106q-92 0 -164 -43q123 -90 193 -222q69 -132 69 -285t-70 -285
t-192 -224q72 -43 184 -43zM985 614q0 -246 98 -395q121 155 121 395t-121 396q-98 -150 -98 -396zM725 614q0 150 62 282t174 224q-80 45 -204 45q-125 0 -225 -88q-182 -160 -182 -463t182 -462q100 -88 224 -88t205 45q-111 90 -174 222q-62 133 -62 283z" />
    <glyph glyph-name="Odieresis_G" unicode="&#xf2e6;" horiz-adv-x="2064" 
d="M578 1589q44 -1 74 -31t30 -73t-31 -74t-73 -31t-74 31q-31 31 -31 74t31 73t74 31zM985 1589q43 -1 74 -31t31 -73t-31 -74t-74 -31t-74 31t-30 74q0 43 30 74q31 30 74 30zM1382 63q112 -1 200 61q87 62 87 193q0 68 -29 100t-96 32v59h539v-59q-129 0 -163 -42
t-34 -196v-139q-126 0 -280 -54t-276 -53q-122 0 -253 68q-141 -68 -301 -68q-282 1 -482 191t-200 458t201 458t481 192q160 0 301 -68q131 68 277 68q215 0 383 -174q33 29 51 116h59v-450h-59q-43 197 -157 303t-269 106q-92 0 -164 -43q123 -90 193 -222
q69 -132 69 -285t-70 -285t-192 -224q72 -43 184 -43zM985 614q0 -246 98 -395q121 155 121 395t-121 396q-98 -150 -98 -396zM725 614q0 150 62 282t174 224q-80 45 -204 45q-125 0 -225 -88q-182 -160 -182 -463t182 -462q100 -88 224 -88t205 45q-111 90 -174 222
q-62 133 -62 283z" />
    <glyph glyph-name="H_Ecircumflex" unicode="&#xf2e7;" horiz-adv-x="2197" 
d="M1855 1411l-30 -29l-262 170l-265 -170l-30 29l295 318zM1157 606h-629v-307q0 -154 35 -197t162 -43v-59h-647v59q127 0 161 43t33 197v631q0 154 -34 196t-160 43v60h647v-60q-127 0 -162 -43t-35 -196v-232h629v232q0 156 -34 198t-162 41v60h1054l19 -289h-62l-10 41
q-23 90 -64 123t-172 33h-313v-441h111q154 0 196 35t43 162h60v-485h-60q0 128 -42 162t-197 34h-111v-272q0 -154 35 -197t162 -43h184q131 0 172 32t66 124l10 41h59l-16 -289h-1124v59q129 0 163 42t33 198v307z" />
    <glyph glyph-name="H_Edieresis" unicode="&#xf2e8;" horiz-adv-x="2197" 
d="M1276 1485q0 43 32 73t74 31q43 -1 73 -31t30 -73t-30 -74t-73 -31q-42 0 -74 31t-32 74zM1789 1589q44 -1 74 -31q29 -30 29 -73t-30 -74t-73 -31q-44 0 -74 31t-29 74q0 43 29 74q30 30 74 30zM1157 606h-629v-307q0 -154 35 -197t162 -43v-59h-647v59q127 0 161 43
t33 197v631q0 154 -34 196t-160 43v60h647v-60q-127 0 -162 -43t-35 -196v-232h629v232q0 156 -34 198t-162 41v60h1054l19 -289h-62l-10 41q-23 90 -64 123t-172 33h-313v-441h111q154 0 196 35t43 162h60v-485h-60q0 128 -42 162t-197 34h-111v-272q0 -154 35 -197
t162 -43h184q131 0 172 32t66 124l10 41h59l-16 -289h-1124v59q129 0 163 42t33 198v307z" />
    <glyph glyph-name="H_Egrave" unicode="&#xf2e9;" horiz-adv-x="2197" 
d="M1370 1690q43 0 111 -62l248 -231l-13 -19l-368 154q-61 29 -62 82q0 28 20 52t64 24zM1157 606h-629v-307q0 -154 35 -197t162 -43v-59h-647v59q127 0 161 43t33 197v631q0 154 -34 196t-160 43v60h647v-60q-127 0 -162 -43t-35 -196v-232h629v232q0 156 -34 198
t-162 41v60h1054l19 -289h-62l-10 41q-23 90 -64 123t-172 33h-313v-441h111q154 0 196 35t43 162h60v-485h-60q0 128 -42 162t-197 34h-111v-272q0 -154 35 -197t162 -43h184q131 0 172 32t66 124l10 41h59l-16 -289h-1124v59q129 0 163 42t33 198v307z" />
    <glyph glyph-name="H_Eacute" unicode="&#xf2ea;" horiz-adv-x="2197" 
d="M1903 1614q0 -53 -62 -80l-366 -156l-13 21l248 231q68 62 111 62t63 -24t19 -54zM1157 606h-629v-307q0 -154 35 -197t162 -43v-59h-647v59q127 0 161 43t33 197v631q0 154 -34 196t-160 43v60h647v-60q-127 0 -162 -43t-35 -196v-232h629v232q0 156 -34 198t-162 41v60
h1054l19 -289h-62l-10 41q-23 90 -64 123t-172 33h-313v-441h111q154 0 196 35t43 162h60v-485h-60q0 128 -42 162t-197 34h-111v-272q0 -154 35 -197t162 -43h184q131 0 172 32t66 124l10 41h59l-16 -289h-1124v59q129 0 163 42t33 198v307z" />
    <glyph glyph-name="F_Iacute" unicode="&#xf2eb;" horiz-adv-x="1933" 
d="M1849 1614q0 -53 -61 -82l-369 -154l-10 19l246 231q68 62 111 62t63 -24t20 -52zM1858 1229v-60q-129 0 -163 -42t-34 -197v-631q0 -156 34 -198t163 -42v-59h-650v59q127 0 162 43t35 197v598q0 154 -35 197t-162 43h-680v-441h113q154 0 196 35t42 162h59v-485h-59
q0 128 -42 162t-196 34h-113v-305q0 -154 35 -197t162 -43v-59h-647v59q127 0 161 43t33 197v631q0 154 -34 196t-160 43v60h1780z" />
    <glyph glyph-name="F_Icircumflex" unicode="&#xf2ec;" horiz-adv-x="1933" 
d="M1833 1411l-31 -29l-262 170l-264 -170l-31 29l295 318zM1858 1229v-60q-129 0 -163 -42t-34 -197v-631q0 -156 34 -198t163 -42v-59h-650v59q127 0 162 43t35 197v598q0 154 -35 197t-162 43h-680v-441h113q154 0 196 35t42 162h59v-485h-59q0 128 -42 162t-196 34h-113
v-305q0 -154 35 -197t162 -43v-59h-647v59q127 0 161 43t33 197v631q0 154 -34 196t-160 43v60h1780z" />
    <glyph glyph-name="F_Idieresis" unicode="&#xf2ed;" horiz-adv-x="1933" 
d="M1333 1589q43 -1 74 -31t31 -73t-31 -74t-74 -31t-73 31t-31 74q1 43 31 73t73 31zM1741 1589q43 -1 74 -31t31 -73t-32 -74q-30 -31 -73 -31t-74 31t-31 74t31 73t74 31zM1858 1229v-60q-129 0 -163 -42t-34 -197v-631q0 -156 34 -198t163 -42v-59h-650v59q127 0 162 43
t35 197v598q0 154 -35 197t-162 43h-680v-441h113q154 0 196 35t42 162h59v-485h-59q0 128 -42 162t-196 34h-113v-305q0 -154 35 -197t162 -43v-59h-647v59q127 0 161 43t33 197v631q0 154 -34 196t-160 43v60h1780z" />
    <glyph glyph-name="F_Igrave" unicode="&#xf2ee;" horiz-adv-x="1933" 
d="M1292 1690q43 0 109 -62l250 -231l-15 -19l-366 154q-23 10 -42 32q-20 22 -20 50t20 52t64 24zM1858 1229v-60q-129 0 -163 -42t-34 -197v-631q0 -156 34 -198t163 -42v-59h-650v59q127 0 162 43t35 197v598q0 154 -35 197t-162 43h-680v-441h113q154 0 196 35t42 162
h59v-485h-59q0 128 -42 162t-196 34h-113v-305q0 -154 35 -197t162 -43v-59h-647v59q127 0 161 43t33 197v631q0 154 -34 196t-160 43v60h1780z" />
    <glyph glyph-name="Udieresis_B" unicode="&#xf2ef;" horiz-adv-x="2207" 
d="M489 1487q0 43 32 73t74 31q42 -1 73 -31q30 -30 30 -73t-30 -74t-73 -31q-42 0 -74 31t-32 74zM897 1487q1 43 31 73t74 31q44 -1 74 -31t30 -73t-30 -74t-74 -31t-74 31t-31 74zM1135 0v129q-135 -164 -383 -164q-213 0 -353 129q-139 129 -139 363v473q0 154 -35 196
t-162 43v60h650v-60q-129 0 -163 -42t-34 -197v-451q0 -191 89 -289t227 -98t221 98q82 98 82 289v451q0 156 -34 198t-163 41v60h696q166 0 268 -88t103 -219q0 -166 -152 -254q119 -37 187 -124t67 -200q0 -147 -113 -246q-114 -98 -300 -98h-559zM1391 1137v-441h114
q111 0 168 62t57 156t-56 158q-58 64 -169 65h-114zM1391 319q1 -143 33 -184t155 -41t189 72t65 182q0 110 -67 184q-67 72 -193 72h-182v-285z" />
    <glyph glyph-name="Uacute_B" unicode="&#xf2f0;" horiz-adv-x="2207" 
d="M1137 1614q0 -49 -62 -82l-366 -154l-13 19l248 231q120 102 172 37q21 -24 21 -51zM1135 0v129q-135 -164 -383 -164q-213 0 -353 129q-139 129 -139 363v473q0 154 -35 196t-162 43v60h650v-60q-129 0 -163 -42t-34 -197v-451q0 -191 89 -289t227 -98t221 98
q82 98 82 289v451q0 156 -34 198t-163 41v60h696q166 0 268 -88t103 -219q0 -166 -152 -254q119 -37 187 -124t67 -200q0 -147 -113 -246q-114 -98 -300 -98h-559zM1391 1137v-441h114q111 0 168 62t57 156t-56 158q-58 64 -169 65h-114zM1391 319q1 -143 33 -184t155 -41
t189 72t65 182q0 110 -67 184q-67 72 -193 72h-182v-285z" />
    <glyph glyph-name="Ucircumflex_B" unicode="&#xf2f1;" horiz-adv-x="2207" 
d="M1094 1411l-31 -29l-262 170l-262 -170l-31 29l293 318zM1135 0v129q-135 -164 -383 -164q-213 0 -353 129q-139 129 -139 363v473q0 154 -35 196t-162 43v60h650v-60q-129 0 -163 -42t-34 -197v-451q0 -191 89 -289t227 -98t221 98q82 98 82 289v451q0 156 -34 198
t-163 41v60h696q166 0 268 -88t103 -219q0 -166 -152 -254q119 -37 187 -124t67 -200q0 -147 -113 -246q-114 -98 -300 -98h-559zM1391 1137v-441h114q111 0 168 62t57 156t-56 158q-58 64 -169 65h-114zM1391 319q1 -143 33 -184t155 -41t189 72t65 182q0 110 -67 184
q-67 72 -193 72h-182v-285z" />
    <glyph glyph-name="Ugrave_B" unicode="&#xf2f2;" horiz-adv-x="2207" 
d="M518 1690q41 0 113 -62l248 -231l-13 -19l-368 154q-62 37 -62 73q0 37 20 61t62 24zM1135 0v129q-135 -164 -383 -164q-213 0 -353 129q-139 129 -139 363v473q0 154 -35 196t-162 43v60h650v-60q-129 0 -163 -42t-34 -197v-451q0 -191 89 -289t227 -98t221 98
q82 98 82 289v451q0 156 -34 198t-163 41v60h696q166 0 268 -88t103 -219q0 -166 -152 -254q119 -37 187 -124t67 -200q0 -147 -113 -246q-114 -98 -300 -98h-559zM1391 1137v-441h114q111 0 168 62t57 156t-56 158q-58 64 -169 65h-114zM1391 319q1 -143 33 -184t155 -41
t189 72t65 182q0 110 -67 184q-67 72 -193 72h-182v-285z" />
    <glyph glyph-name="Ntilde_K" unicode="&#xf2f3;" horiz-adv-x="2359" 
d="M938 1487q80 0 106 117h39q0 -115 -45 -181t-123 -65q-45 0 -157 68t-144 67q-32 0 -62 -33t-44 -80h-37q0 104 46 173q47 69 105 69t166 -68t150 -67zM1274 -35h-62l-847 1012v-678q1 -154 35 -197t161 -43v-59h-483v59q127 0 161 43t33 197v631q0 154 -34 196t-160 43
v60h409l564 -674v375q0 154 -34 196t-161 43v60h614v-60q-128 0 -162 -42t-34 -197v-275l428 346q53 43 79 86q25 44 7 63t-78 19v60h494v-60q-82 1 -149 -23t-103 -50t-123 -95l-293 -233l569 -588q49 -49 132 -85t133 -36v-59h-682v59q181 0 77 121l-405 438l-86 -71v-582
z" />
    <glyph glyph-name="L_Agrave" unicode="&#xf2f4;" horiz-adv-x="2287" 
d="M1346 1614q0 28 19 52t62 24t111 -62l250 -231l-14 -19l-367 154q-23 10 -42 32t-19 50zM1726 502l-163 385l-166 -385h329zM78 0v59q127 0 161 43t33 197v631q0 154 -34 196t-160 43v60h647v-60q-127 0 -162 -43t-35 -196v-598q0 -154 35 -197t162 -43h221q104 0 155 36
q50 36 95 144l430 992h43l447 -1024q47 -109 91 -145t158 -36v-59h-667v59q131 0 163 37t-10 119l-86 195h-409l-84 -195q-39 -84 -5 -120t158 -36v-59h-1347z" />
    <glyph glyph-name="L_Atilde" unicode="&#xf2f5;" horiz-adv-x="2287" 
d="M1726 502l-163 385l-166 -385h329zM1804 1497q78 0 107 117h39q0 -114 -46 -180t-124 -66q-45 0 -156 68q-110 68 -144 68t-64 -34q-30 -33 -42 -79h-37q0 104 46 173q47 68 105 68t166 -68t150 -67zM78 0v59q127 0 161 43t33 197v631q0 154 -34 196t-160 43v60h647v-60
q-127 0 -162 -43t-35 -196v-598q0 -154 35 -197t162 -43h221q104 0 155 36q50 36 95 144l430 992h43l447 -1024q47 -109 91 -145t158 -36v-59h-667v59q131 0 163 37t-10 119l-86 195h-409l-84 -195q-39 -84 -5 -120t158 -36v-59h-1347z" />
    <glyph glyph-name="L_Acircumflex" unicode="&#xf2f6;" horiz-adv-x="2287" 
d="M1726 502l-163 385l-166 -385h329zM1937 1411l-30 -29l-262 170l-265 -170l-30 29l295 318zM78 0v59q127 0 161 43t33 197v631q0 154 -34 196t-160 43v60h647v-60q-127 0 -162 -43t-35 -196v-598q0 -154 35 -197t162 -43h221q104 0 155 36q50 36 95 144l430 992h43
l447 -1024q47 -109 91 -145t158 -36v-59h-667v59q131 0 163 37t-10 119l-86 195h-409l-84 -195q-39 -84 -5 -120t158 -36v-59h-1347z" />
    <glyph glyph-name="L_Aacute" unicode="&#xf2f7;" horiz-adv-x="2287" 
d="M1921 1613q0 -27 -19 -49t-42 -32l-367 -154l-12 19l248 231q69 62 111 62t62 -24t19 -53zM1726 502l-163 385l-166 -385h329zM78 0v59q127 0 161 43t33 197v631q0 154 -34 196t-160 43v60h647v-60q-127 0 -162 -43t-35 -196v-598q0 -154 35 -197t162 -43h221
q104 0 155 36q50 36 95 144l430 992h43l447 -1024q47 -109 91 -145t158 -36v-59h-667v59q131 0 163 37t-10 119l-86 195h-409l-84 -195q-39 -84 -5 -120t158 -36v-59h-1347z" />
    <glyph glyph-name="L_Adieresis" unicode="&#xf2f8;" horiz-adv-x="2287" 
d="M1438 1589q44 -1 74 -31t30 -73t-31 -74t-73 -31t-74 31q-31 31 -31 74t31 73t74 31zM1845 1589q43 -1 74 -31t31 -73t-31 -74t-74 -31t-73 31t-31 74q1 43 31 73t73 31zM1726 502l-163 385l-166 -385h329zM78 0v59q127 0 161 43t33 197v631q0 154 -34 196t-160 43v60
h647v-60q-127 0 -162 -43t-35 -196v-598q0 -154 35 -197t162 -43h221q104 0 155 36q50 36 95 144l430 992h43l447 -1024q47 -109 91 -145t158 -36v-59h-667v59q131 0 163 37t-10 119l-86 195h-409l-84 -195q-39 -84 -5 -120t158 -36v-59h-1347z" />
    <glyph glyph-name="L_Aring" unicode="&#xf2f9;" horiz-adv-x="2287" 
d="M1638 1679q-38 1 -66 -27t-28 -67t28 -67t66 -27q38 0 67 28q28 29 28 67t-28 66t-67 27zM1726 502l-163 385l-166 -385h329zM1638 1788q84 0 144 -59t59 -143q0 -84 -59 -144q-60 -60 -144 -60t-143 60t-59 143t59 143t143 60zM78 0v59q127 0 161 43t33 197v631
q0 154 -34 196t-160 43v60h647v-60q-127 0 -162 -43t-35 -196v-598q0 -154 35 -197t162 -43h221q104 0 155 36q50 36 95 144l430 992h43l447 -1024q47 -109 91 -145t158 -36v-59h-667v59q131 0 163 37t-10 119l-86 195h-409l-84 -195q-39 -84 -5 -120t158 -36v-59h-1347z
" />
    <glyph glyph-name="Ntilde_T" unicode="&#xf2fa;" horiz-adv-x="2678" 
d="M938 1487q80 0 106 117h39q0 -115 -45 -181t-123 -65q-45 0 -157 68t-144 67q-32 0 -62 -33t-44 -80h-37q0 104 46 173q47 69 105 69t166 -68t150 -67zM2148 1137v-838q0 -154 35 -197t162 -43v-59h-649v59q129 0 163 42t33 198v838h-432q-129 0 -163 -42t-33 -198v-932
h-52l-847 1012v-678q1 -154 35 -197t161 -43v-59h-483v59q127 0 161 43t33 197v631q0 154 -34 196t-160 43v60h409l684 -815v516q-1 154 -35 196t-161 43v60h1669l16 -289h-59l-10 41q-13 61 -31 90q-39 64 -207 66h-205z" />
    <glyph glyph-name="Oacute_O" unicode="&#xf2fb;" horiz-adv-x="2185" 
d="M1059 1614q0 -53 -62 -82l-366 -154l-13 19l248 231q64 62 108 62t64 -24t21 -52zM1835 614q0 133 -41 254t-141 209q-99 88 -229 88t-212 -53q115 -92 182 -221q66 -129 66 -277t-66 -278q-66 -131 -182 -219q82 -53 211 -53t229 88t142 208q41 120 41 254zM725 615
q0 145 67 277t181 220q-84 53 -212 53q-129 0 -229 -88q-182 -160 -182 -463t182 -462q100 -88 228 -88t213 53q-115 92 -181 222q-67 130 -67 276zM1409 1264q281 0 481 -190t201 -460q0 -268 -201 -458t-481 -191q-160 0 -317 74q-152 -74 -316 -74q-282 1 -482 191
t-200 458t201 458t481 192q162 0 316 -74q154 74 317 74zM981 614q0 -227 111 -385q113 158 112 385q1 227 -112 385q-111 -158 -111 -385z" />
    <glyph glyph-name="Ocircumflex_O" unicode="&#xf2fc;" horiz-adv-x="2185" 
d="M1071 1407l-31 -29l-262 170l-262 -170l-31 29l293 317zM1835 614q0 133 -41 254t-141 209q-99 88 -229 88t-212 -53q115 -92 182 -221q66 -129 66 -277t-66 -278q-66 -131 -182 -219q82 -53 211 -53t229 88t142 208q41 120 41 254zM725 615q0 145 67 277t181 220
q-84 53 -212 53q-129 0 -229 -88q-182 -160 -182 -463t182 -462q100 -88 228 -88t213 53q-115 92 -181 222q-67 130 -67 276zM1409 1264q281 0 481 -190t201 -460q0 -268 -201 -458t-481 -191q-160 0 -317 74q-152 -74 -316 -74q-282 1 -482 191t-200 458t201 458t481 192
q162 0 316 -74q154 74 317 74zM981 614q0 -227 111 -385q113 158 112 385q1 227 -112 385q-111 -158 -111 -385z" />
    <glyph glyph-name="Ograve_O" unicode="&#xf2fd;" horiz-adv-x="2185" 
d="M566 1690q44 0 108 -62l250 -231l-15 -19l-366 154q-23 10 -42 32t-19 50t20 52t64 24zM1835 614q0 133 -41 254t-141 209q-99 88 -229 88t-212 -53q115 -92 182 -221q66 -129 66 -277t-66 -278q-66 -131 -182 -219q82 -53 211 -53t229 88t142 208q41 120 41 254z
M725 615q0 145 67 277t181 220q-84 53 -212 53q-129 0 -229 -88q-182 -160 -182 -463t182 -462q100 -88 228 -88t213 53q-115 92 -181 222q-67 130 -67 276zM1409 1264q281 0 481 -190t201 -460q0 -268 -201 -458t-481 -191q-160 0 -317 74q-152 -74 -316 -74
q-282 1 -482 191t-200 458t201 458t481 192q162 0 316 -74q154 74 317 74zM981 614q0 -227 111 -385q113 158 112 385q1 227 -112 385q-111 -158 -111 -385z" />
    <glyph glyph-name="Otilde_O" unicode="&#xf2fe;" horiz-adv-x="2185" 
d="M940 1497q80 0 107 117h38q0 -114 -45 -180t-122 -66q-47 0 -159 68t-145 68q-34 0 -62 -34q-28 -33 -42 -79h-37q0 104 46 173q47 68 105 68t166 -68t150 -67zM1835 614q0 133 -41 254t-141 209q-99 88 -229 88t-212 -53q115 -92 182 -221q66 -129 66 -277t-66 -278
q-66 -131 -182 -219q82 -53 211 -53t229 88t142 208q41 120 41 254zM725 615q0 145 67 277t181 220q-84 53 -212 53q-129 0 -229 -88q-182 -160 -182 -463t182 -462q100 -88 228 -88t213 53q-115 92 -181 222q-67 130 -67 276zM1409 1264q281 0 481 -190t201 -460
q0 -268 -201 -458t-481 -191q-160 0 -317 74q-152 -74 -316 -74q-282 1 -482 191t-200 458t201 458t481 192q162 0 316 -74q154 74 317 74zM981 614q0 -227 111 -385q113 158 112 385q1 227 -112 385q-111 -158 -111 -385z" />
    <glyph glyph-name="Odieresis_O" unicode="&#xf2ff;" horiz-adv-x="2185" 
d="M578 1589q44 -1 74 -31t30 -73t-31 -74t-73 -31t-74 31q-31 31 -31 74t31 73t74 31zM985 1589q43 -1 74 -31t31 -73t-31 -74t-74 -31t-74 31t-30 74q0 43 30 74q31 30 74 30zM1835 614q0 133 -41 254t-141 209q-99 88 -229 88t-212 -53q115 -92 182 -221q66 -129 66 -277
t-66 -278q-66 -131 -182 -219q82 -53 211 -53t229 88t142 208q41 120 41 254zM725 615q0 145 67 277t181 220q-84 53 -212 53q-129 0 -229 -88q-182 -160 -182 -463t182 -462q100 -88 228 -88t213 53q-115 92 -181 222q-67 130 -67 276zM1409 1264q281 0 481 -190t201 -460
q0 -268 -201 -458t-481 -191q-160 0 -317 74q-152 -74 -316 -74q-282 1 -482 191t-200 458t201 458t481 192q162 0 316 -74q154 74 317 74zM981 614q0 -227 111 -385q113 158 112 385q1 227 -112 385q-111 -158 -111 -385z" />
    <glyph glyph-name="O_Oacute" unicode="&#xf300;" horiz-adv-x="2185" 
d="M1690 1613q0 -27 -20 -49t-42 -32l-366 -154l-13 19l248 231q68 62 110 62q43 0 63 -24t20 -53zM1835 614q0 133 -41 254t-141 209q-99 88 -229 88t-212 -53q115 -92 182 -221q66 -129 66 -277t-66 -278q-66 -131 -182 -219q82 -53 211 -53t229 88t142 208q41 120 41 254
zM725 615q0 145 67 277t181 220q-84 53 -212 53q-129 0 -229 -88q-182 -160 -182 -463t182 -462q100 -88 228 -88t213 53q-115 92 -181 222q-67 130 -67 276zM1409 1264q281 0 481 -190t201 -460q0 -268 -201 -458t-481 -191q-160 0 -317 74q-152 -74 -316 -74
q-282 1 -482 191t-200 458t201 458t481 192q162 0 316 -74q154 74 317 74zM981 614q0 -227 111 -385q113 158 112 385q1 227 -112 385q-111 -158 -111 -385z" />
    <glyph glyph-name="O_Ocircumflex" unicode="&#xf301;" horiz-adv-x="2185" 
d="M1704 1407l-31 -29l-264 170l-262 -170l-31 29l293 317zM1835 614q0 133 -41 254t-141 209q-99 88 -229 88t-212 -53q115 -92 182 -221q66 -129 66 -277t-66 -278q-66 -131 -182 -219q82 -53 211 -53t229 88t142 208q41 120 41 254zM725 615q0 145 67 277t181 220
q-84 53 -212 53q-129 0 -229 -88q-182 -160 -182 -463t182 -462q100 -88 228 -88t213 53q-115 92 -181 222q-67 130 -67 276zM1409 1264q281 0 481 -190t201 -460q0 -268 -201 -458t-481 -191q-160 0 -317 74q-152 -74 -316 -74q-282 1 -482 191t-200 458t201 458t481 192
q162 0 316 -74q154 74 317 74zM981 614q0 -227 111 -385q113 158 112 385q1 227 -112 385q-111 -158 -111 -385z" />
    <glyph glyph-name="O_Ograve" unicode="&#xf302;" horiz-adv-x="2185" 
d="M1196 1690q43 0 111 -62l247 -231l-12 -19l-368 154q-61 29 -62 82q0 28 20 52t64 24zM1835 614q0 133 -41 254t-141 209q-99 88 -229 88t-212 -53q115 -92 182 -221q66 -129 66 -277t-66 -278q-66 -131 -182 -219q82 -53 211 -53t229 88t142 208q41 120 41 254zM725 615
q0 145 67 277t181 220q-84 53 -212 53q-129 0 -229 -88q-182 -160 -182 -463t182 -462q100 -88 228 -88t213 53q-115 92 -181 222q-67 130 -67 276zM1409 1264q281 0 481 -190t201 -460q0 -268 -201 -458t-481 -191q-160 0 -317 74q-152 -74 -316 -74q-282 1 -482 191
t-200 458t201 458t481 192q162 0 316 -74q154 74 317 74zM981 614q0 -227 111 -385q113 158 112 385q1 227 -112 385q-111 -158 -111 -385z" />
    </font>
</defs>
</svg>
