<?xml version="1.0" standalone="no"?>
<!DOCTYPE svg PUBLIC "-//W3C//DTD SVG 1.1//EN" "http://www.w3.org/Graphics/SVG/1.1/DTD/svg11.dtd" >
<svg xmlns="http://www.w3.org/2000/svg">
<metadata>
Created by FontPrep 20130207 at Sun Dec 14 23:14:41 2014
 By caleb
Copyright (C) 1996 Emigre Graphics, Designed by Zuzana Licko
</metadata>
<defs>
<font id="bfc5dafd5caeff16167ee3d6680c8fb2" horiz-adv-x='1024' >
  <font-face 
    font-family="MrsEavesBold"
    font-weight="5"
    font-stretch="normal"
    units-per-em="2048"
    panose-1="0 0 0 0 0 0 0 0 0 0"
    ascent="1638"
    descent="-410"
    x-height="682"
    cap-height="1229"
    bbox="-227 -616 2232 1790"
    underline-thickness="51"
    underline-position="-152"
    unicode-range="U+0020-F002"
  />
<missing-glyph horiz-adv-x="1449" 
d="M1270 90v1270h-1090v-1270h1090zM90 0v1450h1270v-1450h-1270z" />
    <glyph glyph-name=".notdef" horiz-adv-x="1449" 
d="M1270 90v1270h-1090v-1270h1090zM90 0v1450h1270v-1450h-1270z" />
    <glyph glyph-name=".null" horiz-adv-x="0" 
 />
    <glyph glyph-name="nonmarkingreturn" horiz-adv-x="477" 
 />
    <glyph glyph-name="space" unicode=" " horiz-adv-x="477" 
 />
    <glyph glyph-name="exclam" unicode="!" horiz-adv-x="673" 
d="M338 -16q-49 0 -82 34.5t-33 82.5t33 83t82 35t84 -34.5t35 -82.5t-35 -83t-84 -35zM337.5 1264q65.5 0 113 -48t47.5 -118t-62.5 -231.5t-62.5 -471.5h-70q0 244 -39 398.5t-80 312.5q0 66 44 112t109.5 46z" />
    <glyph glyph-name="quotedbl" unicode="&#x22;" horiz-adv-x="876" 
d="M624.5 1264q55.5 0 97.5 -42t42 -98q-45 -113 -80 -234.5t-35 -266.5h-49q0 152 -33 272q-39 115 -75 229q0 57 38.5 98.5t94 41.5zM250 1264q55 0 96 -41t41 -99q-45 -113 -80 -234.5t-35 -266.5h-47q0 152 -32 272q-39 115 -76 229q0 57 39 98.5t94 41.5z" />
    <glyph glyph-name="numbersign" unicode="#" horiz-adv-x="890" 
d="M520 662l33 192h-182l-33 -192h182zM780 662l-26 -144h-144l-37 -233h-116l41 233h-185l-39 -233h-114l39 233h-144l25 144h141l33 192h-141l26 141h142l38 234h117l-41 -234h185l38 234h115l-39 -234h144l-25 -141h-143l-33 -192h143z" />
    <glyph glyph-name="dollar" unicode="$" horiz-adv-x="1019" 
d="M301 973q0 -57 28.5 -97t96.5 -81v327q-53 -12 -89 -52t-36 -97zM692 270q0 129 -160 224v-394q72 10 116 54t44 116zM735 924q-35 0 -87 86t-116 106v-379l144 -73q102 -53 156.5 -133t54.5 -164q0 -154 -102.5 -252.5t-252.5 -98.5v-186h-106v190q-147 20 -244.5 100.5
t-97.5 149.5q0 39 24.5 50.5t41.5 11.5q33 0 101 -101.5t175 -124.5v443l-98 51q-94 47 -158 130t-64 197t91.5 198.5t228.5 84.5v189h106v-193q129 -16 205 -79t76 -123t-55 -76q-16 -4 -23 -4z" />
    <glyph glyph-name="percent" unicode="%" horiz-adv-x="1562" 
d="M1136 477q-64 0 -99.5 -65.5t-35.5 -149.5t35 -149.5t100.5 -65.5t100.5 65.5t35 148.5t-36 149.5t-100 66.5zM1136.5 -33q-139.5 0 -237.5 86t-98 208t98 208t237.5 86t238 -86t98.5 -208t-98.5 -208t-238 -86zM446 -37l-81 43l757 1264l80 -45zM426 1184
q-66 0 -100.5 -65.5t-34.5 -148.5t35.5 -149.5t99 -66.5t98.5 65.5t35 150.5t-33.5 149.5t-99.5 64.5zM426 676q-139 0 -238.5 86t-99.5 208t98.5 208t238.5 86t238.5 -86t98.5 -208t-98.5 -208t-237.5 -86z" />
    <glyph glyph-name="ampersand" unicode="&#x26;" horiz-adv-x="1345" 
d="M94 324q0 104 63.5 180t176.5 147q-119 173 -119 311t108.5 220t256.5 82t243 -62.5t95 -183.5t-131.5 -205t-223.5 -141q47 -70 143.5 -177.5t174.5 -193.5q49 110 49 163q0 52 -41 72.5t-139 20.5v59h479v-59q-106 0 -149.5 -39t-78 -139t-57.5 -148q106 -113 199 -112
q61 0 133 71l41 -38q-63 -92 -123.5 -139.5t-146.5 -47.5t-218 113q-125 -113 -308 -113t-305 94.5t-122 264.5zM344 318q0 -115 68.5 -186t168.5 -71t185 76q-282 308 -350 398q-72 -102 -72 -217zM719 1016q0 74 -36 112.5t-95 38.5t-99 -51t-40 -118q0 -131 61 -244
q102 63 155.5 125.5t53.5 136.5z" />
    <glyph glyph-name="quotesingle" unicode="'" horiz-adv-x="501" 
d="M250 1264q55 0 96 -41t41 -99q-45 -113 -80 -234.5t-35 -266.5h-47q0 152 -32 272q-39 115 -76 229q0 57 39 98.5t94 41.5z" />
    <glyph glyph-name="parenleft" unicode="(" horiz-adv-x="733" 
d="M365 603q0 -421 319 -779l-53 -51q-223 184 -358.5 386.5t-135.5 444.5t131 442.5t361 389.5l55 -52q-319 -360 -319 -781z" />
    <glyph glyph-name="parenright" unicode=")" horiz-adv-x="733" 
d="M371 604q0 256 -95.5 444.5t-226.5 335.5l57 52q223 -184 357.5 -388t134.5 -443.5t-134.5 -443.5t-359.5 -388l-55 51q78 86 146.5 191.5t122 259t53.5 329.5z" />
    <glyph glyph-name="asterisk" unicode="*" horiz-adv-x="870" 
d="M90 1020q0 27 22.5 66.5t88.5 39.5q31 0 51 -12t67.5 -79.5t86.5 -102.5q-12 61 -45 127.5t-33 101.5t31.5 69t76.5 34t78 -33t33 -72t-35 -104.5t-45 -118.5q37 31 83 95.5t68.5 77.5t71.5 13t69.5 -37.5t20.5 -66.5q0 -70 -36.5 -90.5t-112.5 -24.5t-133 -24
q49 -16 123.5 -21.5t116.5 -30t42 -90.5q0 -27 -22.5 -65.5t-87.5 -38.5q-31 0 -51.5 12t-65.5 77.5t-86 100.5q10 -57 43 -122.5t33 -101.5t-32 -69.5t-77 -33.5t-77.5 32.5t-32.5 68.5t34.5 100.5t47.5 125.5q-37 -31 -84.5 -95t-70.5 -77.5t-71 -13.5t-69 38t-21 66
q0 68 37 88.5t109.5 24.5t134.5 25q-53 18 -127 23.5t-99 19.5q-55 33 -55 98z" />
    <glyph glyph-name="plus" unicode="+" 
d="M836 532v-157h-287v-289h-160v289h-287v157h287v287h160v-287h287z" />
    <glyph glyph-name="comma" unicode="," horiz-adv-x="641" 
d="M303 -16q-53 0 -90 38.5t-37 92t37 92.5t93 39t101.5 -43t45.5 -128t-60.5 -187.5t-171.5 -172.5l-41 41q118 122 133 228h-10z" />
    <glyph glyph-name="hyphen" unicode="-" 
d="M170 340v158h598v-158h-598z" />
    <glyph glyph-name="period" unicode="." horiz-adv-x="641" 
d="M304 -16q-54 0 -91 38.5t-37 92t37 92.5t90 39t93 -38t40 -92t-39 -93t-93 -39z" />
    <glyph glyph-name="slash" unicode="/" horiz-adv-x="712" 
d="M129 -37l-100 35l555 1272l100 -39z" />
    <glyph glyph-name="zero" unicode="0" horiz-adv-x="1212" 
d="M311 443q0 -128 86 -216t208 -88t209 89t87 216t-87 216.5t-208 89.5t-208 -89.5t-87 -217.5zM1083 444.5q0 -196.5 -139 -338t-337 -141.5t-338 140.5t-140 338.5t140.5 338t337 140t336.5 -140.5t140 -337z" />
    <glyph glyph-name="one" unicode="1" horiz-adv-x="827" 
d="M102 0v59q127 0 162 43t35 197v291q0 154 -34 195.5t-163 41.5v60h623v-60q-127 0 -162 -42t-35 -195v-291q0 -156 34 -198t163 -42v-59h-623z" />
    <glyph glyph-name="two" unicode="2" horiz-adv-x="1132" 
d="M129 651q0 108 104.5 189.5t290.5 81.5t305 -78t119 -188t-66.5 -184.5t-168.5 -137.5l-240 -146h485l-51 -350h-43q0 102 -44 132t-195 30h-473v49l385 316q72 59 105.5 117.5t33.5 141.5t-49 138t-131 55t-134.5 -43.5t-52.5 -109.5t39 -136l-96 -63q-123 78 -123 186z
" />
    <glyph glyph-name="three" unicode="3" horiz-adv-x="1075" 
d="M125 653q0 110 100.5 189.5t272.5 79.5t294.5 -74t122.5 -201q0 -98 -64.5 -174t-152.5 -127l-100 -57q152 -20 252 -115.5t100 -214.5q0 -156 -129 -249t-303 -93t-280.5 78t-106.5 155q0 54 49 62t126 -96.5t188 -104.5q84 0 129 68.5t45 174.5t-32 172.5t-108 109.5
q-16 -12 -53 -53t-55 -41t-33 13q-16 13 -16 30t12 32.5t43 46.5l113 119q106 105 106 251q0 72 -45 127.5t-118 55.5t-121 -46.5t-48 -112.5t35 -130l-96 -63q-127 78 -127 188z" />
    <glyph glyph-name="four" unicode="4" horiz-adv-x="1157" 
d="M504 178v416l-293 -416h293zM733 178q135 0 177 32t67 124l10 41h60l-17 -289h-297v-135q0 -156 34 -198t163 -42v-59h-623v59q127 0 162 43t35 197v135h-430v55l606 867h53v-830z" />
    <glyph glyph-name="five" unicode="5" horiz-adv-x="1026" 
d="M485 471q176 0 294 -124t118 -303t-122 -303t-308 -124q-145 0 -239.5 79t-94.5 157q0 59 57 59q45 0 94.5 -100.5t166.5 -100.5q80 0 135 95.5t55 240.5t-53 233.5t-132 88.5t-122 -36t-80 -149h-92l63 703h365q133 0 173 30.5t62 124.5h47l-49 -385h-520l-31 -276
q27 37 88.5 63.5t124.5 26.5z" />
    <glyph glyph-name="six" unicode="6" horiz-adv-x="1091" 
d="M543 733q172 0 301 -112.5t129 -271.5t-121 -271.5t-286 -112.5t-301 130.5t-136 432.5t131 522t356 220q123 0 212.5 -55.5t89.5 -114.5q0 -29 -22 -43.5t-38 -14.5t-83.5 72t-156.5 72q-131 0 -191 -145.5t-60 -360.5q65 53 176 53zM543 635q-135 0 -176 -66
q0 -291 56 -397t136 -106q160 0 160 286q0 143 -46 213t-130 70z" />
    <glyph glyph-name="seven" unicode="7" horiz-adv-x="980" 
d="M352 -385q-49 0 -72.5 25.5t-23.5 61.5t18 73l449 899h-307q-133 0 -174 -32t-64 -124l-10 -41h-43l86 590h41q0 -102 44 -132t196 -30h399v-57l-457 -1151q-33 -82 -82 -82z" />
    <glyph glyph-name="eight" unicode="8" horiz-adv-x="1116" 
d="M989 324q0 -152 -128 -255.5t-302 -103.5t-302 101.5t-128 246.5t86 210t201 132q-109 88 -167.5 161t-58.5 153q0 125 108 210t250 85t251.5 -79t109.5 -179t-55 -161t-166 -130q150 -113 225.5 -197.5t75.5 -193.5zM344 298q0 -95 57.5 -166t151.5 -71t147.5 59.5
t53.5 142.5t-62.5 154.5t-189.5 172.5q-76 -61 -117 -129t-41 -163zM711 1016q0 70 -45.5 110.5t-105.5 40.5t-98 -40.5t-38 -98.5t43 -115t131 -129q113 113 113 232z" />
    <glyph glyph-name="nine" unicode="9" horiz-adv-x="1091" 
d="M549 252q131 0 176 67q0 291 -56.5 397.5t-136.5 106.5q-157 0 -157 -286q0 -141 46 -213t128 -72zM119 538.5q0 157.5 120.5 270.5t286.5 113t302.5 -131.5t136.5 -431.5t-131.5 -521t-356.5 -221q-123 0 -213 56.5t-90 113.5q0 29 27 47q20 10 35 10t83 -71.5
t156 -71.5q129 0 189.5 146.5t60.5 361.5q-66 -55 -176 -55q-170 0 -300 113.5t-130 271z" />
    <glyph glyph-name="colon" unicode=":" horiz-adv-x="641" 
d="M347 371q-48 0 -82 33.5t-34 83t33 84t82 34.5t84 -35t35 -83t-35 -82.5t-83 -34.5zM347 -16q-48 0 -82 33.5t-34 83t33 84t82 34.5t84 -34.5t35 -82.5t-35 -83t-83 -35z" />
    <glyph glyph-name="semicolon" unicode=";" horiz-adv-x="641" 
d="M347 371q-48 0 -82 33.5t-34 83t33 84t82 34.5t84 -35t35 -83t-35 -82.5t-83 -34.5zM344 -20q-47 0 -80 34.5t-33 83.5t33 84t83 35t91 -39.5t41 -115.5t-54 -168.5t-153 -155.5l-36 37q103 107 118 205h-10z" />
    <glyph glyph-name="less" unicode="&#x3c;" horiz-adv-x="1024" 
d="M846 102l-692 447l692 444l31 -45l-359 -399l359 -399z" />
    <glyph glyph-name="equal" unicode="=" 
d="M170 221v160h598v-160h-598zM170 512v160h598v-160h-598z" />
    <glyph glyph-name="greater" unicode="&#x3e;" horiz-adv-x="1024" 
d="M180 102l-33 48l359 399l-359 399l33 45l690 -444z" />
    <glyph glyph-name="question" unicode="?" horiz-adv-x="1050" 
d="M454 -16q-50 0 -83 34.5t-33 82.5t33 83t81 35t82.5 -34.5t34.5 -82.5t-32.5 -83t-82.5 -35zM311 1090q0 -48 53.5 -48t80 -24.5t26.5 -68.5t-42.5 -71.5t-98.5 -27.5t-111 43t-55 141t106.5 164t227.5 66q207 0 332.5 -115t125.5 -250q0 -184 -128 -294.5t-330 -135.5
v-111h-92v357q176 0 286.5 64.5t110.5 178.5q0 88 -86 156t-219 68q-84 0 -135.5 -31t-51.5 -61z" />
    <glyph glyph-name="at" unicode="@" horiz-adv-x="1449" 
d="M815 905q-76 0 -132 -90t-72.5 -184t-16.5 -144q0 -163 98 -163q47 0 92 48t60 115l65 383q-39 35 -94 35zM987 223q-47 0 -84 23.5t-57 58.5q-39 -39 -90 -63.5t-97 -24.5q-113 0 -176 82t-63 213v28q0 27 18.5 128.5t133 214t247.5 112.5q43 0 63.5 -3t69.5 -29h138
l-99 -547q-6 -25 -6 -43q0 -47 45 -47q82 0 164 116t82 302t-130 302.5t-315 116.5q-240 0 -405.5 -178t-165.5 -417t139.5 -388t360.5 -149q119 0 219 34.5t211 104.5l39 -57q-115 -86 -243 -132.5t-243 -46.5q-279 0 -472 182t-193 462t213 493t512 213
q250 0 413.5 -151.5t163.5 -395.5q0 -207 -126 -360.5t-267 -153.5z" />
    <glyph glyph-name="A" unicode="A" horiz-adv-x="1280" 
d="M551 877l-162 -375h326zM244 139q0 -80 174 -80v-59h-496v59q106 0 154.5 34t97.5 147l444 1024h44l446 -1024q37 -82 75 -131.5t175 -49.5v-59h-672v59q98 0 137 17.5t39 53.5t-22 85l-86 195h-406l-84 -195q-20 -51 -20 -76z" />
    <glyph glyph-name="B" unicode="B" horiz-adv-x="1345" 
d="M1245 344q0 -147 -112.5 -245.5t-301.5 -98.5h-753v59q125 0 159.5 43t34.5 197v631q0 156 -33.5 197.5t-160.5 41.5v60h696q164 0 266.5 -88t102.5 -219q0 -80 -40 -146.5t-112 -107.5q117 -37 185.5 -125t68.5 -199zM528 696h115q111 0 168 61.5t57 158t-56 159
t-169 62.5h-115v-441zM971 346q0 113 -66.5 185.5t-193.5 72.5h-183v-285q0 -147 33 -186t156 -40t188.5 69.5t65.5 183.5z" />
    <glyph glyph-name="C" unicode="C" horiz-adv-x="1417" 
d="M1266 1206v-450h-60q-41 197 -153.5 303t-270.5 106q-190 0 -275 -162.5t-85 -388.5t84 -388.5t276 -162.5q154 0 268.5 109t155.5 301h60v-450h-58q-12 49 -22 75.5t-31 40.5q-78 -82 -177 -128t-204 -46q-260 0 -444.5 190.5t-184.5 459t184.5 459t444.5 190.5
q215 0 381 -174q35 26 53 116h58z" />
    <glyph glyph-name="D" unicode="D" horiz-adv-x="1460" 
d="M528 324q0 -152 34 -192t163 -40h20q223 0 311.5 152.5t88.5 370.5t-87 370t-313 152h-217v-813zM78 59q125 0 159.5 43t34.5 197v631q0 156 -33.5 197.5t-160.5 41.5v60h676q338 0 510 -171.5t172 -443.5t-170 -443t-512 -171h-676v59z" />
    <glyph glyph-name="E" unicode="E" horiz-adv-x="1312" 
d="M78 59q125 0 159.5 43t34.5 197v631q0 156 -33.5 197.5t-160.5 41.5v60h1055l16 -289h-59l-11 41q-25 92 -64.5 124t-172.5 32h-314v-441h113q154 0 196 34t42 163h59v-485h-59q0 129 -42 162.5t-196 33.5h-113v-272q0 -156 34 -198t163 -42h184q131 0 173 33t65 123
l10 41h60l-17 -289h-1122v59z" />
    <glyph glyph-name="F" unicode="F" horiz-adv-x="1216" 
d="M528 696h113q154 0 196 34t42 163h59v-485h-59q0 129 -42 162.5t-196 33.5h-113v-305q0 -156 34 -198t163 -42v-59h-647v59q125 0 159.5 43t34.5 197v631q0 156 -33.5 197.5t-160.5 41.5v60h1087l19 -289h-62l-10 41q-23 92 -63.5 124t-171.5 32h-349v-441z" />
    <glyph glyph-name="G" unicode="G" horiz-adv-x="1484" 
d="M1266 1206v-450h-60q-41 197 -153.5 303t-270.5 106q-190 0 -275 -162.5t-85 -388.5t84 -388.5t276 -162.5q133 0 220.5 60.5t87.5 193.5q0 68 -44.5 100t-148.5 32v59h604v-59q-127 0 -160.5 -42t-33.5 -196v-139q-117 0 -282 -53.5t-251 -53.5q-260 0 -444.5 190.5
t-184.5 459t184.5 459t444.5 190.5q215 0 381 -174q35 26 53 116h58z" />
    <glyph glyph-name="H" unicode="H" horiz-adv-x="1685" 
d="M528 299q0 -156 34 -198t163 -42v-59h-647v59q125 0 159.5 43t34.5 197v631q0 156 -33.5 197.5t-160.5 41.5v60h647v-60q-127 0 -162 -43t-35 -196v-232h629v232q0 156 -33.5 197.5t-162.5 41.5v60h649v-60q-127 0 -162 -43t-35 -196v-631q0 -156 34 -198t163 -42v-59
h-649v59q127 0 161.5 43t34.5 197v307h-629v-307z" />
    <glyph glyph-name="I" unicode="I" horiz-adv-x="802" 
d="M78 0v59q125 0 159.5 43t34.5 197v631q0 156 -33.5 197.5t-160.5 41.5v60h647v-60q-127 0 -162 -43t-35 -196v-631q0 -156 34 -198t163 -42v-59h-647z" />
    <glyph glyph-name="J" unicode="J" horiz-adv-x="784" 
d="M104 -365q168 0 168 256v1039q0 156 -33.5 197.5t-160.5 41.5v60h647v-60q-127 0 -162 -43t-35 -196v-938q0 -219 -116.5 -334t-300.5 -115q-135 0 -233.5 72t-98.5 180q0 37 22.5 61.5t60.5 24.5t61.5 -25.5t23.5 -74.5t39 -97.5t118 -48.5z" />
    <glyph glyph-name="K" unicode="K" horiz-adv-x="1613" 
d="M1624 59v-59h-680v59q115 0 115 52q0 29 -39 69l-404 438l-88 -71v-248q0 -156 34 -198t163 -42v-59h-647v59q125 0 159.5 43t34.5 197v631q0 156 -33.5 197.5t-160.5 41.5v60h647v-60q-127 0 -162 -43t-35 -196v-275l430 346q45 37 70 72t25 53q0 43 -86 43v60h493v-60
q-137 0 -209.5 -46t-167.5 -122l-290 -233l567 -588q49 -51 132 -86t132 -35z" />
    <glyph glyph-name="L" unicode="L" horiz-adv-x="1296" 
d="M78 1169v60h647v-60q-127 0 -162 -43t-35 -196v-598q0 -156 34 -198t163 -42h236q131 0 173 33t64 123l10 41h60l-17 -289h-1173v59q125 0 159.5 43t34.5 197v631q0 156 -33.5 197.5t-160.5 41.5z" />
    <glyph glyph-name="M" unicode="M" horiz-adv-x="1740" 
d="M365 299q0 -156 33.5 -198t162.5 -42v-59h-483v59q125 0 159.5 43t34.5 197v631q0 156 -33.5 197.5t-160.5 41.5v60h409l396 -887l383 887h399v-60q-127 0 -162 -43t-35 -196v-631q0 -156 34 -198t163 -42v-59h-639v59q127 0 162 43t35 197v592l-402 -926h-45l-411 924
v-590z" />
    <glyph glyph-name="N" unicode="N" horiz-adv-x="1533" 
d="M1171 930q0 156 -33.5 197.5t-162.5 41.5v60h485v-60q-127 0 -161.5 -43t-34.5 -196v-965h-52l-847 1012v-678q0 -156 33.5 -198t162.5 -42v-59h-483v59q125 0 159.5 43t34.5 197v631q0 156 -33.5 197.5t-160.5 41.5v60h409l684 -815v516z" />
    <glyph glyph-name="O" unicode="O" horiz-adv-x="1654" 
d="M828 1165q-200 0 -304 -169t-104 -383t103.5 -382t304 -168t304 168t103.5 383t-103.5 383t-303.5 168zM828 -35q-282 0 -482.5 190.5t-200.5 459t200.5 459t482.5 190.5t482.5 -190.5t200.5 -459t-200.5 -459t-482.5 -190.5z" />
    <glyph glyph-name="P" unicode="P" horiz-adv-x="1224" 
d="M903 884q0 110 -67.5 181.5t-194.5 71.5h-113v-506h113q127 0 194.5 71.5t67.5 181.5zM1178 882.5q0 -147.5 -113 -245.5t-301 -98h-236v-240q0 -156 34 -198t163 -42v-59h-647v59q125 0 159.5 43t34.5 197v631q0 156 -33.5 197.5t-160.5 41.5v60h686q186 0 300 -99.5
t114 -247z" />
    <glyph glyph-name="Q" unicode="Q" horiz-adv-x="1654" 
d="M420 613q0 -214 103.5 -382t304 -168t304 168t103.5 383t-103.5 383t-303.5 168t-304 -169t-104 -383zM1419 -332q231 0 338 174l49 -20q-55 -160 -149 -272.5t-277 -112.5q-145 0 -219 52t-222 183t-226 131q-117 0 -174.5 -67.5t-71.5 -69.5q-29 -4 -49.5 14.5
t-20.5 59.5t94.5 117.5t225.5 115.5q-252 43 -412 222t-160 433t200.5 445t482.5 191t482.5 -190t200.5 -452t-177 -443t-337.5 -198.5t-241.5 -50t-137 -80.5q80 20 154 21q127 0 355.5 -101.5t291.5 -101.5z" />
    <glyph glyph-name="R" unicode="R" horiz-adv-x="1388" 
d="M903 884q0 110 -67.5 181.5t-194.5 71.5h-113v-506h113q127 0 194.5 71.5t67.5 181.5zM1397 0h-445l-364 539h-60v-240q0 -156 34 -198t163 -42v-59h-647v59q125 0 159.5 43t34.5 197v631q0 156 -33.5 197.5t-160.5 41.5v60h686q186 0 300 -99.5t114 -241.5t-98.5 -238.5
t-264.5 -110.5l199 -217q133 -147 209.5 -198.5t173.5 -64.5v-59z" />
    <glyph glyph-name="S" unicode="S" horiz-adv-x="1019" 
d="M100 -35v451h60q31 -162 139.5 -260.5t239.5 -98.5q94 0 149 51.5t55 151.5q0 57 -39.5 113.5t-111.5 93.5l-197 102q-141 72 -208.5 158t-67.5 221t102.5 225.5t253.5 90.5q84 0 138.5 -21.5t111.5 -62.5q45 35 59 94h58v-451h-60q-12 147 -80.5 249t-214.5 102
q-68 0 -116.5 -45.5t-48.5 -108.5t42 -120.5t121 -98.5l197 -101q119 -61 191.5 -153t72.5 -209q0 -162 -122 -267.5t-285 -105.5q-92 0 -204 48t-116 48q-48 -38 -59 -96h-60z" />
    <glyph glyph-name="T" unicode="T" horiz-adv-x="1314" 
d="M989 1137h-205v-838q0 -156 34 -198t163 -42v-59h-647v59q125 0 159.5 43t34.5 197v838h-204q-131 0 -172 -32t-64 -124l-10 -41h-62l19 289h1245l16 -289h-59l-10 41q-23 92 -64 124t-174 32z" />
    <glyph glyph-name="U" unicode="U" horiz-adv-x="1501" 
d="M938 1169v60h502v-60q-125 0 -160 -43t-35 -196v-473q0 -231 -140 -361.5t-353 -130.5t-352.5 129t-139.5 363v473q0 156 -33.5 197.5t-163.5 41.5v60h650v-60q-127 0 -162 -43t-35 -196v-451q0 -190 88 -288.5t228 -98.5t221.5 97.5t81.5 289.5v451q0 156 -34 197.5
t-163 41.5z" />
    <glyph glyph-name="V" unicode="V" horiz-adv-x="1280" 
d="M-78 1169v60h672v-60q-98 0 -137 -17t-39 -53t22 -85l287 -666l289 666q20 51 20 76q0 80 -174 79v60h496v-60q-106 0 -154.5 -33.5t-97.5 -146.5l-444 -1024h-44l-446 1024q-47 109 -91 144.5t-159 35.5z" />
    <glyph glyph-name="W" unicode="W" horiz-adv-x="1560" 
d="M559 1169q-176 1 -176 -73q0 -38 16 -82l187 -576l250 791h47l258 -793l186 578q12 42 12 78q0 78 -155 77v60h479v-60q-125 0 -167 -34.5t-77 -145.5l-332 -1024h-45l-258 793l-252 -793h-45l-329 1024q-37 113 -79 146.5t-167 33.5v60h647v-60z" />
    <glyph glyph-name="X" unicode="X" horiz-adv-x="1257" 
d="M1321 59v-59h-686v59q78 0 112.5 14.5t34.5 48.5t-37 93l-178 285l-233 -285q-45 -57 -45 -92q0 -63 155 -64v-59h-503v59q88 0 153.5 43t141.5 138l278 342l-254 407q-63 98 -125.5 139t-161.5 41v60h684v-60q-145 0 -145 -65q0 -33 35 -90l137 -219l180 219
q45 57 45 92q0 63 -155 63v60h503v-60q-100 0 -154 -36.5t-140 -143.5l-228 -276l297 -473q68 -104 127.5 -142.5t161.5 -38.5z" />
    <glyph glyph-name="Y" unicode="Y" horiz-adv-x="1296" 
d="M774 299q0 -156 34 -198t161 -42v-59h-639v59q127 0 161.5 43t34.5 197v242l-297 448q-72 109 -130 144.5t-167 35.5v60h695v-60q-145 0 -146 -67q0 -35 37 -88l230 -346l229 346q41 59 41 94q0 61 -152 61v60h496v-60q-121 0 -172 -34.5t-123 -145.5l-293 -442v-248z
" />
    <glyph glyph-name="Z" unicode="Z" horiz-adv-x="1212" 
d="M401 1153q-131 0 -173 -33t-64 -121l-10 -41h-43l18 271h907v-45l-641 -1108h396q131 0 172 31.5t65 123.5l10 41h43l-18 -272h-975v49l635 1104h-322z" />
    <glyph glyph-name="bracketleft" unicode="[" horiz-adv-x="768" 
d="M240 -180v1569h448v-82h-213v-1405h213v-82h-448z" />
    <glyph glyph-name="backslash" unicode="\" horiz-adv-x="712" 
d="M686 -37l-756 1254l97 53l757 -1256z" />
    <glyph glyph-name="bracketright" unicode="]" horiz-adv-x="768" 
d="M80 -180v82h213v1405h-213v82h448v-1569h-448z" />
    <glyph glyph-name="asciicircum" unicode="^" horiz-adv-x="993" 
d="M895 573l-397 324l-400 -324l-47 33l447 658l444 -658z" />
    <glyph glyph-name="underscore" unicode="_" horiz-adv-x="733" 
d="M-2 -90v90h737v-90h-737z" />
    <glyph glyph-name="grave" unicode="`" horiz-adv-x="827" 
d="M111 1208.5q0 38.5 20.5 63t56.5 24.5t60 -16t55 -45l250 -231l-14 -19l-367 156q-61 29 -61 67.5z" />
    <glyph glyph-name="a" unicode="a" horiz-adv-x="919" 
d="M283 170q0 -43 23.5 -62.5t58.5 -19.5q66 0 170 92v174q-133 -35 -192.5 -72.5t-59.5 -111.5zM692 -23q-135 0 -157 119q-88 -70 -141.5 -96.5t-124.5 -26.5t-130 47.5t-59 124.5q0 123 118.5 190.5t336.5 100.5q0 113 -31.5 155t-87.5 42t-90.5 -21.5t-34.5 -60.5
t-22.5 -62.5t-59.5 -23.5q-80 0 -80 81t87.5 126t233.5 45t223 -66.5t77 -212.5v-276q0 -78 45 -78q14 0 32 10l27 15l29 -56q-101 -76 -191 -76z" />
    <glyph glyph-name="b" unicode="b" horiz-adv-x="1044" 
d="M581 -35q-158 0 -243 133l-107 -114h-61v929q0 154 -28.5 197t-133.5 43v59l393 52v-607q73 60 168 60q170 0 271.5 -107.5t101.5 -268.5t-101.5 -268.5t-259.5 -107.5zM548 621q-66 0 -106.5 -50.5t-40.5 -130.5v-198q0 -78 41 -129.5t106 -51.5t104.5 80t39.5 202
t-39 200t-105 78z" />
    <glyph glyph-name="c" unicode="c" horiz-adv-x="845" 
d="M498 635q-144 -1 -144 -297q0 -272 207 -272q98 0 207 94l37 -60q-126 -135 -302 -135q-175 0 -288 102.5t-113 267.5t111 273.5t268 108.5q121 0 191.5 -51.5t70.5 -104.5t-26.5 -74.5t-62.5 -21.5t-59.5 23.5t-23.5 63.5t-21.5 61.5t-51.5 21.5z" />
    <glyph glyph-name="d" unicode="d" horiz-adv-x="1060" 
d="M643 440q0 78 -41 129.5t-94 51.5q-76 0 -115 -77t-39 -201t39 -203t115 -79q53 0 94 51.5t41 129.5v198zM475 717q90 0 168 -60v256q0 154 -28.5 197t-133.5 43v59l393 52v-949q0 -154 29 -195.5t133 -41.5v-62l-358 -51q-2 4 -6 20.5t-13 53.5q-78 -74 -184 -74
q-168 0 -270.5 108.5t-102.5 268.5t101.5 267.5t271.5 107.5z" />
    <glyph glyph-name="e" unicode="e" horiz-adv-x="886" 
d="M803 440q0 -13 -8 -61h-447q0 -150 56.5 -227.5t144.5 -77.5q145 0 244 86l34 -60q-55 -59 -140 -97t-171 -38q-180 0 -297 109.5t-117 268.5t116 266.5t266 107.5t234.5 -84t84.5 -193zM635 469q0 149 -127 149q-111 0 -146 -149h273z" />
    <glyph glyph-name="f" unicode="f" horiz-adv-x="690" 
d="M752 999q-61 0 -96.5 90.5t-93.5 90.5t-81.5 -52.5t-23.5 -191.5v-254h205v-90h-205v-293q0 -154 28.5 -197t132.5 -43v-59h-555v59q102 0 132 44t30 196v293h-168v90h168v166q0 416 346 416q117 0 187.5 -56.5t70.5 -124.5q0 -35 -20 -59.5t-57 -24.5z" />
    <glyph glyph-name="g" unicode="g" horiz-adv-x="839" 
d="M797 -254q0 -131 -112.5 -212t-280.5 -81t-269.5 61.5t-101.5 153.5t135 158l39 -23q-66 -68 -66 -129t77.5 -97t177.5 -36t166.5 37.5t66.5 97.5t-61.5 91.5t-219.5 49t-219 66.5t-61 142q0 55 49 104t129 74q-70 31 -112 93t-42 142q0 115 90 197t214 82t214 -78
q25 31 70.5 54.5t99.5 23.5t91.5 -38t37.5 -81q0 -90 -69 -90q-12 0 -35 6t-38 56.5t-48 50.5t-66 -33q49 -60 49 -158t-78.5 -179t-203.5 -91q-189 0 -189 -68q1 -37 218 -57q178 -20 263 -103.5t85 -185.5zM512 438q0 195 -115 195q-55 0 -84.5 -54.5t-29.5 -141.5
t28.5 -140t86 -53t86 54t28.5 140z" />
    <glyph glyph-name="h" unicode="h" horiz-adv-x="1126" 
d="M656 717q143 0 221.5 -85t78.5 -220v-113q0 -154 29 -197t133 -43v-59h-473v59q43 0 61.5 47.5t18.5 192.5v86q0 111 -25.5 164t-97.5 53t-128 -53t-56 -150v-100q0 -154 28.5 -197t133.5 -43v-59h-553v59q102 0 131.5 44t29.5 196v614q0 154 -28.5 197t-132.5 43v59
l391 52v-658q95 111 238 111z" />
    <glyph glyph-name="i" unicode="i" horiz-adv-x="677" 
d="M357 928q-54 0 -91 39t-37 93t37 93t90.5 39t92 -39t38.5 -92t-38 -93t-92 -40zM80 0v59q102 0 132 44t30 196v68q0 154 -29 196.5t-133 42.5v60l393 51v-418q0 -154 28.5 -197t133.5 -43v-59h-555z" />
    <glyph glyph-name="j" unicode="j" horiz-adv-x="583" 
d="M306 928q-54 0 -91 39t-37 93t37 93t90 39t92 -39t39 -92t-38 -93t-92 -40zM104 -547q-152 0 -233.5 62.5t-81.5 132.5t70 69q51 0 83.5 -90t106.5 -90t107.5 67.5t33.5 252.5v510q0 154 -28.5 196.5t-132.5 42.5v60l393 51v-877q0 -201 -83 -294t-235 -93z" />
    <glyph glyph-name="k" unicode="k" horiz-adv-x="952" 
d="M610 569q0 53 -100 54v59h428v-59q-55 0 -99 -15.5t-98 -58.5l-155 -119l239 -289q68 -82 156 -82v-59h-289l-274 326v-43q0 -135 25.5 -179.5t103.5 -44.5v-59h-520v59q102 0 131.5 44t29.5 196v614q0 154 -28.5 197t-132.5 43v59l391 52v-858l155 110q37 29 37 53z" />
    <glyph glyph-name="l" unicode="l" horiz-adv-x="677" 
d="M80 0v59q102 0 132 44t30 196v614q0 154 -29 197t-133 43v59l393 52v-965q0 -154 28.5 -197t133.5 -43v-59h-555z" />
    <glyph glyph-name="m" unicode="m" horiz-adv-x="1712" 
d="M734 717q172 0 241 -152q111 152 282 152q135 0 210 -85t75 -220v-113q0 -154 28.5 -197t133.5 -43v-59h-473v59q43 0 61.5 47.5t18.5 192.5v86q0 109 -24.5 163t-93.5 54t-127 -53t-58 -150v-100q0 -154 28.5 -197t132.5 -43v-59h-473v59q43 0 61.5 47.5t18.5 192.5v86
q0 109 -25 163t-93 54t-126.5 -53t-58.5 -150v-100q0 -152 25.5 -196t111.5 -44v-59h-530v59q102 0 132 44t30 196v68q0 154 -29 196.5t-133 42.5v60l358 51q23 -43 29 -117q95 117 267 117z" />
    <glyph glyph-name="n" unicode="n" horiz-adv-x="1212" 
d="M712 717q150 0 239 -87t89 -218v-113q0 -154 29 -197t135 -43v-59h-473v59q43 0 61.5 47.5t18.5 192.5v86q0 106 -34.5 161.5t-110.5 55.5t-134.5 -53t-58.5 -150v-100q0 -154 28.5 -197t133.5 -43v-59h-555v59q102 0 132 44t30 196v68q0 154 -29 196.5t-133 42.5v60
l358 51q23 -43 29 -117q95 117 245 117z" />
    <glyph glyph-name="o" unicode="o" horiz-adv-x="1030" 
d="M516 621q-80 0 -121 -78t-41 -201t41 -202t121 -79t121 78t41 202t-41 202t-121 78zM515 -35q-171 0 -292 110.5t-121 266.5t122 265.5t293 109.5t291 -109.5t120 -265.5t-121 -266.5t-292 -110.5z" />
    <glyph glyph-name="p" unicode="p" horiz-adv-x="1044" 
d="M569 -35q-98 0 -168 62v-240q0 -154 29 -197t133 -43v-59h-555v59q102 0 132 44t30 196v580q0 154 -28.5 196.5t-133.5 42.5v60l359 51q4 -7 18 -74q74 74 184 74q170 0 271.5 -107.5t101.5 -268.5t-101.5 -268.5t-271.5 -107.5zM548 621q-66 0 -106.5 -50.5
t-40.5 -130.5v-198q0 -78 41 -129.5t106 -51.5t104.5 80t39.5 202t-39 200t-105 78z" />
    <glyph glyph-name="q" unicode="q" horiz-adv-x="1044" 
d="M462 717q157 0 245 -131l108 114h59v-913q0 -154 29 -197t133 -43v-59h-555v59q102 0 132 44t30 196v240q-72 -61 -168 -62q-168 0 -270.5 108.5t-102.5 268.5t101.5 267.5t258.5 107.5zM643 440q0 78 -41 129.5t-94 51.5q-76 0 -115 -77t-39 -201t39 -203t115 -79
q53 0 94 51.5t41 129.5v198z" />
    <glyph glyph-name="r" unicode="r" horiz-adv-x="884" 
d="M763 426q-52 0 -79 67.5t-81 67.5t-92 -52t-38 -167v-43q0 -154 28.5 -197t133.5 -43v-59h-555v59q102 0 132 44t30 196v68q0 154 -29 196.5t-133 42.5v60l358 51q8 -16 20.5 -77.5t14.5 -70.5q33 61 95 104.5t140 43.5t121 -50.5t43 -105.5t-28.5 -95t-80.5 -40z" />
    <glyph glyph-name="s" unicode="s" horiz-adv-x="716" 
d="M397 -35q-66 0 -139.5 33t-83.5 33q-29 0 -29 -66h-59v299h59q0 -74 76 -143.5t174 -69.5q49 0 78 22.5t29 57.5q0 59 -131 121l-115 51q-76 35 -115 91.5t-39 117.5q0 104 75 154.5t147 50.5t120 -12.5t97 -24.5q25 0 24 37h60v-238h-60q0 63 -59.5 109.5t-115.5 46.5
q-114 0 -114 -70q0 -39 44.5 -63.5t97.5 -48.5l100 -47q74 -35 116 -91.5t42 -117.5q0 -113 -83 -172.5t-196 -59.5z" />
    <glyph glyph-name="t" unicode="t" horiz-adv-x="620" 
d="M49 592v67q94 20 176 102.5t92 178.5h70v-258h178v-90h-178v-361q0 -150 92 -149q55 0 139 59l29 -57q-51 -47 -124.5 -83t-127.5 -36q-113 0 -175 66.5t-62 185.5v375h-109z" />
    <glyph glyph-name="u" unicode="u" horiz-adv-x="1140" 
d="M487 -35q-137 0 -227 88t-90 219v113q0 154 -28.5 196t-133.5 42v59h393v-383q0 -109 33 -164t109 -55t136 54t60 149v102q0 154 -29.5 196t-131.5 42v59h391v-367q0 -154 29.5 -195.5t134.5 -41.5v-62l-359 -51q-20 41 -31 119q-41 -53 -107.5 -86t-148.5 -33z" />
    <glyph glyph-name="v" unicode="v" horiz-adv-x="753" 
d="M575 580q0 43 -75 43v59h305v-59q-53 0 -87 -24t-59 -79l-258 -557h-57l-276 557q-49 102 -136 103v59h449v-59q-84 0 -84 -48q0 -18 16 -55l123 -264l123 264q16 39 16 60z" />
    <glyph glyph-name="w" unicode="w" horiz-adv-x="1034" 
d="M-59 623v59h432v-59q-86 0 -86 -43q0 -20 16 -60l84 -203l141 365h68l149 -365l80 203q14 35 15 60q0 43 -76 43v59h305v-59q-57 0 -89 -20.5t-56 -82.5l-215 -557h-41l-166 395l-152 -395h-41l-231 557q-27 59 -55.5 81t-81.5 22z" />
    <glyph glyph-name="x" unicode="x" horiz-adv-x="833" 
d="M246 92q0 -33 78 -33v-59h-326v59q43 0 83 20.5t97 82.5l135 143l-163 215q-47 59 -87 81t-94 22v59h482v-59q-78 0 -78 -33q0 -23 35 -70l49 -63l61 63q43 47 43 70q0 33 -69 33v59h333v-59q-100 0 -196 -103l-121 -127l176 -231q49 -59 91 -81t106 -22v-59h-506v59
q84 0 84 37q0 23 -33 66l-61 80l-76 -80q-43 -47 -43 -70z" />
    <glyph glyph-name="y" unicode="y" horiz-adv-x="733" 
d="M149 -553q-28 0 -53.5 17.5t-25.5 52.5t63.5 100.5t91.5 136.5l88 217l-245 549q-43 102 -136 103v59h449v-59q-86 0 -86 -45q0 -20 18 -58l119 -266l111 266q16 43 16 60q0 43 -76 43v59h303v-59q-102 0 -145 -103l-412 -997q-16 -35 -34 -55.5t-46 -20.5z" />
    <glyph glyph-name="z" unicode="z" horiz-adv-x="681" 
d="M358 82q133 0 175 25.5t61 95.5l10 41h43l-16 -244h-594v35l307 565h-12q-135 0 -176 -24.5t-60 -96.5l-10 -41h-43l14 244h568v-33l-306 -567h39z" />
    <glyph glyph-name="braceleft" unicode="{" horiz-adv-x="768" 
d="M283 972q0 194 83 269.5t296 198.5l47 -62q-117 -78 -149 -149t-32 -259t-65.5 -259.5t-198.5 -104.5q168 -41 216 -130t48 -257t32 -237.5t149 -149.5l-47 -59q-219 125 -299 198.5t-80 244.5t-32 250t-165 124v33q111 39 154 97t43 252z" />
    <glyph glyph-name="bar" unicode="|" horiz-adv-x="552" 
d="M326 1450v-1450h-90v1450h90z" />
    <glyph glyph-name="braceright" unicode="}" horiz-adv-x="768" 
d="M487 240q0 -194 -81.5 -268t-299.5 -199l-47 59q115 80 148 151t33 259t65.5 259.5t198.5 104.5q-168 41 -216 130t-48 257t-32 237.5t-149 147.5l47 62q223 -129 302 -201.5t79 -266.5t42 -252t153 -97v-33q-111 -37 -153 -96.5t-42 -253.5z" />
    <glyph glyph-name="asciitilde" unicode="~" horiz-adv-x="1036" 
d="M958 713q0 -170 -66.5 -277.5t-176.5 -107.5q-66 0 -217.5 79.5t-202.5 79.5t-91 -32.5t-57 -96.5h-71q0 152 67.5 264.5t150.5 112.5t230.5 -77.5t209.5 -77.5t98.5 28.5t54.5 104.5h71z" />
    <glyph glyph-name="nonbreakingspace" unicode="&#xa0;" horiz-adv-x="477" 
 />
    <glyph glyph-name="exclamdown" unicode="&#xa1;" horiz-adv-x="673" 
d="M338 664q-49 0 -82 34.5t-33 82.5t33 83t82 35t84 -35t35 -83t-35 -82.5t-84 -34.5zM340 -381q-64 0 -110 47t-46 117t59.5 231.5t59.5 472.5h70q0 -317 62.5 -477t62.5 -228t-47 -115.5t-111 -47.5z" />
    <glyph glyph-name="cent" unicode="&#xa2;" horiz-adv-x="948" 
d="M371 528q0 -74 29.5 -132t80.5 -89v514q-110 -66 -110 -293zM795 761q0 -48 -27 -69.5t-63 -21.5t-59 23.5t-23 72.5t-48 70v-564l37 -2q98 0 207 95l37 -60q-115 -117 -281 -133v-342h-94v344q-156 16 -259 114t-103 252t108.5 267t253.5 113v344h94v-346
q98 -14 159 -61.5t61 -95.5z" />
    <glyph glyph-name="sterling" unicode="&#xa3;" horiz-adv-x="1050" 
d="M63 0v59q102 0 132 44t30 196v293h-168v90h168v166q0 416 346 416q117 0 187.5 -56.5t70.5 -124.5q0 -35 -20.5 -59.5t-56.5 -24.5q-61 0 -96.5 90.5t-93.5 90.5t-81.5 -52.5t-23.5 -191.5v-254h205v-90h-205v-260q0 -154 28.5 -197t132.5 -43h113q131 0 172 32t66 124
l10 41h59l-18 -289h-957z" />
    <glyph glyph-name="currency" unicode="&#xa4;" horiz-adv-x="1024" 
d="M317 516q0 -80 55.5 -135t135.5 -55t135 55t55 134t-56 135.5t-135 56.5t-134.5 -55.5t-55.5 -135.5zM166 511q0 108 61 202l-112 110l84 84l110 -112q86 63 198 63t195 -61l113 112l86 -84l-113 -112q62 -96 62 -199t-62 -195l113 -114l-86 -84l-113 115
q-84 -62 -196 -62t-195 62l-112 -115l-84 86l112 112q-61 84 -61 192z" />
    <glyph glyph-name="yen" unicode="&#xa5;" horiz-adv-x="1296" 
d="M774 385h250v-115h-250q0 -135 36 -173t159 -38v-59h-639v59q123 0 159.5 39t36.5 172h-274v115h274v86h-274v117h244l-267 401q-72 109 -130 144.5t-167 35.5v60h695v-60q-145 0 -146 -67q0 -35 37 -88l230 -346l229 346q41 59 41 94q0 61 -152 61v60h496v-60
q-121 0 -172 -34.5t-123 -145.5l-266 -401h223v-117h-250v-86z" />
    <glyph glyph-name="section" unicode="&#xa7;" horiz-adv-x="815" 
d="M543 597q0 89 -131 157q-41 0 -68 -29t-27 -74q0 -80 142 -155l18 -11q66 23 66 112zM143 1040q0 104 77.5 164t147.5 60t117 -12.5t97 -24.5q25 0 24 37h60v-238h-60q0 63 -59.5 109.5t-115.5 46.5t-85 -27t-29 -61q0 -61 142 -138l100 -55q158 -100 158 -227
q0 -78 -40 -142.5t-106 -101.5q145 -96 145 -214t-83.5 -184.5t-194.5 -66.5q-66 0 -139.5 33t-83.5 33q-29 0 -29 -66h-59v299h59q0 -74 76 -143.5t174 -69.5q47 0 77 30t30 68t-30 71.5t-101 72.5l-115 61q-76 41 -115 102.5t-39 131.5t45 134t109 93q-76 41 -115 102.5
t-39 122.5z" />
    <glyph glyph-name="dieresis" unicode="&#xa8;" horiz-adv-x="757" 
d="M657 1299q0 -44 -30.5 -74.5t-73.5 -30.5t-73.5 30.5t-30.5 73.5t30.5 74t74.5 31t73.5 -30t29.5 -74zM250 1299q0 -44 -31 -74.5t-74 -30.5t-73.5 30.5t-30.5 73.5t30.5 74t74.5 31t74 -30t30 -74z" />
    <glyph glyph-name="copyright" unicode="&#xa9;" horiz-adv-x="1398" 
d="M707 227q-154 0 -263.5 114t-109.5 273.5t109.5 273t263.5 113.5q59 0 128.5 -31.5t106.5 -76.5q20 25 29 82h47v-289h-49q-47 238 -215 238q-102 0 -153.5 -86t-51.5 -223.5t51 -223.5t154 -86q168 0 215 240h49v-291h-47q-8 57 -29 82q-39 -47 -106.5 -78t-128.5 -31z
M145 614.5q0 -231.5 162 -393.5t393.5 -162t393 162t161.5 393.5t-161.5 393t-393 161.5t-393.5 -161.5t-162 -393zM1348 615q0 -269 -188 -459.5t-458 -190.5t-460.5 190.5t-190.5 459t190.5 459t459 190.5t458 -190t189.5 -459z" />
    <glyph glyph-name="ordfeminine" unicode="&#xaa;" horiz-adv-x="919" 
d="M293 740q0 -72 73 -72t166 86v166q-129 -35 -184 -71.5t-55 -108.5zM532 997q0 187 -112 187q-51 0 -85 -20.5t-34 -57.5t-22.5 -59.5t-55.5 -22.5t-54.5 23.5t-21.5 60.5q0 70 82.5 113t222.5 43t211.5 -61.5t71.5 -203.5v-264q0 -74 43 -73q29 0 58 24l28 -53
q-98 -72 -182 -72q-129 0 -150 111q-82 -61 -134 -87t-120 -26t-123 43t-55 119q0 117 111 180.5t321 95.5z" />
    <glyph glyph-name="guillemotleft" unicode="&#xab;" horiz-adv-x="1366" 
d="M1196 190l-561 359l561 356l29 -49l-277 -307l277 -307zM846 102l-692 447l692 444l31 -45l-359 -399l359 -399z" />
    <glyph glyph-name="logicalnot" unicode="&#xac;" horiz-adv-x="1167" 
d="M940 236h-158v210h-612v158h770v-368z" />
    <glyph glyph-name="registered" unicode="&#xae;" horiz-adv-x="1398" 
d="M1028 764q0 -140 -162 -195l115 -112q109 -109 186 -144q88 139 88 301q0 231 -161.5 393t-393 162t-393.5 -161.5t-162 -393t162 -393.5t393 -162q123 0 231.5 50.5t188.5 142.5h-200l-218 307h-32v-65q0 -123 24.5 -158t106.5 -35v-49h-443v49q84 0 107.5 34t23.5 159
v233q0 123 -24.5 158t-106.5 35v49h418q115 0 183.5 -56.5t68.5 -148.5zM723 893h-53v-258h53q49 0 81 36t32 93t-32 93t-81 36zM701 -35q-269 0 -459.5 190.5t-190.5 459t190.5 459t459 190.5t458 -189t189.5 -459t-189 -460.5t-458 -190.5z" />
    <glyph glyph-name="degree" unicode="&#xb0;" horiz-adv-x="819" 
d="M248 923.5q0 -67.5 47 -114.5t114.5 -47t114.5 47t47 114.5t-47 114.5t-114.5 47t-114.5 -47t-47 -114.5zM715 924q0 -127 -90 -217.5t-217 -90.5t-217.5 90.5t-90.5 217.5t90.5 217t217.5 90t217 -90t90 -217z" />
    <glyph glyph-name="plusminus" unicode="&#xb1;" 
d="M389 426h-287v158h287v286h160v-286h287v-158h-287v-266h287v-160h-734v160h287v266z" />
    <glyph glyph-name="acute" unicode="&#xb4;" horiz-adv-x="464" 
d="M328 1444q33 0 53 -24.5t20 -63t-61 -70.5l-367 -153l-12 18l248 231q37 33 61.5 47.5t57.5 14.5z" />
    <glyph glyph-name="mu" unicode="&#xb5;" horiz-adv-x="1140" 
d="M509 -35q-60 0 -108 10v-24q0 -154 29 -197t133 -43v-59h-555v59q102 0 132 44t30 196v434q0 154 -29 196t-133 42v59h393v-383q0 -109 33 -164t109 -55t136 54t60 149v102q0 154 -29.5 196t-131.5 42v59h391v-367q0 -154 29.5 -195.5t134.5 -41.5v-62l-359 -51
q-20 41 -31 119q-41 -53 -107.5 -86t-126.5 -33z" />
    <glyph glyph-name="paragraph" unicode="&#xb6;" horiz-adv-x="1153" 
d="M1032 1169q-127 0 -161.5 -43t-34.5 -196v-979q0 -156 33.5 -198t162.5 -42v-59h-321v1470h-172v-1470h-322v59q127 0 162 43t35 197v586q-133 14 -222.5 110.5t-89.5 236.5t102.5 242.5t246.5 102.5h581v-60z" />
    <glyph glyph-name="cedilla" unicode="&#xb8;" horiz-adv-x="446" 
d="M303 -288q0 56 -49.5 85t-107.5 29t-113 -16v36l289 287h118l-198 -203q80 0 151.5 -54t71.5 -154t-105.5 -173t-283.5 -100v74q227 69 227 189z" />
    <glyph glyph-name="ordmasculine" unicode="&#xba;" horiz-adv-x="1030" 
d="M516 1174q-76 0 -115 -75t-39 -191.5t39 -191.5t114 -75t115 76t40 190.5t-39 190.5t-115 76zM515 549q-161 0 -276.5 105.5t-115.5 253t114.5 252t277.5 104.5t277.5 -104.5t114.5 -252t-115.5 -253t-276.5 -105.5z" />
    <glyph glyph-name="guillemotright" unicode="&#xbb;" horiz-adv-x="1366" 
d="M170 190l-31 52l277 307l-277 307l31 49l561 -356zM520 102l-33 48l359 399l-359 399l33 45l692 -444z" />
    <glyph glyph-name="questiondown" unicode="&#xbf;" horiz-adv-x="1050" 
d="M658 664q-48 0 -80.5 34.5t-32.5 82.5t32.5 83t80.5 35t83 -35t35 -83t-35 -82.5t-83 -34.5zM801 -209q0 47 -53.5 47t-80 24.5t-26.5 68.5t42.5 72t98.5 28t111 -43t55 -141t-106.5 -164t-227.5 -66q-207 0 -332.5 114.5t-125.5 250.5q0 184 127 294.5t331 135.5v110h91
v-356q-174 0 -285 -64.5t-111 -179.5q0 -88 86 -155.5t217 -67.5q86 0 137.5 30.5t51.5 61.5z" />
    <glyph glyph-name="Agrave" unicode="&#xc0;" horiz-adv-x="1280" 
d="M551 877l-162 -375h326zM244 139q0 -80 174 -80v-59h-496v59q106 0 155 34q48 34 97 147l444 1024h44l446 -1024q37 -82 75 -131t175 -50v-59h-672v59q98 -1 137 17t39 54t-22 85l-86 195h-406l-84 -195q-20 -51 -20 -76zM330 1614q0 28 20 52t58 24t60 -16
q24 -16 54 -46l250 -231l-14 -19l-367 156q-61 29 -61 80z" />
    <glyph glyph-name="Aacute" unicode="&#xc1;" horiz-adv-x="1280" 
d="M551 877l-162 -375h326zM244 139q0 -80 174 -80v-59h-496v59q106 0 155 34q48 34 97 147l444 1024h44l446 -1024q37 -82 75 -131t175 -50v-59h-672v59q98 -1 137 17t39 54t-22 85l-86 195h-406l-84 -195q-20 -51 -20 -76zM991 1614q0 -50 -61 -82l-367 -154l-12 19
l248 231q37 33 61 47q24 15 58 15q32 0 52 -25t21 -51z" />
    <glyph glyph-name="Acircumflex" unicode="&#xc2;" horiz-adv-x="1280" 
d="M551 877l-162 -375h326zM244 139q0 -80 174 -80v-59h-496v59q106 0 155 34q48 34 97 147l444 1024h44l446 -1024q37 -82 75 -131t175 -50v-59h-672v59q98 -1 137 17t39 54t-22 85l-86 195h-406l-84 -195q-20 -51 -20 -76zM905 1382l-262 170l-262 -170l-31 29l293 318
l293 -318z" />
    <glyph glyph-name="Atilde" unicode="&#xc3;" horiz-adv-x="1280" 
d="M551 877l-162 -375h326zM244 139q0 -80 174 -80v-59h-496v59q106 0 155 34q48 34 97 147l444 1024h44l446 -1024q37 -82 75 -131t175 -50v-59h-672v59q98 -1 137 17t39 54t-22 85l-86 195h-406l-84 -195q-20 -51 -20 -76zM936 1614q0 -117 -45 -180t-125 -64
q-45 0 -156 68q-112 68 -146 68t-63 -32t-41 -81h-38q0 102 47 171q47 68 103 68t165 -68t154 -67q77 0 104 117h41z" />
    <glyph glyph-name="Adieresis" unicode="&#xc4;" horiz-adv-x="1280" 
d="M551 877l-162 -375h326zM244 139q0 -80 174 -80v-59h-496v59q106 0 155 34q48 34 97 147l444 1024h44l446 -1024q37 -82 75 -131t175 -50v-59h-672v59q98 -1 137 17t39 54t-22 85l-86 195h-406l-84 -195q-20 -51 -20 -76zM942 1486q0 -44 -31 -75t-73 -31t-74 31
q-31 31 -31 74t31 74t75 31q43 0 73 -30t30 -74zM535 1486q0 -44 -31 -75t-74 -31t-74 31t-30 74q0 43 30 74q31 31 75 31t74 -30t30 -74z" />
    <glyph glyph-name="Aring" unicode="&#xc5;" horiz-adv-x="1280" 
d="M551 877l-162 -375h326zM244 139q0 -80 174 -80v-59h-496v59q106 0 155 34q48 34 97 147l444 1024h44l446 -1024q37 -82 75 -131t175 -50v-59h-672v59q98 -1 137 17t39 54t-22 85l-86 195h-406l-84 -195q-20 -51 -20 -76zM539 1585q1 -39 27 -65t66 -27q40 0 66 27
q26 26 27 64q0 38 -27 67q-28 29 -66 29t-66 -28q-27 -28 -27 -67zM428 1585q0 85 59 145t145 60t144 -60q60 -60 60 -144q0 -85 -60 -144q-60 -60 -143 -60q-85 0 -145 58t-60 145z" />
    <glyph glyph-name="AE" unicode="&#xc6;" horiz-adv-x="1675" 
d="M1200 1137h-211v-551h10q154 0 196 33.5t42 162.5h59v-485h-59q0 127 -42 162t-196 35h-10v-162q0 -156 34 -198t163 -42h82q131 0 173 33t64 123l11 41h59l-16 -289h-1020v59q125 0 159.5 43t34.5 197v195h-323l-152 -295q-27 -51 -27 -83t36 -44.5t118 -12.5v-59h-496
v59q115 0 171.5 31t107.5 131l520 1008h803l16 -289h-59l-10 41q-25 92 -65 124t-173 32zM733 586v534l-276 -534h276z" />
    <glyph glyph-name="Ccedilla" unicode="&#xc7;" horiz-adv-x="1417" 
d="M901 -343q0 -99 -105.5 -173t-283.5 -100v73q88 27 157.5 72t69.5 127q0 47 -48.5 76.5t-108.5 29.5t-113 -18v37l195 194q-221 41 -370 221t-149 433t184.5 444t444.5 191q215 0 381 -174q35 26 53 116h58v-450h-60q-41 197 -153.5 303t-270.5 106q-190 0 -275 -162.5
t-85 -388.5t84 -388.5t276 -162.5q154 0 268.5 109t155.5 301h60v-450h-58q-12 49 -22 75.5t-31 40.5q-174 -174 -379 -174l-98 -100q82 0 152.5 -54.5t70.5 -153.5z" />
    <glyph glyph-name="Egrave" unicode="&#xc8;" horiz-adv-x="1312" 
d="M78 59q125 0 160 43t34 197v631q0 156 -34 198t-160 41v60h1055l16 -289h-59l-11 41q-25 92 -64 124q-40 32 -173 32h-314v-441h113q154 0 196 34t42 163h59v-485h-59q0 128 -42 162t-196 34h-113v-272q0 -156 34 -198t163 -42h184q131 0 173 33t65 123l10 41h60
l-17 -289h-1122v59zM367 1614q0 28 20 52t57 24t61 -16t54 -46l250 -231l-14 -19l-367 156q-61 29 -61 80z" />
    <glyph glyph-name="Eacute" unicode="&#xc9;" horiz-adv-x="1312" 
d="M78 59q125 0 160 43t34 197v631q0 156 -34 198t-160 41v60h1055l16 -289h-59l-11 41q-25 92 -64 124q-40 32 -173 32h-314v-441h113q154 0 196 34t42 163h59v-485h-59q0 128 -42 162t-196 34h-113v-272q0 -156 34 -198t163 -42h184q131 0 173 33t65 123l10 41h60
l-17 -289h-1122v59zM985 1616q0 -50 -61 -82l-367 -154l-12 19l248 231q37 33 61 47q24 15 58 15q32 0 52 -25t21 -51z" />
    <glyph glyph-name="Ecircumflex" unicode="&#xca;" horiz-adv-x="1312" 
d="M78 59q125 0 160 43t34 197v631q0 156 -34 198t-160 41v60h1055l16 -289h-59l-11 41q-25 92 -64 124q-40 32 -173 32h-314v-441h113q154 0 196 34t42 163h59v-485h-59q0 128 -42 162t-196 34h-113v-272q0 -156 34 -198t163 -42h184q131 0 173 33t65 123l10 41h60
l-17 -289h-1122v59zM920 1382l-263 170l-262 -170l-30 29l292 318l293 -318z" />
    <glyph glyph-name="Edieresis" unicode="&#xcb;" horiz-adv-x="1312" 
d="M78 59q125 0 160 43t34 197v631q0 156 -34 198t-160 41v60h1055l16 -289h-59l-11 41q-25 92 -64 124q-40 32 -173 32h-314v-441h113q154 0 196 34t42 163h59v-485h-59q0 128 -42 162t-196 34h-113v-272q0 -156 34 -198t163 -42h184q131 0 173 33t65 123l10 41h60
l-17 -289h-1122v59zM958 1486q0 -44 -30 -75t-74 -31q-43 0 -74 31t-30 74q0 43 30 74q31 31 75 31t74 -30q29 -30 29 -74zM551 1486q0 -44 -31 -75t-74 -31q-44 0 -74 31t-30 74t31 74t75 31t73 -30q30 -30 30 -74z" />
    <glyph glyph-name="Igrave" unicode="&#xcc;" horiz-adv-x="768" 
d="M78 0v59q125 0 160 43t34 197v631q0 156 -34 198t-160 41v60h647v-60q-127 0 -162 -43t-35 -196v-631q0 -156 34 -198t163 -42v-59h-647zM76 1614q0 28 20 52t58 24t60 -16q24 -16 54 -46l250 -231l-14 -19l-367 156q-61 29 -61 80z" />
    <glyph glyph-name="Iacute" unicode="&#xcd;" horiz-adv-x="768" 
d="M78 0v59q125 0 160 43t34 197v631q0 156 -34 198t-160 41v60h647v-60q-127 0 -162 -43t-35 -196v-631q0 -156 34 -198t163 -42v-59h-647zM649 1532l-366 -154l-13 19l248 231q68 60 110 61t62 -24q44 -54 1 -99q-19 -22 -42 -34z" />
    <glyph glyph-name="Icircumflex" unicode="&#xce;" horiz-adv-x="768" 
d="M78 0v59q125 0 160 43t34 197v631q0 156 -34 198t-160 41v60h647v-60q-127 0 -162 -43t-35 -196v-631q0 -156 34 -198t163 -42v-59h-647zM637 1382l-262 170l-262 -170l-31 29l293 318l293 -318z" />
    <glyph glyph-name="Idieresis" unicode="&#xcf;" horiz-adv-x="768" 
d="M78 0v59q125 0 160 43t34 197v631q0 156 -34 198t-160 41v60h647v-60q-127 0 -162 -43t-35 -196v-631q0 -156 34 -198t163 -42v-59h-647zM688 1486q0 -44 -31 -75t-73 -31t-74 31q-31 31 -31 74t31 74t75 31q43 0 73 -30t30 -74zM281 1486q0 -44 -31 -75t-74 -31t-74 31
t-30 74q0 43 30 74q31 31 75 31t74 -30t30 -74z" />
    <glyph glyph-name="Ntilde" unicode="&#xd1;" horiz-adv-x="1519" 
d="M1171 930q1 156 -33 198t-163 41v60h485v-60q-127 0 -162 -43t-34 -196v-965h-52l-847 1012v-678q-1 -156 33 -198t163 -42v-59h-483v59q125 0 160 43t34 197v631q0 156 -34 198t-160 41v60h409l684 -815v516zM1047 1604q1 -116 -45 -180t-125 -64q-45 0 -156 68t-146 67
q-35 0 -63 -32t-41 -81h-39q0 102 47 171t103 69t166 -68q109 -68 153 -67q78 0 105 117h41z" />
    <glyph glyph-name="Ograve" unicode="&#xd2;" horiz-adv-x="1654" 
d="M828 1165q-200 0 -304 -169t-104 -383t103 -382t304 -168t305 168q103 168 103 383t-103 383q-104 168 -304 168zM145 614q0 268 201 458q200 190 482 192q282 0 483 -190t201 -460q0 -268 -202 -458q-200 -190 -482 -191q-282 1 -482 191t-201 458zM551 1690
q37 0 61 -16t54 -46l249 -231l-14 -19l-366 156q-60 29 -62 80q1 28 21 52t57 24z" />
    <glyph glyph-name="Oacute" unicode="&#xd3;" horiz-adv-x="1654" 
d="M828 1165q-200 0 -304 -169t-104 -383t103 -382t304 -168t305 168q103 168 103 383t-103 383q-104 168 -304 168zM145 614q0 268 201 458q200 190 482 192q282 0 483 -190t201 -460q0 -268 -202 -458q-200 -190 -482 -191q-282 1 -482 191t-201 458zM1118 1532l-366 -154
l-13 19l248 231q68 60 110 61t62 -24q44 -54 1 -99q-19 -22 -42 -34z" />
    <glyph glyph-name="Ocircumflex" unicode="&#xd4;" horiz-adv-x="1654" 
d="M828 1165q-200 0 -304 -169t-104 -383t103 -382t304 -168t305 168q103 168 103 383t-103 383q-104 168 -304 168zM145 614q0 268 201 458q200 190 482 192q282 0 483 -190t201 -460q0 -268 -202 -458q-200 -190 -482 -191q-282 1 -482 191t-201 458zM1098 1378l-262 170
l-263 -170l-30 29l293 317l292 -317z" />
    <glyph glyph-name="Otilde" unicode="&#xd5;" horiz-adv-x="1654" 
d="M828 1165q-200 0 -304 -169t-104 -383t103 -382t304 -168t305 168q103 168 103 383t-103 383q-104 168 -304 168zM145 614q0 268 201 458q200 190 482 192q282 0 483 -190t201 -460q0 -268 -202 -458q-200 -190 -482 -191q-282 1 -482 191t-201 458zM1112 1614
q0 -117 -45 -180t-125 -64q-45 0 -156 68q-112 68 -146 68t-62 -32t-41 -81h-39q0 102 47 171q47 68 103 68t165 -68t154 -67q77 0 104 117h41z" />
    <glyph glyph-name="Odieresis" unicode="&#xd6;" horiz-adv-x="1654" 
d="M828 1165q-200 0 -304 -169t-104 -383t103 -382t304 -168t305 168q103 168 103 383t-103 383q-104 168 -304 168zM145 614q0 268 201 458q200 190 482 192q282 0 483 -190t201 -460q0 -268 -202 -458q-200 -190 -482 -191q-282 1 -482 191t-201 458zM1145 1486
q0 -44 -31 -75t-74 -31q-44 0 -74 31t-30 74t31 74t75 31t73 -30q30 -30 30 -74zM737 1486q-1 -44 -31 -75t-73 -31t-74 31t-31 74t31 74t75 31t74 -30q29 -30 29 -74z" />
    <glyph glyph-name="Oslash" unicode="&#xd8;" horiz-adv-x="1654" 
d="M145 614q0 268 201 459t481 191q152 0 283 -60l76 131l108 -55l-80 -133q135 -88 216 -229.5t81 -303.5q0 -268 -200.5 -458.5t-483.5 -190.5q-145 0 -278 58l-74 -127l-108 53l77 129q-137 90 -218 231t-81 305zM420 607q0 -220 108 -384l514 869q-86 74 -215 73
q-199 0 -303 -169t-104 -389zM827 63q201 0 304.5 168t103.5 394t-107 374l-514 -866q92 -70 213 -70z" />
    <glyph glyph-name="Ugrave" unicode="&#xd9;" horiz-adv-x="1533" 
d="M938 1169v60h502v-60q-125 0 -160 -43t-35 -196v-473q0 -231 -140 -361t-353 -131q-213 0 -353 129q-139 129 -139 363v473q0 156 -34 198t-163 41v60h650v-60q-127 0 -162 -43t-35 -196v-451q0 -191 88 -289t228 -98t221 97q82 97 82 290v451q0 156 -34 198t-163 41z
M428 1614q0 28 20 52t58 24q36 0 60 -16t55 -46l249 -231l-14 -19l-367 156q-61 29 -61 80z" />
    <glyph glyph-name="Uacute" unicode="&#xda;" horiz-adv-x="1533" 
d="M938 1169v60h502v-60q-125 0 -160 -43t-35 -196v-473q0 -231 -140 -361t-353 -131q-213 0 -353 129q-139 129 -139 363v473q0 156 -34 198t-163 41v60h650v-60q-127 0 -162 -43t-35 -196v-451q0 -191 88 -289t228 -98t221 97q82 97 82 290v451q0 156 -34 198t-163 41z
M1155 1614q0 -50 -61 -82l-367 -154l-12 19l248 231q37 33 61 47q24 15 58 15q32 0 52 -25t21 -51z" />
    <glyph glyph-name="Ucircumflex" unicode="&#xdb;" horiz-adv-x="1533" 
d="M938 1169v60h502v-60q-125 0 -160 -43t-35 -196v-473q0 -231 -140 -361t-353 -131q-213 0 -353 129q-139 129 -139 363v473q0 156 -34 198t-163 41v60h650v-60q-127 0 -162 -43t-35 -196v-451q0 -191 88 -289t228 -98t221 97q82 97 82 290v451q0 156 -34 198t-163 41z
M1092 1382l-263 170l-262 -170l-30 29l292 318l293 -318z" />
    <glyph glyph-name="Udieresis" unicode="&#xdc;" horiz-adv-x="1533" 
d="M938 1169v60h502v-60q-125 0 -160 -43t-35 -196v-473q0 -231 -140 -361t-353 -131q-213 0 -353 129q-139 129 -139 363v473q0 156 -34 198t-163 41v60h650v-60q-127 0 -162 -43t-35 -196v-451q0 -191 88 -289t228 -98t221 97q82 97 82 290v451q0 156 -34 198t-163 41z
M1116 1488q0 -44 -31 -75t-73 -31t-74 31q-31 31 -31 74t31 74t75 31q43 0 73 -30t30 -74zM709 1488q0 -44 -31 -75t-74 -31t-74 31t-30 74q0 43 30 74q31 31 75 31t74 -30t30 -74z" />
    <glyph glyph-name="germandbls" unicode="&#xdf;" horiz-adv-x="1214" 
d="M590 1264q131 0 200.5 -68t69.5 -166q0 -59 -46 -173t-46 -178t37 -108.5t104 -81.5l101 -53q157 -88 157 -231q0 -115 -84 -177.5t-194 -62.5q-66 0 -139.5 33t-83.5 33q-29 0 -29 -66h-59v299h59q0 -74 75.5 -143.5t174.5 -69.5q47 0 76.5 25.5t29.5 63.5
q0 71 -131 143l-114 61q-154 81 -154 246q0 76 73.5 233.5t73.5 206.5q0 150 -139 150q-145 0 -145 -244v-936h-394v59q102 0 132 44t30 196v324h-162v59q98 0 130 38t32 128q0 416 365 416z" />
    <glyph glyph-name="agrave" unicode="&#xe0;" horiz-adv-x="919" 
d="M283 170q-1 -43 23 -62t59 -20q66 0 170 92v174q-133 -35 -193 -72q-59 -38 -59 -112zM692 -23q-135 0 -157 119q-87 -70 -141 -96t-125 -27q-71 0 -130 47t-59 125q0 123 119 191t336 100q0 113 -32 155q-31 42 -87 42t-90 -22q-34 -23 -35 -61q0 -38 -23 -62t-59 -23
q-80 0 -80 81t88 126q87 45 233 45q300 0 300 -279v-276q0 -78 45 -78q14 0 32 10l27 15l29 -56q-101 -76 -191 -76zM215 1145q37 -1 61 -17t54 -45l250 -231l-15 -18l-366 155q-60 29 -62 80q1 27 21 51t57 25z" />
    <glyph glyph-name="aacute" unicode="&#xe1;" horiz-adv-x="919" 
d="M283 170q-1 -43 23 -62t59 -20q66 0 170 92v174q-133 -35 -193 -72q-59 -38 -59 -112zM692 -23q-135 0 -157 119q-87 -70 -141 -96t-125 -27q-71 0 -130 47t-59 125q0 123 119 191t336 100q0 113 -32 155q-31 42 -87 42t-90 -22q-34 -23 -35 -61q0 -38 -23 -62t-59 -23
q-80 0 -80 81t88 126q87 45 233 45q300 0 300 -279v-276q0 -78 45 -78q14 0 32 10l27 15l29 -56q-101 -76 -191 -76zM643 987l-367 -153l-12 18l248 231q38 33 62 47t57 14t53 -24q44 -54 1 -99q-19 -22 -42 -34z" />
    <glyph glyph-name="acircumflex" unicode="&#xe2;" horiz-adv-x="919" 
d="M283 170q-1 -43 23 -62t59 -20q66 0 170 92v174q-133 -35 -193 -72q-59 -38 -59 -112zM692 -23q-135 0 -157 119q-87 -70 -141 -96t-125 -27q-71 0 -130 47t-59 125q0 123 119 191t336 100q0 113 -32 155q-31 42 -87 42t-90 -22q-34 -23 -35 -61q0 -38 -23 -62t-59 -23
q-80 0 -80 81t88 126q87 45 233 45q300 0 300 -279v-276q0 -78 45 -78q14 0 32 10l27 15l29 -56q-101 -76 -191 -76zM698 838l-262 170l-262 -170l-31 28l293 318l293 -318z" />
    <glyph glyph-name="atilde" unicode="&#xe3;" horiz-adv-x="919" 
d="M283 170q-1 -43 23 -62t59 -20q66 0 170 92v174q-133 -35 -193 -72q-59 -38 -59 -112zM692 -23q-135 0 -157 119q-87 -70 -141 -96t-125 -27q-71 0 -130 47t-59 125q0 123 119 191t336 100q0 113 -32 155q-31 42 -87 42t-90 -22q-34 -23 -35 -61q0 -38 -23 -62t-59 -23
q-80 0 -80 81t88 126q87 45 233 45q300 0 300 -279v-276q0 -78 45 -78q14 0 32 10l27 15l29 -56q-101 -76 -191 -76zM739 1059q0 -117 -45 -180t-125 -64q-45 0 -155 68q-110 67 -146 67t-64 -32t-40 -80h-39q0 102 47 171q48 69 104 69t164 -68t154 -68q77 0 104 117h41z
" />
    <glyph glyph-name="adieresis" unicode="&#xe4;" horiz-adv-x="919" 
d="M283 170q-1 -43 23 -62t59 -20q66 0 170 92v174q-133 -35 -193 -72q-59 -38 -59 -112zM692 -23q-135 0 -157 119q-87 -70 -141 -96t-125 -27q-71 0 -130 47t-59 125q0 123 119 191t336 100q0 113 -32 155q-31 42 -87 42t-90 -22q-34 -23 -35 -61q0 -38 -23 -62t-59 -23
q-80 0 -80 81t88 126q87 45 233 45q300 0 300 -279v-276q0 -78 45 -78q14 0 32 10l27 15l29 -56q-101 -76 -191 -76zM754 941q0 -44 -31 -75q-31 -30 -74 -30t-74 30t-30 74q0 43 30 74q31 30 75 30t74 -30t30 -73zM346 941q0 -44 -31 -75q-31 -30 -73 -30t-74 30
q-31 30 -31 74q0 43 31 74q31 30 75 30q43 0 73 -30t30 -73z" />
    <glyph glyph-name="aring" unicode="&#xe5;" horiz-adv-x="919" 
d="M283 170q-1 -43 23 -62t59 -20q66 0 170 92v174q-133 -35 -193 -72q-59 -38 -59 -112zM692 -23q-135 0 -157 119q-87 -70 -141 -96t-125 -27q-71 0 -130 47t-59 125q0 123 119 191t336 100q0 113 -32 155q-31 42 -87 42t-90 -22q-34 -23 -35 -61q0 -38 -23 -62t-59 -23
q-80 0 -80 81t88 126q87 45 233 45q300 0 300 -279v-276q0 -78 45 -78q14 0 32 10l27 15l29 -56q-101 -76 -191 -76zM365 1036q1 -40 27 -66t66 -26t66 27t27 65q0 38 -27 66q-28 28 -66 28t-66 -27q-27 -28 -27 -67zM254 1036q0 86 59 146t145 59q86 1 144 -59
q60 -60 60 -145t-60 -144t-143 -59q-84 0 -145 58q-60 58 -60 144z" />
    <glyph glyph-name="ae" unicode="&#xe6;" horiz-adv-x="1290" 
d="M271 -27q-73 0 -132 47.5t-59 124.5q0 123 118.5 190.5t336.5 100.5q0 113 -31.5 155t-87.5 42t-90.5 -21.5t-34.5 -60.5t-22.5 -62.5t-59.5 -23.5q-80 0 -80 81t88.5 126t234.5 45t220 -66q104 66 235 66t215 -84t84 -191q0 -29 -10 -63h-444q0 -150 56 -227.5
t144 -77.5q145 0 242 86l37 -60q-55 -59 -140 -97t-185 -38t-190.5 44t-144.5 120q-90 -84 -158.5 -120t-141.5 -36zM283 170q0 -43 23.5 -62.5t58.5 -19.5q66 0 170 92v174q-133 -35 -192.5 -72.5t-59.5 -111.5zM1038 469q0 149 -127 149q-113 0 -147 -149h274z" />
    <glyph glyph-name="ccedilla" unicode="&#xe7;" horiz-adv-x="845" 
d="M498 635q-144 0 -144 -297q0 -272 207 -272q98 0 207 94l37 -60q-126 -135 -307 -135h-17l-98 -100q82 0 152.5 -54.5t70.5 -153.5t-105.5 -173t-283.5 -100v73q227 69 227 189q0 56 -48 86t-108 30t-114 -18v37l201 201q-123 35 -198 126t-75 216q0 176 111 284.5
t268 108.5q121 0 191.5 -51.5t70.5 -104.5t-26.5 -74.5t-62.5 -21.5t-59.5 23.5t-23.5 63.5t-21.5 61.5t-51.5 21.5z" />
    <glyph glyph-name="egrave" unicode="&#xe8;" horiz-adv-x="905" 
d="M803 440q0 -9 -8 -61h-447q0 -149 56 -227t145 -78q145 0 244 86l34 -60q-55 -59 -140 -97t-171 -38q-180 0 -297 110q-117 111 -117 269t116 266t266 107q150 0 235 -84q84 -84 84 -193zM635 469q0 151 -127 149q-111 0 -146 -149h273zM266 1145q37 -1 61 -17t54 -45
l250 -231l-15 -18l-366 155q-60 29 -62 80q0 27 20 51t58 25z" />
    <glyph glyph-name="eacute" unicode="&#xe9;" horiz-adv-x="905" 
d="M803 440q0 -9 -8 -61h-447q0 -149 56 -227t145 -78q145 0 244 86l34 -60q-55 -59 -140 -97t-171 -38q-180 0 -297 110q-117 111 -117 269t116 266t266 107q150 0 235 -84q84 -84 84 -193zM635 469q0 151 -127 149q-111 0 -146 -149h273zM700 987l-366 -153l-12 18
l247 231q68 60 110 61t62 -24q44 -54 1 -99q-19 -22 -42 -34z" />
    <glyph glyph-name="ecircumflex" unicode="&#xea;" horiz-adv-x="905" 
d="M803 440q0 -9 -8 -61h-447q0 -149 56 -227t145 -78q145 0 244 86l34 -60q-55 -59 -140 -97t-171 -38q-180 0 -297 110q-117 111 -117 269t116 266t266 107q150 0 235 -84q84 -84 84 -193zM635 469q0 151 -127 149q-111 0 -146 -149h273zM733 838l-262 170l-262 -170
l-31 28l293 318l293 -318z" />
    <glyph glyph-name="edieresis" unicode="&#xeb;" horiz-adv-x="905" 
d="M803 440q0 -9 -8 -61h-447q0 -149 56 -227t145 -78q145 0 244 86l34 -60q-55 -59 -140 -97t-171 -38q-180 0 -297 110q-117 111 -117 269t116 266t266 107q150 0 235 -84q84 -84 84 -193zM635 469q0 151 -127 149q-111 0 -146 -149h273zM780 941q0 -44 -30 -75
q-30 -30 -74 -30q-43 0 -74 30t-31 74q0 43 31 74q31 30 75 30t74 -29q29 -30 29 -74zM373 941q0 -44 -31 -75q-31 -30 -74 -30q-44 0 -74 30t-30 74q0 43 31 74q31 30 75 30t73 -30q30 -30 30 -73z" />
    <glyph glyph-name="igrave" unicode="&#xec;" horiz-adv-x="677" 
d="M80 0v59q102 0 132 44t30 196v68q0 155 -29 197t-133 42v60l393 51v-418q0 -154 29 -197t133 -43v-59h-555zM33 1069q0 27 20 51q19 24 57 25q38 -1 62 -17t53 -45l250 -231l-14 -18l-367 155q-61 29 -61 80z" />
    <glyph glyph-name="iacute" unicode="&#xed;" horiz-adv-x="677" 
d="M80 0v59q102 0 132 44t30 196v68q0 155 -29 197t-133 42v60l393 51v-418q0 -154 29 -197t133 -43v-59h-555zM612 1068q0 -50 -61 -81l-367 -153l-12 18l248 231q38 33 62 47t57 14t53 -24q20 -26 20 -52z" />
    <glyph glyph-name="icircumflex" unicode="&#xee;" horiz-adv-x="677" 
d="M80 0v59q102 0 132 44t30 196v68q0 155 -29 197t-133 42v60l393 51v-418q0 -154 29 -197t133 -43v-59h-555zM584 836l-262 170l-263 -170l-30 28l293 318l292 -318z" />
    <glyph glyph-name="idieresis" unicode="&#xef;" horiz-adv-x="677" 
d="M80 0v59q102 0 132 44t30 196v68q0 155 -29 197t-133 42v60l393 51v-418q0 -154 29 -197t133 -43v-59h-555zM639 941q0 -44 -31 -75q-32 -30 -74 -30t-73 30t-31 74q0 43 31 74q31 30 75 30t74 -30t29 -73zM231 941q-1 -44 -31 -75q-30 -30 -73 -30t-74 30t-30 74
q0 43 30 74q31 30 75 30t74 -29q29 -30 29 -74z" />
    <glyph glyph-name="ntilde" unicode="&#xf1;" horiz-adv-x="1212" 
d="M712 717q150 0 239 -87t89 -218v-113q0 -154 29 -197t135 -43v-59h-473v59q43 0 62 47q18 47 18 193v86q0 105 -34 161q-35 56 -111 56t-134 -53t-59 -150v-100q0 -154 29 -197t133 -43v-59h-555v59q102 0 132 44t30 196v68q0 155 -29 197t-133 42v60l358 51
q23 -43 29 -117q95 117 245 117zM913 1079q0 -117 -45 -180t-125 -63q-45 0 -155 68t-146 67q-36 0 -64 -32t-40 -81h-39q0 102 47 171q48 69 104 69t164 -68t154 -67q77 -1 104 116h41z" />
    <glyph glyph-name="ograve" unicode="&#xf2;" horiz-adv-x="1030" 
d="M516 621q-80 0 -121 -78t-41 -201t41 -202t121 -79t121 78t41 202t-41 202t-121 78zM928 342q0 -156 -121 -266t-292 -111q-171 0 -292 111q-121 110 -121 266t122 266t293 109q171 0 291 -110q120 -109 120 -265zM258 1145q36 -1 60 -17t55 -45l250 -231l-15 -18
l-366 155q-60 29 -62 80q0 27 20 51t58 25z" />
    <glyph glyph-name="oacute" unicode="&#xf3;" horiz-adv-x="1030" 
d="M516 621q-80 0 -121 -78t-41 -201t41 -202t121 -79t121 78t41 202t-41 202t-121 78zM928 342q0 -156 -121 -266t-292 -111q-171 0 -292 111q-121 110 -121 266t122 266t293 109q171 0 291 -110q120 -109 120 -265zM731 987l-366 -153l-13 18l248 231q68 60 110 61t62 -24
q44 -54 1 -99q-19 -22 -42 -34z" />
    <glyph glyph-name="ocircumflex" unicode="&#xf4;" horiz-adv-x="1030" 
d="M516 621q-80 0 -121 -78t-41 -201t41 -202t121 -79t121 78t41 202t-41 202t-121 78zM928 342q0 -156 -121 -266t-292 -111q-171 0 -292 111q-121 110 -121 266t122 266t293 109q171 0 291 -110q120 -109 120 -265zM745 838l-262 170l-262 -170l-31 28l293 318l293 -318z
" />
    <glyph glyph-name="otilde" unicode="&#xf5;" horiz-adv-x="1030" 
d="M516 621q-80 0 -121 -78t-41 -201t41 -202t121 -79t121 78t41 202t-41 202t-121 78zM928 342q0 -156 -121 -266t-292 -111q-171 0 -292 111q-121 110 -121 266t122 266t293 109q171 0 291 -110q120 -109 120 -265zM817 1059q0 -117 -45 -180t-125 -64q-45 0 -155 68
q-110 67 -146 67t-64 -32t-40 -80h-39q0 102 47 171t103 69t165 -68t154 -68q77 0 104 117h41z" />
    <glyph glyph-name="odieresis" unicode="&#xf6;" horiz-adv-x="1030" 
d="M516 621q-80 0 -121 -78t-41 -201t41 -202t121 -79t121 78t41 202t-41 202t-121 78zM928 342q0 -156 -121 -266t-292 -111q-171 0 -292 111q-121 110 -121 266t122 266t293 109q171 0 291 -110q120 -109 120 -265zM823 941q-1 -44 -31 -75q-30 -30 -73 -30t-74 30t-31 74
q0 43 31 74q31 30 75 30t74 -29q29 -30 29 -74zM416 941q0 -44 -31 -75q-31 -30 -74 -30t-73 30t-31 74q0 43 31 74q30 30 74 30t74 -30t30 -73z" />
    <glyph glyph-name="divide" unicode="&#xf7;" 
d="M468 618q-48 0 -81 35t-33 84t33 84t80 35t84 -35t37 -83t-36 -84t-84 -36zM468 49q-46 0 -80 36t-34 84t34 84t80 36t83 -35t37 -83t-37 -85t-83 -37zM137 375v157h666v-157h-666z" />
    <glyph glyph-name="oslash" unicode="&#xf8;" horiz-adv-x="1030" 
d="M516 717q81 0 156 -27l53 88l82 -45l-53 -86q80 -51 127 -132t47 -173q0 -156 -121 -266.5t-291 -110.5q-84 0 -158 29l-55 -90l-82 45l53 88q-80 53 -126 133t-46 172q0 156 122 265.5t292 109.5zM516 621q-80 0 -121 -77.5t-41 -179.5t19 -167l233 385q-37 39 -90 39z
M516 61q80 0 121 78.5t41 182.5t-19 165l-235 -387q35 -39 92 -39z" />
    <glyph glyph-name="ugrave" unicode="&#xf9;" horiz-adv-x="1140" 
d="M170 272v113q0 154 -29 196t-133 42v59h393v-383q0 -109 33 -164t109 -55t136 54t60 149v102q0 154 -29 196q-30 42 -132 42v59h391v-367q-1 -153 29 -195t135 -42v-62l-359 -51q-20 41 -31 119q-92 -119 -243 -119q-150 0 -240 88t-90 219zM209 1067q0 27 20 51
q19 24 57 25q38 -1 62 -17t53 -45l250 -231l-14 -19l-367 156q-61 29 -61 80z" />
    <glyph glyph-name="uacute" unicode="&#xfa;" horiz-adv-x="1140" 
d="M170 272v113q0 154 -29 196t-133 42v59h393v-383q0 -109 33 -164t109 -55t136 54t60 149v102q0 154 -29 196q-30 42 -132 42v59h391v-367q-1 -153 29 -195t135 -42v-62l-359 -51q-20 41 -31 119q-92 -119 -243 -119q-150 0 -240 88t-90 219zM823 1066q0 -50 -61 -81
l-367 -154l-12 19l248 231q37 33 61 47t58 14q33 0 53 -24q20 -26 20 -52z" />
    <glyph glyph-name="ucircumflex" unicode="&#xfb;" horiz-adv-x="1140" 
d="M170 272v113q0 154 -29 196t-133 42v59h393v-383q0 -109 33 -164t109 -55t136 54t60 149v102q0 154 -29 196q-30 42 -132 42v59h391v-367q-1 -153 29 -195t135 -42v-62l-359 -51q-20 41 -31 119q-92 -119 -243 -119q-150 0 -240 88t-90 219zM780 838l-262 170l-262 -170
l-31 28l293 318l293 -318z" />
    <glyph glyph-name="udieresis" unicode="&#xfc;" horiz-adv-x="1140" 
d="M170 272v113q0 154 -29 196t-133 42v59h393v-383q0 -109 33 -164t109 -55t136 54t60 149v102q0 154 -29 196q-30 42 -132 42v59h391v-367q-1 -153 29 -195t135 -42v-62l-359 -51q-20 41 -31 119q-92 -119 -243 -119q-150 0 -240 88t-90 219zM827 941q-1 -44 -31 -75
q-30 -30 -73 -30t-74 30t-31 74q0 43 31 74q31 30 75 30t74 -29q29 -30 29 -74zM420 941q0 -44 -31 -75q-31 -30 -74 -30t-73 30t-31 74q0 43 31 74q30 30 74 30t74 -30t30 -73z" />
    <glyph glyph-name="ydieresis" unicode="&#xff;" horiz-adv-x="733" 
d="M149 -553q-28 0 -54 17q-68 44 38 153q63 66 92 137l88 217l-245 549q-43 102 -136 103v59h449v-59q-86 0 -86 -45q0 -20 18 -58l119 -266l111 266q16 43 16 60q0 43 -76 43v59h303v-59q-102 0 -145 -103l-412 -997q-16 -35 -34 -55t-46 -21zM690 941q0 -44 -31 -75
q-31 -30 -73 -30t-74 30q-31 30 -31 74q0 43 31 74q31 30 75 30q43 0 73 -30t30 -73zM283 941q0 -44 -31 -75q-31 -30 -74 -30t-74 30t-30 74q0 43 30 74q31 30 75 30t74 -30t30 -73z" />
    <glyph glyph-name="dotlessi" unicode="&#x131;" horiz-adv-x="677" 
d="M80 0v59q102 0 132 44t30 196v68q0 154 -29 196.5t-133 42.5v60l393 51v-418q0 -154 28.5 -197t133.5 -43v-59h-555z" />
    <glyph glyph-name="OE" unicode="&#x152;" horiz-adv-x="2068" 
d="M1597 1137h-311v-441h111q154 0 195.5 34t41.5 163h62v-485h-62q0 129 -42 162.5t-195 33.5h-111v-272q0 -156 34 -198t161 -42h184q131 0 173 33t65 123l10 41h59l-16 -289h-909q-104 -35 -220 -35q-281 0 -481.5 190.5t-200.5 459t201 459t481 190.5q115 0 220 -35h841
l17 -289h-60l-10 41q-23 92 -63.5 124t-174.5 32zM827 1165q-199 0 -303 -169t-104 -383t103.5 -382t303.5 -168q117 0 203 64v975q-82 63 -203 63z" />
    <glyph glyph-name="oe" unicode="&#x153;" horiz-adv-x="1466" 
d="M102 342q0 156 122 265.5t289 109.5t288 -105q115 104 264 104t233 -83.5t84 -190.5q0 -29 -10 -63h-444q0 -150 56 -227.5t144 -77.5q143 0 242 86l37 -60q-55 -59 -140 -97t-217 -38t-249 107q-120 -107 -288 -107q-169 0 -290 110.5t-121 266.5zM516 621
q-80 0 -121 -78t-41 -201t41 -202t121 -79t121 78t41 202t-41 202t-121 78zM1214 469q0 149 -127 149q-113 0 -147 -149h274z" />
    <glyph glyph-name="Ydieresis" unicode="&#x178;" horiz-adv-x="1296" 
d="M774 299q0 -156 34 -198t161 -42v-59h-639v59q127 0 162 43t34 197v242l-297 448q-72 109 -130 145t-167 35v60h695v-60q-145 0 -146 -67q0 -35 37 -88l230 -346l229 346q41 59 41 94q0 61 -152 61v60h496v-60q-121 -1 -172 -35t-123 -145l-293 -442v-248zM1001 1486
q-1 -44 -31 -75t-73 -31t-74 31t-30 74q0 43 30 74q31 31 75 31t74 -30q29 -30 29 -74zM594 1486q0 -44 -31 -75t-74 -31t-73 31t-31 74q0 43 31 74q30 31 74 31t74 -30t30 -74z" />
    <glyph glyph-name="florin" unicode="&#x192;" horiz-adv-x="690" 
d="M140 -547q-152 0 -234 62.5t-82 132.5t67 69q53 0 86 -90t106 -90t107.5 68.5t34.5 251.5v735h-168v90h168v166q0 416 346 416q117 0 187.5 -56.5t70.5 -124.5q0 -35 -20.5 -59.5t-56.5 -24.5q-61 0 -96.5 90.5t-93.5 90.5t-81.5 -52.5t-23.5 -191.5v-254h205v-90h-205
v-752q0 -201 -82.5 -294t-234.5 -93z" />
    <glyph glyph-name="hungarumlaut" unicode="&#x2ba;" horiz-adv-x="671" 
d="M593 1386q26 0 42 -18t16 -40q0 -43 -49 -62l-280 -121l-11 14l191 178q35 31 50 40t41 9zM354.5 1386q26.5 0 42 -19t15.5 -47t-47 -54l-283 -121l-10 14l190 178q35 31 50.5 40t42 9z" />
    <glyph glyph-name="caron" unicode="&#x2c7;" horiz-adv-x="696" 
d="M289 1098l-295 317l33 29l262 -170l262 170l31 -29z" />
    <glyph glyph-name="macron" unicode="&#x2c9;" horiz-adv-x="528" 
d="M45 1272v47h371v-47h-371z" />
    <glyph glyph-name="breve" unicode="&#x2d8;" horiz-adv-x="630" 
d="M284 1171q-79 0 -129.5 50.5t-50.5 134.5h33q16 -43 55 -71t91 -28q113 0 143 99h33q0 -84 -48 -134.5t-127 -50.5z" />
    <glyph glyph-name="dotaccent" unicode="&#x2d9;" horiz-adv-x="634" 
d="M328 1277q0 -34 -22.5 -58.5t-57.5 -24.5t-57.5 22.5t-22.5 57.5t23.5 58.5t57.5 23.5t56.5 -22.5t22.5 -56.5z" />
    <glyph glyph-name="ring" unicode="&#x2da;" horiz-adv-x="456" 
d="M168 1235q0 -39 26.5 -65.5t66.5 -26.5t66.5 26.5t26.5 64.5t-26.5 66.5t-65.5 28.5t-66.5 -27.5t-27.5 -66.5zM465 1236q0 -85 -59.5 -144.5t-143.5 -59.5t-144.5 58.5t-60.5 144.5t59.5 145.5t144.5 59.5t144.5 -59.5t59.5 -144.5z" />
    <glyph glyph-name="ogonek" unicode="&#x2db;" horiz-adv-x="454" 
d="M221 -315q-80 0 -132 54t-52 133t65.5 140.5t151.5 61.5q33 0 57 -8l23 -5l-17 -34h-18q-51 0 -94 -33t-43 -80t28.5 -82t73.5 -35q95 0 117 60l20 41l17 -52l4 -6q-10 -72 -65.5 -113.5t-135.5 -41.5z" />
    <glyph glyph-name="circumflex" unicode="&#x302;" horiz-adv-x="700" 
d="M631 1069l-262 170l-263 -170l-30 29l293 317l293 -317z" />
    <glyph glyph-name="tilde" unicode="&#x303;" horiz-adv-x="614" 
d="M621 1352q0 -117 -45.5 -180.5t-124.5 -63.5q-45 0 -156 67.5t-145.5 67.5t-63.5 -31.5t-41 -81.5h-39q0 102 47 171t103 69t165 -67.5t154 -67.5q78 0 105 117h41z" />
    <glyph glyph-name="summation" unicode="&#x3a3;" horiz-adv-x="1224" 
d="M104 1229h988l18 -289h-59l-11 41q-25 92 -65.5 124t-171.5 32h-500l467 -688l-371 -705h455q131 0 172 31.5t66 124.5l10 41h59l-18 -289h-1043v35l449 854l-445 653v35z" />
    <glyph glyph-name="Omega" unicode="&#x3a9;" horiz-adv-x="1177" 
d="M836 796q0 138 -54.5 248.5t-192.5 110.5t-193.5 -110.5t-55.5 -248.5q0 -316 164 -378v-418h-354l-13 391h66l8 -41q16 -92 47 -123.5t131 -31.5h19v155q-133 53 -211 169t-78 255q0 184 134 322.5t336 138.5t336 -138.5t134 -322.5q0 -137 -79 -252.5t-210 -169.5v-157
h18q98 0 131 32.5t50 122.5l6 41h65l-12 -391h-356v418q164 61 164 378z" />
    <glyph glyph-name="pi" unicode="&#x3c0;" horiz-adv-x="1034" 
d="M991 635q0 -152 -170 -152h-88v-344q0 -84 39 -84q16 0 39 15.5t35 29.5l8 -63q-23 -29 -67 -50.5t-72 -21.5q-88 0 -134 46t-46 124v348h-129l-39 -374q-15 -144 -116 -144q-48 0 -89 72l12 63q47 -61 68 -61q37 0 47 86l39 358h-101q-47 0 -68.5 -21.5t-21.5 -45.5
t6 -43l-34 -8q-33 69 -33 143t39 124t118 50h594q47 0 69 21t22 47t-7 45l37 8q43 -98 43 -168z" />
    <glyph glyph-name="endash" unicode="&#x2013;" horiz-adv-x="1075" 
d="M-2 340v158h1077v-158h-1077z" />
    <glyph glyph-name="emdash" unicode="&#x2014;" horiz-adv-x="1366" 
d="M-2 340v158h1368v-158h-1368z" />
    <glyph glyph-name="quoteleft" unicode="&#x2018;" horiz-adv-x="514" 
d="M117 1093q0 85 45 128t100 43t93 -38t38 -93.5t-37 -94.5t-92 -39h-10q16 -103 133 -225l-41 -41q-109 68 -169 171.5t-60 188.5z" />
    <glyph glyph-name="quoteright" unicode="&#x2019;" horiz-adv-x="514" 
d="M250 999q-55 0 -92 39.5t-37 93.5t37 93t93 39t101 -43t45 -130t-58 -186.5t-171 -171.5l-41 41q115 119 133 225h-10z" />
    <glyph glyph-name="quotesinglbase" unicode="&#x201a;" horiz-adv-x="598" 
d="M262 -16q-53 0 -91 38t-38 92t37 93t93 39t101.5 -43t45.5 -129t-58.5 -186.5t-171.5 -172.5l-41 41q119 127 133 228h-10z" />
    <glyph glyph-name="quotedblleft" unicode="&#x201c;" horiz-adv-x="888" 
d="M117 1093q0 85 45 128t100 43t93 -38t38 -93.5t-37 -94.5t-92 -39h-10q16 -103 133 -225l-41 -41q-109 68 -169 171.5t-60 188.5zM492 1092q0 86 45 129t101 43t93 -39t37 -93t-37 -93.5t-90 -39.5h-10q16 -104 133 -225l-41 -41q-111 70 -171 171.5t-60 187.5z" />
    <glyph glyph-name="quotedblright" unicode="&#x201d;" horiz-adv-x="888" 
d="M625 999q-53 0 -90 39.5t-37 93.5t37 93t93 39t101 -43t45 -129t-60.5 -187.5t-170.5 -171.5l-41 41q115 119 133 225h-10zM250 999q-55 0 -92 39.5t-37 93.5t37 93t93 39t101 -43t45 -130t-58 -186.5t-171 -171.5l-41 41q115 119 133 225h-10z" />
    <glyph glyph-name="quotedblbase" unicode="&#x201e;" horiz-adv-x="888" 
d="M625 -16q-53 0 -90 38.5t-37 92t37 92.5t93 39t101 -43t45 -128t-60.5 -187.5t-170.5 -172.5l-41 41q115 119 133 228h-10zM250 -16q-53 0 -91 38t-38 92t37 93t93 39t101 -43t45 -129t-58 -186.5t-171 -172.5l-41 41q115 119 133 228h-10z" />
    <glyph glyph-name="dagger" unicode="&#x2020;" horiz-adv-x="917" 
d="M174 719q-45 0 -80 34.5t-35 82t35 82t82 34.5q8 0 25 -4l229 -76l-84 250q-4 20 -4 29q0 45 36 79t82 34t80.5 -35t34.5 -82q0 -8 -4 -25l-84 -250l228 76q20 4 28 4q45 0 79 -35.5t34 -81.5t-35 -81t-82 -35q-8 0 -24 4l-223 72l110 -371l-127 -807h-33l-127 807
l111 373l-225 -74q-16 -4 -27 -4z" />
    <glyph glyph-name="daggerdbl" unicode="&#x2021;" horiz-adv-x="917" 
d="M575 -283q0 -45 -34.5 -79.5t-81.5 -34.5t-82 34.5t-35 79.5q0 8 4 25l84 252l-229 -78q-16 -4 -25 -4q-47 0 -82 35t-35 82t35 81.5t82 34.5q8 0 25 -4l225 -73l-115 364l115 365l-225 -76q-16 -4 -25 -4q-47 0 -82 34.5t-35 82.5t35 83t82 35q8 0 25 -4l229 -78
l-84 252q-4 16 -4 27q0 45 35 80t82 35t81.5 -35t34.5 -82q0 -8 -4 -25l-84 -252l228 78q16 4 26 4q45 0 80 -34.5t35 -82t-35 -82t-82 -34.5q-16 0 -24 2l-223 74l114 -361l-114 -364l223 71q20 4 28 4q45 0 79 -35.5t34 -80.5t-36 -81t-81 -36q-8 0 -24 4l-228 78l84 -252
q4 -16 4 -25z" />
    <glyph glyph-name="bullet" unicode="&#x2022;" horiz-adv-x="620" 
d="M516 471q0 -86 -59.5 -145.5t-145.5 -59.5t-145.5 59.5t-59.5 145.5t59.5 145.5t145.5 59.5t145.5 -59.5t59.5 -145.5z" />
    <glyph glyph-name="ellipsis" unicode="&#x2026;" horiz-adv-x="1835" 
d="M1499 -16q-53 0 -91 38t-38 92t37 93t91 39t93 -39t39 -92.5t-39 -92t-92 -38.5zM901 -16q-53 0 -90 38.5t-37 92t37 92.5t90 39t92 -39t39 -92.5t-39 -92t-92 -38.5zM304 -16q-54 0 -91 38.5t-37 92t37 92.5t90 39t93 -38t40 -92t-39 -93t-93 -39z" />
    <glyph glyph-name="perthousand" unicode="&#x2030;" horiz-adv-x="2320" 
d="M1894 477q-64 0 -98.5 -65.5t-34.5 -149.5t35 -149.5t100.5 -65.5t100.5 65.5t35 148.5t-37 149.5t-101 66.5zM1896.5 -33q-139.5 0 -237.5 86t-98 208t98 208t237.5 86t237.5 -86t98 -208t-98 -208t-237.5 -86zM1136 477q-64 0 -99.5 -65.5t-35.5 -149.5t35 -149.5
t100.5 -65.5t100.5 65.5t35 148.5t-36 149.5t-100 66.5zM1136.5 -33q-139.5 0 -237.5 86t-98 208t98 208t237.5 86t238 -86t98.5 -208t-98.5 -208t-238 -86zM446 -37l-81 43l757 1264l80 -45zM426 1184q-66 0 -100.5 -65.5t-34.5 -148.5t35.5 -149.5t99 -66.5t98.5 65.5
t35 150.5t-33.5 149.5t-99.5 64.5zM426 676q-139 0 -238.5 86t-99.5 208t98.5 208t238.5 86t238.5 -86t98.5 -208t-98.5 -208t-237.5 -86z" />
    <glyph glyph-name="guilsinglleft" unicode="&#x2039;" horiz-adv-x="1024" 
d="M846 102l-692 447l692 444l31 -45l-359 -399l359 -399z" />
    <glyph glyph-name="guilsinglright" unicode="&#x203a;" horiz-adv-x="1024" 
d="M180 102l-33 48l359 399l-359 399l33 45l690 -444z" />
    <glyph glyph-name="trademark" unicode="&#x2122;" horiz-adv-x="2074" 
d="M1210 700q0 -137 27 -176t119 -39v-55h-377v55q92 0 117.5 39t25.5 176v258q0 139 -25.5 177.5t-117.5 38.5v55h346l221 -518l223 518h302v-55q-94 0 -120 -38t-26 -178v-258q0 -137 26.5 -176t119.5 -39v-55h-465v55q94 0 119.5 38t25.5 177v285l-252 -586h-24l-265 613
v-312zM324 1143q-121 0 -160 -23.5t-55 -95.5l-11 -37h-53l12 242h820l14 -242h-55l-11 37q-16 72 -53 95.5t-160 23.5h-32v-443q0 -137 26.5 -176t120.5 -39v-55h-516v55q94 0 119.5 38t25.5 177v443h-32z" />
    <glyph glyph-name="partialdiff" unicode="&#x2202;" horiz-adv-x="1091" 
d="M549 635q-176 -1 -176 -285t153 -284q82 0 139.5 107.5t57.5 395.5q-20 31 -71.5 48.5t-102.5 17.5zM549 733q111 0 174 -53q0 217 -58.5 361.5t-191.5 144.5q-88 0 -156.5 -71t-84.5 -71t-37 13.5t-21 42.5q0 57 90 113.5t211 56.5q223 0 355.5 -221t132.5 -521
t-136.5 -431.5t-301.5 -131.5t-285.5 112.5t-120.5 271.5t129 271.5t301 112.5z" />
    <glyph glyph-name="Delta" unicode="&#x2206;" horiz-adv-x="1157" 
d="M559 1264h62l444 -1264h-973zM795 106l-269 768l-284 -768h553z" />
    <glyph glyph-name="product" unicode="&#x220f;" horiz-adv-x="1501" 
d="M512 299q0 -156 34 -198t163 -42v-59h-631v59q125 0 159.5 43t34.5 197v631q0 156 -33.5 197.5t-160.5 41.5v60h1347v-60q-127 0 -161.5 -43t-34.5 -196v-631q0 -156 33.5 -198t162.5 -42v-59h-630v59q125 0 159.5 43t34.5 197v823h-477v-823z" />
    <glyph glyph-name="fraction" unicode="&#x2215;" horiz-adv-x="712" 
d="M27 -37l-97 51l756 1256l98 -53z" />
    <glyph glyph-name="periodcentered" unicode="&#x2219;" horiz-adv-x="579" 
d="M289 346q-53 0 -91 38t-38 93t37 94t91 39t93 -39t39 -93t-39 -93t-92 -39z" />
    <glyph glyph-name="radical" unicode="&#x221a;" horiz-adv-x="1124" 
d="M424 672l156 -387l458 1233h101l-582 -1563h-49l-266 635z" />
    <glyph glyph-name="infinity" unicode="&#x221e;" horiz-adv-x="1460" 
d="M256 661.5q0 -55.5 36 -93.5t88 -38t118.5 51.5t95.5 80.5q-140 133 -202 133t-99 -39t-37 -94.5zM805 662q169 -132 245 -132q44 0 81.5 39t37.5 93t-35 93.5t-87 39.5t-121.5 -47.5t-120.5 -85.5zM1033 395q-130 0 -318 176q-74 -68 -166 -122t-160 -54
q-123 0 -199.5 77t-76.5 191t75.5 189.5t200.5 75.5q70 0 158 -50.5t168 -123.5q76 70 165 122t158 52q121 0 198 -77t77 -189.5t-75 -189.5t-205 -77z" />
    <glyph glyph-name="integral" unicode="&#x222b;" horiz-adv-x="587" 
d="M88 -547q-152 0 -233.5 62.5t-81.5 132.5t67 69q51 0 86 -90t107 -90t106.5 68.5t34.5 251.5v991q0 416 346 416q117 0 187.5 -56.5t70.5 -124.5q0 -35 -20.5 -59.5t-57.5 -24.5q-61 0 -96 90.5t-93 90.5t-81.5 -52.5t-23.5 -191.5v-1096q0 -201 -83 -294t-235 -93z" />
    <glyph glyph-name="approxequal" unicode="&#x2248;" 
d="M332 262q-74 0 -137 -69v172q25 23 57.5 45t77.5 22t140 -33.5t134 -33.5q76 0 137 67v-170q-25 -25 -56.5 -47t-76.5 -22t-139 34.5t-137 34.5zM332 535q-77 0 -137 -68v170q25 23 57.5 45.5t77.5 22.5t140 -34t134 -34q77 0 137 68v-170q-25 -23 -57.5 -45.5
t-77.5 -22.5t-140 34t-134 34z" />
    <glyph glyph-name="notequal" unicode="&#x2260;" 
d="M768 381v-160h-391l-113 -172l-94 55l78 117h-78v160h182l84 131h-266v160h371l133 205l94 -58l-96 -147h96v-160h-201l-86 -131h287z" />
    <glyph glyph-name="lessequal" unicode="&#x2264;" 
d="M776 240l-674 309l674 307l33 -45l-342 -262l342 -262zM836 0h-734v141h734v-141z" />
    <glyph glyph-name="greaterequal" unicode="&#x2265;" 
d="M102 0v141h734v-141h-734zM162 240l-33 47l342 262l-342 262l33 45l674 -307z" />
    <glyph glyph-name="lozenge" unicode="&#x25ca;" horiz-adv-x="1011" 
d="M778 606l-266 465l-268 -465l268 -487zM905 604l-393 -698l-393 698l393 678z" />
    <glyph glyph-name="apple" unicode="&#xf000;" horiz-adv-x="0" 
 />
    <glyph glyph-name="fi" unicode="&#xf001;" horiz-adv-x="1368" 
d="M1163 682v-383q0 -154 29 -197t133 -43v-59h-555v59q102 0 132 44t30 196v55q0 154 -29 196t-133 42h-313v-293q0 -154 28.5 -197t132.5 -43v-59h-555v59q102 0 132 44t30 196v293h-168v90h168v143q0 215 118 327t284 112t264 -64.5t98 -177.5q0 -35 -26.5 -63.5
t-65.5 -28.5q-68 0 -98.5 125t-147.5 125q-86 0 -140 -63.5t-54 -190.5v-244h706z" />
    <glyph glyph-name="fl" unicode="&#xf002;" horiz-adv-x="1296" 
d="M457 936v-254h205v-90h-205v-293q0 -154 28.5 -197t132.5 -43v-59h-555v59q102 0 132 44t30 196v293h-168v90h168v166q0 416 365 416h518v-965q0 -154 28.5 -197t133.5 -43v-59h-555v59q102 0 132 44t30 196v590q0 164 -32 227.5t-130 63.5h-131q-74 0 -100.5 -56.5
t-26.5 -187.5z" />
    <glyph glyph-name="Lslash" horiz-adv-x="1296" 
d="M528 332q0 -156 34 -198t163 -42h236q131 0 173 33t64 123l10 41h60l-17 -289h-1173v59q125 0 159.5 43t34.5 197v209l-131 -88l-51 76l182 122v312q0 156 -33.5 197.5t-160.5 41.5v60h647v-60q-127 0 -162 -43t-35 -196v-139l127 86l54 -76l-181 -119v-350z" />
    <glyph glyph-name="lslash" horiz-adv-x="606" 
d="M418 299q0 -154 28.5 -197t133.5 -43v-59h-553v59q102 0 131.5 44t29.5 196v217l-141 -96l-53 76l194 129v288q0 154 -28.5 197t-132.5 43v59l391 52v-484l141 97l53 -76l-194 -131v-371z" />
    <glyph glyph-name="Scaron" horiz-adv-x="1019" 
d="M100 -35v451h60q32 -162 140 -260t239 -99q94 -1 149 51t55 152q0 58 -40 114t-111 93l-197 102q-141 72 -209 158t-68 221q0 136 103 226q102 90 254 90q84 0 138 -22t112 -62q44 35 59 94h58v-451h-60q-12 147 -81 249t-214 102q-69 0 -117 -46t-48 -108t42 -120
t121 -99l197 -101q120 -61 192 -153t72 -209q0 -162 -122 -267t-285 -106q-92 0 -204 48t-116 48q-48 -38 -59 -96h-60zM514 1380l-295 318l33 28l262 -170l262 170l31 -28z" />
    <glyph glyph-name="scaron" horiz-adv-x="716" 
d="M397 -35q-65 0 -139 33t-84 33q-29 0 -29 -66h-59v299h59q0 -74 76 -144t174 -69q49 0 78 23t29 57q0 59 -131 121l-115 51q-76 35 -115 91t-39 118q0 104 75 154t147 51q72 0 120 -12q47 -12 97 -25q25 0 24 37h60v-238h-60q0 63 -59 109q-60 46 -116 47
q-114 0 -114 -70q0 -39 44 -63t98 -49l100 -47q74 -36 116 -92t42 -117q0 -113 -83 -173t-196 -59zM356 836l-295 317l33 29l262 -170l262 170l31 -29z" />
    <glyph glyph-name="Zcaron" horiz-adv-x="1212" 
d="M401 1153q-131 0 -173 -33t-64 -121l-10 -41h-43l18 271h907v-45l-641 -1108h396q131 0 172 32t65 123l10 41h43l-18 -272h-975v49l635 1104h-322zM600 1380l-295 318l33 28l262 -170l262 170l31 -28z" />
    <glyph glyph-name="zcaron" horiz-adv-x="681" 
d="M358 82q133 0 176 26q42 26 60 95l10 41h43l-16 -244h-594v35l307 565h-12q-135 0 -176 -25t-60 -96l-10 -41h-43l14 244h568v-33l-306 -567h39zM336 836l-295 317l33 29l262 -170l262 170l31 -29z" />
    <glyph glyph-name="brokenbar" horiz-adv-x="432" 
d="M262 0h-92v614h92v-614zM262 836h-92v614h92v-614z" />
    <glyph glyph-name="Eth" horiz-adv-x="1460" 
d="M86 551v125h186v254q0 156 -33.5 197.5t-160.5 41.5v60h676q338 0 510 -171.5t172 -443.5t-170 -443t-512 -171h-676v59q125 0 159.5 43t34.5 197v252h-186zM717 676v-125h-189v-227q0 -152 34 -192t163 -40h20q223 0 311.5 152.5t88.5 370.5t-87 370t-313 152h-217v-461
h189z" />
    <glyph glyph-name="glyph234" horiz-adv-x="1091" 
d="M476 1270q128 0 237 -88l161 121l58 -76l-154 -115q88 -104 134 -253.5t46 -313.5q0 -317 -136 -448.5t-302 -131.5t-286.5 112.5t-120.5 271.5t129 271.5t301 112.5q112 0 176 -53q0 197 -57 346l-242 -180l-55 76l249 188q-55 76 -144 76t-157.5 -71t-86.5 -71
t-38 13.5t-20 42.5q0 57 90 113.5t218 56.5zM543 635q-82 0 -129 -70.5t-47 -208.5t35.5 -214t118.5 -76t140.5 106.5t57.5 396.5q-20 31 -71.5 48.5t-104.5 17.5z" />
    <glyph glyph-name="Yacute" horiz-adv-x="1296" 
d="M774 299q0 -156 34 -198t161 -42v-59h-639v59q127 0 162 43t34 197v242l-297 448q-72 109 -130 145t-167 35v60h695v-60q-145 0 -146 -67q0 -35 37 -88l230 -346l229 346q41 59 41 94q0 61 -152 61v60h496v-60q-121 -1 -172 -35t-123 -145l-293 -442v-248zM1083 1534
l-366 -154l-12 19l247 231q68 60 110 61t62 -24q44 -54 1 -99q-19 -22 -42 -34z" />
    <glyph glyph-name="yacute" horiz-adv-x="733" 
d="M149 -553q-28 0 -54 17q-68 44 38 153q63 66 92 137l88 217l-245 549q-43 102 -136 103v59h449v-59q-86 0 -86 -45q0 -20 18 -58l119 -266l111 266q16 43 16 60q0 43 -76 43v59h303v-59q-102 0 -145 -103l-412 -997q-16 -35 -34 -55t-46 -21zM772 1068q0 -50 -61 -81
l-367 -153l-12 18l248 231q38 33 62 47t56 14t54 -24q20 -26 20 -52z" />
    <glyph glyph-name="Thorn" horiz-adv-x="1044" 
d="M569 -35q-98 0 -168 62v-240q0 -154 29 -197t133 -43v-59h-555v59q102 0 132 44t30 196v1126q0 154 -29 197t-133 43v59l393 52v-607q77 60 168 60q170 0 271.5 -107.5t101.5 -268.5t-101.5 -268.5t-271.5 -107.5zM548 621q-66 0 -106.5 -50.5t-40.5 -130.5v-198
q0 -78 41 -129.5t106 -51.5t104.5 80t39.5 202t-39 200t-105 78z" />
    <glyph glyph-name="thorn" horiz-adv-x="1224" 
d="M903 630.5q0 110.5 -67.5 182.5t-194.5 72h-113v-508h113q127 0 194.5 71.5t67.5 182zM764 977q186 0 300 -99.5t114 -247.5t-113 -246.5t-301 -98.5h-236q0 -145 35 -185.5t162 -40.5v-59h-647v59q125 0 159.5 43t34.5 197v631q0 156 -33.5 197.5t-160.5 41.5v60h647
v-60q-119 0 -158 -36.5t-39 -155.5h236z" />
    <glyph glyph-name="minus" 
d="M170 375v157h598v-157h-598z" />
    <glyph glyph-name="multiply" horiz-adv-x="0" 
 />
    <glyph glyph-name="onesuperior" horiz-adv-x="688" 
d="M137 596v55q70 0 90.5 30t20.5 134v191q0 98 -27.5 125.5t-109.5 27.5v55l333 48v-447q0 -102 20.5 -133t92.5 -31v-55h-420z" />
    <glyph glyph-name="twosuperior" horiz-adv-x="688" 
d="M74 1061q0 84 67.5 143.5t178 59.5t192.5 -56.5t82 -135.5t-33 -131t-90 -93l-182 -127h325l-18 -133h-512v45l270 260q72 68 72 149q0 127 -129 127q-47 0 -81 -28.5t-34 -74.5t29 -95l-55 -51q-82 57 -82 141z" />
    <glyph glyph-name="threesuperior" horiz-adv-x="688" 
d="M350 553q-118 0 -185 47t-67 92q0 39 52 39q20 0 61 -53t113 -53t102.5 43t30.5 101q0 108 -117 138l-33 -47q-19 -35 -41 -35q-42 0 -43 37q0 20 17 37l157 162h-114q-111 0 -129 -76l-11 -37h-45l37 281h475v-47l-184 -178q78 -20 139.5 -90t61.5 -151t-79.5 -145.5
t-197.5 -64.5z" />
    <glyph glyph-name="onehalf" horiz-adv-x="1546" 
d="M909 474q0 83 67.5 142.5t179.5 59.5t193 -55.5t81 -135.5q0 -139 -123 -223l-183 -129h326l-18 -133h-512v47l272 258q72 70 72 152q0 125 -131 125q-47 0 -80 -29t-33 -73t27 -95l-56 -51q-82 57 -82 140zM137 596v55q70 0 90.5 30t20.5 134v191q0 98 -27.5 125.5
t-109.5 27.5v55l333 48v-447q0 -102 20.5 -133t92.5 -31v-55h-420zM416 -37l-80 43l756 1264l82 -45z" />
    <glyph glyph-name="onequarter" horiz-adv-x="1546" 
d="M137 596v55q70 0 90.5 30t20.5 134v191q0 98 -27.5 125.5t-109.5 27.5v55l333 48v-447q0 -102 20.5 -133t92.5 -31v-55h-420zM416 -37l-80 43l756 1264l82 -45zM1100 274v177l-156 -177h156zM1288 190q0 -82 21.5 -105.5t95.5 -23.5v-61h-424v61q74 0 96.5 25t22.5 104
h-283v52l400 452h71v-420q45 0 68.5 21.5t40.5 85.5l8 35h59l-12 -226h-164z" />
    <glyph glyph-name="threequarters" horiz-adv-x="1546" 
d="M442 -37l-80 43l756 1264l80 -45zM1100 274v177l-156 -177h156zM1288 190q0 -82 21.5 -105.5t95.5 -23.5v-61h-424v61q74 0 96.5 25t22.5 104h-283v52l400 452h71v-420q45 0 68.5 21.5t40.5 85.5l8 35h59l-12 -226h-164zM350 553q-118 0 -185 47t-67 92q0 39 52 39
q20 0 61 -53t113 -53t102.5 43t30.5 101q0 108 -117 138l-33 -47q-19 -35 -41 -35q-42 0 -43 37q0 20 17 37l157 162h-114q-111 0 -129 -76l-11 -37h-45l37 281h475v-47l-184 -178q78 -20 139.5 -90t61.5 -151t-79.5 -145.5t-197.5 -64.5z" />
  </font>
</defs>
</svg>
